<?xml version="1.0" encoding="UTF-8" standalone="no"?>
<!DOCTYPE svg PUBLIC "-//W3C//DTD SVG 1.1//EN"
 "http://www.w3.org/Graphics/SVG/1.1/DTD/svg11.dtd">
<!-- Generated by graphviz version 2.36.0 (20140111.2315)
 -->
<!-- Title: SearchBox Pages: 1 -->
<svg width="164pt" height="104pt"
 viewBox="0.00 0.00 164.00 104.00" xmlns="http://www.w3.org/2000/svg" xmlns:xlink="http://www.w3.org/1999/xlink">
<g id="graph0" class="graph" transform="scale(1 1) rotate(0) translate(4 100)">
<title>SearchBox</title>
<polygon fill="white" stroke="none" points="-4,4 -4,-100 160,-100 160,4 -4,4"/>
<!-- Node1 -->
<g id="node1" class="node"><title>Node1</title>
<polygon fill="#bfbfbf" stroke="black" points="0.5,-38.5 0.5,-57.5 65.5,-57.5 65.5,-38.5 0.5,-38.5"/>
<text text-anchor="middle" x="33" y="-45.5" font-family="Helvetica,sans-Serif" font-size="10.00">SearchBox</text>
</g>
<!-- Node2 -->
<g id="node2" class="node"><title>Node2</title>
<g id="a_node2"><a xlink:href="../../d2/d19/search_8js.html#a76d24aea0009f892f8ccc31d941c0a2b" target="_top" xlink:title="getXPos">
<polygon fill="white" stroke="black" points="102,-76.5 102,-95.5 156,-95.5 156,-76.5 102,-76.5"/>
<text text-anchor="middle" x="129" y="-83.5" font-family="Helvetica,sans-Serif" font-size="10.00">getXPos</text>
</a>
</g>
</g>
<!-- Node1&#45;&gt;Node2 -->
<g id="edge1" class="edge"><title>Node1&#45;&gt;Node2</title>
<path fill="none" stroke="midnightblue" d="M57.7202,-57.589C68.9641,-62.1344 82.5861,-67.6412 94.8326,-72.5919"/>
<polygon fill="midnightblue" stroke="midnightblue" points="93.7045,-75.911 104.287,-76.4141 96.3281,-69.4212 93.7045,-75.911"/>
</g>
<!-- Node3 -->
<g id="node3" class="node"><title>Node3</title>
<g id="a_node3"><a xlink:href="../../d2/d19/search_8js.html#a8d7b405228661d7b6216b6925d2b8a69" target="_top" xlink:title="getYPos">
<polygon fill="white" stroke="black" points="102,-38.5 102,-57.5 156,-57.5 156,-38.5 102,-38.5"/>
<text text-anchor="middle" x="129" y="-45.5" font-family="Helvetica,sans-Serif" font-size="10.00">getYPos</text>
</a>
</g>
</g>
<!-- Node1&#45;&gt;Node3 -->
<g id="edge2" class="edge"><title>Node1&#45;&gt;Node3</title>
<path fill="none" stroke="midnightblue" d="M65.5621,-48C73.98,-48 83.1412,-48 91.7875,-48"/>
<polygon fill="midnightblue" stroke="midnightblue" points="91.9942,-51.5001 101.994,-48 91.9941,-44.5001 91.9942,-51.5001"/>
</g>
<!-- Node4 -->
<g id="node4" class="node"><title>Node4</title>
<g id="a_node4"><a xlink:href="../../d5/de7/jquery_8js.html#a9db6d45a025ad692282fe23e69eeba43" target="_top" xlink:title="if">
<polygon fill="white" stroke="black" points="114.5,-0.5 114.5,-19.5 143.5,-19.5 143.5,-0.5 114.5,-0.5"/>
<text text-anchor="middle" x="129" y="-7.5" font-family="Helvetica,sans-Serif" font-size="10.00">if</text>
</a>
</g>
</g>
<!-- Node1&#45;&gt;Node4 -->
<g id="edge3" class="edge"><title>Node1&#45;&gt;Node4</title>
<path fill="none" stroke="midnightblue" d="M57.7202,-38.411C72.1628,-32.5725 90.529,-25.1478 104.864,-19.3529"/>
<polygon fill="midnightblue" stroke="midnightblue" points="106.516,-22.4601 114.476,-15.4672 103.893,-15.9703 106.516,-22.4601"/>
</g>
</g>
</svg>
