<?xml version="1.0" encoding="UTF-8" standalone="no"?>
<!DOCTYPE svg PUBLIC "-//W3C//DTD SVG 1.1//EN"
 "http://www.w3.org/Graphics/SVG/1.1/DTD/svg11.dtd">
<!-- Generated by graphviz version 2.36.0 (20140111.2315)
 -->
<!-- Title: SearchResults Pages: 1 -->
<svg width="194pt" height="66pt"
 viewBox="0.00 0.00 194.00 66.00" xmlns="http://www.w3.org/2000/svg" xmlns:xlink="http://www.w3.org/1999/xlink">
<g id="graph0" class="graph" transform="scale(1 1) rotate(0) translate(4 62)">
<title>SearchResults</title>
<polygon fill="white" stroke="none" points="-4,4 -4,-62 190,-62 190,4 -4,4"/>
<!-- Node1 -->
<g id="node1" class="node"><title>Node1</title>
<polygon fill="#bfbfbf" stroke="black" points="0.5,-19.5 0.5,-38.5 81.5,-38.5 81.5,-19.5 0.5,-19.5"/>
<text text-anchor="middle" x="41" y="-26.5" font-family="Helvetica,sans-Serif" font-size="10.00">SearchResults</text>
</g>
<!-- Node2 -->
<g id="node2" class="node"><title>Node2</title>
<g id="a_node2"><a xlink:href="../../d2/d19/search_8js.html#a196a29bd5a5ee7cd5b485e0753a49e57" target="_top" xlink:title="convertToId">
<polygon fill="white" stroke="black" points="118,-38.5 118,-57.5 186,-57.5 186,-38.5 118,-38.5"/>
<text text-anchor="middle" x="152" y="-45.5" font-family="Helvetica,sans-Serif" font-size="10.00">convertToId</text>
</a>
</g>
</g>
<!-- Node1&#45;&gt;Node2 -->
<g id="edge1" class="edge"><title>Node1&#45;&gt;Node2</title>
<path fill="none" stroke="midnightblue" d="M81.6598,-35.9132C90.235,-37.4079 99.3407,-38.9952 108.036,-40.5108"/>
<polygon fill="midnightblue" stroke="midnightblue" points="107.546,-43.9781 117.998,-42.2474 108.748,-37.0821 107.546,-43.9781"/>
</g>
<!-- Node3 -->
<g id="node3" class="node"><title>Node3</title>
<g id="a_node3"><a xlink:href="../../d5/de7/jquery_8js.html#a9db6d45a025ad692282fe23e69eeba43" target="_top" xlink:title="if">
<polygon fill="white" stroke="black" points="137.5,-0.5 137.5,-19.5 166.5,-19.5 166.5,-0.5 137.5,-0.5"/>
<text text-anchor="middle" x="152" y="-7.5" font-family="Helvetica,sans-Serif" font-size="10.00">if</text>
</a>
</g>
</g>
<!-- Node1&#45;&gt;Node3 -->
<g id="edge2" class="edge"><title>Node1&#45;&gt;Node3</title>
<path fill="none" stroke="midnightblue" d="M81.6598,-22.0868C96.8775,-19.4342 113.766,-16.4903 127.066,-14.172"/>
<polygon fill="midnightblue" stroke="midnightblue" points="128.027,-17.5572 137.278,-12.3919 126.825,-10.6612 128.027,-17.5572"/>
</g>
</g>
</svg>
