<?xml version="1.0" encoding="UTF-8" standalone="no"?>
<!DOCTYPE svg PUBLIC "-//W3C//DTD SVG 1.1//EN"
 "http://www.w3.org/Graphics/SVG/1.1/DTD/svg11.dtd">
<!-- Generated by graphviz version 2.36.0 (20140111.2315)
 -->
<!-- Title: toggleLevel Pages: 1 -->
<svg width="188pt" height="66pt"
 viewBox="0.00 0.00 188.00 66.00" xmlns="http://www.w3.org/2000/svg" xmlns:xlink="http://www.w3.org/1999/xlink">
<g id="graph0" class="graph" transform="scale(1 1) rotate(0) translate(4 62)">
<title>toggleLevel</title>
<polygon fill="white" stroke="none" points="-4,4 -4,-62 184,-62 184,4 -4,4"/>
<!-- Node1 -->
<g id="node1" class="node"><title>Node1</title>
<polygon fill="#bfbfbf" stroke="black" points="0,-19.5 0,-38.5 66,-38.5 66,-19.5 0,-19.5"/>
<text text-anchor="middle" x="33" y="-26.5" font-family="Helvetica,sans-Serif" font-size="10.00">toggleLevel</text>
</g>
<!-- Node2 -->
<g id="node2" class="node"><title>Node2</title>
<g id="a_node2"><a xlink:href="../../d5/de7/jquery_8js.html#a871ff39db627c54c710a3e9909b8234c" target="_top" xlink:title="each">
<polygon fill="white" stroke="black" points="122,-38.5 122,-57.5 160,-57.5 160,-38.5 122,-38.5"/>
<text text-anchor="middle" x="141" y="-45.5" font-family="Helvetica,sans-Serif" font-size="10.00">each</text>
</a>
</g>
</g>
<!-- Node1&#45;&gt;Node2 -->
<g id="edge1" class="edge"><title>Node1&#45;&gt;Node2</title>
<path fill="none" stroke="midnightblue" d="M66.0912,-34.7522C80.6583,-37.3633 97.7353,-40.4242 111.802,-42.9457"/>
<polygon fill="midnightblue" stroke="midnightblue" points="111.421,-46.433 121.881,-44.7523 112.656,-39.5428 111.421,-46.433"/>
</g>
<!-- Node3 -->
<g id="node3" class="node"><title>Node3</title>
<g id="a_node3"><a xlink:href="../../d7/dc3/dynsections_8js.html#a8f7493ad859d4fbf2523917511ee7177" target="_top" xlink:title="updateStripes">
<polygon fill="white" stroke="black" points="102.5,-0.5 102.5,-19.5 179.5,-19.5 179.5,-0.5 102.5,-0.5"/>
<text text-anchor="middle" x="141" y="-7.5" font-family="Helvetica,sans-Serif" font-size="10.00">updateStripes</text>
</a>
</g>
</g>
<!-- Node1&#45;&gt;Node3 -->
<g id="edge2" class="edge"><title>Node1&#45;&gt;Node3</title>
<path fill="none" stroke="midnightblue" d="M66.0912,-23.2478C74.4144,-21.7559 83.5571,-20.1171 92.4895,-18.516"/>
<polygon fill="midnightblue" stroke="midnightblue" points="93.2046,-21.9437 102.43,-16.7342 91.9695,-15.0535 93.2046,-21.9437"/>
</g>
</g>
</svg>
