<?xml version="1.0" encoding="UTF-8" standalone="no"?>
<!DOCTYPE svg PUBLIC "-//W3C//DTD SVG 1.1//EN"
 "http://www.w3.org/Graphics/SVG/1.1/DTD/svg11.dtd">
<!-- Generated by graphviz version 2.40.1 (20161225.0304)
 -->
<!-- Title: getTimeOffsetOverSerial Pages: 1 -->
<svg width="407pt" height="103pt"
 viewBox="0.00 0.00 407.00 103.00" xmlns="http://www.w3.org/2000/svg" xmlns:xlink="http://www.w3.org/1999/xlink">
<g id="graph0" class="graph" transform="scale(1 1) rotate(0) translate(4 99)">
<title>getTimeOffsetOverSerial</title>
<polygon fill="#ffffff" stroke="transparent" points="-4,4 -4,-99 402.999,-99 402.999,4 -4,4"/>
<!-- Node16 -->
<g id="node1" class="node">
<title>Node16</title>
<polygon fill="#bfbfbf" stroke="#000000" points="0,-38.5 0,-56.5 125.4922,-56.5 125.4922,-38.5 0,-38.5"/>
<text text-anchor="middle" x="62.7461" y="-44.5" font-family="Helvetica,sans-Serif" font-size="10.00" fill="#000000">getTimeOffsetOverSerial</text>
</g>
<!-- Node17 -->
<g id="node2" class="node">
<title>Node17</title>
<g id="a_node2"><a xlink:href="../../df/d28/pps-serial_8cpp.html#ad914c0cc98dcf40ed1f95659587b32bd" target="_top" xlink:title="waitForGPSmessages">
<polygon fill="#ffffff" stroke="#000000" points="172.3271,-76.5 172.3271,-94.5 287.8047,-94.5 287.8047,-76.5 172.3271,-76.5"/>
<text text-anchor="middle" x="230.0659" y="-82.5" font-family="Helvetica,sans-Serif" font-size="10.00" fill="#000000">waitForGPSmessages</text>
</a>
</g>
</g>
<!-- Node16&#45;&gt;Node17 -->
<g id="edge1" class="edge">
<title>Node16&#45;&gt;Node17</title>
<path fill="none" stroke="#191970" d="M102.3986,-56.5055C125.7559,-61.8102 155.5113,-68.5679 180.4188,-74.2247"/>
<polygon fill="#191970" stroke="#191970" points="179.8816,-77.6917 190.4085,-76.4934 181.432,-70.8655 179.8816,-77.6917"/>
</g>
<!-- Node18 -->
<g id="node3" class="node">
<title>Node18</title>
<g id="a_node3"><a xlink:href="../../d0/d3e/pps-files_8cpp.html#ae20c07f56a5b2b05b636f6a0a31ce214" target="_top" xlink:title="writeToLog">
<polygon fill="#ffffff" stroke="#ff0000" points="334.6396,-57.5 334.6396,-75.5 398.999,-75.5 398.999,-57.5 334.6396,-57.5"/>
<text text-anchor="middle" x="366.8193" y="-63.5" font-family="Helvetica,sans-Serif" font-size="10.00" fill="#000000">writeToLog</text>
</a>
</g>
</g>
<!-- Node16&#45;&gt;Node18 -->
<g id="edge4" class="edge">
<title>Node16&#45;&gt;Node18</title>
<path fill="none" stroke="#191970" d="M125.7503,-51.4368C185.1515,-55.1485 272.5488,-60.6095 324.1763,-63.8354"/>
<polygon fill="#191970" stroke="#191970" points="324.1176,-67.3385 334.3165,-64.4691 324.5542,-60.3521 324.1176,-67.3385"/>
</g>
<!-- Node21 -->
<g id="node4" class="node">
<title>Node21</title>
<g id="a_node4"><a xlink:href="../../df/d28/pps-serial_8cpp.html#a65b307997cb2a5f37beac28147690f1c" target="_top" xlink:title="getUTCfromGPSmessages">
<polygon fill="#ffffff" stroke="#000000" points="161.4922,-.5 161.4922,-18.5 298.6396,-18.5 298.6396,-.5 161.4922,-.5"/>
<text text-anchor="middle" x="230.0659" y="-6.5" font-family="Helvetica,sans-Serif" font-size="10.00" fill="#000000">getUTCfromGPSmessages</text>
</a>
</g>
</g>
<!-- Node16&#45;&gt;Node21 -->
<g id="edge3" class="edge">
<title>Node16&#45;&gt;Node21</title>
<path fill="none" stroke="#191970" d="M102.3986,-38.4945C125.7559,-33.1898 155.5113,-26.4321 180.4188,-20.7753"/>
<polygon fill="#191970" stroke="#191970" points="181.432,-24.1345 190.4085,-18.5066 179.8816,-17.3083 181.432,-24.1345"/>
</g>
<!-- Node17&#45;&gt;Node18 -->
<g id="edge2" class="edge">
<title>Node17&#45;&gt;Node18</title>
<path fill="none" stroke="#191970" d="M288.0617,-77.4423C300.212,-75.7542 312.81,-74.0038 324.2727,-72.4113"/>
<polygon fill="#191970" stroke="#191970" points="325.0119,-75.8423 334.4351,-70.9993 324.0485,-68.9089 325.0119,-75.8423"/>
</g>
</g>
</svg>
