<?xml version="1.0" encoding="UTF-8" standalone="no"?>
<!DOCTYPE svg PUBLIC "-//W3C//DTD SVG 1.1//EN"
 "http://www.w3.org/Graphics/SVG/1.1/DTD/svg11.dtd">
<!-- Generated by graphviz version 2.40.1 (20161225.0304)
 -->
<!-- Title: setSyncDelay Pages: 1 -->
<svg width="246pt" height="64pt"
 viewBox="0.00 0.00 245.54 64.00" xmlns="http://www.w3.org/2000/svg" xmlns:xlink="http://www.w3.org/1999/xlink">
<g id="graph0" class="graph" transform="scale(1 1) rotate(0) translate(4 60)">
<title>setSyncDelay</title>
<polygon fill="#ffffff" stroke="transparent" points="-4,4 -4,-60 241.541,-60 241.541,4 -4,4"/>
<!-- Node379 -->
<g id="node1" class="node">
<title>Node379</title>
<polygon fill="#bfbfbf" stroke="#000000" points="0,-18.5 0,-36.5 77.1377,-36.5 77.1377,-18.5 0,-18.5"/>
<text text-anchor="middle" x="38.5688" y="-24.5" font-family="Helvetica,sans-Serif" font-size="10.00" fill="#000000">setSyncDelay</text>
</g>
<!-- Node380 -->
<g id="node2" class="node">
<title>Node380</title>
<g id="a_node2"><a xlink:href="../../d5/d60/pps-client_8cpp.html#a4b3bdab744bd7ed860326323fad180f2" target="_top" xlink:title="waitForPPS">
<polygon fill="#ffffff" stroke="#ff0000" points="140.9429,-37.5 140.9429,-55.5 209.7358,-55.5 209.7358,-37.5 140.9429,-37.5"/>
<text text-anchor="middle" x="175.3394" y="-43.5" font-family="Helvetica,sans-Serif" font-size="10.00" fill="#000000">waitForPPS</text>
</a>
</g>
</g>
<!-- Node379&#45;&gt;Node380 -->
<g id="edge1" class="edge">
<title>Node379&#45;&gt;Node380</title>
<path fill="none" stroke="#191970" d="M87.486,-34.2955C105.057,-36.7365 124.4986,-39.4373 140.6164,-41.6763"/>
<polygon fill="#191970" stroke="#191970" points="87.7824,-30.8032 77.3959,-32.8938 86.8192,-37.7366 87.7824,-30.8032"/>
</g>
<!-- Node382 -->
<g id="node3" class="node">
<title>Node382</title>
<g id="a_node3"><a xlink:href="../../d0/d3e/pps-files_8cpp.html#accdd08110477677873a18eea4520eb79" target="_top" xlink:title="showStatusEachSecond">
<polygon fill="#ffffff" stroke="#ff0000" points="113.1377,-.5 113.1377,-18.5 237.541,-18.5 237.541,-.5 113.1377,-.5"/>
<text text-anchor="middle" x="175.3394" y="-6.5" font-family="Helvetica,sans-Serif" font-size="10.00" fill="#000000">showStatusEachSecond</text>
</a>
</g>
</g>
<!-- Node379&#45;&gt;Node382 -->
<g id="edge2" class="edge">
<title>Node379&#45;&gt;Node382</title>
<path fill="none" stroke="#191970" d="M87.3395,-21.0814C95.6958,-19.9817 104.4789,-18.8258 113.1292,-17.6873"/>
<polygon fill="#191970" stroke="#191970" points="86.8537,-17.6151 77.3959,-22.3901 87.7672,-24.5552 86.8537,-17.6151"/>
</g>
</g>
</svg>
