<?xml version="1.0" encoding="UTF-8" standalone="no"?>
<!DOCTYPE svg PUBLIC "-//W3C//DTD SVG 1.1//EN"
 "http://www.w3.org/Graphics/SVG/1.1/DTD/svg11.dtd">
<!-- Generated by graphviz version 2.36.0 (20140111.2315)
 -->
<!-- Title: setDelayTrackers Pages: 1 -->
<svg width="224pt" height="66pt"
 viewBox="0.00 0.00 224.00 66.00" xmlns="http://www.w3.org/2000/svg" xmlns:xlink="http://www.w3.org/1999/xlink">
<g id="graph0" class="graph" transform="scale(1 1) rotate(0) translate(4 62)">
<title>setDelayTrackers</title>
<polygon fill="white" stroke="none" points="-4,4 -4,-62 220,-62 220,4 -4,4"/>
<!-- Node1 -->
<g id="node1" class="node"><title>Node1</title>
<polygon fill="#bfbfbf" stroke="black" points="0,-19.5 0,-38.5 94,-38.5 94,-19.5 0,-19.5"/>
<text text-anchor="middle" x="47" y="-26.5" font-family="Helvetica,sans-Serif" font-size="10.00">setDelayTrackers</text>
</g>
<!-- Node2 -->
<g id="node2" class="node"><title>Node2</title>
<g id="a_node2"><a xlink:href="../../d5/d60/pps-client_8cpp.html#ae0bab7cf61e38b79d3bade19c957735a" target="_top" xlink:title="initialize">
<polygon fill="white" stroke="red" points="147,-38.5 147,-57.5 199,-57.5 199,-38.5 147,-38.5"/>
<text text-anchor="middle" x="173" y="-45.5" font-family="Helvetica,sans-Serif" font-size="10.00">initialize</text>
</a>
</g>
</g>
<!-- Node1&#45;&gt;Node2 -->
<g id="edge1" class="edge"><title>Node1&#45;&gt;Node2</title>
<path fill="none" stroke="midnightblue" d="M104.32,-37.6297C119.138,-39.9001 134.392,-42.2375 146.659,-44.1171"/>
<polygon fill="midnightblue" stroke="midnightblue" points="104.588,-34.1299 94.173,-36.0749 103.528,-41.0492 104.588,-34.1299"/>
</g>
<!-- Node3 -->
<g id="node3" class="node"><title>Node3</title>
<g id="a_node3"><a xlink:href="../../d5/d60/pps-client_8cpp.html#a2a7a8a06f0119359f624d891dbcfa08f" target="_top" xlink:title="integralIsReady">
<polygon fill="white" stroke="red" points="130.5,-0.5 130.5,-19.5 215.5,-19.5 215.5,-0.5 130.5,-0.5"/>
<text text-anchor="middle" x="173" y="-7.5" font-family="Helvetica,sans-Serif" font-size="10.00">integralIsReady</text>
</a>
</g>
</g>
<!-- Node1&#45;&gt;Node3 -->
<g id="edge2" class="edge"><title>Node1&#45;&gt;Node3</title>
<path fill="none" stroke="midnightblue" d="M104.32,-20.3703C113.059,-19.0313 121.949,-17.6691 130.289,-16.3912"/>
<polygon fill="midnightblue" stroke="midnightblue" points="103.528,-16.9508 94.173,-21.9251 104.588,-23.8701 103.528,-16.9508"/>
</g>
</g>
</svg>
