<?xml version="1.0" encoding="UTF-8" standalone="no"?>
<!DOCTYPE svg PUBLIC "-//W3C//DTD SVG 1.1//EN"
 "http://www.w3.org/Graphics/SVG/1.1/DTD/svg11.dtd">
<!-- Generated by graphviz version 2.40.1 (20161225.0304)
 -->
<!-- Title: makeTimeCorrection Pages: 1 -->
<svg width="285pt" height="555pt"
 viewBox="0.00 0.00 285.15 555.00" xmlns="http://www.w3.org/2000/svg" xmlns:xlink="http://www.w3.org/1999/xlink">
<g id="graph0" class="graph" transform="scale(1 1) rotate(0) translate(4 551)">
<title>makeTimeCorrection</title>
<polygon fill="#ffffff" stroke="transparent" points="-4,4 -4,-551 281.1455,-551 281.1455,4 -4,4"/>
<!-- Node245 -->
<g id="node1" class="node">
<title>Node245</title>
<polygon fill="#bfbfbf" stroke="#000000" points="0,-259.5 0,-277.5 108.4365,-277.5 108.4365,-259.5 0,-259.5"/>
<text text-anchor="middle" x="54.2183" y="-265.5" font-family="Helvetica,sans-Serif" font-size="10.00" fill="#000000">makeTimeCorrection</text>
</g>
<!-- Node246 -->
<g id="node2" class="node">
<title>Node246</title>
<g id="a_node2"><a xlink:href="../../d5/d60/pps-client_8cpp.html#afc6dfb03768da2fee5b559921e132d4c" target="_top" xlink:title="setClockToNTPtime">
<polygon fill="#ffffff" stroke="#ff0000" points="158.8921,-528.5 158.8921,-546.5 262.6899,-546.5 262.6899,-528.5 158.8921,-528.5"/>
<text text-anchor="middle" x="210.791" y="-534.5" font-family="Helvetica,sans-Serif" font-size="10.00" fill="#000000">setClockToNTPtime</text>
</a>
</g>
</g>
<!-- Node245&#45;&gt;Node246 -->
<g id="edge1" class="edge">
<title>Node245&#45;&gt;Node246</title>
<path fill="none" stroke="#191970" d="M54.6274,-277.896C56.7527,-314.6984 69.573,-450.4093 144.4365,-519.5 146.1113,-521.0457 147.9055,-522.4609 149.7918,-523.7566"/>
<polygon fill="#191970" stroke="#191970" points="148.1387,-526.8425 158.5685,-528.7052 151.5767,-520.7449 148.1387,-526.8425"/>
</g>
<!-- Node250 -->
<g id="node3" class="node">
<title>Node250</title>
<g id="a_node3"><a xlink:href="../../d5/d60/pps-client_8cpp.html#aa8a57ca976fdc693971281394846cd7e" target="_top" xlink:title="setClockToSerialTime">
<polygon fill="#ffffff" stroke="#ff0000" points="154.627,-491.5 154.627,-509.5 266.9551,-509.5 266.9551,-491.5 154.627,-491.5"/>
<text text-anchor="middle" x="210.791" y="-497.5" font-family="Helvetica,sans-Serif" font-size="10.00" fill="#000000">setClockToSerialTime</text>
</a>
</g>
</g>
<!-- Node245&#45;&gt;Node250 -->
<g id="edge2" class="edge">
<title>Node245&#45;&gt;Node250</title>
<path fill="none" stroke="#191970" d="M55.2754,-277.8773C59.5423,-311.1914 78.5642,-424.9163 144.4365,-482.5 146.1524,-484 147.9815,-485.3763 149.8972,-486.6392"/>
<polygon fill="#191970" stroke="#191970" points="148.3158,-489.7633 158.7706,-491.4802 151.6683,-483.6184 148.3158,-489.7633"/>
</g>
<!-- Node251 -->
<g id="node4" class="node">
<title>Node251</title>
<g id="a_node4"><a xlink:href="../../d5/d60/pps-client_8cpp.html#ae7cdb2055110f6bd75ad5d00c03f3fc5" target="_top" xlink:title="detectExteralSystemClock\lChange">
<polygon fill="#ffffff" stroke="#ff0000" points="144.4365,-444.5 144.4365,-472.5 277.1455,-472.5 277.1455,-444.5 144.4365,-444.5"/>
<text text-anchor="start" x="152.4365" y="-460.5" font-family="Helvetica,sans-Serif" font-size="10.00" fill="#000000">detectExteralSystemClock</text>
<text text-anchor="middle" x="210.791" y="-450.5" font-family="Helvetica,sans-Serif" font-size="10.00" fill="#000000">Change</text>
</a>
</g>
</g>
<!-- Node245&#45;&gt;Node251 -->
<g id="edge3" class="edge">
<title>Node245&#45;&gt;Node251</title>
<path fill="none" stroke="#191970" d="M56.5805,-277.594C64.2691,-305.4183 91.2102,-390.2503 144.4365,-435.5 145.9692,-436.803 147.58,-438.0336 149.2524,-439.1957"/>
<polygon fill="#191970" stroke="#191970" points="147.6726,-442.3289 158.0522,-444.4535 151.263,-436.3198 147.6726,-442.3289"/>
</g>
<!-- Node253 -->
<g id="node5" class="node">
<title>Node253</title>
<g id="a_node5"><a xlink:href="../../d5/d60/pps-client_8cpp.html#a75f33c602a27dd5150efbe4b4389e2da" target="_top" xlink:title="getFractionalSeconds">
<polygon fill="#ffffff" stroke="#000000" points="154.4292,-407.5 154.4292,-425.5 267.1528,-425.5 267.1528,-407.5 154.4292,-407.5"/>
<text text-anchor="middle" x="210.791" y="-413.5" font-family="Helvetica,sans-Serif" font-size="10.00" fill="#000000">getFractionalSeconds</text>
</a>
</g>
</g>
<!-- Node245&#45;&gt;Node253 -->
<g id="edge4" class="edge">
<title>Node245&#45;&gt;Node253</title>
<path fill="none" stroke="#191970" d="M57.9069,-277.7061C67.9561,-301.5766 98.1975,-365.8715 144.4365,-398.5 146.9402,-400.2667 149.609,-401.8601 152.3846,-403.2972"/>
<polygon fill="#191970" stroke="#191970" points="150.9827,-406.5042 161.5417,-407.3755 153.8308,-400.1097 150.9827,-406.5042"/>
</g>
<!-- Node254 -->
<g id="node6" class="node">
<title>Node254</title>
<g id="a_node6"><a xlink:href="../../d5/d60/pps-client_8cpp.html#a6039744741cd25f2ba1a2e3fa253e766" target="_top" xlink:title="setClockFractionalSecond">
<polygon fill="#ffffff" stroke="#ff0000" points="144.7075,-370.5 144.7075,-388.5 276.8745,-388.5 276.8745,-370.5 144.7075,-370.5"/>
<text text-anchor="middle" x="210.791" y="-376.5" font-family="Helvetica,sans-Serif" font-size="10.00" fill="#000000">setClockFractionalSecond</text>
</a>
</g>
</g>
<!-- Node245&#45;&gt;Node254 -->
<g id="edge5" class="edge">
<title>Node245&#45;&gt;Node254</title>
<path fill="none" stroke="#191970" d="M60.5039,-277.741C73.7492,-296.4884 106.4568,-339.1071 144.4365,-361.5 147.8103,-363.4892 151.4094,-365.2642 155.1205,-366.8472"/>
<polygon fill="#191970" stroke="#191970" points="153.9202,-370.1351 164.5117,-370.3993 156.3967,-363.5878 153.9202,-370.1351"/>
</g>
<!-- Node255 -->
<g id="node7" class="node">
<title>Node255</title>
<g id="a_node7"><a xlink:href="../../d5/d60/pps-client_8cpp.html#ad71923ccec11a6d6e132c43e60fe8765" target="_top" xlink:title="removeNoise">
<polygon fill="#ffffff" stroke="#ff0000" points="173.3354,-333.5 173.3354,-351.5 248.2466,-351.5 248.2466,-333.5 173.3354,-333.5"/>
<text text-anchor="middle" x="210.791" y="-339.5" font-family="Helvetica,sans-Serif" font-size="10.00" fill="#000000">removeNoise</text>
</a>
</g>
</g>
<!-- Node245&#45;&gt;Node255 -->
<g id="edge6" class="edge">
<title>Node245&#45;&gt;Node255</title>
<path fill="none" stroke="#191970" d="M66.426,-277.6975C83.1982,-289.9443 114.6827,-311.5608 144.4365,-324.5 150.3987,-327.0928 156.8276,-329.3971 163.2548,-331.4183"/>
<polygon fill="#191970" stroke="#191970" points="162.7049,-334.9045 173.2858,-334.3623 164.6762,-328.1878 162.7049,-334.9045"/>
</g>
<!-- Node262 -->
<g id="node8" class="node">
<title>Node262</title>
<g id="a_node8"><a xlink:href="../../d5/d60/pps-client_8cpp.html#a86c229e1f60e3e90ca0a1c6e91841a10" target="_top" xlink:title="getPPStime">
<polygon fill="#ffffff" stroke="#ff0000" points="176.3896,-296.5 176.3896,-314.5 245.1924,-314.5 245.1924,-296.5 176.3896,-296.5"/>
<text text-anchor="middle" x="210.791" y="-302.5" font-family="Helvetica,sans-Serif" font-size="10.00" fill="#000000">getPPStime</text>
</a>
</g>
</g>
<!-- Node245&#45;&gt;Node262 -->
<g id="edge7" class="edge">
<title>Node245&#45;&gt;Node262</title>
<path fill="none" stroke="#191970" d="M92.5203,-277.5512C114.8385,-282.8253 143.0833,-289.4999 166.3736,-295.0036"/>
<polygon fill="#191970" stroke="#191970" points="165.8156,-298.4681 176.3525,-297.3618 167.4255,-291.6557 165.8156,-298.4681"/>
</g>
<!-- Node265 -->
<g id="node9" class="node">
<title>Node265</title>
<g id="a_node9"><a xlink:href="../../d5/d60/pps-client_8cpp.html#a4efd2ecedb34b38cd1000d86ba5f6ef9" target="_top" xlink:title="adjtimex">
<polygon fill="#ffffff" stroke="#000000" points="184.1729,-259.5 184.1729,-277.5 237.4092,-277.5 237.4092,-259.5 184.1729,-259.5"/>
<text text-anchor="middle" x="210.791" y="-265.5" font-family="Helvetica,sans-Serif" font-size="10.00" fill="#000000">adjtimex</text>
</a>
</g>
</g>
<!-- Node245&#45;&gt;Node265 -->
<g id="edge8" class="edge">
<title>Node245&#45;&gt;Node265</title>
<path fill="none" stroke="#191970" d="M108.5404,-268.5C130.0032,-268.5 154.1254,-268.5 173.5482,-268.5"/>
<polygon fill="#191970" stroke="#191970" points="173.8084,-272.0001 183.8084,-268.5 173.8083,-265.0001 173.8084,-272.0001"/>
</g>
<!-- Node266 -->
<g id="node10" class="node">
<title>Node266</title>
<g id="a_node10"><a xlink:href="../../d5/d60/pps-client_8cpp.html#ad4d47fa254fa62368be4b75c2d5a5889" target="_top" xlink:title="getAcquireState">
<polygon fill="#ffffff" stroke="#000000" points="167.2124,-222.5 167.2124,-240.5 254.3696,-240.5 254.3696,-222.5 167.2124,-222.5"/>
<text text-anchor="middle" x="210.791" y="-228.5" font-family="Helvetica,sans-Serif" font-size="10.00" fill="#000000">getAcquireState</text>
</a>
</g>
</g>
<!-- Node245&#45;&gt;Node266 -->
<g id="edge9" class="edge">
<title>Node245&#45;&gt;Node266</title>
<path fill="none" stroke="#191970" d="M92.5203,-259.4488C113.6393,-254.4581 140.0651,-248.2134 162.5781,-242.8933"/>
<polygon fill="#191970" stroke="#191970" points="163.6864,-246.2279 172.6134,-240.5218 162.0765,-239.4155 163.6864,-246.2279"/>
</g>
<!-- Node267 -->
<g id="node11" class="node">
<title>Node267</title>
<g id="a_node11"><a xlink:href="../../d5/d60/pps-client_8cpp.html#a062748b2a1af5a7bb4e0efd94b84f8d1" target="_top" xlink:title="getAverageCorrection">
<polygon fill="#ffffff" stroke="#ff0000" points="154.2412,-185.5 154.2412,-203.5 267.3408,-203.5 267.3408,-185.5 154.2412,-185.5"/>
<text text-anchor="middle" x="210.791" y="-191.5" font-family="Helvetica,sans-Serif" font-size="10.00" fill="#000000">getAverageCorrection</text>
</a>
</g>
</g>
<!-- Node245&#45;&gt;Node267 -->
<g id="edge10" class="edge">
<title>Node245&#45;&gt;Node267</title>
<path fill="none" stroke="#191970" d="M66.7686,-259.337C83.6724,-247.3582 115.0359,-226.3896 144.4365,-213.5 150.2701,-210.9425 156.542,-208.6279 162.8187,-206.5655"/>
<polygon fill="#191970" stroke="#191970" points="164.1038,-209.8317 172.6236,-203.5338 162.0359,-203.1441 164.1038,-209.8317"/>
</g>
<!-- Node269 -->
<g id="node12" class="node">
<title>Node269</title>
<g id="a_node12"><a xlink:href="../../d5/d60/pps-client_8cpp.html#aec269fd5b44aeaa993781dddc42a2b59" target="_top" xlink:title="makeAverageIntegral">
<polygon fill="#ffffff" stroke="#000000" points="155.3521,-148.5 155.3521,-166.5 266.23,-166.5 266.23,-148.5 155.3521,-148.5"/>
<text text-anchor="middle" x="210.791" y="-154.5" font-family="Helvetica,sans-Serif" font-size="10.00" fill="#000000">makeAverageIntegral</text>
</a>
</g>
</g>
<!-- Node245&#45;&gt;Node269 -->
<g id="edge11" class="edge">
<title>Node245&#45;&gt;Node269</title>
<path fill="none" stroke="#191970" d="M60.5542,-259.4043C73.8925,-240.9432 106.7625,-198.931 144.4365,-176.5 148.5324,-174.0613 152.9577,-171.9217 157.511,-170.0472"/>
<polygon fill="#191970" stroke="#191970" points="158.7996,-173.3025 166.9727,-166.5608 156.3793,-166.7342 158.7996,-173.3025"/>
</g>
<!-- Node270 -->
<g id="node13" class="node">
<title>Node270</title>
<g id="a_node13"><a xlink:href="../../d5/d60/pps-client_8cpp.html#a2a7a8a06f0119359f624d891dbcfa08f" target="_top" xlink:title="integralIsReady">
<polygon fill="#ffffff" stroke="#ff0000" points="168.0498,-111.5 168.0498,-129.5 253.5322,-129.5 253.5322,-111.5 168.0498,-111.5"/>
<text text-anchor="middle" x="210.791" y="-117.5" font-family="Helvetica,sans-Serif" font-size="10.00" fill="#000000">integralIsReady</text>
</a>
</g>
</g>
<!-- Node245&#45;&gt;Node270 -->
<g id="edge12" class="edge">
<title>Node245&#45;&gt;Node270</title>
<path fill="none" stroke="#191970" d="M57.9537,-259.4013C68.1157,-235.8027 98.606,-172.1972 144.4365,-139.5 148.657,-136.489 153.3462,-133.953 158.2251,-131.8175"/>
<polygon fill="#191970" stroke="#191970" points="159.6674,-135.0136 167.768,-128.1849 157.1771,-128.4715 159.6674,-135.0136"/>
</g>
<!-- Node272 -->
<g id="node14" class="node">
<title>Node272</title>
<g id="a_node14"><a xlink:href="../../d5/d60/pps-client_8cpp.html#a8696238d80e8a7a4ae44de6de50ab1ce" target="_top" xlink:title="getIntegral">
<polygon fill="#ffffff" stroke="#ff0000" points="179.1631,-74.5 179.1631,-92.5 242.4189,-92.5 242.4189,-74.5 179.1631,-74.5"/>
<text text-anchor="middle" x="210.791" y="-80.5" font-family="Helvetica,sans-Serif" font-size="10.00" fill="#000000">getIntegral</text>
</a>
</g>
</g>
<!-- Node245&#45;&gt;Node272 -->
<g id="edge13" class="edge">
<title>Node245&#45;&gt;Node272</title>
<path fill="none" stroke="#191970" d="M56.4899,-259.3297C63.9178,-231.2958 90.1883,-146.004 144.4365,-102.5 151.5681,-96.7808 160.342,-92.783 169.1459,-89.9885"/>
<polygon fill="#191970" stroke="#191970" points="170.2749,-93.3089 179.0127,-87.3171 168.4455,-86.5522 170.2749,-93.3089"/>
</g>
<!-- Node274 -->
<g id="node15" class="node">
<title>Node274</title>
<g id="a_node15"><a xlink:href="../../d0/d3e/pps-files_8cpp.html#a844fdb2cde0cee3651ece4170fbeb59a" target="_top" xlink:title="recordOffsets">
<polygon fill="#ffffff" stroke="#000000" points="172.8691,-37.5 172.8691,-55.5 248.7129,-55.5 248.7129,-37.5 172.8691,-37.5"/>
<text text-anchor="middle" x="210.791" y="-43.5" font-family="Helvetica,sans-Serif" font-size="10.00" fill="#000000">recordOffsets</text>
</a>
</g>
</g>
<!-- Node245&#45;&gt;Node274 -->
<g id="edge14" class="edge">
<title>Node245&#45;&gt;Node274</title>
<path fill="none" stroke="#191970" d="M55.5336,-259.1842C60.5644,-227.1004 81.5741,-120.1619 144.4365,-65.5 149.7828,-60.8511 156.199,-57.3361 162.9058,-54.6793"/>
<polygon fill="#191970" stroke="#191970" points="164.4668,-57.8485 172.849,-51.3685 162.2554,-51.207 164.4668,-57.8485"/>
</g>
<!-- Node275 -->
<g id="node16" class="node">
<title>Node275</title>
<g id="a_node16"><a xlink:href="../../d0/d3e/pps-files_8cpp.html#af916d258db5da33fc999021de2722283" target="_top" xlink:title="writeSysDelay">
<polygon fill="#ffffff" stroke="#ff0000" points="171.1162,-.5 171.1162,-18.5 250.4658,-18.5 250.4658,-.5 171.1162,-.5"/>
<text text-anchor="middle" x="210.791" y="-6.5" font-family="Helvetica,sans-Serif" font-size="10.00" fill="#000000">writeSysDelay</text>
</a>
</g>
</g>
<!-- Node245&#45;&gt;Node275 -->
<g id="edge15" class="edge">
<title>Node245&#45;&gt;Node275</title>
<path fill="none" stroke="#191970" d="M54.8368,-259.051C57.6993,-223.2441 72.7806,-94.5954 144.4365,-28.5 149.2341,-24.0747 154.9941,-20.6724 161.0897,-18.0581"/>
<polygon fill="#191970" stroke="#191970" points="162.618,-21.2286 170.8546,-14.5647 160.2601,-14.6377 162.618,-21.2286"/>
</g>
</g>
</svg>
