<?xml version="1.0" encoding="UTF-8" standalone="no"?>
<!DOCTYPE svg PUBLIC "-//W3C//DTD SVG 1.1//EN"
 "http://www.w3.org/Graphics/SVG/1.1/DTD/svg11.dtd">
<!-- Generated by graphviz version 2.40.1 (20161225.0304)
 -->
<!-- Title: main Pages: 1 -->
<svg width="519pt" height="517pt"
 viewBox="0.00 0.00 519.15 517.00" xmlns="http://www.w3.org/2000/svg" xmlns:xlink="http://www.w3.org/1999/xlink">
<g id="graph0" class="graph" transform="scale(1 1) rotate(0) translate(4 513)">
<title>main</title>
<polygon fill="#ffffff" stroke="transparent" points="-4,4 -4,-513 515.1533,-513 515.1533,4 -4,4"/>
<!-- Node139 -->
<g id="node1" class="node">
<title>Node139</title>
<polygon fill="#bfbfbf" stroke="#000000" points="0,-244.5 0,-262.5 37.6748,-262.5 37.6748,-244.5 0,-244.5"/>
<text text-anchor="middle" x="18.8374" y="-250.5" font-family="Helvetica,sans-Serif" font-size="10.00" fill="#000000">main</text>
</g>
<!-- Node140 -->
<g id="node2" class="node">
<title>Node140</title>
<g id="a_node2"><a xlink:href="../../d0/d3e/pps-files_8cpp.html#aa3e1b9d34eeedb9b1d03863dee0b8e58" target="_top" xlink:title="accessDaemon">
<polygon fill="#ffffff" stroke="#ff0000" points="80.8916,-490.5 80.8916,-508.5 165.8125,-508.5 165.8125,-490.5 80.8916,-490.5"/>
<text text-anchor="middle" x="123.3521" y="-496.5" font-family="Helvetica,sans-Serif" font-size="10.00" fill="#000000">accessDaemon</text>
</a>
</g>
</g>
<!-- Node139&#45;&gt;Node140 -->
<g id="edge1" class="edge">
<title>Node139&#45;&gt;Node140</title>
<path fill="none" stroke="#191970" d="M20.0477,-262.6485C25.1568,-300.1001 45.9784,-441.3521 73.6748,-475.5 76.7915,-479.3427 80.6731,-482.6118 84.884,-485.3824"/>
<polygon fill="#191970" stroke="#191970" points="83.4135,-488.57 93.8503,-490.3931 86.8284,-482.4595 83.4135,-488.57"/>
</g>
<!-- Node144 -->
<g id="node3" class="node">
<title>Node144</title>
<g id="a_node3"><a xlink:href="../../d0/d3e/pps-files_8cpp.html#a6f609d689ebe787455ce220808ca3ba0" target="_top" xlink:title="bufferStatusMsg">
<polygon fill="#ffffff" stroke="#000000" points="422.5166,-376.5 422.5166,-394.5 511.1533,-394.5 511.1533,-376.5 422.5166,-376.5"/>
<text text-anchor="middle" x="466.835" y="-382.5" font-family="Helvetica,sans-Serif" font-size="10.00" fill="#000000">bufferStatusMsg</text>
</a>
</g>
</g>
<!-- Node139&#45;&gt;Node144 -->
<g id="edge2" class="edge">
<title>Node139&#45;&gt;Node144</title>
<path fill="none" stroke="#191970" d="M20.2207,-262.7688C25.4527,-296.443 45.1904,-411.4352 73.6748,-432.5 187.9911,-517.0392 374.2208,-434.2975 441.5444,-399.3928"/>
<polygon fill="#191970" stroke="#191970" points="443.3831,-402.38 450.5918,-394.6157 440.1146,-396.1898 443.3831,-402.38"/>
</g>
<!-- Node143 -->
<g id="node4" class="node">
<title>Node143</title>
<g id="a_node4"><a xlink:href="../../d0/d3e/pps-files_8cpp.html#ae20c07f56a5b2b05b636f6a0a31ce214" target="_top" xlink:title="writeToLog">
<polygon fill="#ffffff" stroke="#ff0000" points="322.1572,-319.5 322.1572,-337.5 386.5166,-337.5 386.5166,-319.5 322.1572,-319.5"/>
<text text-anchor="middle" x="354.3369" y="-325.5" font-family="Helvetica,sans-Serif" font-size="10.00" fill="#000000">writeToLog</text>
</a>
</g>
</g>
<!-- Node139&#45;&gt;Node143 -->
<g id="edge3" class="edge">
<title>Node139&#45;&gt;Node143</title>
<path fill="none" stroke="#191970" d="M20.7172,-262.5548C27.131,-292.4828 49.1209,-387.2941 73.6748,-404.5 151.2605,-458.8674 200.0927,-427.1013 286.1572,-387.5 307.3543,-377.7465 326.9822,-359.3478 339.6816,-345.6786"/>
<polygon fill="#191970" stroke="#191970" points="342.5841,-347.6838 346.6456,-337.8983 337.3683,-343.0152 342.5841,-347.6838"/>
</g>
<!-- Node155 -->
<g id="node5" class="node">
<title>Node155</title>
<g id="a_node5"><a xlink:href="../../d5/d60/pps-client_8cpp.html#ae0bab7cf61e38b79d3bade19c957735a" target="_top" xlink:title="initialize">
<polygon fill="#ffffff" stroke="#000000" points="97.5664,-37.5 97.5664,-55.5 149.1377,-55.5 149.1377,-37.5 97.5664,-37.5"/>
<text text-anchor="middle" x="123.3521" y="-43.5" font-family="Helvetica,sans-Serif" font-size="10.00" fill="#000000">initialize</text>
</a>
</g>
</g>
<!-- Node139&#45;&gt;Node155 -->
<g id="edge5" class="edge">
<title>Node139&#45;&gt;Node155</title>
<path fill="none" stroke="#191970" d="M20.5532,-244.4191C26.9462,-211.3715 50.2214,-98.0113 73.6748,-70.5 77.6556,-65.8304 82.755,-61.995 88.1638,-58.8687"/>
<polygon fill="#191970" stroke="#191970" points="90.0288,-61.8497 97.4157,-54.2546 86.9047,-55.5855 90.0288,-61.8497"/>
</g>
<!-- Node156 -->
<g id="node6" class="node">
<title>Node156</title>
<g id="a_node6"><a xlink:href="../../d0/d3e/pps-files_8cpp.html#af30241291158e33d40328d6b3d32d808" target="_top" xlink:title="processFiles">
<polygon fill="#ffffff" stroke="#ff0000" points="211.5293,-80.5 211.5293,-98.5 283.6572,-98.5 283.6572,-80.5 211.5293,-80.5"/>
<text text-anchor="middle" x="247.5933" y="-86.5" font-family="Helvetica,sans-Serif" font-size="10.00" fill="#000000">processFiles</text>
</a>
</g>
</g>
<!-- Node139&#45;&gt;Node156 -->
<g id="edge6" class="edge">
<title>Node139&#45;&gt;Node156</title>
<path fill="none" stroke="#191970" d="M20.8882,-244.2296C27.6629,-214.4928 50.2326,-122.3983 73.6748,-104.5 109.6741,-77.0143 162.9141,-76.5081 200.9962,-80.8481"/>
<polygon fill="#191970" stroke="#191970" points="200.942,-84.3702 211.3085,-82.1823 201.8403,-77.428 200.942,-84.3702"/>
</g>
<!-- Node172 -->
<g id="node7" class="node">
<title>Node172</title>
<g id="a_node7"><a xlink:href="../../d0/d3e/pps-files_8cpp.html#a63902ed5404b3607594a3ad7d080da10" target="_top" xlink:title="disableNTP">
<polygon fill="#ffffff" stroke="#ff0000" points="89.5073,-376.5 89.5073,-394.5 157.1968,-394.5 157.1968,-376.5 89.5073,-376.5"/>
<text text-anchor="middle" x="123.3521" y="-382.5" font-family="Helvetica,sans-Serif" font-size="10.00" fill="#000000">disableNTP</text>
</a>
</g>
</g>
<!-- Node139&#45;&gt;Node172 -->
<g id="edge7" class="edge">
<title>Node139&#45;&gt;Node172</title>
<path fill="none" stroke="#191970" d="M21.2504,-262.5162C27.0659,-282.7006 43.6433,-332.0567 73.6748,-361.5 77.693,-365.4395 82.4833,-368.8349 87.4796,-371.7283"/>
<polygon fill="#191970" stroke="#191970" points="86.0794,-374.9439 96.5732,-376.4036 89.2801,-368.7185 86.0794,-374.9439"/>
</g>
<!-- Node151 -->
<g id="node8" class="node">
<title>Node151</title>
<g id="a_node8"><a xlink:href="../../d0/d3e/pps-files_8cpp.html#a94ad6f36dae10e5652ea241b11d2e5c7" target="_top" xlink:title="open_logerr">
<polygon fill="#ffffff" stroke="#ff0000" points="212.9063,-338.5 212.9063,-356.5 282.2803,-356.5 282.2803,-338.5 212.9063,-338.5"/>
<text text-anchor="middle" x="247.5933" y="-344.5" font-family="Helvetica,sans-Serif" font-size="10.00" fill="#000000">open_logerr</text>
</a>
</g>
</g>
<!-- Node139&#45;&gt;Node151 -->
<g id="edge20" class="edge">
<title>Node139&#45;&gt;Node151</title>
<path fill="none" stroke="#191970" d="M22.4894,-262.568C29.6045,-278.9211 47.0022,-313.0814 73.6748,-328.5 112.9745,-351.2179 165.6614,-353.8863 202.7115,-352.1721"/>
<polygon fill="#191970" stroke="#191970" points="202.9446,-355.6645 212.7227,-351.5854 202.535,-348.6765 202.9446,-355.6645"/>
</g>
<!-- Node142 -->
<g id="node9" class="node">
<title>Node142</title>
<g id="a_node9"><a xlink:href="../../d0/d3e/pps-files_8cpp.html#a19da05b45d1e94170f5fe86decb70bfb" target="_top" xlink:title="sysCommand">
<polygon fill="#ffffff" stroke="#000000" points="209.0293,-225.5 209.0293,-243.5 286.1572,-243.5 286.1572,-225.5 209.0293,-225.5"/>
<text text-anchor="middle" x="247.5933" y="-231.5" font-family="Helvetica,sans-Serif" font-size="10.00" fill="#000000">sysCommand</text>
</a>
</g>
</g>
<!-- Node139&#45;&gt;Node142 -->
<g id="edge25" class="edge">
<title>Node139&#45;&gt;Node142</title>
<path fill="none" stroke="#191970" d="M37.9475,-251.9128C73.0081,-249.0007 148.6086,-242.7215 198.7857,-238.5539"/>
<polygon fill="#191970" stroke="#191970" points="199.0968,-242.0402 208.7728,-237.7244 198.5174,-235.0642 199.0968,-242.0402"/>
</g>
<!-- Node179 -->
<g id="node10" class="node">
<title>Node179</title>
<g id="a_node10"><a xlink:href="../../d0/d3e/pps-files_8cpp.html#a7c5f61b647ea0f142844c82be15a345d" target="_top" xlink:title="getDriverGPIOvals">
<polygon fill="#ffffff" stroke="#ff0000" points="73.6748,-.5 73.6748,-18.5 173.0293,-18.5 173.0293,-.5 73.6748,-.5"/>
<text text-anchor="middle" x="123.3521" y="-6.5" font-family="Helvetica,sans-Serif" font-size="10.00" fill="#000000">getDriverGPIOvals</text>
</a>
</g>
</g>
<!-- Node139&#45;&gt;Node179 -->
<g id="edge13" class="edge">
<title>Node139&#45;&gt;Node179</title>
<path fill="none" stroke="#191970" d="M19.8997,-244.3658C24.4924,-206.3211 43.7682,-60.8775 73.6748,-27.5 74.7078,-26.3471 75.8205,-25.268 76.9978,-24.258"/>
<polygon fill="#191970" stroke="#191970" points="79.1782,-27.0105 85.5478,-18.5442 75.2888,-21.1905 79.1782,-27.0105"/>
</g>
<!-- Node181 -->
<g id="node11" class="node">
<title>Node181</title>
<g id="a_node11"><a xlink:href="../../d0/d3e/pps-files_8cpp.html#aa2b23a7e75f02567f73cee9a532cd2ab" target="_top" xlink:title="driver_load">
<polygon fill="#ffffff" stroke="#ff0000" points="90.6157,-150.5 90.6157,-168.5 156.0884,-168.5 156.0884,-150.5 90.6157,-150.5"/>
<text text-anchor="middle" x="123.3521" y="-156.5" font-family="Helvetica,sans-Serif" font-size="10.00" fill="#000000">driver_load</text>
</a>
</g>
</g>
<!-- Node139&#45;&gt;Node181 -->
<g id="edge14" class="edge">
<title>Node139&#45;&gt;Node181</title>
<path fill="none" stroke="#191970" d="M23.2887,-244.3327C31.299,-228.728 49.5777,-196.9094 73.6748,-178.5 76.3163,-176.482 79.1973,-174.6558 82.1982,-173.0074"/>
<polygon fill="#191970" stroke="#191970" points="83.9331,-176.0572 91.4408,-168.5815 80.9099,-169.7437 83.9331,-176.0572"/>
</g>
<!-- Node184 -->
<g id="node12" class="node">
<title>Node184</title>
<g id="a_node12"><a xlink:href="../../d0/d3e/pps-files_8cpp.html#a9942302e3e5272291f62fda42bdf6319" target="_top" xlink:title="createPIDfile">
<polygon fill="#ffffff" stroke="#000000" points="86.729,-300.5 86.729,-318.5 159.9751,-318.5 159.9751,-300.5 86.729,-300.5"/>
<text text-anchor="middle" x="123.3521" y="-306.5" font-family="Helvetica,sans-Serif" font-size="10.00" fill="#000000">createPIDfile</text>
</a>
</g>
</g>
<!-- Node139&#45;&gt;Node184 -->
<g id="edge17" class="edge">
<title>Node139&#45;&gt;Node184</title>
<path fill="none" stroke="#191970" d="M30.054,-262.569C40.7695,-270.9105 57.621,-283.2073 73.6748,-291.5 77.2405,-293.3419 81.0383,-295.0799 84.8848,-296.6958"/>
<polygon fill="#191970" stroke="#191970" points="83.8546,-300.0514 94.4419,-300.4505 86.4143,-293.5362 83.8546,-300.0514"/>
</g>
<!-- Node185 -->
<g id="node13" class="node">
<title>Node185</title>
<g id="a_node13"><a xlink:href="../../d5/d60/pps-client_8cpp.html#a4b3bdab744bd7ed860326323fad180f2" target="_top" xlink:title="waitForPPS">
<polygon fill="#ffffff" stroke="#ff0000" points="88.9556,-113.5 88.9556,-131.5 157.7485,-131.5 157.7485,-113.5 88.9556,-113.5"/>
<text text-anchor="middle" x="123.3521" y="-119.5" font-family="Helvetica,sans-Serif" font-size="10.00" fill="#000000">waitForPPS</text>
</a>
</g>
</g>
<!-- Node139&#45;&gt;Node185 -->
<g id="edge21" class="edge">
<title>Node139&#45;&gt;Node185</title>
<path fill="none" stroke="#191970" d="M20.895,-244.2773C26.0659,-223.1583 41.5508,-170.8554 73.6748,-141.5 75.643,-139.7014 77.7993,-138.0668 80.0761,-136.5821"/>
<polygon fill="#191970" stroke="#191970" points="82.1932,-139.4154 89.3124,-131.5688 78.8539,-133.2632 82.1932,-139.4154"/>
</g>
<!-- Node235 -->
<g id="node14" class="node">
<title>Node235</title>
<g id="a_node14"><a xlink:href="../../d0/d3e/pps-files_8cpp.html#a6354b54021f614ab3ab87ef5b3df64d0" target="_top" xlink:title="enableNTP">
<polygon fill="#ffffff" stroke="#ff0000" points="90.3374,-263.5 90.3374,-281.5 156.3667,-281.5 156.3667,-263.5 90.3374,-263.5"/>
<text text-anchor="middle" x="123.3521" y="-269.5" font-family="Helvetica,sans-Serif" font-size="10.00" fill="#000000">enableNTP</text>
</a>
</g>
</g>
<!-- Node139&#45;&gt;Node235 -->
<g id="edge26" class="edge">
<title>Node139&#45;&gt;Node235</title>
<path fill="none" stroke="#191970" d="M38.007,-256.9849C49.8815,-259.1436 65.6282,-262.0062 80.36,-264.6844"/>
<polygon fill="#191970" stroke="#191970" points="79.872,-268.1529 90.3368,-266.4981 81.1241,-261.2658 79.872,-268.1529"/>
</g>
<!-- Node237 -->
<g id="node15" class="node">
<title>Node237</title>
<g id="a_node15"><a xlink:href="../../d0/d3e/pps-files_8cpp.html#ad93a555ba6311fb8b1c2199527fe8cc2" target="_top" xlink:title="driver_unload">
<polygon fill="#ffffff" stroke="#000000" points="85.0542,-187.5 85.0542,-205.5 161.6499,-205.5 161.6499,-187.5 85.0542,-187.5"/>
<text text-anchor="middle" x="123.3521" y="-193.5" font-family="Helvetica,sans-Serif" font-size="10.00" fill="#000000">driver_unload</text>
</a>
</g>
</g>
<!-- Node139&#45;&gt;Node237 -->
<g id="edge29" class="edge">
<title>Node139&#45;&gt;Node237</title>
<path fill="none" stroke="#191970" d="M33.0609,-244.4493C44.0101,-237.6029 59.6018,-228.1132 73.6748,-220.5 80.1275,-217.0093 87.1659,-213.4589 93.862,-210.1971"/>
<polygon fill="#191970" stroke="#191970" points="95.8138,-213.143 103.3194,-205.6652 92.7888,-206.8303 95.8138,-213.143"/>
</g>
<!-- Node143&#45;&gt;Node144 -->
<g id="edge4" class="edge">
<title>Node143&#45;&gt;Node144</title>
<path fill="none" stroke="#191970" d="M372.1626,-337.5318C390.3224,-346.733 418.7172,-361.1199 439.6768,-371.7396"/>
<polygon fill="#191970" stroke="#191970" points="438.2179,-374.924 448.7202,-376.3217 441.3818,-368.6798 438.2179,-374.924"/>
</g>
<!-- Node172&#45;&gt;Node143 -->
<g id="edge10" class="edge">
<title>Node172&#45;&gt;Node143</title>
<path fill="none" stroke="#191970" d="M157.2157,-385.3718C190.7247,-384.3651 243.1001,-380.4028 286.1572,-366.5 302.7602,-361.139 319.9082,-351.5588 332.8534,-343.3593"/>
<polygon fill="#191970" stroke="#191970" points="335.0236,-346.1217 341.4689,-337.7128 331.1865,-340.267 335.0236,-346.1217"/>
</g>
<!-- Node172&#45;&gt;Node151 -->
<g id="edge8" class="edge">
<title>Node172&#45;&gt;Node151</title>
<path fill="none" stroke="#191970" d="M152.7955,-376.4945C169.3849,-371.4205 190.3208,-365.0172 208.2956,-359.5194"/>
<polygon fill="#191970" stroke="#191970" points="209.3916,-362.8444 217.9306,-356.5725 207.3442,-356.1505 209.3916,-362.8444"/>
</g>
<!-- Node172&#45;&gt;Node142 -->
<g id="edge11" class="edge">
<title>Node172&#45;&gt;Node142</title>
<path fill="none" stroke="#191970" d="M131.5733,-376.3328C141.5359,-365.1635 158.7606,-345.6575 173.0293,-328.5 194.9907,-302.0923 219.5948,-270.7065 234.3267,-251.7105"/>
<polygon fill="#191970" stroke="#191970" points="237.1834,-253.7378 240.5334,-243.6865 231.6465,-249.4548 237.1834,-253.7378"/>
</g>
<!-- Node151&#45;&gt;Node143 -->
<g id="edge9" class="edge">
<title>Node151&#45;&gt;Node143</title>
<path fill="none" stroke="#191970" d="M282.5451,-341.2787C291.9315,-339.6079 302.1843,-337.783 311.9277,-336.0487"/>
<polygon fill="#191970" stroke="#191970" points="312.6074,-339.4828 321.8392,-334.2845 311.3806,-332.5911 312.6074,-339.4828"/>
</g>
<!-- Node142&#45;&gt;Node143 -->
<g id="edge12" class="edge">
<title>Node142&#45;&gt;Node143</title>
<path fill="none" stroke="#191970" d="M257.8283,-243.5131C275.9533,-259.4743 313.9027,-292.893 336.4367,-312.7368"/>
<polygon fill="#191970" stroke="#191970" points="334.158,-315.3938 343.976,-319.3761 338.7843,-310.1404 334.158,-315.3938"/>
</g>
<!-- Node181&#45;&gt;Node143 -->
<g id="edge15" class="edge">
<title>Node181&#45;&gt;Node143</title>
<path fill="none" stroke="#191970" d="M156.2035,-164.2629C191.5597,-170.811 247.8633,-185.5096 286.1572,-216.5 317.1398,-241.5735 337.6348,-284.7406 347.495,-309.5224"/>
<polygon fill="#191970" stroke="#191970" points="344.3482,-311.0945 351.1732,-319.1981 350.8913,-308.607 344.3482,-311.0945"/>
</g>
<!-- Node181&#45;&gt;Node142 -->
<g id="edge16" class="edge">
<title>Node181&#45;&gt;Node142</title>
<path fill="none" stroke="#191970" d="M151.0403,-168.5267C158.3747,-171.3349 166.1593,-174.7046 173.0293,-178.5 193.641,-189.8872 214.9016,-206.4127 229.4198,-218.5615"/>
<polygon fill="#191970" stroke="#191970" points="227.2522,-221.3128 237.1328,-225.1368 231.7934,-215.9858 227.2522,-221.3128"/>
</g>
<!-- Node184&#45;&gt;Node143 -->
<g id="edge19" class="edge">
<title>Node184&#45;&gt;Node143</title>
<path fill="none" stroke="#191970" d="M160.2077,-312.5316C201.5964,-315.9361 268.6446,-321.4513 312.1104,-325.0266"/>
<polygon fill="#191970" stroke="#191970" points="311.8309,-328.5153 322.0842,-325.847 312.4048,-321.5389 311.8309,-328.5153"/>
</g>
<!-- Node184&#45;&gt;Node151 -->
<g id="edge18" class="edge">
<title>Node184&#45;&gt;Node151</title>
<path fill="none" stroke="#191970" d="M152.7955,-318.5055C169.3849,-323.5795 190.3208,-329.9828 208.2956,-335.4806"/>
<polygon fill="#191970" stroke="#191970" points="207.3442,-338.8495 217.9306,-338.4275 209.3916,-332.1556 207.3442,-338.8495"/>
</g>
<!-- Node185&#45;&gt;Node143 -->
<g id="edge23" class="edge">
<title>Node185&#45;&gt;Node143</title>
<path fill="none" stroke="#191970" d="M157.955,-125.0548C194.0148,-129.432 250.1804,-141.3045 286.1572,-173.5 327.3096,-210.3271 344.7789,-276.5677 351.1634,-309.2251"/>
<polygon fill="#191970" stroke="#191970" points="347.7566,-310.0549 352.9801,-319.2725 354.6449,-308.8093 347.7566,-310.0549"/>
</g>
<!-- Node185&#45;&gt;Node156 -->
<g id="edge24" class="edge">
<title>Node185&#45;&gt;Node156</title>
<path fill="none" stroke="#191970" d="M157.3015,-113.4826C171.6821,-109.6629 188.618,-105.1646 203.9137,-101.1018"/>
<polygon fill="#191970" stroke="#191970" points="204.9185,-104.4564 213.6849,-98.5065 203.1215,-97.691 204.9185,-104.4564"/>
</g>
<!-- Node185&#45;&gt;Node142 -->
<g id="edge22" class="edge">
<title>Node185&#45;&gt;Node142</title>
<path fill="none" stroke="#191970" d="M154.6054,-131.5498C161.0287,-134.1873 167.5086,-137.4736 173.0293,-141.5 201.1758,-162.0281 224.5473,-195.7725 237.253,-216.4753"/>
<polygon fill="#191970" stroke="#191970" points="234.3401,-218.4244 242.4636,-225.2258 240.3545,-214.843 234.3401,-218.4244"/>
</g>
<!-- Node235&#45;&gt;Node151 -->
<g id="edge27" class="edge">
<title>Node235&#45;&gt;Node151</title>
<path fill="none" stroke="#191970" d="M151.0403,-281.5267C158.3747,-284.3349 166.1593,-287.7046 173.0293,-291.5 193.641,-302.8872 214.9016,-319.4127 229.4198,-331.5615"/>
<polygon fill="#191970" stroke="#191970" points="227.2522,-334.3128 237.1328,-338.1368 231.7934,-328.9858 227.2522,-334.3128"/>
</g>
<!-- Node235&#45;&gt;Node142 -->
<g id="edge28" class="edge">
<title>Node235&#45;&gt;Node142</title>
<path fill="none" stroke="#191970" d="M152.7955,-263.4945C169.3849,-258.4205 190.3208,-252.0172 208.2956,-246.5194"/>
<polygon fill="#191970" stroke="#191970" points="209.3916,-249.8444 217.9306,-243.5725 207.3442,-243.1505 209.3916,-249.8444"/>
</g>
<!-- Node237&#45;&gt;Node142 -->
<g id="edge30" class="edge">
<title>Node237&#45;&gt;Node142</title>
<path fill="none" stroke="#191970" d="M152.7955,-205.5055C169.3849,-210.5795 190.3208,-216.9828 208.2956,-222.4806"/>
<polygon fill="#191970" stroke="#191970" points="207.3442,-225.8495 217.9306,-225.4275 209.3916,-219.1556 207.3442,-225.8495"/>
</g>
</g>
</svg>
