<?xml version="1.0" encoding="UTF-8" standalone="no"?>
<!DOCTYPE svg PUBLIC "-//W3C//DTD SVG 1.1//EN"
 "http://www.w3.org/Graphics/SVG/1.1/DTD/svg11.dtd">
<!-- Generated by graphviz version 2.36.0 (20140111.2315)
 -->
<!-- Title: removeIntrptNoise Pages: 1 -->
<svg width="258pt" height="104pt"
 viewBox="0.00 0.00 258.00 104.00" xmlns="http://www.w3.org/2000/svg" xmlns:xlink="http://www.w3.org/1999/xlink">
<g id="graph0" class="graph" transform="scale(1 1) rotate(0) translate(4 100)">
<title>removeIntrptNoise</title>
<polygon fill="white" stroke="none" points="-4,4 -4,-100 254,-100 254,4 -4,4"/>
<!-- Node1 -->
<g id="node1" class="node"><title>Node1</title>
<polygon fill="#bfbfbf" stroke="black" points="0.5,-38.5 0.5,-57.5 97.5,-57.5 97.5,-38.5 0.5,-38.5"/>
<text text-anchor="middle" x="49" y="-45.5" font-family="Helvetica,sans-Serif" font-size="10.00">removeIntrptNoise</text>
</g>
<!-- Node2 -->
<g id="node2" class="node"><title>Node2</title>
<g id="a_node2"><a xlink:href="../../d5/d60/pps-client_8cpp.html#ad889ebd8ff46d7aece2aa6c4c7252ed2" target="_top" xlink:title="buildRawErrorDistrib">
<polygon fill="white" stroke="black" points="138.5,-76.5 138.5,-95.5 245.5,-95.5 245.5,-76.5 138.5,-76.5"/>
<text text-anchor="middle" x="192" y="-83.5" font-family="Helvetica,sans-Serif" font-size="10.00">buildRawErrorDistrib</text>
</a>
</g>
</g>
<!-- Node1&#45;&gt;Node2 -->
<g id="edge1" class="edge"><title>Node1&#45;&gt;Node2</title>
<path fill="none" stroke="midnightblue" d="M85.5803,-57.589C103.782,-62.4944 126.138,-68.5196 145.572,-73.7571"/>
<polygon fill="midnightblue" stroke="midnightblue" points="144.865,-77.1912 155.431,-76.4141 146.686,-70.4324 144.865,-77.1912"/>
</g>
<!-- Node3 -->
<g id="node3" class="node"><title>Node3</title>
<g id="a_node3"><a xlink:href="../../d5/d60/pps-client_8cpp.html#a6128ff37a7e46aee507240712c6c8f74" target="_top" xlink:title="detectIntrptDelaySpike">
<polygon fill="white" stroke="black" points="134,-38.5 134,-57.5 250,-57.5 250,-38.5 134,-38.5"/>
<text text-anchor="middle" x="192" y="-45.5" font-family="Helvetica,sans-Serif" font-size="10.00">detectIntrptDelaySpike</text>
</a>
</g>
</g>
<!-- Node1&#45;&gt;Node3 -->
<g id="edge2" class="edge"><title>Node1&#45;&gt;Node3</title>
<path fill="none" stroke="midnightblue" d="M97.7362,-48C106.005,-48 114.742,-48 123.42,-48"/>
<polygon fill="midnightblue" stroke="midnightblue" points="123.548,-51.5001 133.548,-48 123.548,-44.5001 123.548,-51.5001"/>
</g>
<!-- Node4 -->
<g id="node4" class="node"><title>Node4</title>
<g id="a_node4"><a xlink:href="../../d5/d60/pps-client_8cpp.html#a5443ab59528135706e70991cf1f880d2" target="_top" xlink:title="clampJitter">
<polygon fill="white" stroke="black" points="159.5,-0.5 159.5,-19.5 224.5,-19.5 224.5,-0.5 159.5,-0.5"/>
<text text-anchor="middle" x="192" y="-7.5" font-family="Helvetica,sans-Serif" font-size="10.00">clampJitter</text>
</a>
</g>
</g>
<!-- Node1&#45;&gt;Node4 -->
<g id="edge3" class="edge"><title>Node1&#45;&gt;Node4</title>
<path fill="none" stroke="midnightblue" d="M85.5803,-38.411C104.982,-33.1821 129.105,-26.681 149.376,-21.2177"/>
<polygon fill="midnightblue" stroke="midnightblue" points="150.535,-24.5303 159.28,-18.5487 148.714,-17.7715 150.535,-24.5303"/>
</g>
</g>
</svg>
