<?xml version="1.0" encoding="UTF-8" standalone="no"?>
<!DOCTYPE svg PUBLIC "-//W3C//DTD SVG 1.1//EN"
 "http://www.w3.org/Graphics/SVG/1.1/DTD/svg11.dtd">
<!-- Generated by graphviz version 2.36.0 (20140111.2315)
 -->
<!-- Title: getInterruptDelay Pages: 1 -->
<svg width="370pt" height="180pt"
 viewBox="0.00 0.00 370.00 180.00" xmlns="http://www.w3.org/2000/svg" xmlns:xlink="http://www.w3.org/1999/xlink">
<g id="graph0" class="graph" transform="scale(1 1) rotate(0) translate(4 176)">
<title>getInterruptDelay</title>
<polygon fill="white" stroke="none" points="-4,4 -4,-176 366,-176 366,4 -4,4"/>
<!-- Node1 -->
<g id="node1" class="node"><title>Node1</title>
<polygon fill="#bfbfbf" stroke="black" points="0,-76.5 0,-95.5 92,-95.5 92,-76.5 0,-76.5"/>
<text text-anchor="middle" x="46" y="-83.5" font-family="Helvetica,sans-Serif" font-size="10.00">getInterruptDelay</text>
</g>
<!-- Node2 -->
<g id="node2" class="node"><title>Node2</title>
<g id="a_node2"><a xlink:href="../../d0/d3e/pps-files_8cpp.html#a147e53428d3615f5cb06a942d4be3626" target="_top" xlink:title="buildInterruptDistrib">
<polygon fill="white" stroke="red" points="131.5,-152.5 131.5,-171.5 232.5,-171.5 232.5,-152.5 131.5,-152.5"/>
<text text-anchor="middle" x="182" y="-159.5" font-family="Helvetica,sans-Serif" font-size="10.00">buildInterruptDistrib</text>
</a>
</g>
</g>
<!-- Node1&#45;&gt;Node2 -->
<g id="edge1" class="edge"><title>Node1&#45;&gt;Node2</title>
<path fill="none" stroke="midnightblue" d="M58.4337,-95.5559C73.5672,-107.838 101.443,-129.218 128,-143 131.962,-145.056 136.198,-146.984 140.483,-148.763"/>
<polygon fill="midnightblue" stroke="midnightblue" points="139.268,-152.045 149.856,-152.413 141.808,-145.523 139.268,-152.045"/>
</g>
<!-- Node3 -->
<g id="node3" class="node"><title>Node3</title>
<g id="a_node3"><a xlink:href="../../d5/d60/pps-client_8cpp.html#abfab868ee3b041247625234432820321" target="_top" xlink:title="removeIntrptNoise">
<polygon fill="white" stroke="red" points="133.5,-114.5 133.5,-133.5 230.5,-133.5 230.5,-114.5 133.5,-114.5"/>
<text text-anchor="middle" x="182" y="-121.5" font-family="Helvetica,sans-Serif" font-size="10.00">removeIntrptNoise</text>
</a>
</g>
</g>
<!-- Node1&#45;&gt;Node3 -->
<g id="edge2" class="edge"><title>Node1&#45;&gt;Node3</title>
<path fill="none" stroke="midnightblue" d="M80.8139,-95.589C98.0326,-100.472 119.164,-106.464 137.573,-111.685"/>
<polygon fill="midnightblue" stroke="midnightblue" points="136.621,-115.053 147.197,-114.414 138.531,-108.319 136.621,-115.053"/>
</g>
<!-- Node4 -->
<g id="node4" class="node"><title>Node4</title>
<g id="a_node4"><a xlink:href="../../d0/d3e/pps-files_8cpp.html#ab624ed4418f2d1b17b046a714a0dd339" target="_top" xlink:title="buildSysDelayDistrib">
<polygon fill="white" stroke="black" points="128,-76.5 128,-95.5 236,-95.5 236,-76.5 128,-76.5"/>
<text text-anchor="middle" x="182" y="-83.5" font-family="Helvetica,sans-Serif" font-size="10.00">buildSysDelayDistrib</text>
</a>
</g>
</g>
<!-- Node1&#45;&gt;Node4 -->
<g id="edge3" class="edge"><title>Node1&#45;&gt;Node4</title>
<path fill="none" stroke="midnightblue" d="M92.3663,-86C100.552,-86 109.221,-86 117.805,-86"/>
<polygon fill="midnightblue" stroke="midnightblue" points="117.811,-89.5001 127.811,-86 117.811,-82.5001 117.811,-89.5001"/>
</g>
<!-- Node5 -->
<g id="node5" class="node"><title>Node5</title>
<g id="a_node5"><a xlink:href="../../d0/d3e/pps-files_8cpp.html#a6f609d689ebe787455ce220808ca3ba0" target="_top" xlink:title="bufferStatusMsg">
<polygon fill="white" stroke="black" points="272.5,-19.5 272.5,-38.5 361.5,-38.5 361.5,-19.5 272.5,-19.5"/>
<text text-anchor="middle" x="317" y="-26.5" font-family="Helvetica,sans-Serif" font-size="10.00">bufferStatusMsg</text>
</a>
</g>
</g>
<!-- Node1&#45;&gt;Node5 -->
<g id="edge4" class="edge"><title>Node1&#45;&gt;Node5</title>
<path fill="none" stroke="midnightblue" d="M86.4952,-76.4773C99.6751,-73.3685 114.453,-69.9573 128,-67 173.052,-57.1655 224.375,-46.8514 262.001,-39.4542"/>
<polygon fill="midnightblue" stroke="midnightblue" points="263.094,-42.8066 272.234,-37.448 261.747,-35.9374 263.094,-42.8066"/>
</g>
<!-- Node6 -->
<g id="node6" class="node"><title>Node6</title>
<g id="a_node6"><a xlink:href="../../d0/d3e/pps-files_8cpp.html#ae20c07f56a5b2b05b636f6a0a31ce214" target="_top" xlink:title="writeToLog">
<polygon fill="white" stroke="red" points="149.5,-0.5 149.5,-19.5 214.5,-19.5 214.5,-0.5 149.5,-0.5"/>
<text text-anchor="middle" x="182" y="-7.5" font-family="Helvetica,sans-Serif" font-size="10.00">writeToLog</text>
</a>
</g>
</g>
<!-- Node1&#45;&gt;Node6 -->
<g id="edge5" class="edge"><title>Node1&#45;&gt;Node6</title>
<path fill="none" stroke="midnightblue" d="M60.6729,-76.3483C76.4825,-65.3968 103.482,-47.3294 128,-34 134.589,-30.4178 141.814,-26.8946 148.753,-23.6976"/>
<polygon fill="midnightblue" stroke="midnightblue" points="150.263,-26.8564 157.949,-19.5652 147.393,-20.4713 150.263,-26.8564"/>
</g>
<!-- Node6&#45;&gt;Node5 -->
<g id="edge6" class="edge"><title>Node6&#45;&gt;Node5</title>
<path fill="none" stroke="midnightblue" d="M214.519,-14.5027C228.832,-16.5475 246.168,-19.0239 262.43,-21.3471"/>
<polygon fill="midnightblue" stroke="midnightblue" points="261.986,-24.8191 272.38,-22.7686 262.976,-17.8895 261.986,-24.8191"/>
</g>
</g>
</svg>
