<?xml version="1.0" encoding="UTF-8" standalone="no"?>
<!DOCTYPE svg PUBLIC "-//W3C//DTD SVG 1.1//EN"
 "http://www.w3.org/Graphics/SVG/1.1/DTD/svg11.dtd">
<!-- Generated by graphviz version 2.40.1 (20161225.0304)
 -->
<!-- Title: setDelayTrackers Pages: 1 -->
<svg width="341pt" height="83pt"
 viewBox="0.00 0.00 340.68 83.00" xmlns="http://www.w3.org/2000/svg" xmlns:xlink="http://www.w3.org/1999/xlink">
<g id="graph0" class="graph" transform="scale(1 1) rotate(0) translate(4 79)">
<title>setDelayTrackers</title>
<polygon fill="#ffffff" stroke="transparent" points="-4,4 -4,-79 336.6758,-79 336.6758,4 -4,4"/>
<!-- Node365 -->
<g id="node1" class="node">
<title>Node365</title>
<polygon fill="#bfbfbf" stroke="#000000" points="0,-19.5 0,-37.5 93.4316,-37.5 93.4316,-19.5 0,-19.5"/>
<text text-anchor="middle" x="46.7158" y="-25.5" font-family="Helvetica,sans-Serif" font-size="10.00" fill="#000000">setDelayTrackers</text>
</g>
<!-- Node366 -->
<g id="node2" class="node">
<title>Node366</title>
<g id="a_node2"><a xlink:href="../../d5/d60/pps-client_8cpp.html#a2a7a8a06f0119359f624d891dbcfa08f" target="_top" xlink:title="integralIsReady">
<polygon fill="#ffffff" stroke="#ff0000" points="135.916,-56.5 135.916,-74.5 221.3984,-74.5 221.3984,-56.5 135.916,-56.5"/>
<text text-anchor="middle" x="178.6572" y="-62.5" font-family="Helvetica,sans-Serif" font-size="10.00" fill="#000000">integralIsReady</text>
</a>
</g>
</g>
<!-- Node365&#45;&gt;Node366 -->
<g id="edge1" class="edge">
<title>Node365&#45;&gt;Node366</title>
<path fill="none" stroke="#191970" d="M88.7061,-40.2752C107.33,-45.4979 128.9053,-51.5482 146.2567,-56.414"/>
<polygon fill="#191970" stroke="#191970" points="89.566,-36.8814 78.9923,-37.5512 87.6758,-43.6214 89.566,-36.8814"/>
</g>
<!-- Node368 -->
<g id="node3" class="node">
<title>Node368</title>
<g id="a_node3"><a xlink:href="../../d5/d60/pps-client_8cpp.html#a86496ba51a12c38a52f57267412a096a" target="_top" xlink:title="readPPS_SetTime">
<polygon fill="#ffffff" stroke="#000000" points="129.4316,-19.5 129.4316,-37.5 227.8828,-37.5 227.8828,-19.5 129.4316,-19.5"/>
<text text-anchor="middle" x="178.6572" y="-25.5" font-family="Helvetica,sans-Serif" font-size="10.00" fill="#000000">readPPS_SetTime</text>
</a>
</g>
</g>
<!-- Node365&#45;&gt;Node368 -->
<g id="edge2" class="edge">
<title>Node365&#45;&gt;Node368</title>
<path fill="none" stroke="#191970" d="M103.8009,-28.5C112.2723,-28.5 120.9427,-28.5 129.2398,-28.5"/>
<polygon fill="#191970" stroke="#191970" points="103.605,-25.0001 93.6049,-28.5 103.6049,-32.0001 103.605,-25.0001"/>
</g>
<!-- Node369 -->
<g id="node4" class="node">
<title>Node369</title>
<g id="a_node4"><a xlink:href="../../d5/d60/pps-client_8cpp.html#a4b3bdab744bd7ed860326323fad180f2" target="_top" xlink:title="waitForPPS">
<polygon fill="#ffffff" stroke="#ff0000" points="263.8828,-.5 263.8828,-18.5 332.6758,-18.5 332.6758,-.5 263.8828,-.5"/>
<text text-anchor="middle" x="298.2793" y="-6.5" font-family="Helvetica,sans-Serif" font-size="10.00" fill="#000000">waitForPPS</text>
</a>
</g>
</g>
<!-- Node365&#45;&gt;Node369 -->
<g id="edge4" class="edge">
<title>Node365&#45;&gt;Node369</title>
<path fill="none" stroke="#191970" d="M90.7707,-17.134C103.1873,-14.4174 116.7642,-11.9003 129.4316,-10.5 175.7592,-5.3788 229.6735,-6.2333 263.8792,-7.6161"/>
<polygon fill="#191970" stroke="#191970" points="89.6291,-13.8045 80.6591,-19.4427 91.1873,-20.6288 89.6291,-13.8045"/>
</g>
<!-- Node368&#45;&gt;Node369 -->
<g id="edge3" class="edge">
<title>Node368&#45;&gt;Node369</title>
<path fill="none" stroke="#191970" d="M237.911,-19.0885C246.7291,-17.6879 255.5634,-16.2847 263.647,-15.0008"/>
<polygon fill="#191970" stroke="#191970" points="237.3299,-15.6369 228.0027,-20.6623 238.428,-22.5502 237.3299,-15.6369"/>
</g>
</g>
</svg>
