<?xml version="1.0" encoding="UTF-8" standalone="no"?>
<!DOCTYPE svg PUBLIC "-//W3C//DTD SVG 1.1//EN"
 "http://www.w3.org/Graphics/SVG/1.1/DTD/svg11.dtd">
<!-- Generated by graphviz version 2.36.0 (20140111.2315)
 -->
<!-- Title: readPPS_SetTime Pages: 1 -->
<svg width="376pt" height="123pt"
 viewBox="0.00 0.00 376.00 123.00" xmlns="http://www.w3.org/2000/svg" xmlns:xlink="http://www.w3.org/1999/xlink">
<g id="graph0" class="graph" transform="scale(1 1) rotate(0) translate(4 119)">
<title>readPPS_SetTime</title>
<polygon fill="white" stroke="none" points="-4,4 -4,-119 372,-119 372,4 -4,4"/>
<!-- Node1 -->
<g id="node1" class="node"><title>Node1</title>
<polygon fill="#bfbfbf" stroke="black" points="0,-57.5 0,-76.5 98,-76.5 98,-57.5 0,-57.5"/>
<text text-anchor="middle" x="49" y="-64.5" font-family="Helvetica,sans-Serif" font-size="10.00">readPPS_SetTime</text>
</g>
<!-- Node2 -->
<g id="node2" class="node"><title>Node2</title>
<g id="a_node2"><a xlink:href="../../d0/d3e/pps-files_8cpp.html#a6f609d689ebe787455ce220808ca3ba0" target="_top" xlink:title="bufferStatusMsg">
<polygon fill="white" stroke="black" points="278.5,-95.5 278.5,-114.5 367.5,-114.5 367.5,-95.5 278.5,-95.5"/>
<text text-anchor="middle" x="323" y="-102.5" font-family="Helvetica,sans-Serif" font-size="10.00">bufferStatusMsg</text>
</a>
</g>
</g>
<!-- Node1&#45;&gt;Node2 -->
<g id="edge1" class="edge"><title>Node1&#45;&gt;Node2</title>
<path fill="none" stroke="midnightblue" d="M65.7106,-76.5706C82.0798,-85.9379 108.809,-99.5671 134,-105 178.328,-114.56 229.916,-113.743 267.826,-110.997"/>
<polygon fill="midnightblue" stroke="midnightblue" points="268.447,-114.459 278.139,-110.178 267.893,-107.481 268.447,-114.459"/>
</g>
<!-- Node3 -->
<g id="node3" class="node"><title>Node3</title>
<g id="a_node3"><a xlink:href="../../d0/d3e/pps-files_8cpp.html#ae20c07f56a5b2b05b636f6a0a31ce214" target="_top" xlink:title="writeToLog">
<polygon fill="white" stroke="red" points="155.5,-76.5 155.5,-95.5 220.5,-95.5 220.5,-76.5 155.5,-76.5"/>
<text text-anchor="middle" x="188" y="-83.5" font-family="Helvetica,sans-Serif" font-size="10.00">writeToLog</text>
</a>
</g>
</g>
<!-- Node1&#45;&gt;Node3 -->
<g id="edge2" class="edge"><title>Node1&#45;&gt;Node3</title>
<path fill="none" stroke="midnightblue" d="M98.3011,-73.6987C113.699,-75.8342 130.592,-78.177 145.467,-80.2399"/>
<polygon fill="midnightblue" stroke="midnightblue" points="145.013,-83.7104 155.399,-81.6173 145.974,-76.7767 145.013,-83.7104"/>
</g>
<!-- Node4 -->
<g id="node4" class="node"><title>Node4</title>
<g id="a_node4"><a xlink:href="../../d5/d60/pps-client_8cpp.html#a27417d63efafbd4125276332f55a4347" target="_top" xlink:title="makeTimeCorrection">
<polygon fill="white" stroke="red" points="134.5,-38.5 134.5,-57.5 241.5,-57.5 241.5,-38.5 134.5,-38.5"/>
<text text-anchor="middle" x="188" y="-45.5" font-family="Helvetica,sans-Serif" font-size="10.00">makeTimeCorrection</text>
</a>
</g>
</g>
<!-- Node1&#45;&gt;Node4 -->
<g id="edge4" class="edge"><title>Node1&#45;&gt;Node4</title>
<path fill="none" stroke="midnightblue" d="M98.3011,-60.3013C106.717,-59.1341 115.581,-57.9049 124.317,-56.6933"/>
<polygon fill="midnightblue" stroke="midnightblue" points="125.055,-60.1245 134.479,-55.2839 124.093,-53.1909 125.055,-60.1245"/>
</g>
<!-- Node5 -->
<g id="node5" class="node"><title>Node5</title>
<g id="a_node5"><a xlink:href="../../d5/d60/pps-client_8cpp.html#ae0bab7cf61e38b79d3bade19c957735a" target="_top" xlink:title="initialize">
<polygon fill="white" stroke="red" points="162,-0.5 162,-19.5 214,-19.5 214,-0.5 162,-0.5"/>
<text text-anchor="middle" x="188" y="-7.5" font-family="Helvetica,sans-Serif" font-size="10.00">initialize</text>
</a>
</g>
</g>
<!-- Node1&#45;&gt;Node5 -->
<g id="edge5" class="edge"><title>Node1&#45;&gt;Node5</title>
<path fill="none" stroke="midnightblue" d="M69.8313,-57.4825C86.7301,-49.5046 111.744,-38.0063 134,-29 139.887,-26.6178 146.199,-24.221 152.342,-21.9704"/>
<polygon fill="midnightblue" stroke="midnightblue" points="153.546,-25.257 161.77,-18.5773 151.175,-18.6706 153.546,-25.257"/>
</g>
<!-- Node3&#45;&gt;Node2 -->
<g id="edge3" class="edge"><title>Node3&#45;&gt;Node2</title>
<path fill="none" stroke="midnightblue" d="M220.519,-90.5027C234.832,-92.5475 252.168,-95.0239 268.43,-97.3471"/>
<polygon fill="midnightblue" stroke="midnightblue" points="267.986,-100.819 278.38,-98.7686 268.976,-93.8895 267.986,-100.819"/>
</g>
</g>
</svg>
