<?xml version="1.0" encoding="UTF-8" standalone="no"?>
<!DOCTYPE svg PUBLIC "-//W3C//DTD SVG 1.1//EN"
 "http://www.w3.org/Graphics/SVG/1.1/DTD/svg11.dtd">
<!-- Generated by graphviz version 2.36.0 (20140111.2315)
 -->
<!-- Title: adjtimex Pages: 1 -->
<svg width="206pt" height="66pt"
 viewBox="0.00 0.00 206.00 66.00" xmlns="http://www.w3.org/2000/svg" xmlns:xlink="http://www.w3.org/1999/xlink">
<g id="graph0" class="graph" transform="scale(1 1) rotate(0) translate(4 62)">
<title>adjtimex</title>
<polygon fill="white" stroke="none" points="-4,4 -4,-62 202,-62 202,4 -4,4"/>
<!-- Node1 -->
<g id="node1" class="node"><title>Node1</title>
<polygon fill="#bfbfbf" stroke="black" points="0.5,-19.5 0.5,-38.5 53.5,-38.5 53.5,-19.5 0.5,-19.5"/>
<text text-anchor="middle" x="27" y="-26.5" font-family="Helvetica,sans-Serif" font-size="10.00">adjtimex</text>
</g>
<!-- Node2 -->
<g id="node2" class="node"><title>Node2</title>
<g id="a_node2"><a xlink:href="../../d5/d60/pps-client_8cpp.html#ae0bab7cf61e38b79d3bade19c957735a" target="_top" xlink:title="initialize">
<polygon fill="white" stroke="red" points="118,-38.5 118,-57.5 170,-57.5 170,-38.5 118,-38.5"/>
<text text-anchor="middle" x="144" y="-45.5" font-family="Helvetica,sans-Serif" font-size="10.00">initialize</text>
</a>
</g>
</g>
<!-- Node1&#45;&gt;Node2 -->
<g id="edge1" class="edge"><title>Node1&#45;&gt;Node2</title>
<path fill="none" stroke="midnightblue" d="M63.4678,-34.8599C81.1043,-37.7737 101.999,-41.2259 117.945,-43.8604"/>
<polygon fill="midnightblue" stroke="midnightblue" points="63.959,-31.3937 53.5222,-33.2167 62.8179,-38.3001 63.959,-31.3937"/>
</g>
<!-- Node3 -->
<g id="node3" class="node"><title>Node3</title>
<g id="a_node3"><a xlink:href="../../d5/d60/pps-client_8cpp.html#a27417d63efafbd4125276332f55a4347" target="_top" xlink:title="makeTimeCorrection">
<polygon fill="white" stroke="red" points="90.5,-0.5 90.5,-19.5 197.5,-19.5 197.5,-0.5 90.5,-0.5"/>
<text text-anchor="middle" x="144" y="-7.5" font-family="Helvetica,sans-Serif" font-size="10.00">makeTimeCorrection</text>
</a>
</g>
</g>
<!-- Node1&#45;&gt;Node3 -->
<g id="edge2" class="edge"><title>Node1&#45;&gt;Node3</title>
<path fill="none" stroke="midnightblue" d="M63.4303,-23.1463C71.9104,-21.7452 81.1455,-20.2194 90.2226,-18.7197"/>
<polygon fill="midnightblue" stroke="midnightblue" points="62.8179,-19.6999 53.5222,-24.7833 63.959,-26.6063 62.8179,-19.6999"/>
</g>
</g>
</svg>
