<?xml version="1.0" encoding="UTF-8" standalone="no"?>
<!DOCTYPE svg PUBLIC "-//W3C//DTD SVG 1.1//EN"
 "http://www.w3.org/Graphics/SVG/1.1/DTD/svg11.dtd">
<!-- Generated by graphviz version 2.36.0 (20140111.2315)
 -->
<!-- Title: initialize Pages: 1 -->
<svg width="190pt" height="66pt"
 viewBox="0.00 0.00 190.00 66.00" xmlns="http://www.w3.org/2000/svg" xmlns:xlink="http://www.w3.org/1999/xlink">
<g id="graph0" class="graph" transform="scale(1 1) rotate(0) translate(4 62)">
<title>initialize</title>
<polygon fill="white" stroke="none" points="-4,4 -4,-62 186,-62 186,4 -4,4"/>
<!-- Node1 -->
<g id="node1" class="node"><title>Node1</title>
<polygon fill="#bfbfbf" stroke="black" points="0,-19.5 0,-38.5 52,-38.5 52,-19.5 0,-19.5"/>
<text text-anchor="middle" x="26" y="-26.5" font-family="Helvetica,sans-Serif" font-size="10.00">initialize</text>
</g>
<!-- Node2 -->
<g id="node2" class="node"><title>Node2</title>
<g id="a_node2"><a xlink:href="../../d5/d60/pps-client_8cpp.html#a4efd2ecedb34b38cd1000d86ba5f6ef9" target="_top" xlink:title="adjtimex">
<polygon fill="white" stroke="black" points="108.5,-38.5 108.5,-57.5 161.5,-57.5 161.5,-38.5 108.5,-38.5"/>
<text text-anchor="middle" x="135" y="-45.5" font-family="Helvetica,sans-Serif" font-size="10.00">adjtimex</text>
</a>
</g>
</g>
<!-- Node1&#45;&gt;Node2 -->
<g id="edge1" class="edge"><title>Node1&#45;&gt;Node2</title>
<path fill="none" stroke="midnightblue" d="M52.0867,-33.4547C65.8382,-35.8965 83.1178,-38.9648 98.2575,-41.6532"/>
<polygon fill="midnightblue" stroke="midnightblue" points="97.8693,-45.1389 108.327,-43.4413 99.0932,-38.2468 97.8693,-45.1389"/>
</g>
<!-- Node3 -->
<g id="node3" class="node"><title>Node3</title>
<g id="a_node3"><a xlink:href="../../d5/d60/pps-client_8cpp.html#a7fb630b24d9e82f7bc81139e72ff681f" target="_top" xlink:title="setDelayTrackers">
<polygon fill="white" stroke="black" points="88,-0.5 88,-19.5 182,-19.5 182,-0.5 88,-0.5"/>
<text text-anchor="middle" x="135" y="-7.5" font-family="Helvetica,sans-Serif" font-size="10.00">setDelayTrackers</text>
</a>
</g>
</g>
<!-- Node1&#45;&gt;Node3 -->
<g id="edge2" class="edge"><title>Node1&#45;&gt;Node3</title>
<path fill="none" stroke="midnightblue" d="M52.0867,-24.5453C59.806,-23.1746 68.637,-21.6065 77.5772,-20.019"/>
<polygon fill="midnightblue" stroke="midnightblue" points="78.4298,-23.4224 87.6638,-18.2279 77.2059,-16.5303 78.4298,-23.4224"/>
</g>
</g>
</svg>
