<?xml version="1.0" encoding="UTF-8" standalone="no"?>
<!DOCTYPE svg PUBLIC "-//W3C//DTD SVG 1.1//EN"
 "http://www.w3.org/Graphics/SVG/1.1/DTD/svg11.dtd">
<!-- Generated by graphviz version 2.36.0 (20140111.2315)
 -->
<!-- Title: main Pages: 1 -->
<svg width="536pt" height="408pt"
 viewBox="0.00 0.00 536.00 408.00" xmlns="http://www.w3.org/2000/svg" xmlns:xlink="http://www.w3.org/1999/xlink">
<g id="graph0" class="graph" transform="scale(1 1) rotate(0) translate(4 404)">
<title>main</title>
<polygon fill="white" stroke="none" points="-4,4 -4,-404 532,-404 532,4 -4,4"/>
<!-- Node1 -->
<g id="node1" class="node"><title>Node1</title>
<polygon fill="#bfbfbf" stroke="black" points="0,-190.5 0,-209.5 38,-209.5 38,-190.5 0,-190.5"/>
<text text-anchor="middle" x="19" y="-197.5" font-family="Helvetica,sans-Serif" font-size="10.00">main</text>
</g>
<!-- Node2 -->
<g id="node2" class="node"><title>Node2</title>
<g id="a_node2"><a xlink:href="../../d0/d3e/pps-files_8cpp.html#aa3e1b9d34eeedb9b1d03863dee0b8e58" target="_top" xlink:title="accessDaemon">
<polygon fill="white" stroke="red" points="74.5,-380.5 74.5,-399.5 159.5,-399.5 159.5,-380.5 74.5,-380.5"/>
<text text-anchor="middle" x="117" y="-387.5" font-family="Helvetica,sans-Serif" font-size="10.00">accessDaemon</text>
</a>
</g>
</g>
<!-- Node1&#45;&gt;Node2 -->
<g id="edge1" class="edge"><title>Node1&#45;&gt;Node2</title>
<path fill="none" stroke="midnightblue" d="M20.7495,-209.764C23.3283,-237.319 34.0212,-316.872 74,-366 76.7432,-369.371 80.0936,-372.36 83.6936,-374.983"/>
<polygon fill="midnightblue" stroke="midnightblue" points="82.0508,-378.085 92.3785,-380.449 85.7795,-372.16 82.0508,-378.085"/>
</g>
<!-- Node3 -->
<g id="node3" class="node"><title>Node3</title>
<g id="a_node3"><a xlink:href="../../d0/d3e/pps-files_8cpp.html#a6f609d689ebe787455ce220808ca3ba0" target="_top" xlink:title="bufferStatusMsg">
<polygon fill="white" stroke="black" points="438.5,-285.5 438.5,-304.5 527.5,-304.5 527.5,-285.5 438.5,-285.5"/>
<text text-anchor="middle" x="483" y="-292.5" font-family="Helvetica,sans-Serif" font-size="10.00">bufferStatusMsg</text>
</a>
</g>
</g>
<!-- Node1&#45;&gt;Node3 -->
<g id="edge2" class="edge"><title>Node1&#45;&gt;Node3</title>
<path fill="none" stroke="midnightblue" d="M22.6781,-209.681C28.5147,-228.828 44.3006,-271.452 74,-292 188.286,-371.07 367.03,-330.708 444.311,-307.533"/>
<polygon fill="midnightblue" stroke="midnightblue" points="445.561,-310.81 454.092,-304.527 443.505,-304.119 445.561,-310.81"/>
</g>
<!-- Node4 -->
<g id="node4" class="node"><title>Node4</title>
<g id="a_node4"><a xlink:href="../../d0/d3e/pps-files_8cpp.html#ae20c07f56a5b2b05b636f6a0a31ce214" target="_top" xlink:title="writeToLog">
<polygon fill="white" stroke="red" points="336.5,-209.5 336.5,-228.5 401.5,-228.5 401.5,-209.5 336.5,-209.5"/>
<text text-anchor="middle" x="369" y="-216.5" font-family="Helvetica,sans-Serif" font-size="10.00">writeToLog</text>
</a>
</g>
</g>
<!-- Node1&#45;&gt;Node4 -->
<g id="edge3" class="edge"><title>Node1&#45;&gt;Node4</title>
<path fill="none" stroke="midnightblue" d="M25.2545,-209.602C33.6226,-223.956 51.3681,-250.832 74,-265 121.328,-294.629 140.568,-288.285 196,-295 241.887,-300.559 257.803,-313.867 300,-295 326.289,-283.246 346.622,-255.749 357.955,-237.259"/>
<polygon fill="midnightblue" stroke="midnightblue" points="361.025,-238.942 363.045,-228.541 354.98,-235.412 361.025,-238.942"/>
</g>
<!-- Node5 -->
<g id="node5" class="node"><title>Node5</title>
<g id="a_node5"><a xlink:href="../../dc/d4f/pps-sntp_8cpp.html#a00920970793070954118aaecfa6024e0" target="_top" xlink:title="waitForNTPServers">
<polygon fill="white" stroke="red" points="196.5,-266.5 196.5,-285.5 299.5,-285.5 299.5,-266.5 196.5,-266.5"/>
<text text-anchor="middle" x="248" y="-273.5" font-family="Helvetica,sans-Serif" font-size="10.00">waitForNTPServers</text>
</a>
</g>
</g>
<!-- Node1&#45;&gt;Node5 -->
<g id="edge5" class="edge"><title>Node1&#45;&gt;Node5</title>
<path fill="none" stroke="midnightblue" d="M30.3406,-209.509C40.646,-218.464 57.3021,-231.581 74,-239 109.485,-254.765 152.112,-263.983 186.174,-269.275"/>
<polygon fill="midnightblue" stroke="midnightblue" points="186.048,-272.795 196.453,-270.795 187.072,-265.87 186.048,-272.795"/>
</g>
<!-- Node6 -->
<g id="node6" class="node"><title>Node6</title>
<g id="a_node6"><a xlink:href="../../d0/d3e/pps-files_8cpp.html#acd69b12da38af4c9a820f9969856370f" target="_top" xlink:title="driver_load">
<polygon fill="white" stroke="red" points="216,-228.5 216,-247.5 280,-247.5 280,-228.5 216,-228.5"/>
<text text-anchor="middle" x="248" y="-235.5" font-family="Helvetica,sans-Serif" font-size="10.00">driver_load</text>
</a>
</g>
</g>
<!-- Node1&#45;&gt;Node6 -->
<g id="edge7" class="edge"><title>Node1&#45;&gt;Node6</title>
<path fill="none" stroke="midnightblue" d="M38.1869,-207.572C48.5179,-211.574 61.7901,-216.22 74,-219 118.188,-229.06 169.981,-233.854 205.3,-236.099"/>
<polygon fill="midnightblue" stroke="midnightblue" points="205.516,-239.618 215.706,-236.717 205.931,-232.631 205.516,-239.618"/>
</g>
<!-- Node7 -->
<g id="node7" class="node"><title>Node7</title>
<g id="a_node7"><a xlink:href="../../d0/d3e/pps-files_8cpp.html#a63902ed5404b3607594a3ad7d080da10" target="_top" xlink:title="disableNTP">
<polygon fill="white" stroke="red" points="83,-190.5 83,-209.5 151,-209.5 151,-190.5 83,-190.5"/>
<text text-anchor="middle" x="117" y="-197.5" font-family="Helvetica,sans-Serif" font-size="10.00">disableNTP</text>
</a>
</g>
</g>
<!-- Node1&#45;&gt;Node7 -->
<g id="edge9" class="edge"><title>Node1&#45;&gt;Node7</title>
<path fill="none" stroke="midnightblue" d="M38.0569,-200C47.9013,-200 60.5435,-200 72.769,-200"/>
<polygon fill="midnightblue" stroke="midnightblue" points="72.8699,-203.5 82.8698,-200 72.8698,-196.5 72.8699,-203.5"/>
</g>
<!-- Node8 -->
<g id="node8" class="node"><title>Node8</title>
<g id="a_node8"><a xlink:href="../../d0/d3e/pps-files_8cpp.html#a94ad6f36dae10e5652ea241b11d2e5c7" target="_top" xlink:title="open_logerr">
<polygon fill="white" stroke="red" points="214.5,-152.5 214.5,-171.5 281.5,-171.5 281.5,-152.5 214.5,-152.5"/>
<text text-anchor="middle" x="248" y="-159.5" font-family="Helvetica,sans-Serif" font-size="10.00">open_logerr</text>
</a>
</g>
</g>
<!-- Node1&#45;&gt;Node8 -->
<g id="edge16" class="edge"><title>Node1&#45;&gt;Node8</title>
<path fill="none" stroke="midnightblue" d="M38.1869,-192.428C48.5179,-188.426 61.7901,-183.78 74,-181 117.654,-171.061 168.73,-166.262 204.012,-163.983"/>
<polygon fill="midnightblue" stroke="midnightblue" points="204.659,-167.451 214.429,-163.354 204.236,-160.463 204.659,-167.451"/>
</g>
<!-- Node9 -->
<g id="node9" class="node"><title>Node9</title>
<g id="a_node9"><a xlink:href="../../d0/d3e/pps-files_8cpp.html#a9942302e3e5272291f62fda42bdf6319" target="_top" xlink:title="createPIDfile">
<polygon fill="white" stroke="black" points="80,-76.5 80,-95.5 154,-95.5 154,-76.5 80,-76.5"/>
<text text-anchor="middle" x="117" y="-83.5" font-family="Helvetica,sans-Serif" font-size="10.00">createPIDfile</text>
</a>
</g>
</g>
<!-- Node1&#45;&gt;Node9 -->
<g id="edge13" class="edge"><title>Node1&#45;&gt;Node9</title>
<path fill="none" stroke="midnightblue" d="M23.1826,-190.346C29.8166,-171.569 46.8056,-129.8 74,-105 75.6816,-103.466 77.5079,-102.039 79.426,-100.713"/>
<polygon fill="midnightblue" stroke="midnightblue" points="81.401,-103.613 88.2589,-95.5369 77.8616,-97.5735 81.401,-103.613"/>
</g>
<!-- Node10 -->
<g id="node10" class="node"><title>Node10</title>
<g id="a_node10"><a xlink:href="../../d5/d60/pps-client_8cpp.html#a4b3bdab744bd7ed860326323fad180f2" target="_top" xlink:title="waitForPPS">
<polygon fill="white" stroke="red" points="213.5,-48.5 213.5,-67.5 282.5,-67.5 282.5,-48.5 213.5,-48.5"/>
<text text-anchor="middle" x="248" y="-55.5" font-family="Helvetica,sans-Serif" font-size="10.00">waitForPPS</text>
</a>
</g>
</g>
<!-- Node1&#45;&gt;Node10 -->
<g id="edge17" class="edge"><title>Node1&#45;&gt;Node10</title>
<path fill="none" stroke="midnightblue" d="M20.5886,-190.168C22.6957,-164.748 32.1745,-96.7678 74,-67 111.292,-40.459 165.387,-42.2943 203.126,-48.1469"/>
<polygon fill="midnightblue" stroke="midnightblue" points="202.863,-51.6525 213.309,-49.8839 204.04,-44.7522 202.863,-51.6525"/>
</g>
<!-- Node11 -->
<g id="node11" class="node"><title>Node11</title>
<g id="a_node11"><a xlink:href="../../d0/d3e/pps-files_8cpp.html#a6354b54021f614ab3ab87ef5b3df64d0" target="_top" xlink:title="enableNTP">
<polygon fill="white" stroke="red" points="84.5,-114.5 84.5,-133.5 149.5,-133.5 149.5,-114.5 84.5,-114.5"/>
<text text-anchor="middle" x="117" y="-121.5" font-family="Helvetica,sans-Serif" font-size="10.00">enableNTP</text>
</a>
</g>
</g>
<!-- Node1&#45;&gt;Node11 -->
<g id="edge19" class="edge"><title>Node1&#45;&gt;Node11</title>
<path fill="none" stroke="midnightblue" d="M28.5518,-190.437C38.7123,-179.406 56.4991,-161.108 74,-148 78.3419,-144.748 83.1667,-141.609 87.9542,-138.733"/>
<polygon fill="midnightblue" stroke="midnightblue" points="90.0388,-141.573 96.978,-133.567 86.5607,-135.498 90.0388,-141.573"/>
</g>
<!-- Node12 -->
<g id="node12" class="node"><title>Node12</title>
<g id="a_node12"><a xlink:href="../../d0/d3e/pps-files_8cpp.html#a34b7bac89f457e9dbef6948028db3a4e" target="_top" xlink:title="driver_unload">
<polygon fill="white" stroke="black" points="80,-0.5 80,-19.5 154,-19.5 154,-0.5 80,-0.5"/>
<text text-anchor="middle" x="117" y="-7.5" font-family="Helvetica,sans-Serif" font-size="10.00">driver_unload</text>
</a>
</g>
</g>
<!-- Node1&#45;&gt;Node12 -->
<g id="edge21" class="edge"><title>Node1&#45;&gt;Node12</title>
<path fill="none" stroke="midnightblue" d="M20.7495,-190.236C23.3283,-162.681 34.0212,-83.1282 74,-34 76.7432,-30.629 80.0936,-27.6402 83.6936,-25.0168"/>
<polygon fill="midnightblue" stroke="midnightblue" points="85.7795,-27.8395 92.3785,-19.5507 82.0508,-21.9152 85.7795,-27.8395"/>
</g>
<!-- Node4&#45;&gt;Node3 -->
<g id="edge4" class="edge"><title>Node4&#45;&gt;Node3</title>
<path fill="none" stroke="midnightblue" d="M384.185,-228.625C403.204,-241.531 437.173,-264.582 459.649,-279.833"/>
<polygon fill="midnightblue" stroke="midnightblue" points="457.69,-282.734 467.93,-285.453 461.621,-276.941 457.69,-282.734"/>
</g>
<!-- Node5&#45;&gt;Node4 -->
<g id="edge6" class="edge"><title>Node5&#45;&gt;Node4</title>
<path fill="none" stroke="midnightblue" d="M277.109,-266.405C284.639,-263.598 292.71,-260.371 300,-257 314.915,-250.103 330.991,-241.193 343.765,-233.734"/>
<polygon fill="midnightblue" stroke="midnightblue" points="345.599,-236.716 352.42,-228.609 342.032,-230.693 345.599,-236.716"/>
</g>
<!-- Node6&#45;&gt;Node4 -->
<g id="edge8" class="edge"><title>Node6&#45;&gt;Node4</title>
<path fill="none" stroke="midnightblue" d="M280.266,-233.008C294.254,-230.775 310.951,-228.109 326.007,-225.705"/>
<polygon fill="midnightblue" stroke="midnightblue" points="326.792,-229.124 336.115,-224.091 325.688,-222.211 326.792,-229.124"/>
</g>
<!-- Node7&#45;&gt;Node4 -->
<g id="edge12" class="edge"><title>Node7&#45;&gt;Node4</title>
<path fill="none" stroke="midnightblue" d="M151.198,-202.523C196.335,-205.953 277.063,-212.089 326.253,-215.827"/>
<polygon fill="midnightblue" stroke="midnightblue" points="326.01,-219.319 336.246,-216.587 326.54,-212.339 326.01,-219.319"/>
</g>
<!-- Node7&#45;&gt;Node8 -->
<g id="edge10" class="edge"><title>Node7&#45;&gt;Node8</title>
<path fill="none" stroke="midnightblue" d="M150.552,-190.411C166.899,-185.596 186.909,-179.701 204.457,-174.532"/>
<polygon fill="midnightblue" stroke="midnightblue" points="205.855,-177.769 214.458,-171.586 203.877,-171.054 205.855,-177.769"/>
</g>
<!-- Node8&#45;&gt;Node4 -->
<g id="edge11" class="edge"><title>Node8&#45;&gt;Node4</title>
<path fill="none" stroke="midnightblue" d="M269.376,-171.521C278.721,-175.904 289.935,-181.19 300,-186 312.892,-192.161 327.12,-199.052 339.214,-204.936"/>
<polygon fill="midnightblue" stroke="midnightblue" points="337.868,-208.173 348.39,-209.407 340.933,-201.881 337.868,-208.173"/>
</g>
<!-- Node9&#45;&gt;Node4 -->
<g id="edge15" class="edge"><title>Node9&#45;&gt;Node4</title>
<path fill="none" stroke="midnightblue" d="M154.287,-91.4661C192.872,-98.5658 254.487,-113.686 300,-143 323.485,-158.126 343.852,-183.477 356.023,-200.703"/>
<polygon fill="midnightblue" stroke="midnightblue" points="353.379,-203.037 361.909,-209.32 359.159,-199.088 353.379,-203.037"/>
</g>
<!-- Node9&#45;&gt;Node8 -->
<g id="edge14" class="edge"><title>Node9&#45;&gt;Node8</title>
<path fill="none" stroke="midnightblue" d="M141.003,-95.5915C147.266,-98.4219 153.981,-101.662 160,-105 176.816,-114.327 179.927,-118.443 196,-129 204.897,-134.844 214.707,-141.21 223.326,-146.777"/>
<polygon fill="midnightblue" stroke="midnightblue" points="221.489,-149.757 231.79,-152.235 225.283,-143.874 221.489,-149.757"/>
</g>
<!-- Node10&#45;&gt;Node4 -->
<g id="edge18" class="edge"><title>Node10&#45;&gt;Node4</title>
<path fill="none" stroke="midnightblue" d="M263.148,-67.8107C274.089,-75.8678 289.152,-88.0299 300,-101 326.414,-132.58 348.355,-175.792 359.688,-200.202"/>
<polygon fill="midnightblue" stroke="midnightblue" points="356.554,-201.766 363.877,-209.423 362.928,-198.871 356.554,-201.766"/>
</g>
<!-- Node11&#45;&gt;Node8 -->
<g id="edge20" class="edge"><title>Node11&#45;&gt;Node8</title>
<path fill="none" stroke="midnightblue" d="M149.557,-133.296C166.172,-138.19 186.774,-144.259 204.748,-149.554"/>
<polygon fill="midnightblue" stroke="midnightblue" points="203.84,-152.935 214.422,-152.403 205.818,-146.22 203.84,-152.935"/>
</g>
</g>
</svg>
