<?xml version="1.0" encoding="UTF-8" standalone="no"?>
<!DOCTYPE svg PUBLIC "-//W3C//DTD SVG 1.1//EN"
 "http://www.w3.org/Graphics/SVG/1.1/DTD/svg11.dtd">
<!-- Generated by graphviz version 2.36.0 (20140111.2315)
 -->
<!-- Title: makeTimeCorrection Pages: 1 -->
<svg width="264pt" height="446pt"
 viewBox="0.00 0.00 264.00 446.00" xmlns="http://www.w3.org/2000/svg" xmlns:xlink="http://www.w3.org/1999/xlink">
<g id="graph0" class="graph" transform="scale(1 1) rotate(0) translate(4 442)">
<title>makeTimeCorrection</title>
<polygon fill="white" stroke="none" points="-4,4 -4,-442 260,-442 260,4 -4,4"/>
<!-- Node1 -->
<g id="node1" class="node"><title>Node1</title>
<polygon fill="#bfbfbf" stroke="black" points="0.5,-209.5 0.5,-228.5 107.5,-228.5 107.5,-209.5 0.5,-209.5"/>
<text text-anchor="middle" x="54" y="-216.5" font-family="Helvetica,sans-Serif" font-size="10.00">makeTimeCorrection</text>
</g>
<!-- Node2 -->
<g id="node2" class="node"><title>Node2</title>
<g id="a_node2"><a xlink:href="../../d5/d60/pps-client_8cpp.html#aa8b4e9f304261f8d81a3d9b52991e3c4" target="_top" xlink:title="setClockToNTPtime">
<polygon fill="white" stroke="red" points="147,-418.5 147,-437.5 253,-437.5 253,-418.5 147,-418.5"/>
<text text-anchor="middle" x="200" y="-425.5" font-family="Helvetica,sans-Serif" font-size="10.00">setClockToNTPtime</text>
</a>
</g>
</g>
<!-- Node1&#45;&gt;Node2 -->
<g id="edge1" class="edge"><title>Node1&#45;&gt;Node2</title>
<path fill="none" stroke="midnightblue" d="M56.8077,-228.888C63.0116,-260.034 86.323,-357.105 144,-409 145.739,-410.565 147.613,-412.002 149.585,-413.321"/>
<polygon fill="midnightblue" stroke="midnightblue" points="148.283,-416.602 158.726,-418.388 151.676,-410.479 148.283,-416.602"/>
</g>
<!-- Node3 -->
<g id="node3" class="node"><title>Node3</title>
<g id="a_node3"><a xlink:href="../../d5/d60/pps-client_8cpp.html#a75f33c602a27dd5150efbe4b4389e2da" target="_top" xlink:title="getFractionalSeconds">
<polygon fill="white" stroke="black" points="144.5,-380.5 144.5,-399.5 255.5,-399.5 255.5,-380.5 144.5,-380.5"/>
<text text-anchor="middle" x="200" y="-387.5" font-family="Helvetica,sans-Serif" font-size="10.00">getFractionalSeconds</text>
</a>
</g>
</g>
<!-- Node1&#45;&gt;Node3 -->
<g id="edge2" class="edge"><title>Node1&#45;&gt;Node3</title>
<path fill="none" stroke="midnightblue" d="M58.0261,-228.773C66.8025,-255.531 94.8171,-330.667 144,-371 146.051,-372.682 148.259,-374.218 150.571,-375.622"/>
<polygon fill="midnightblue" stroke="midnightblue" points="149.394,-378.952 159.89,-380.401 152.589,-372.723 149.394,-378.952"/>
</g>
<!-- Node4 -->
<g id="node4" class="node"><title>Node4</title>
<g id="a_node4"><a xlink:href="../../d5/d60/pps-client_8cpp.html#ad71923ccec11a6d6e132c43e60fe8765" target="_top" xlink:title="removeNoise">
<polygon fill="white" stroke="red" points="163,-342.5 163,-361.5 237,-361.5 237,-342.5 163,-342.5"/>
<text text-anchor="middle" x="200" y="-349.5" font-family="Helvetica,sans-Serif" font-size="10.00">removeNoise</text>
</a>
</g>
</g>
<!-- Node1&#45;&gt;Node4 -->
<g id="edge3" class="edge"><title>Node1&#45;&gt;Node4</title>
<path fill="none" stroke="midnightblue" d="M60.0471,-228.788C71.8011,-250.649 103.137,-303.81 144,-333 147.013,-335.152 150.291,-337.078 153.696,-338.798"/>
<polygon fill="midnightblue" stroke="midnightblue" points="152.352,-342.03 162.913,-342.883 155.189,-335.631 152.352,-342.03"/>
</g>
<!-- Node5 -->
<g id="node5" class="node"><title>Node5</title>
<g id="a_node5"><a xlink:href="../../d5/d60/pps-client_8cpp.html#a86c229e1f60e3e90ca0a1c6e91841a10" target="_top" xlink:title="getPPStime">
<polygon fill="white" stroke="red" points="165.5,-304.5 165.5,-323.5 234.5,-323.5 234.5,-304.5 165.5,-304.5"/>
<text text-anchor="middle" x="200" y="-311.5" font-family="Helvetica,sans-Serif" font-size="10.00">getPPStime</text>
</a>
</g>
</g>
<!-- Node1&#45;&gt;Node5 -->
<g id="edge4" class="edge"><title>Node1&#45;&gt;Node5</title>
<path fill="none" stroke="midnightblue" d="M63.9662,-228.73C79.0786,-244.616 111.197,-276.232 144,-295 147.699,-297.117 151.673,-299.051 155.73,-300.807"/>
<polygon fill="midnightblue" stroke="midnightblue" points="154.672,-304.153 165.259,-304.58 157.249,-297.644 154.672,-304.153"/>
</g>
<!-- Node6 -->
<g id="node6" class="node"><title>Node6</title>
<g id="a_node6"><a xlink:href="../../d5/d60/pps-client_8cpp.html#a4efd2ecedb34b38cd1000d86ba5f6ef9" target="_top" xlink:title="adjtimex">
<polygon fill="white" stroke="black" points="173.5,-266.5 173.5,-285.5 226.5,-285.5 226.5,-266.5 173.5,-266.5"/>
<text text-anchor="middle" x="200" y="-273.5" font-family="Helvetica,sans-Serif" font-size="10.00">adjtimex</text>
</a>
</g>
</g>
<!-- Node1&#45;&gt;Node6 -->
<g id="edge5" class="edge"><title>Node1&#45;&gt;Node6</title>
<path fill="none" stroke="midnightblue" d="M76.4061,-228.645C94.3257,-236.597 120.643,-247.992 144,-257 150.396,-259.467 157.266,-261.961 163.909,-264.294"/>
<polygon fill="midnightblue" stroke="midnightblue" points="162.803,-267.615 173.398,-267.576 165.091,-261 162.803,-267.615"/>
</g>
<!-- Node7 -->
<g id="node7" class="node"><title>Node7</title>
<g id="a_node7"><a xlink:href="../../d5/d60/pps-client_8cpp.html#ad4d47fa254fa62368be4b75c2d5a5889" target="_top" xlink:title="getAcquireState">
<polygon fill="white" stroke="black" points="157,-228.5 157,-247.5 243,-247.5 243,-228.5 157,-228.5"/>
<text text-anchor="middle" x="200" y="-235.5" font-family="Helvetica,sans-Serif" font-size="10.00">getAcquireState</text>
</a>
</g>
</g>
<!-- Node1&#45;&gt;Node7 -->
<g id="edge6" class="edge"><title>Node1&#45;&gt;Node7</title>
<path fill="none" stroke="midnightblue" d="M107.803,-225.967C120.47,-227.638 133.993,-229.423 146.64,-231.091"/>
<polygon fill="midnightblue" stroke="midnightblue" points="146.19,-234.562 156.562,-232.401 147.106,-227.622 146.19,-234.562"/>
</g>
<!-- Node8 -->
<g id="node8" class="node"><title>Node8</title>
<g id="a_node8"><a xlink:href="../../d5/d60/pps-client_8cpp.html#a062748b2a1af5a7bb4e0efd94b84f8d1" target="_top" xlink:title="getAverageCorrection">
<polygon fill="white" stroke="red" points="144.5,-190.5 144.5,-209.5 255.5,-209.5 255.5,-190.5 144.5,-190.5"/>
<text text-anchor="middle" x="200" y="-197.5" font-family="Helvetica,sans-Serif" font-size="10.00">getAverageCorrection</text>
</a>
</g>
</g>
<!-- Node1&#45;&gt;Node8 -->
<g id="edge7" class="edge"><title>Node1&#45;&gt;Node8</title>
<path fill="none" stroke="midnightblue" d="M107.803,-212.033C116.434,-210.894 125.462,-209.703 134.341,-208.531"/>
<polygon fill="midnightblue" stroke="midnightblue" points="134.815,-211.999 144.271,-207.221 133.899,-205.059 134.815,-211.999"/>
</g>
<!-- Node9 -->
<g id="node9" class="node"><title>Node9</title>
<g id="a_node9"><a xlink:href="../../d5/d60/pps-client_8cpp.html#aec269fd5b44aeaa993781dddc42a2b59" target="_top" xlink:title="makeAverageIntegral">
<polygon fill="white" stroke="black" points="145.5,-152.5 145.5,-171.5 254.5,-171.5 254.5,-152.5 145.5,-152.5"/>
<text text-anchor="middle" x="200" y="-159.5" font-family="Helvetica,sans-Serif" font-size="10.00">makeAverageIntegral</text>
</a>
</g>
</g>
<!-- Node1&#45;&gt;Node9 -->
<g id="edge8" class="edge"><title>Node1&#45;&gt;Node9</title>
<path fill="none" stroke="midnightblue" d="M76.4061,-209.355C94.3257,-201.403 120.643,-190.008 144,-181 149.243,-178.978 154.804,-176.938 160.298,-174.982"/>
<polygon fill="midnightblue" stroke="midnightblue" points="161.747,-178.183 170.03,-171.577 159.435,-171.576 161.747,-178.183"/>
</g>
<!-- Node10 -->
<g id="node10" class="node"><title>Node10</title>
<g id="a_node10"><a xlink:href="../../d5/d60/pps-client_8cpp.html#a2a7a8a06f0119359f624d891dbcfa08f" target="_top" xlink:title="integralIsReady">
<polygon fill="white" stroke="red" points="157.5,-114.5 157.5,-133.5 242.5,-133.5 242.5,-114.5 157.5,-114.5"/>
<text text-anchor="middle" x="200" y="-121.5" font-family="Helvetica,sans-Serif" font-size="10.00">integralIsReady</text>
</a>
</g>
</g>
<!-- Node1&#45;&gt;Node10 -->
<g id="edge9" class="edge"><title>Node1&#45;&gt;Node10</title>
<path fill="none" stroke="midnightblue" d="M63.9662,-209.27C79.0786,-193.384 111.197,-161.768 144,-143 147.65,-140.912 151.567,-139 155.568,-137.263"/>
<polygon fill="midnightblue" stroke="midnightblue" points="156.969,-140.472 164.969,-133.526 154.383,-133.968 156.969,-140.472"/>
</g>
<!-- Node11 -->
<g id="node11" class="node"><title>Node11</title>
<g id="a_node11"><a xlink:href="../../d5/d60/pps-client_8cpp.html#a8696238d80e8a7a4ae44de6de50ab1ce" target="_top" xlink:title="getIntegral">
<polygon fill="white" stroke="red" points="169,-76.5 169,-95.5 231,-95.5 231,-76.5 169,-76.5"/>
<text text-anchor="middle" x="200" y="-83.5" font-family="Helvetica,sans-Serif" font-size="10.00">getIntegral</text>
</a>
</g>
</g>
<!-- Node1&#45;&gt;Node11 -->
<g id="edge10" class="edge"><title>Node1&#45;&gt;Node11</title>
<path fill="none" stroke="midnightblue" d="M60.0471,-209.212C71.8011,-187.351 103.137,-134.19 144,-105 148.624,-101.697 153.871,-98.9281 159.245,-96.6182"/>
<polygon fill="midnightblue" stroke="midnightblue" points="160.837,-99.7579 168.946,-92.9398 158.355,-93.2126 160.837,-99.7579"/>
</g>
<!-- Node12 -->
<g id="node12" class="node"><title>Node12</title>
<g id="a_node12"><a xlink:href="../../d0/d3e/pps-files_8cpp.html#a844fdb2cde0cee3651ece4170fbeb59a" target="_top" xlink:title="recordOffsets">
<polygon fill="white" stroke="black" points="162,-38.5 162,-57.5 238,-57.5 238,-38.5 162,-38.5"/>
<text text-anchor="middle" x="200" y="-45.5" font-family="Helvetica,sans-Serif" font-size="10.00">recordOffsets</text>
</a>
</g>
</g>
<!-- Node1&#45;&gt;Node12 -->
<g id="edge11" class="edge"><title>Node1&#45;&gt;Node12</title>
<path fill="none" stroke="midnightblue" d="M58.0261,-209.227C66.8025,-182.469 94.8171,-107.333 144,-67 146.699,-64.7869 149.671,-62.8252 152.793,-61.0872"/>
<polygon fill="midnightblue" stroke="midnightblue" points="154.363,-64.2164 161.888,-56.7587 151.354,-57.8956 154.363,-64.2164"/>
</g>
<!-- Node13 -->
<g id="node13" class="node"><title>Node13</title>
<g id="a_node13"><a xlink:href="../../d0/d3e/pps-files_8cpp.html#af916d258db5da33fc999021de2722283" target="_top" xlink:title="writeSysDelay">
<polygon fill="white" stroke="red" points="160,-0.5 160,-19.5 240,-19.5 240,-0.5 160,-0.5"/>
<text text-anchor="middle" x="200" y="-7.5" font-family="Helvetica,sans-Serif" font-size="10.00">writeSysDelay</text>
</a>
</g>
</g>
<!-- Node1&#45;&gt;Node13 -->
<g id="edge12" class="edge"><title>Node1&#45;&gt;Node13</title>
<path fill="none" stroke="midnightblue" d="M56.8077,-209.112C63.0116,-177.966 86.323,-80.8946 144,-29 146.147,-27.0679 148.501,-25.3304 150.989,-23.7681"/>
<polygon fill="midnightblue" stroke="midnightblue" points="152.634,-26.8572 159.854,-19.1032 149.375,-20.6624 152.634,-26.8572"/>
</g>
</g>
</svg>
