<?xml version="1.0" encoding="UTF-8" standalone="no"?>
<!DOCTYPE svg PUBLIC "-//W3C//DTD SVG 1.1//EN"
 "http://www.w3.org/Graphics/SVG/1.1/DTD/svg11.dtd">
<!-- Generated by graphviz version 2.40.1 (20161225.0304)
 -->
<!-- Title: clampJitter Pages: 1 -->
<svg width="206pt" height="64pt"
 viewBox="0.00 0.00 206.04 64.00" xmlns="http://www.w3.org/2000/svg" xmlns:xlink="http://www.w3.org/1999/xlink">
<g id="graph0" class="graph" transform="scale(1 1) rotate(0) translate(4 60)">
<title>clampJitter</title>
<polygon fill="#ffffff" stroke="transparent" points="-4,4 -4,-60 202.0439,-60 202.0439,4 -4,4"/>
<!-- Node23 -->
<g id="node1" class="node">
<title>Node23</title>
<polygon fill="#bfbfbf" stroke="#000000" points="0,-18.5 0,-36.5 64.3447,-36.5 64.3447,-18.5 0,-18.5"/>
<text text-anchor="middle" x="32.1724" y="-24.5" font-family="Helvetica,sans-Serif" font-size="10.00" fill="#000000">clampJitter</text>
</g>
<!-- Node24 -->
<g id="node2" class="node">
<title>Node24</title>
<g id="a_node2"><a xlink:href="../../d5/d60/pps-client_8cpp.html#ad71923ccec11a6d6e132c43e60fe8765" target="_top" xlink:title="removeNoise">
<polygon fill="#ffffff" stroke="#ff0000" points="111.7388,-37.5 111.7388,-55.5 186.6499,-55.5 186.6499,-37.5 111.7388,-37.5"/>
<text text-anchor="middle" x="149.1943" y="-43.5" font-family="Helvetica,sans-Serif" font-size="10.00" fill="#000000">removeNoise</text>
</a>
</g>
</g>
<!-- Node23&#45;&gt;Node24 -->
<g id="edge1" class="edge">
<title>Node23&#45;&gt;Node24</title>
<path fill="none" stroke="#191970" d="M74.392,-34.3549C86.5648,-36.3313 99.7596,-38.4737 111.6296,-40.4009"/>
<polygon fill="#191970" stroke="#191970" points="74.8906,-30.8901 64.4589,-32.7421 73.7687,-37.7996 74.8906,-30.8901"/>
</g>
<!-- Node29 -->
<g id="node3" class="node">
<title>Node29</title>
<g id="a_node3"><a xlink:href="../../d5/d60/pps-client_8cpp.html#abfab868ee3b041247625234432820321" target="_top" xlink:title="removeIntrptNoise">
<polygon fill="#ffffff" stroke="#ff0000" points="100.3447,-.5 100.3447,-18.5 198.0439,-18.5 198.0439,-.5 100.3447,-.5"/>
<text text-anchor="middle" x="149.1943" y="-6.5" font-family="Helvetica,sans-Serif" font-size="10.00" fill="#000000">removeIntrptNoise</text>
</a>
</g>
</g>
<!-- Node23&#45;&gt;Node29 -->
<g id="edge2" class="edge">
<title>Node23&#45;&gt;Node29</title>
<path fill="none" stroke="#191970" d="M74.5747,-20.9778C82.7981,-19.7129 91.482,-18.3772 99.9043,-17.0817"/>
<polygon fill="#191970" stroke="#191970" points="73.8105,-17.5541 64.4589,-22.5338 74.8748,-24.4727 73.8105,-17.5541"/>
</g>
</g>
</svg>
