<?xml version="1.0" encoding="UTF-8" standalone="no"?>
<!DOCTYPE svg PUBLIC "-//W3C//DTD SVG 1.1//EN"
 "http://www.w3.org/Graphics/SVG/1.1/DTD/svg11.dtd">
<!-- Generated by graphviz version 2.40.1 (20161225.0304)
 -->
<!-- Title: readPPS_SetTime Pages: 1 -->
<svg width="494pt" height="254pt"
 viewBox="0.00 0.00 494.07 254.00" xmlns="http://www.w3.org/2000/svg" xmlns:xlink="http://www.w3.org/1999/xlink">
<g id="graph0" class="graph" transform="scale(1 1) rotate(0) translate(4 250)">
<title>readPPS_SetTime</title>
<polygon fill="#ffffff" stroke="transparent" points="-4,4 -4,-250 490.0674,-250 490.0674,4 -4,4"/>
<!-- Node280 -->
<g id="node1" class="node">
<title>Node280</title>
<polygon fill="#bfbfbf" stroke="#000000" points="0,-113.5 0,-131.5 98.4512,-131.5 98.4512,-113.5 0,-113.5"/>
<text text-anchor="middle" x="49.2256" y="-119.5" font-family="Helvetica,sans-Serif" font-size="10.00" fill="#000000">readPPS_SetTime</text>
</g>
<!-- Node281 -->
<g id="node2" class="node">
<title>Node281</title>
<g id="a_node2"><a xlink:href="../../d5/d60/pps-client_8cpp.html#ab289e4eac214ae5bc8348bbd280f7512" target="_top" xlink:title="increaseMonotonicCount">
<polygon fill="#ffffff" stroke="#000000" points="134.4512,-227.5 134.4512,-245.5 261.0713,-245.5 261.0713,-227.5 134.4512,-227.5"/>
<text text-anchor="middle" x="197.7612" y="-233.5" font-family="Helvetica,sans-Serif" font-size="10.00" fill="#000000">increaseMonotonicCount</text>
</a>
</g>
</g>
<!-- Node280&#45;&gt;Node281 -->
<g id="edge1" class="edge">
<title>Node280&#45;&gt;Node281</title>
<path fill="none" stroke="#191970" d="M55.6866,-131.7081C68.6772,-149.6067 99.704,-189.3607 134.4512,-212.5 141.0552,-216.8978 148.5781,-220.645 156.0762,-223.779"/>
<polygon fill="#191970" stroke="#191970" points="154.9004,-227.0768 165.4896,-227.4235 157.4278,-220.549 154.9004,-227.0768"/>
</g>
<!-- Node282 -->
<g id="node3" class="node">
<title>Node282</title>
<g id="a_node3"><a xlink:href="../../d0/d3e/pps-files_8cpp.html#ae20c07f56a5b2b05b636f6a0a31ce214" target="_top" xlink:title="writeToLog">
<polygon fill="#ffffff" stroke="#ff0000" points="297.0713,-189.5 297.0713,-207.5 361.4307,-207.5 361.4307,-189.5 297.0713,-189.5"/>
<text text-anchor="middle" x="329.251" y="-195.5" font-family="Helvetica,sans-Serif" font-size="10.00" fill="#000000">writeToLog</text>
</a>
</g>
</g>
<!-- Node280&#45;&gt;Node282 -->
<g id="edge5" class="edge">
<title>Node280&#45;&gt;Node282</title>
<path fill="none" stroke="#191970" d="M60.5525,-131.6204C76.1639,-143.6497 105.6434,-164.4644 134.4512,-174.5 184.922,-192.0822 246.6716,-197.1289 286.9336,-198.4007"/>
<polygon fill="#191970" stroke="#191970" points="286.8527,-201.8996 296.9378,-198.6527 287.0291,-194.9019 286.8527,-201.8996"/>
</g>
<!-- Node283 -->
<g id="node4" class="node">
<title>Node283</title>
<g id="a_node4"><a xlink:href="../../d0/d3e/pps-files_8cpp.html#a6f609d689ebe787455ce220808ca3ba0" target="_top" xlink:title="bufferStatusMsg">
<polygon fill="#ffffff" stroke="#000000" points="397.4307,-170.5 397.4307,-188.5 486.0674,-188.5 486.0674,-170.5 397.4307,-170.5"/>
<text text-anchor="middle" x="441.749" y="-176.5" font-family="Helvetica,sans-Serif" font-size="10.00" fill="#000000">bufferStatusMsg</text>
</a>
</g>
</g>
<!-- Node280&#45;&gt;Node283 -->
<g id="edge4" class="edge">
<title>Node280&#45;&gt;Node283</title>
<path fill="none" stroke="#191970" d="M88.5579,-131.5101C102.9477,-134.6203 119.3904,-137.9582 134.4512,-140.5 222.4265,-155.3473 325.4338,-167.3299 387.0425,-173.9253"/>
<polygon fill="#191970" stroke="#191970" points="386.9946,-177.4398 397.3083,-175.0154 387.7338,-170.4789 386.9946,-177.4398"/>
</g>
<!-- Node285 -->
<g id="node5" class="node">
<title>Node285</title>
<g id="a_node5"><a xlink:href="../../d5/d60/pps-client_8cpp.html#a1106ba0d807ae268b8713acba3808e07" target="_top" xlink:title="makeTimeCorrection">
<polygon fill="#ffffff" stroke="#ff0000" points="143.543,-113.5 143.543,-131.5 251.9795,-131.5 251.9795,-113.5 143.543,-113.5"/>
<text text-anchor="middle" x="197.7612" y="-119.5" font-family="Helvetica,sans-Serif" font-size="10.00" fill="#000000">makeTimeCorrection</text>
</a>
</g>
</g>
<!-- Node280&#45;&gt;Node285 -->
<g id="edge6" class="edge">
<title>Node280&#45;&gt;Node285</title>
<path fill="none" stroke="#191970" d="M98.6858,-122.5C109.7821,-122.5 121.7132,-122.5 133.3185,-122.5"/>
<polygon fill="#191970" stroke="#191970" points="133.4041,-126.0001 143.404,-122.5 133.404,-119.0001 133.4041,-126.0001"/>
</g>
<!-- Node302 -->
<g id="node6" class="node">
<title>Node302</title>
<g id="a_node6"><a xlink:href="../../d5/d60/pps-client_8cpp.html#a4efd2ecedb34b38cd1000d86ba5f6ef9" target="_top" xlink:title="adjtimex">
<polygon fill="#ffffff" stroke="#000000" points="302.6328,-94.5 302.6328,-112.5 355.8691,-112.5 355.8691,-94.5 302.6328,-94.5"/>
<text text-anchor="middle" x="329.251" y="-100.5" font-family="Helvetica,sans-Serif" font-size="10.00" fill="#000000">adjtimex</text>
</a>
</g>
</g>
<!-- Node280&#45;&gt;Node302 -->
<g id="edge9" class="edge">
<title>Node280&#45;&gt;Node302</title>
<path fill="none" stroke="#191970" d="M81.7253,-113.4954C97.5045,-109.5769 116.8213,-105.4414 134.4512,-103.5 189.1087,-97.4813 252.917,-99.1079 292.2041,-101.0961"/>
<polygon fill="#191970" stroke="#191970" points="292.1911,-104.6005 302.3658,-101.6465 292.5698,-97.6107 292.1911,-104.6005"/>
</g>
<!-- Node313 -->
<g id="node7" class="node">
<title>Node313</title>
<g id="a_node7"><a xlink:href="../../d5/d60/pps-client_8cpp.html#ae0bab7cf61e38b79d3bade19c957735a" target="_top" xlink:title="initialize">
<polygon fill="#ffffff" stroke="#000000" points="171.9756,-37.5 171.9756,-55.5 223.5469,-55.5 223.5469,-37.5 171.9756,-37.5"/>
<text text-anchor="middle" x="197.7612" y="-43.5" font-family="Helvetica,sans-Serif" font-size="10.00" fill="#000000">initialize</text>
</a>
</g>
</g>
<!-- Node280&#45;&gt;Node313 -->
<g id="edge8" class="edge">
<title>Node280&#45;&gt;Node313</title>
<path fill="none" stroke="#191970" d="M62.3684,-113.4175C78.7461,-102.3528 107.8288,-83.5278 134.4512,-70.5 143.2128,-66.2124 152.9467,-62.1827 162.1018,-58.6941"/>
<polygon fill="#191970" stroke="#191970" points="163.5684,-61.8836 171.7355,-55.1345 161.1422,-55.3174 163.5684,-61.8836"/>
</g>
<!-- Node308 -->
<g id="node8" class="node">
<title>Node308</title>
<g id="a_node8"><a xlink:href="../../d5/d60/pps-client_8cpp.html#a7fb630b24d9e82f7bc81139e72ff681f" target="_top" xlink:title="setDelayTrackers">
<polygon fill="#ffffff" stroke="#000000" points="151.0454,-.5 151.0454,-18.5 244.4771,-18.5 244.4771,-.5 151.0454,-.5"/>
<text text-anchor="middle" x="197.7612" y="-6.5" font-family="Helvetica,sans-Serif" font-size="10.00" fill="#000000">setDelayTrackers</text>
</a>
</g>
</g>
<!-- Node280&#45;&gt;Node308 -->
<g id="edge10" class="edge">
<title>Node280&#45;&gt;Node308</title>
<path fill="none" stroke="#191970" d="M54.8201,-113.3725C66.9175,-94.4152 97.4291,-50.623 134.4512,-27.5 137.4496,-25.6273 140.6479,-23.9443 143.9541,-22.4325"/>
<polygon fill="#191970" stroke="#191970" points="145.5029,-25.5824 153.4803,-18.6102 142.8962,-19.0858 145.5029,-25.5824"/>
</g>
<!-- Node281&#45;&gt;Node282 -->
<g id="edge2" class="edge">
<title>Node281&#45;&gt;Node282</title>
<path fill="none" stroke="#191970" d="M228.9225,-227.4945C246.6423,-222.3736 269.0478,-215.8985 288.1883,-210.367"/>
<polygon fill="#191970" stroke="#191970" points="289.2226,-213.7113 297.8577,-207.5725 287.2791,-206.9865 289.2226,-213.7113"/>
</g>
<!-- Node282&#45;&gt;Node283 -->
<g id="edge3" class="edge">
<title>Node282&#45;&gt;Node283</title>
<path fill="none" stroke="#191970" d="M361.4884,-193.0554C369.6023,-191.685 378.5369,-190.176 387.4081,-188.6777"/>
<polygon fill="#191970" stroke="#191970" points="388.0724,-192.1152 397.3499,-186.9986 386.9067,-185.2129 388.0724,-192.1152"/>
</g>
<!-- Node285&#45;&gt;Node302 -->
<g id="edge7" class="edge">
<title>Node285&#45;&gt;Node302</title>
<path fill="none" stroke="#191970" d="M252.0023,-114.6623C265.5982,-112.6977 279.8715,-110.6352 292.3981,-108.8252"/>
<polygon fill="#191970" stroke="#191970" points="293.0597,-112.266 302.4563,-107.3718 292.0585,-105.338 293.0597,-112.266"/>
</g>
</g>
</svg>
