<?xml version="1.0" encoding="UTF-8" standalone="no"?>
<!DOCTYPE svg PUBLIC "-//W3C//DTD SVG 1.1//EN"
 "http://www.w3.org/Graphics/SVG/1.1/DTD/svg11.dtd">
<!-- Generated by graphviz version 2.40.1 (20161225.0304)
 -->
<!-- Title: waitForPPS Pages: 1 -->
<svg width="378pt" height="769pt"
 viewBox="0.00 0.00 378.27 768.62" xmlns="http://www.w3.org/2000/svg" xmlns:xlink="http://www.w3.org/1999/xlink">
<g id="graph0" class="graph" transform="scale(1 1) rotate(0) translate(4 764.6157)">
<title>waitForPPS</title>
<polygon fill="#ffffff" stroke="transparent" points="-4,4 -4,-764.6157 374.2734,-764.6157 374.2734,4 -4,4"/>
<!-- Node384 -->
<g id="node1" class="node">
<title>Node384</title>
<polygon fill="#bfbfbf" stroke="#000000" points="0,-372.5 0,-390.5 68.793,-390.5 68.793,-372.5 0,-372.5"/>
<text text-anchor="middle" x="34.3965" y="-378.5" font-family="Helvetica,sans-Serif" font-size="10.00" fill="#000000">waitForPPS</text>
</g>
<!-- Node385 -->
<g id="node2" class="node">
<title>Node385</title>
<g id="a_node2"><a xlink:href="../../d5/d60/pps-client_8cpp.html#a4efd2ecedb34b38cd1000d86ba5f6ef9" target="_top" xlink:title="adjtimex">
<polygon fill="#ffffff" stroke="#000000" points="296.9395,-736.5 296.9395,-754.5 350.1758,-754.5 350.1758,-736.5 296.9395,-736.5"/>
<text text-anchor="middle" x="323.5576" y="-742.5" font-family="Helvetica,sans-Serif" font-size="10.00" fill="#000000">adjtimex</text>
</a>
</g>
</g>
<!-- Node384&#45;&gt;Node385 -->
<g id="edge1" class="edge">
<title>Node384&#45;&gt;Node385</title>
<path fill="none" stroke="#191970" d="M34.8528,-390.5889C37.5418,-440.2228 53.0201,-677.9775 104.793,-724.5 154.5,-769.1662 238.5929,-762.5435 286.7523,-753.905"/>
<polygon fill="#191970" stroke="#191970" points="287.5825,-757.3096 296.7452,-751.9903 286.2652,-750.4347 287.5825,-757.3096"/>
</g>
<!-- Node386 -->
<g id="node3" class="node">
<title>Node386</title>
<g id="a_node3"><a xlink:href="../../d5/d60/pps-client_8cpp.html#a7fb630b24d9e82f7bc81139e72ff681f" target="_top" xlink:title="setDelayTrackers">
<polygon fill="#ffffff" stroke="#000000" points="276.8418,-680.5 276.8418,-698.5 370.2734,-698.5 370.2734,-680.5 276.8418,-680.5"/>
<text text-anchor="middle" x="323.5576" y="-686.5" font-family="Helvetica,sans-Serif" font-size="10.00" fill="#000000">setDelayTrackers</text>
</a>
</g>
</g>
<!-- Node384&#45;&gt;Node386 -->
<g id="edge2" class="edge">
<title>Node384&#45;&gt;Node386</title>
<path fill="none" stroke="#191970" d="M34.9396,-390.6038C37.9879,-438.2539 54.6642,-658.2821 104.793,-698.5 158.795,-741.8253 246.6913,-718.9458 292.9174,-702.136"/>
<polygon fill="#191970" stroke="#191970" points="294.2692,-705.3669 302.3901,-698.5623 291.7983,-698.8175 294.2692,-705.3669"/>
</g>
<!-- Node387 -->
<g id="node4" class="node">
<title>Node387</title>
<g id="a_node4"><a xlink:href="../../d0/d3e/pps-files_8cpp.html#aac2e984590c2af3ea4e949090ab2c949" target="_top" xlink:title="initFileLocalData">
<polygon fill="#ffffff" stroke="#000000" points="127.8545,-409.5 127.8545,-427.5 217.7803,-427.5 217.7803,-409.5 127.8545,-409.5"/>
<text text-anchor="middle" x="172.8174" y="-415.5" font-family="Helvetica,sans-Serif" font-size="10.00" fill="#000000">initFileLocalData</text>
</a>
</g>
</g>
<!-- Node384&#45;&gt;Node387 -->
<g id="edge3" class="edge">
<title>Node384&#45;&gt;Node387</title>
<path fill="none" stroke="#191970" d="M67.6907,-390.5222C79.4146,-393.6897 92.6855,-397.2642 104.793,-400.5 112.5104,-402.5625 120.7236,-404.7458 128.6757,-406.8535"/>
<polygon fill="#191970" stroke="#191970" points="127.989,-410.2923 138.5518,-409.4682 129.7806,-403.5254 127.989,-410.2923"/>
</g>
<!-- Node388 -->
<g id="node5" class="node">
<title>Node388</title>
<g id="a_node5"><a xlink:href="../../dc/d4f/pps-sntp_8cpp.html#a95b1abb556e50d5bce590653d66f8b7d" target="_top" xlink:title="allocInitializeSNTPThreads">
<polygon fill="#ffffff" stroke="#000000" points="104.793,-372.5 104.793,-390.5 240.8418,-390.5 240.8418,-372.5 104.793,-372.5"/>
<text text-anchor="middle" x="172.8174" y="-378.5" font-family="Helvetica,sans-Serif" font-size="10.00" fill="#000000">allocInitializeSNTPThreads</text>
</a>
</g>
</g>
<!-- Node384&#45;&gt;Node388 -->
<g id="edge4" class="edge">
<title>Node384&#45;&gt;Node388</title>
<path fill="none" stroke="#191970" d="M68.9689,-381.5C76.8814,-381.5 85.6079,-381.5 94.5393,-381.5"/>
<polygon fill="#191970" stroke="#191970" points="94.6778,-385.0001 104.6777,-381.5 94.6777,-378.0001 94.6778,-385.0001"/>
</g>
<!-- Node389 -->
<g id="node6" class="node">
<title>Node389</title>
<g id="a_node6"><a xlink:href="../../d0/d3e/pps-files_8cpp.html#a19da05b45d1e94170f5fe86decb70bfb" target="_top" xlink:title="sysCommand">
<polygon fill="#ffffff" stroke="#000000" points="134.2534,-483.5 134.2534,-501.5 211.3813,-501.5 211.3813,-483.5 134.2534,-483.5"/>
<text text-anchor="middle" x="172.8174" y="-489.5" font-family="Helvetica,sans-Serif" font-size="10.00" fill="#000000">sysCommand</text>
</a>
</g>
</g>
<!-- Node384&#45;&gt;Node389 -->
<g id="edge5" class="edge">
<title>Node384&#45;&gt;Node389</title>
<path fill="none" stroke="#191970" d="M38.6111,-390.5017C47.8344,-409.1854 71.6621,-452.28 104.793,-474.5 110.6553,-478.4317 117.3367,-481.5056 124.1688,-483.9086"/>
<polygon fill="#191970" stroke="#191970" points="123.6225,-487.4011 134.2086,-486.9709 125.6649,-480.7056 123.6225,-487.4011"/>
</g>
<!-- Node390 -->
<g id="node7" class="node">
<title>Node390</title>
<g id="a_node7"><a xlink:href="../../d0/d3e/pps-files_8cpp.html#ae20c07f56a5b2b05b636f6a0a31ce214" target="_top" xlink:title="writeToLog">
<polygon fill="#ffffff" stroke="#ff0000" points="291.3779,-559.5 291.3779,-577.5 355.7373,-577.5 355.7373,-559.5 291.3779,-559.5"/>
<text text-anchor="middle" x="323.5576" y="-565.5" font-family="Helvetica,sans-Serif" font-size="10.00" fill="#000000">writeToLog</text>
</a>
</g>
</g>
<!-- Node384&#45;&gt;Node390 -->
<g id="edge11" class="edge">
<title>Node384&#45;&gt;Node390</title>
<path fill="none" stroke="#191970" d="M36.6412,-390.708C42.9534,-414.5829 63.1769,-478.8877 104.793,-511.5 118.7374,-522.4275 221.8336,-546.2947 281.389,-559.4134"/>
<polygon fill="#191970" stroke="#191970" points="280.7447,-562.8552 291.2622,-561.5777 282.2436,-556.0175 280.7447,-562.8552"/>
</g>
<!-- Node393 -->
<g id="node8" class="node">
<title>Node393</title>
<g id="a_node8"><a xlink:href="../../df/d28/pps-serial_8cpp.html#ab10bb47e214849a31ac6c87556bed416" target="_top" xlink:title="allocInitializeSerialThread">
<polygon fill="#ffffff" stroke="#000000" points="107.8447,-335.5 107.8447,-353.5 237.79,-353.5 237.79,-335.5 107.8447,-335.5"/>
<text text-anchor="middle" x="172.8174" y="-341.5" font-family="Helvetica,sans-Serif" font-size="10.00" fill="#000000">allocInitializeSerialThread</text>
</a>
</g>
</g>
<!-- Node384&#45;&gt;Node393 -->
<g id="edge7" class="edge">
<title>Node384&#45;&gt;Node393</title>
<path fill="none" stroke="#191970" d="M68.258,-372.4488C86.5242,-367.5662 109.2807,-361.4834 128.8953,-356.2404"/>
<polygon fill="#191970" stroke="#191970" points="130.0687,-359.5497 138.8257,-353.586 128.261,-352.7871 130.0687,-359.5497"/>
</g>
<!-- Node394 -->
<g id="node9" class="node">
<title>Node394</title>
<g id="a_node9"><a xlink:href="../../d0/d3e/pps-files_8cpp.html#af2476e49a353b0df5be1459f9a0c2260" target="_top" xlink:title="HUPhandler">
<polygon fill="#ffffff" stroke="#000000" points="137.5811,-298.5 137.5811,-316.5 208.0537,-316.5 208.0537,-298.5 137.5811,-298.5"/>
<text text-anchor="middle" x="172.8174" y="-304.5" font-family="Helvetica,sans-Serif" font-size="10.00" fill="#000000">HUPhandler</text>
</a>
</g>
</g>
<!-- Node384&#45;&gt;Node394 -->
<g id="edge8" class="edge">
<title>Node384&#45;&gt;Node394</title>
<path fill="none" stroke="#191970" d="M43.5859,-372.3497C56.2921,-360.189 80.429,-338.8087 104.793,-326.5 111.8727,-322.9233 119.7178,-319.9411 127.4896,-317.4812"/>
<polygon fill="#191970" stroke="#191970" points="128.6118,-320.7998 137.2314,-314.6393 126.6514,-314.0799 128.6118,-320.7998"/>
</g>
<!-- Node395 -->
<g id="node10" class="node">
<title>Node395</title>
<g id="a_node10"><a xlink:href="../../d0/d3e/pps-files_8cpp.html#a6092b615f5e717c843a1948b2a34cf6a" target="_top" xlink:title="TERMhandler">
<polygon fill="#ffffff" stroke="#000000" points="133.9727,-446.5 133.9727,-464.5 211.6621,-464.5 211.6621,-446.5 133.9727,-446.5"/>
<text text-anchor="middle" x="172.8174" y="-452.5" font-family="Helvetica,sans-Serif" font-size="10.00" fill="#000000">TERMhandler</text>
</a>
</g>
</g>
<!-- Node384&#45;&gt;Node395 -->
<g id="edge9" class="edge">
<title>Node384&#45;&gt;Node395</title>
<path fill="none" stroke="#191970" d="M43.5275,-390.8749C56.1676,-403.3228 80.2297,-425.1665 104.793,-437.5 110.8077,-440.5201 117.3842,-443.0739 124.002,-445.2223"/>
<polygon fill="#191970" stroke="#191970" points="123.0845,-448.6008 133.6669,-448.087 125.0738,-441.8894 123.0845,-448.6008"/>
</g>
<!-- Node396 -->
<g id="node11" class="node">
<title>Node396</title>
<g id="a_node11"><a xlink:href="../../d5/d60/pps-client_8cpp.html#a505a6be9b7669b349cea03a9fe663d74" target="_top" xlink:title="setSyncDelay">
<polygon fill="#ffffff" stroke="#000000" points="134.2485,-261.5 134.2485,-279.5 211.3862,-279.5 211.3862,-261.5 134.2485,-261.5"/>
<text text-anchor="middle" x="172.8174" y="-267.5" font-family="Helvetica,sans-Serif" font-size="10.00" fill="#000000">setSyncDelay</text>
</a>
</g>
</g>
<!-- Node384&#45;&gt;Node396 -->
<g id="edge12" class="edge">
<title>Node384&#45;&gt;Node396</title>
<path fill="none" stroke="#191970" d="M38.8052,-372.3489C48.2258,-353.7857 72.1485,-311.595 104.793,-289.5 110.7968,-285.4364 117.6559,-282.2363 124.655,-279.7177"/>
<polygon fill="#191970" stroke="#191970" points="125.7423,-283.0447 134.2187,-276.6884 123.6286,-276.3714 125.7423,-283.0447"/>
</g>
<!-- Node397 -->
<g id="node12" class="node">
<title>Node397</title>
<g id="a_node12"><a xlink:href="../../d0/d3e/pps-files_8cpp.html#afdccb305ab5e5c4f3402fe7969c6737b" target="_top" xlink:title="writeStatusStrings">
<polygon fill="#ffffff" stroke="#ff0000" points="124.5244,-633.5 124.5244,-651.5 221.1104,-651.5 221.1104,-633.5 124.5244,-633.5"/>
<text text-anchor="middle" x="172.8174" y="-639.5" font-family="Helvetica,sans-Serif" font-size="10.00" fill="#000000">writeStatusStrings</text>
</a>
</g>
</g>
<!-- Node384&#45;&gt;Node397 -->
<g id="edge13" class="edge">
<title>Node384&#45;&gt;Node397</title>
<path fill="none" stroke="#191970" d="M35.8146,-390.5965C42.2217,-430.5737 69.6842,-590.1997 104.793,-624.5 107.8896,-627.5253 111.4324,-630.0579 115.2385,-632.1764"/>
<polygon fill="#191970" stroke="#191970" points="113.9604,-635.4402 124.5113,-636.4045 116.8646,-629.0711 113.9604,-635.4402"/>
</g>
<!-- Node399 -->
<g id="node13" class="node">
<title>Node399</title>
<g id="a_node13"><a xlink:href="../../d5/d60/pps-client_8cpp.html#a86496ba51a12c38a52f57267412a096a" target="_top" xlink:title="readPPS_SetTime">
<polygon fill="#ffffff" stroke="#ff0000" points="123.5918,-670.5 123.5918,-688.5 222.043,-688.5 222.043,-670.5 123.5918,-670.5"/>
<text text-anchor="middle" x="172.8174" y="-676.5" font-family="Helvetica,sans-Serif" font-size="10.00" fill="#000000">readPPS_SetTime</text>
</a>
</g>
</g>
<!-- Node384&#45;&gt;Node399 -->
<g id="edge15" class="edge">
<title>Node384&#45;&gt;Node399</title>
<path fill="none" stroke="#191970" d="M35.465,-390.7641C40.7083,-434.6634 65.079,-621.2916 104.793,-661.5 107.6098,-664.3519 110.8221,-666.7684 114.2821,-668.8143"/>
<polygon fill="#191970" stroke="#191970" points="112.7823,-671.9767 123.3093,-673.1734 115.8262,-665.6732 112.7823,-671.9767"/>
</g>
<!-- Node427 -->
<g id="node14" class="node">
<title>Node427</title>
<g id="a_node14"><a xlink:href="../../d0/d3e/pps-files_8cpp.html#a7661ba76cbaa3908193ac55fd2f73330" target="_top" xlink:title="readConfigFile">
<polygon fill="#ffffff" stroke="#000000" points="283.0405,-205.5 283.0405,-223.5 364.0747,-223.5 364.0747,-205.5 283.0405,-205.5"/>
<text text-anchor="middle" x="323.5576" y="-211.5" font-family="Helvetica,sans-Serif" font-size="10.00" fill="#000000">readConfigFile</text>
</a>
</g>
</g>
<!-- Node384&#45;&gt;Node427 -->
<g id="edge19" class="edge">
<title>Node384&#45;&gt;Node427</title>
<path fill="none" stroke="#191970" d="M34.9291,-372.4963C37.1923,-343.4153 48.6919,-251.7332 104.793,-214.5 159.1865,-178.4001 239.1614,-190.7778 285.8431,-202.8086"/>
<polygon fill="#191970" stroke="#191970" points="284.9912,-206.2039 295.5579,-205.432 286.8162,-199.4459 284.9912,-206.2039"/>
</g>
<!-- Node428 -->
<g id="node15" class="node">
<title>Node428</title>
<g id="a_node15"><a xlink:href="../../d5/d60/pps-client_8cpp.html#a510df19cb6ad4f22a7823cbc0852b9e9" target="_top" xlink:title="checkPPSInterrupt">
<polygon fill="#ffffff" stroke="#000000" points="123.1304,-596.5 123.1304,-614.5 222.5044,-614.5 222.5044,-596.5 123.1304,-596.5"/>
<text text-anchor="middle" x="172.8174" y="-602.5" font-family="Helvetica,sans-Serif" font-size="10.00" fill="#000000">checkPPSInterrupt</text>
</a>
</g>
</g>
<!-- Node384&#45;&gt;Node428 -->
<g id="edge20" class="edge">
<title>Node384&#45;&gt;Node428</title>
<path fill="none" stroke="#191970" d="M36.3768,-390.8941C44.2487,-427.3928 74.3765,-559.1587 104.793,-587.5 107.5469,-590.066 110.6234,-592.2751 113.9048,-594.176"/>
<polygon fill="#191970" stroke="#191970" points="112.4577,-597.3636 122.989,-598.5215 115.4784,-591.0489 112.4577,-597.3636"/>
</g>
<!-- Node429 -->
<g id="node16" class="node">
<title>Node429</title>
<g id="a_node16"><a xlink:href="../../d0/d3e/pps-files_8cpp.html#a99055dd0dc705a74bb0b3ab03fea92e3" target="_top" xlink:title="bufferStateParams">
<polygon fill="#ffffff" stroke="#ff0000" points="123.2183,-148.5 123.2183,-166.5 222.4165,-166.5 222.4165,-148.5 123.2183,-148.5"/>
<text text-anchor="middle" x="172.8174" y="-154.5" font-family="Helvetica,sans-Serif" font-size="10.00" fill="#000000">bufferStateParams</text>
</a>
</g>
</g>
<!-- Node384&#45;&gt;Node429 -->
<g id="edge22" class="edge">
<title>Node384&#45;&gt;Node429</title>
<path fill="none" stroke="#191970" d="M34.8991,-372.4968C37.1138,-341.4588 48.5915,-237.7431 104.793,-181.5 109.0461,-177.2437 114.0989,-173.7397 119.5014,-170.8555"/>
<polygon fill="#191970" stroke="#191970" points="121.2182,-173.9185 128.8441,-166.5634 118.296,-167.5577 121.2182,-173.9185"/>
</g>
<!-- Node432 -->
<g id="node17" class="node">
<title>Node432</title>
<g id="a_node17"><a xlink:href="../../dc/d4f/pps-sntp_8cpp.html#ab6d786ab6487a8937306f50e65b1e4cd" target="_top" xlink:title="makeSNTPTimeQuery">
<polygon fill="#ffffff" stroke="#000000" points="114.7124,-111.5 114.7124,-129.5 230.9224,-129.5 230.9224,-111.5 114.7124,-111.5"/>
<text text-anchor="middle" x="172.8174" y="-117.5" font-family="Helvetica,sans-Serif" font-size="10.00" fill="#000000">makeSNTPTimeQuery</text>
</a>
</g>
</g>
<!-- Node384&#45;&gt;Node432 -->
<g id="edge23" class="edge">
<title>Node384&#45;&gt;Node432</title>
<path fill="none" stroke="#191970" d="M35.8146,-372.4035C42.2217,-332.4263 69.6842,-172.8003 104.793,-138.5 106.0846,-137.2381 107.4538,-136.062 108.8874,-134.9658"/>
<polygon fill="#191970" stroke="#191970" points="111.0364,-137.7526 117.7094,-129.5232 107.361,-131.7951 111.0364,-137.7526"/>
</g>
<!-- Node433 -->
<g id="node18" class="node">
<title>Node433</title>
<g id="a_node18"><a xlink:href="../../df/d28/pps-serial_8cpp.html#a90b59dcade2c7323b79780215baae4fd" target="_top" xlink:title="makeSerialTimeQuery">
<polygon fill="#ffffff" stroke="#ff0000" points="115.2642,-74.5 115.2642,-92.5 230.3706,-92.5 230.3706,-74.5 115.2642,-74.5"/>
<text text-anchor="middle" x="172.8174" y="-80.5" font-family="Helvetica,sans-Serif" font-size="10.00" fill="#000000">makeSerialTimeQuery</text>
</a>
</g>
</g>
<!-- Node384&#45;&gt;Node433 -->
<g id="edge24" class="edge">
<title>Node384&#45;&gt;Node433</title>
<path fill="none" stroke="#191970" d="M35.465,-372.2359C40.7083,-328.3366 65.079,-141.7084 104.793,-101.5 106.0324,-100.2452 107.3483,-99.0746 108.7283,-97.9829"/>
<polygon fill="#191970" stroke="#191970" points="110.6938,-100.8806 117.2437,-92.5528 106.9302,-94.9784 110.6938,-100.8806"/>
</g>
<!-- Node434 -->
<g id="node19" class="node">
<title>Node434</title>
<g id="a_node19"><a xlink:href="../../d5/d60/pps-client_8cpp.html#aaed9f7309f80d45af2c4aecf5eff8e41" target="_top" xlink:title="getInterruptDelay">
<polygon fill="#ffffff" stroke="#ff0000" points="126.4629,-559.5 126.4629,-577.5 219.1719,-577.5 219.1719,-559.5 126.4629,-559.5"/>
<text text-anchor="middle" x="172.8174" y="-565.5" font-family="Helvetica,sans-Serif" font-size="10.00" fill="#000000">getInterruptDelay</text>
</a>
</g>
</g>
<!-- Node384&#45;&gt;Node434 -->
<g id="edge25" class="edge">
<title>Node384&#45;&gt;Node434</title>
<path fill="none" stroke="#191970" d="M35.7506,-390.7243C40.2572,-418.1627 57.2543,-500.1112 104.793,-544.5 109.4783,-548.8749 115.0097,-552.4598 120.8613,-555.3957"/>
<polygon fill="#191970" stroke="#191970" points="119.6801,-558.6991 130.2449,-559.4954 122.4826,-552.2845 119.6801,-558.6991"/>
</g>
<!-- Node440 -->
<g id="node20" class="node">
<title>Node440</title>
<g id="a_node20"><a xlink:href="../../d0/d3e/pps-files_8cpp.html#af30241291158e33d40328d6b3d32d808" target="_top" xlink:title="processFiles">
<polygon fill="#ffffff" stroke="#ff0000" points="136.7534,-224.5 136.7534,-242.5 208.8813,-242.5 208.8813,-224.5 136.7534,-224.5"/>
<text text-anchor="middle" x="172.8174" y="-230.5" font-family="Helvetica,sans-Serif" font-size="10.00" fill="#000000">processFiles</text>
</a>
</g>
</g>
<!-- Node384&#45;&gt;Node440 -->
<g id="edge27" class="edge">
<title>Node384&#45;&gt;Node440</title>
<path fill="none" stroke="#191970" d="M36.696,-372.403C43.1406,-348.8086 63.6561,-285.2123 104.793,-252.5 111.2066,-247.3998 118.9073,-243.6676 126.7861,-240.9368"/>
<polygon fill="#191970" stroke="#191970" points="127.8209,-244.2806 136.4101,-238.0777 125.8274,-237.5705 127.8209,-244.2806"/>
</g>
<!-- Node455 -->
<g id="node21" class="node">
<title>Node455</title>
<g id="a_node21"><a xlink:href="../../dc/d4f/pps-sntp_8cpp.html#a05a786e283f51c4aea4de852b7292bb9" target="_top" xlink:title="freeSNTPThreads">
<polygon fill="#ffffff" stroke="#000000" points="124.5244,-37.5 124.5244,-55.5 221.1104,-55.5 221.1104,-37.5 124.5244,-37.5"/>
<text text-anchor="middle" x="172.8174" y="-43.5" font-family="Helvetica,sans-Serif" font-size="10.00" fill="#000000">freeSNTPThreads</text>
</a>
</g>
</g>
<!-- Node384&#45;&gt;Node455 -->
<g id="edge29" class="edge">
<title>Node384&#45;&gt;Node455</title>
<path fill="none" stroke="#191970" d="M35.1679,-372.3077C39.3067,-325.1438 60.3678,-110.7459 104.793,-64.5 107.7921,-61.378 111.2643,-58.7754 115.0213,-56.6083"/>
<polygon fill="#191970" stroke="#191970" points="116.644,-59.7132 124.2156,-52.3024 113.6751,-53.374 116.644,-59.7132"/>
</g>
<!-- Node456 -->
<g id="node22" class="node">
<title>Node456</title>
<g id="a_node22"><a xlink:href="../../df/d28/pps-serial_8cpp.html#a5f4271a6bb9ed778df76908d570a0660" target="_top" xlink:title="freeSerialThread">
<polygon fill="#ffffff" stroke="#000000" points="127.5762,-.5 127.5762,-18.5 218.0586,-18.5 218.0586,-.5 127.5762,-.5"/>
<text text-anchor="middle" x="172.8174" y="-6.5" font-family="Helvetica,sans-Serif" font-size="10.00" fill="#000000">freeSerialThread</text>
</a>
</g>
</g>
<!-- Node384&#45;&gt;Node456 -->
<g id="edge30" class="edge">
<title>Node384&#45;&gt;Node456</title>
<path fill="none" stroke="#191970" d="M34.9411,-372.2623C38.1001,-321.796 55.6665,-79.7908 104.793,-27.5 108.4629,-23.5936 112.873,-20.4976 117.6618,-18.0487"/>
<polygon fill="#191970" stroke="#191970" points="119.3342,-21.145 127.2425,-14.0945 116.6635,-14.6744 119.3342,-21.145"/>
</g>
<!-- Node389&#45;&gt;Node390 -->
<g id="edge6" class="edge">
<title>Node389&#45;&gt;Node390</title>
<path fill="none" stroke="#191970" d="M202.8635,-501.5008C214.914,-505.5197 228.7771,-510.6691 240.8418,-516.5 263.0056,-527.2119 286.6226,-542.49 302.9225,-553.7147"/>
<polygon fill="#191970" stroke="#191970" points="300.968,-556.6187 311.1695,-559.4788 304.9782,-550.8812 300.968,-556.6187"/>
</g>
<!-- Node395&#45;&gt;Node390 -->
<g id="edge10" class="edge">
<title>Node395&#45;&gt;Node390</title>
<path fill="none" stroke="#191970" d="M211.864,-462.2871C221.7971,-465.0934 232.1193,-469.0221 240.8418,-474.5 272.2907,-494.2506 298.6017,-529.5016 312.6271,-550.7699"/>
<polygon fill="#191970" stroke="#191970" points="309.8439,-552.9141 318.181,-559.4519 315.7406,-549.142 309.8439,-552.9141"/>
</g>
<!-- Node397&#45;&gt;Node390 -->
<g id="edge14" class="edge">
<title>Node397&#45;&gt;Node390</title>
<path fill="none" stroke="#191970" d="M216.0379,-633.4089C224.4448,-630.991 233.0579,-628.0408 240.8418,-624.5 264.4164,-613.7763 288.6357,-596.5062 304.7244,-583.9773"/>
<polygon fill="#191970" stroke="#191970" points="307.1238,-586.541 312.7704,-577.5763 302.7657,-581.0631 307.1238,-586.541"/>
</g>
<!-- Node399&#45;&gt;Node385 -->
<g id="edge17" class="edge">
<title>Node399&#45;&gt;Node385</title>
<path fill="none" stroke="#191970" d="M193.4611,-688.5386C219.251,-699.8305 263.5886,-719.2432 293.2362,-732.2241"/>
<polygon fill="#191970" stroke="#191970" points="292.1153,-735.554 302.6795,-736.3587 294.9229,-729.1417 292.1153,-735.554"/>
</g>
<!-- Node399&#45;&gt;Node386 -->
<g id="edge18" class="edge">
<title>Node399&#45;&gt;Node386</title>
<path fill="none" stroke="#191970" d="M222.1754,-682.7744C236.2704,-683.7094 251.7489,-684.7363 266.2748,-685.6999"/>
<polygon fill="#191970" stroke="#191970" points="266.4403,-689.2185 276.6501,-686.3882 266.9038,-682.2338 266.4403,-689.2185"/>
</g>
<!-- Node399&#45;&gt;Node390 -->
<g id="edge16" class="edge">
<title>Node399&#45;&gt;Node390</title>
<path fill="none" stroke="#191970" d="M221.4735,-670.3912C228.2475,-668.0625 234.9101,-665.1471 240.8418,-661.5 272.128,-642.2635 298.3324,-607.5748 312.4115,-586.4324"/>
<polygon fill="#191970" stroke="#191970" points="315.5171,-588.075 318.0018,-577.7757 309.6366,-584.2776 315.5171,-588.075"/>
</g>
<!-- Node428&#45;&gt;Node390 -->
<g id="edge21" class="edge">
<title>Node428&#45;&gt;Node390</title>
<path fill="none" stroke="#191970" d="M209.6926,-596.4488C231.3099,-591.1427 258.7024,-584.4191 281.2025,-578.8963"/>
<polygon fill="#191970" stroke="#191970" points="282.2805,-582.2357 291.1579,-576.4527 280.6118,-575.4375 282.2805,-582.2357"/>
</g>
<!-- Node434&#45;&gt;Node390 -->
<g id="edge26" class="edge">
<title>Node434&#45;&gt;Node390</title>
<path fill="none" stroke="#191970" d="M219.2744,-568.5C239.0728,-568.5 262.0085,-568.5 281.3207,-568.5"/>
<polygon fill="#191970" stroke="#191970" points="281.3429,-572.0001 291.3429,-568.5 281.3428,-565.0001 281.3429,-572.0001"/>
</g>
<!-- Node440&#45;&gt;Node427 -->
<g id="edge28" class="edge">
<title>Node440&#45;&gt;Node427</title>
<path fill="none" stroke="#191970" d="M208.9234,-228.949C228.0854,-226.5338 251.9451,-223.5264 272.9276,-220.8816"/>
<polygon fill="#191970" stroke="#191970" points="273.4799,-224.3398 282.9637,-219.6166 272.6045,-217.3948 273.4799,-224.3398"/>
</g>
</g>
</svg>
