<?xml version="1.0" encoding="UTF-8" standalone="no"?>
<!DOCTYPE svg PUBLIC "-//W3C//DTD SVG 1.1//EN"
 "http://www.w3.org/Graphics/SVG/1.1/DTD/svg11.dtd">
<!-- Generated by graphviz version 2.40.1 (20161225.0304)
 -->
<!-- Title: detectExteralSystemClockChange Pages: 1 -->
<svg width="242pt" height="64pt"
 viewBox="0.00 0.00 242.17 64.00" xmlns="http://www.w3.org/2000/svg" xmlns:xlink="http://www.w3.org/1999/xlink">
<g id="graph0" class="graph" transform="scale(1 1) rotate(0) translate(4 60)">
<title>detectExteralSystemClockChange</title>
<polygon fill="#ffffff" stroke="transparent" points="-4,4 -4,-60 238.167,-60 238.167,4 -4,4"/>
<!-- Node38 -->
<g id="node1" class="node">
<title>Node38</title>
<polygon fill="#bfbfbf" stroke="#000000" points="0,-13.5 0,-41.5 132.709,-41.5 132.709,-13.5 0,-13.5"/>
<text text-anchor="start" x="8" y="-29.5" font-family="Helvetica,sans-Serif" font-size="10.00" fill="#000000">detectExteralSystemClock</text>
<text text-anchor="middle" x="66.3545" y="-19.5" font-family="Helvetica,sans-Serif" font-size="10.00" fill="#000000">Change</text>
</g>
<!-- Node39 -->
<g id="node2" class="node">
<title>Node39</title>
<g id="a_node2"><a xlink:href="../../d5/d60/pps-client_8cpp.html#a2d1a8140877cdce22afc81a45b3189e9" target="_top" xlink:title="isNearZero">
<polygon fill="#ffffff" stroke="#000000" points="168.709,-37.5 168.709,-55.5 234.167,-55.5 234.167,-37.5 168.709,-37.5"/>
<text text-anchor="middle" x="201.438" y="-43.5" font-family="Helvetica,sans-Serif" font-size="10.00" fill="#000000">isNearZero</text>
</a>
</g>
</g>
<!-- Node38&#45;&gt;Node39 -->
<g id="edge1" class="edge">
<title>Node38&#45;&gt;Node39</title>
<path fill="none" stroke="#191970" d="M132.709,-36.833C141.4351,-38.0604 150.1876,-39.2914 158.3837,-40.4442"/>
<polygon fill="#191970" stroke="#191970" points="158.0339,-43.9294 168.4239,-41.8564 159.0089,-36.9976 158.0339,-43.9294"/>
</g>
<!-- Node40 -->
<g id="node3" class="node">
<title>Node40</title>
<g id="a_node3"><a xlink:href="../../d0/d3e/pps-files_8cpp.html#ae20c07f56a5b2b05b636f6a0a31ce214" target="_top" xlink:title="writeToLog">
<polygon fill="#ffffff" stroke="#ff0000" points="169.2583,-.5 169.2583,-18.5 233.6177,-18.5 233.6177,-.5 169.2583,-.5"/>
<text text-anchor="middle" x="201.438" y="-6.5" font-family="Helvetica,sans-Serif" font-size="10.00" fill="#000000">writeToLog</text>
</a>
</g>
</g>
<!-- Node38&#45;&gt;Node40 -->
<g id="edge2" class="edge">
<title>Node38&#45;&gt;Node40</title>
<path fill="none" stroke="#191970" d="M132.709,-18.6582C141.7218,-17.4572 150.7627,-16.2525 159.1897,-15.1296"/>
<polygon fill="#191970" stroke="#191970" points="159.671,-18.5965 169.121,-13.8063 158.7463,-11.6578 159.671,-18.5965"/>
</g>
</g>
</svg>
