<?xml version="1.0" encoding="UTF-8" standalone="no"?>
<!DOCTYPE svg PUBLIC "-//W3C//DTD SVG 1.1//EN"
 "http://www.w3.org/Graphics/SVG/1.1/DTD/svg11.dtd">
<!-- Generated by graphviz version 2.40.1 (20161225.0304)
 -->
<!-- Title: initialize Pages: 1 -->
<svg width="194pt" height="64pt"
 viewBox="0.00 0.00 194.02 64.00" xmlns="http://www.w3.org/2000/svg" xmlns:xlink="http://www.w3.org/1999/xlink">
<g id="graph0" class="graph" transform="scale(1 1) rotate(0) translate(4 60)">
<title>initialize</title>
<polygon fill="#ffffff" stroke="transparent" points="-4,4 -4,-60 190.0225,-60 190.0225,4 -4,4"/>
<!-- Node121 -->
<g id="node1" class="node">
<title>Node121</title>
<polygon fill="#bfbfbf" stroke="#000000" points="0,-18.5 0,-36.5 51.5713,-36.5 51.5713,-18.5 0,-18.5"/>
<text text-anchor="middle" x="25.7856" y="-24.5" font-family="Helvetica,sans-Serif" font-size="10.00" fill="#000000">initialize</text>
</g>
<!-- Node122 -->
<g id="node2" class="node">
<title>Node122</title>
<g id="a_node2"><a xlink:href="../../d5/d60/pps-client_8cpp.html#a86496ba51a12c38a52f57267412a096a" target="_top" xlink:title="readPPS_SetTime">
<polygon fill="#ffffff" stroke="#ff0000" points="87.5713,-37.5 87.5713,-55.5 186.0225,-55.5 186.0225,-37.5 87.5713,-37.5"/>
<text text-anchor="middle" x="136.7969" y="-43.5" font-family="Helvetica,sans-Serif" font-size="10.00" fill="#000000">readPPS_SetTime</text>
</a>
</g>
</g>
<!-- Node121&#45;&gt;Node122 -->
<g id="edge1" class="edge">
<title>Node121&#45;&gt;Node122</title>
<path fill="none" stroke="#191970" d="M61.7617,-33.6574C69.9403,-35.0572 78.7671,-36.568 87.3948,-38.0446"/>
<polygon fill="#191970" stroke="#191970" points="62.26,-30.1919 51.8128,-31.9547 61.079,-37.0916 62.26,-30.1919"/>
</g>
<!-- Node124 -->
<g id="node3" class="node">
<title>Node124</title>
<g id="a_node3"><a xlink:href="../../d5/d60/pps-client_8cpp.html#a0ddf1224851353fc92bfbff6f499fa97" target="_top" xlink:title="main">
<polygon fill="#ffffff" stroke="#000000" points="117.9595,-.5 117.9595,-18.5 155.6343,-18.5 155.6343,-.5 117.9595,-.5"/>
<text text-anchor="middle" x="136.7969" y="-6.5" font-family="Helvetica,sans-Serif" font-size="10.00" fill="#000000">main</text>
</a>
</g>
</g>
<!-- Node121&#45;&gt;Node124 -->
<g id="edge2" class="edge">
<title>Node121&#45;&gt;Node124</title>
<path fill="none" stroke="#191970" d="M61.7815,-21.6634C80.4663,-18.6338 102.5307,-15.0561 117.873,-12.5684"/>
<polygon fill="#191970" stroke="#191970" points="61.1237,-18.2243 51.8128,-23.2798 62.2442,-25.134 61.1237,-18.2243"/>
</g>
</g>
</svg>
