<?xml version="1.0" encoding="UTF-8" standalone="no"?>
<!DOCTYPE svg PUBLIC "-//W3C//DTD SVG 1.1//EN"
 "http://www.w3.org/Graphics/SVG/1.1/DTD/svg11.dtd">
<!-- Generated by graphviz version 2.36.0 (20140111.2315)
 -->
<!-- Title: waitForPPS Pages: 1 -->
<svg width="486pt" height="563pt"
 viewBox="0.00 0.00 486.00 562.90" xmlns="http://www.w3.org/2000/svg" xmlns:xlink="http://www.w3.org/1999/xlink">
<g id="graph0" class="graph" transform="scale(1 1) rotate(0) translate(4 558.901)">
<title>waitForPPS</title>
<polygon fill="white" stroke="none" points="-4,4 -4,-558.901 482,-558.901 482,4 -4,4"/>
<!-- Node1 -->
<g id="node1" class="node"><title>Node1</title>
<polygon fill="#bfbfbf" stroke="black" points="0.5,-266.5 0.5,-285.5 69.5,-285.5 69.5,-266.5 0.5,-266.5"/>
<text text-anchor="middle" x="35" y="-273.5" font-family="Helvetica,sans-Serif" font-size="10.00">waitForPPS</text>
</g>
<!-- Node2 -->
<g id="node2" class="node"><title>Node2</title>
<g id="a_node2"><a xlink:href="../../d5/d60/pps-client_8cpp.html#ae0bab7cf61e38b79d3bade19c957735a" target="_top" xlink:title="initialize">
<polygon fill="white" stroke="red" points="282,-532.5 282,-551.5 334,-551.5 334,-532.5 282,-532.5"/>
<text text-anchor="middle" x="308" y="-539.5" font-family="Helvetica,sans-Serif" font-size="10.00">initialize</text>
</a>
</g>
</g>
<!-- Node1&#45;&gt;Node2 -->
<g id="edge1" class="edge"><title>Node1&#45;&gt;Node2</title>
<path fill="none" stroke="midnightblue" d="M37.286,-285.669C43.0386,-327.376 67.8128,-491.196 106,-523 152.504,-561.73 227.709,-556.86 271.748,-549.584"/>
<polygon fill="midnightblue" stroke="midnightblue" points="272.476,-553.01 281.707,-547.809 271.248,-546.118 272.476,-553.01"/>
</g>
<!-- Node3 -->
<g id="node3" class="node"><title>Node3</title>
<g id="a_node3"><a xlink:href="../../d0/d3e/pps-files_8cpp.html#a7192857cf334ce14c00dd49dca3c541a" target="_top" xlink:title="readConfigFile">
<polygon fill="white" stroke="red" points="268,-380.5 268,-399.5 348,-399.5 348,-380.5 268,-380.5"/>
<text text-anchor="middle" x="308" y="-387.5" font-family="Helvetica,sans-Serif" font-size="10.00">readConfigFile</text>
</a>
</g>
</g>
<!-- Node1&#45;&gt;Node3 -->
<g id="edge2" class="edge"><title>Node1&#45;&gt;Node3</title>
<path fill="none" stroke="midnightblue" d="M37.6298,-285.684C42.5314,-311.355 59.7607,-381.084 106,-409 159.198,-441.117 235.112,-419.638 276.766,-403.393"/>
<polygon fill="midnightblue" stroke="midnightblue" points="278.138,-406.614 286.094,-399.617 275.512,-400.125 278.138,-406.614"/>
</g>
<!-- Node4 -->
<g id="node4" class="node"><title>Node4</title>
<g id="a_node4"><a xlink:href="../../d0/d3e/pps-files_8cpp.html#ae20c07f56a5b2b05b636f6a0a31ce214" target="_top" xlink:title="writeToLog">
<polygon fill="white" stroke="red" points="412.5,-323.5 412.5,-342.5 477.5,-342.5 477.5,-323.5 412.5,-323.5"/>
<text text-anchor="middle" x="445" y="-330.5" font-family="Helvetica,sans-Serif" font-size="10.00">writeToLog</text>
</a>
</g>
</g>
<!-- Node1&#45;&gt;Node4 -->
<g id="edge9" class="edge"><title>Node1&#45;&gt;Node4</title>
<path fill="none" stroke="midnightblue" d="M36.8766,-285.552C40.0456,-313.823 53.6598,-397.207 106,-431 146.924,-457.422 353.383,-420.891 376,-409 400.99,-395.861 421.233,-369.6 432.945,-351.664"/>
<polygon fill="midnightblue" stroke="midnightblue" points="436.221,-353.028 438.551,-342.692 430.284,-349.319 436.221,-353.028"/>
</g>
<!-- Node5 -->
<g id="node5" class="node"><title>Node5</title>
<g id="a_node5"><a xlink:href="../../dc/d4f/pps-sntp_8cpp.html#a95b1abb556e50d5bce590653d66f8b7d" target="_top" xlink:title="allocInitializeSNTPThreads">
<polygon fill="white" stroke="black" points="240.5,-342.5 240.5,-361.5 375.5,-361.5 375.5,-342.5 240.5,-342.5"/>
<text text-anchor="middle" x="308" y="-349.5" font-family="Helvetica,sans-Serif" font-size="10.00">allocInitializeSNTPThreads</text>
</a>
</g>
</g>
<!-- Node1&#45;&gt;Node5 -->
<g id="edge4" class="edge"><title>Node1&#45;&gt;Node5</title>
<path fill="none" stroke="midnightblue" d="M52.7602,-285.598C66.6381,-293.184 87.0774,-303.538 106,-310 146.415,-323.801 193.02,-333.883 231.171,-340.704"/>
<polygon fill="midnightblue" stroke="midnightblue" points="230.733,-344.18 241.186,-342.455 231.939,-337.285 230.733,-344.18"/>
</g>
<!-- Node6 -->
<g id="node6" class="node"><title>Node6</title>
<g id="a_node6"><a xlink:href="../../d0/d3e/pps-files_8cpp.html#af2476e49a353b0df5be1459f9a0c2260" target="_top" xlink:title="HUPhandler">
<polygon fill="white" stroke="black" points="120,-152.5 120,-171.5 190,-171.5 190,-152.5 120,-152.5"/>
<text text-anchor="middle" x="155" y="-159.5" font-family="Helvetica,sans-Serif" font-size="10.00">HUPhandler</text>
</a>
</g>
</g>
<!-- Node1&#45;&gt;Node6 -->
<g id="edge6" class="edge"><title>Node1&#45;&gt;Node6</title>
<path fill="none" stroke="midnightblue" d="M41.4266,-266.455C51.9292,-248.673 76.6085,-210.095 106,-186 110.413,-182.382 115.462,-179.121 120.59,-176.254"/>
<polygon fill="midnightblue" stroke="midnightblue" points="122.493,-179.212 129.786,-171.526 119.292,-172.986 122.493,-179.212"/>
</g>
<!-- Node7 -->
<g id="node7" class="node"><title>Node7</title>
<g id="a_node7"><a xlink:href="../../d0/d3e/pps-files_8cpp.html#a6092b615f5e717c843a1948b2a34cf6a" target="_top" xlink:title="TERMhandler">
<polygon fill="white" stroke="black" points="269.5,-304.5 269.5,-323.5 346.5,-323.5 346.5,-304.5 269.5,-304.5"/>
<text text-anchor="middle" x="308" y="-311.5" font-family="Helvetica,sans-Serif" font-size="10.00">TERMhandler</text>
</a>
</g>
</g>
<!-- Node1&#45;&gt;Node7 -->
<g id="edge7" class="edge"><title>Node1&#45;&gt;Node7</title>
<path fill="none" stroke="midnightblue" d="M69.7275,-283.303C81.2032,-285.639 94.1283,-288.107 106,-290 158.199,-298.323 218.445,-305.151 259.263,-309.367"/>
<polygon fill="midnightblue" stroke="midnightblue" points="259.159,-312.874 269.462,-310.408 259.869,-305.911 259.159,-312.874"/>
</g>
<!-- Node8 -->
<g id="node8" class="node"><title>Node8</title>
<g id="a_node8"><a xlink:href="../../d5/d60/pps-client_8cpp.html#a505a6be9b7669b349cea03a9fe663d74" target="_top" xlink:title="setSyncDelay">
<polygon fill="white" stroke="black" points="116,-114.5 116,-133.5 194,-133.5 194,-114.5 116,-114.5"/>
<text text-anchor="middle" x="155" y="-121.5" font-family="Helvetica,sans-Serif" font-size="10.00">setSyncDelay</text>
</a>
</g>
</g>
<!-- Node1&#45;&gt;Node8 -->
<g id="edge10" class="edge"><title>Node1&#45;&gt;Node8</title>
<path fill="none" stroke="midnightblue" d="M38.5885,-266.168C45.4585,-241.903 66.3917,-178.561 106,-143 107.734,-141.443 109.611,-140.007 111.584,-138.682"/>
<polygon fill="midnightblue" stroke="midnightblue" points="113.695,-141.511 120.702,-133.565 110.269,-135.406 113.695,-141.511"/>
</g>
<!-- Node9 -->
<g id="node9" class="node"><title>Node9</title>
<g id="a_node9"><a xlink:href="../../d0/d3e/pps-files_8cpp.html#afdccb305ab5e5c4f3402fe7969c6737b" target="_top" xlink:title="writeStatusStrings">
<polygon fill="white" stroke="red" points="106.5,-76.5 106.5,-95.5 203.5,-95.5 203.5,-76.5 106.5,-76.5"/>
<text text-anchor="middle" x="155" y="-83.5" font-family="Helvetica,sans-Serif" font-size="10.00">writeStatusStrings</text>
</a>
</g>
</g>
<!-- Node1&#45;&gt;Node9 -->
<g id="edge11" class="edge"><title>Node1&#45;&gt;Node9</title>
<path fill="none" stroke="midnightblue" d="M37.2661,-266.417C41.5226,-237.895 57.8612,-152.582 106,-105 107.434,-103.582 108.987,-102.267 110.627,-101.047"/>
<polygon fill="midnightblue" stroke="midnightblue" points="112.675,-103.898 119.4,-95.7104 109.037,-97.9175 112.675,-103.898"/>
</g>
<!-- Node10 -->
<g id="node10" class="node"><title>Node10</title>
<g id="a_node10"><a xlink:href="../../d5/d60/pps-client_8cpp.html#a4610ca59593e517fde46aa10657a7891" target="_top" xlink:title="readPPS_SetTime">
<polygon fill="white" stroke="red" points="106,-494.5 106,-513.5 204,-513.5 204,-494.5 106,-494.5"/>
<text text-anchor="middle" x="155" y="-501.5" font-family="Helvetica,sans-Serif" font-size="10.00">readPPS_SetTime</text>
</a>
</g>
</g>
<!-- Node1&#45;&gt;Node10 -->
<g id="edge12" class="edge"><title>Node1&#45;&gt;Node10</title>
<path fill="none" stroke="midnightblue" d="M36.7733,-285.802C39.7705,-317.66 53.2332,-419.697 106,-480 109.05,-483.486 112.727,-486.523 116.67,-489.155"/>
<polygon fill="midnightblue" stroke="midnightblue" points="115.178,-492.334 125.592,-494.283 118.666,-486.265 115.178,-492.334"/>
</g>
<!-- Node11 -->
<g id="node11" class="node"><title>Node11</title>
<g id="a_node11"><a xlink:href="../../d5/d60/pps-client_8cpp.html#a510df19cb6ad4f22a7823cbc0852b9e9" target="_top" xlink:title="checkPPSInterrupt">
<polygon fill="white" stroke="black" points="258.5,-266.5 258.5,-285.5 357.5,-285.5 357.5,-266.5 258.5,-266.5"/>
<text text-anchor="middle" x="308" y="-273.5" font-family="Helvetica,sans-Serif" font-size="10.00">checkPPSInterrupt</text>
</a>
</g>
</g>
<!-- Node1&#45;&gt;Node11 -->
<g id="edge15" class="edge"><title>Node1&#45;&gt;Node11</title>
<path fill="none" stroke="midnightblue" d="M69.5017,-276C114.07,-276 193.582,-276 248.241,-276"/>
<polygon fill="midnightblue" stroke="midnightblue" points="248.483,-279.5 258.483,-276 248.483,-272.5 248.483,-279.5"/>
</g>
<!-- Node12 -->
<g id="node12" class="node"><title>Node12</title>
<g id="a_node12"><a xlink:href="../../d0/d3e/pps-files_8cpp.html#a99055dd0dc705a74bb0b3ab03fea92e3" target="_top" xlink:title="bufferStateParams">
<polygon fill="white" stroke="red" points="106,-38.5 106,-57.5 204,-57.5 204,-38.5 106,-38.5"/>
<text text-anchor="middle" x="155" y="-45.5" font-family="Helvetica,sans-Serif" font-size="10.00">bufferStateParams</text>
</a>
</g>
</g>
<!-- Node1&#45;&gt;Node12 -->
<g id="edge17" class="edge"><title>Node1&#45;&gt;Node12</title>
<path fill="none" stroke="midnightblue" d="M36.4567,-266.23C38.4995,-233.543 49.4088,-126.716 106,-67 107.229,-65.703 108.558,-64.4928 109.963,-63.3637"/>
<polygon fill="midnightblue" stroke="midnightblue" points="112.178,-66.1006 118.692,-57.7448 108.389,-60.2147 112.178,-66.1006"/>
</g>
<!-- Node13 -->
<g id="node13" class="node"><title>Node13</title>
<g id="a_node13"><a xlink:href="../../d5/d60/pps-client_8cpp.html#a8a87b6ef0bf407467331509efdd5b3e9" target="_top" xlink:title="getInterruptDelay">
<polygon fill="white" stroke="red" points="262,-228.5 262,-247.5 354,-247.5 354,-228.5 262,-228.5"/>
<text text-anchor="middle" x="308" y="-235.5" font-family="Helvetica,sans-Serif" font-size="10.00">getInterruptDelay</text>
</a>
</g>
</g>
<!-- Node1&#45;&gt;Node13 -->
<g id="edge18" class="edge"><title>Node1&#45;&gt;Node13</title>
<path fill="none" stroke="midnightblue" d="M69.5017,-271.302C115.001,-264.922 196.921,-253.435 251.634,-245.764"/>
<polygon fill="midnightblue" stroke="midnightblue" points="252.439,-249.185 261.856,-244.33 251.467,-242.253 252.439,-249.185"/>
</g>
<!-- Node14 -->
<g id="node14" class="node"><title>Node14</title>
<g id="a_node14"><a xlink:href="../../d0/d3e/pps-files_8cpp.html#a3ce43a5b60daa4f8158895454f2b7bd3" target="_top" xlink:title="processFiles">
<polygon fill="white" stroke="red" points="119,-380.5 119,-399.5 191,-399.5 191,-380.5 119,-380.5"/>
<text text-anchor="middle" x="155" y="-387.5" font-family="Helvetica,sans-Serif" font-size="10.00">processFiles</text>
</a>
</g>
</g>
<!-- Node1&#45;&gt;Node14 -->
<g id="edge20" class="edge"><title>Node1&#45;&gt;Node14</title>
<path fill="none" stroke="midnightblue" d="M41.4266,-285.545C51.9292,-303.327 76.6085,-341.905 106,-366 110.413,-369.618 115.462,-372.879 120.59,-375.746"/>
<polygon fill="midnightblue" stroke="midnightblue" points="119.292,-379.014 129.786,-380.474 122.493,-372.788 119.292,-379.014"/>
</g>
<!-- Node15 -->
<g id="node15" class="node"><title>Node15</title>
<g id="a_node15"><a xlink:href="../../dc/d4f/pps-sntp_8cpp.html#ab6d786ab6487a8937306f50e65b1e4cd" target="_top" xlink:title="makeSNTPTimeQuery">
<polygon fill="white" stroke="red" points="250,-190.5 250,-209.5 366,-209.5 366,-190.5 250,-190.5"/>
<text text-anchor="middle" x="308" y="-197.5" font-family="Helvetica,sans-Serif" font-size="10.00">makeSNTPTimeQuery</text>
</a>
</g>
</g>
<!-- Node1&#45;&gt;Node15 -->
<g id="edge22" class="edge"><title>Node1&#45;&gt;Node15</title>
<path fill="none" stroke="midnightblue" d="M57.4595,-266.469C71.1623,-260.62 89.4081,-253.268 106,-248 153.127,-233.036 207.768,-220.272 248.173,-211.676"/>
<polygon fill="midnightblue" stroke="midnightblue" points="249.061,-215.066 258.126,-209.582 247.619,-208.216 249.061,-215.066"/>
</g>
<!-- Node16 -->
<g id="node16" class="node"><title>Node16</title>
<g id="a_node16"><a xlink:href="../../dc/d4f/pps-sntp_8cpp.html#a05a786e283f51c4aea4de852b7292bb9" target="_top" xlink:title="freeSNTPThreads">
<polygon fill="white" stroke="black" points="107.5,-0.5 107.5,-19.5 202.5,-19.5 202.5,-0.5 107.5,-0.5"/>
<text text-anchor="middle" x="155" y="-7.5" font-family="Helvetica,sans-Serif" font-size="10.00">freeSNTPThreads</text>
</a>
</g>
</g>
<!-- Node1&#45;&gt;Node16 -->
<g id="edge24" class="edge"><title>Node1&#45;&gt;Node16</title>
<path fill="none" stroke="midnightblue" d="M35.8621,-266.053C35.8949,-229.512 40.8412,-101.078 106,-29 107.198,-27.6745 108.501,-26.4401 109.885,-25.2909"/>
<polygon fill="midnightblue" stroke="midnightblue" points="112.105,-28.0195 118.531,-19.5958 108.255,-22.1736 112.105,-28.0195"/>
</g>
<!-- Node3&#45;&gt;Node4 -->
<g id="edge3" class="edge"><title>Node3&#45;&gt;Node4</title>
<path fill="none" stroke="midnightblue" d="M348.143,-380.557C357.418,-377.867 367.176,-374.658 376,-371 391.381,-364.624 407.696,-355.592 420.488,-347.933"/>
<polygon fill="midnightblue" stroke="midnightblue" points="422.412,-350.859 429.117,-342.657 418.76,-344.888 422.412,-350.859"/>
</g>
<!-- Node5&#45;&gt;Node4 -->
<g id="edge5" class="edge"><title>Node5&#45;&gt;Node4</title>
<path fill="none" stroke="midnightblue" d="M375.709,-342.611C384.777,-341.335 393.863,-340.056 402.314,-338.867"/>
<polygon fill="midnightblue" stroke="midnightblue" points="402.849,-342.326 412.263,-337.467 401.873,-335.395 402.849,-342.326"/>
</g>
<!-- Node7&#45;&gt;Node4 -->
<g id="edge8" class="edge"><title>Node7&#45;&gt;Node4</title>
<path fill="none" stroke="midnightblue" d="M346.605,-319.293C363.823,-321.716 384.292,-324.597 402.012,-327.091"/>
<polygon fill="midnightblue" stroke="midnightblue" points="401.691,-330.58 412.082,-328.508 402.667,-323.648 401.691,-330.58"/>
</g>
<!-- Node10&#45;&gt;Node2 -->
<g id="edge14" class="edge"><title>Node10&#45;&gt;Node2</title>
<path fill="none" stroke="midnightblue" d="M194.104,-513.589C218.001,-519.603 248.585,-527.3 271.892,-533.165"/>
<polygon fill="midnightblue" stroke="midnightblue" points="271.164,-536.591 281.715,-535.637 272.872,-529.802 271.164,-536.591"/>
</g>
<!-- Node10&#45;&gt;Node4 -->
<g id="edge13" class="edge"><title>Node10&#45;&gt;Node4</title>
<path fill="none" stroke="midnightblue" d="M204.099,-511.496C252.162,-516.282 325.923,-515.985 376,-480 418.691,-449.322 435.295,-385.052 441.145,-352.616"/>
<polygon fill="midnightblue" stroke="midnightblue" points="444.627,-353.012 442.791,-342.577 437.719,-351.879 444.627,-353.012"/>
</g>
<!-- Node11&#45;&gt;Node4 -->
<g id="edge16" class="edge"><title>Node11&#45;&gt;Node4</title>
<path fill="none" stroke="midnightblue" d="M348.495,-285.546C357.665,-288.214 367.288,-291.389 376,-295 391.381,-301.376 407.696,-310.408 420.488,-318.067"/>
<polygon fill="midnightblue" stroke="midnightblue" points="418.76,-321.112 429.117,-323.343 422.412,-315.141 418.76,-321.112"/>
</g>
<!-- Node13&#45;&gt;Node4 -->
<g id="edge19" class="edge"><title>Node13&#45;&gt;Node4</title>
<path fill="none" stroke="midnightblue" d="M354.106,-246.991C361.736,-249.56 369.336,-252.835 376,-257 399.815,-271.885 420.225,-297.503 432.306,-314.838"/>
<polygon fill="midnightblue" stroke="midnightblue" points="429.644,-317.152 438.13,-323.496 435.453,-313.245 429.644,-317.152"/>
</g>
<!-- Node14&#45;&gt;Node3 -->
<g id="edge21" class="edge"><title>Node14&#45;&gt;Node3</title>
<path fill="none" stroke="midnightblue" d="M191.022,-390C210.878,-390 236.037,-390 257.843,-390"/>
<polygon fill="midnightblue" stroke="midnightblue" points="257.917,-393.5 267.917,-390 257.917,-386.5 257.917,-393.5"/>
</g>
<!-- Node15&#45;&gt;Node4 -->
<g id="edge23" class="edge"><title>Node15&#45;&gt;Node4</title>
<path fill="none" stroke="midnightblue" d="M358.985,-209.534C365.067,-211.998 370.917,-215.098 376,-219 408.152,-243.678 428.221,-288.254 437.635,-313.74"/>
<polygon fill="midnightblue" stroke="midnightblue" points="434.404,-315.105 441.021,-323.38 441.009,-312.786 434.404,-315.105"/>
</g>
</g>
</svg>
