<?xml version="1.0" encoding="UTF-8" standalone="no"?>
<!DOCTYPE svg PUBLIC "-//W3C//DTD SVG 1.1//EN"
 "http://www.w3.org/Graphics/SVG/1.1/DTD/svg11.dtd">
<!-- Generated by graphviz version 2.40.1 (20161225.0304)
 -->
<!-- Title: removeNoise Pages: 1 -->
<svg width="227pt" height="212pt"
 viewBox="0.00 0.00 226.60 212.00" xmlns="http://www.w3.org/2000/svg" xmlns:xlink="http://www.w3.org/1999/xlink">
<g id="graph0" class="graph" transform="scale(1 1) rotate(0) translate(4 208)">
<title>removeNoise</title>
<polygon fill="#ffffff" stroke="transparent" points="-4,4 -4,-208 222.6006,-208 222.6006,4 -4,4"/>
<!-- Node325 -->
<g id="node1" class="node">
<title>Node325</title>
<polygon fill="#bfbfbf" stroke="#000000" points="0,-92.5 0,-110.5 74.9111,-110.5 74.9111,-92.5 0,-92.5"/>
<text text-anchor="middle" x="37.4556" y="-98.5" font-family="Helvetica,sans-Serif" font-size="10.00" fill="#000000">removeNoise</text>
</g>
<!-- Node326 -->
<g id="node2" class="node">
<title>Node326</title>
<g id="a_node2"><a xlink:href="../../d5/d60/pps-client_8cpp.html#ad889ebd8ff46d7aece2aa6c4c7252ed2" target="_top" xlink:title="buildRawErrorDistrib">
<polygon fill="#ffffff" stroke="#000000" points="110.9111,-185.5 110.9111,-203.5 218.6006,-203.5 218.6006,-185.5 110.9111,-185.5"/>
<text text-anchor="middle" x="164.7559" y="-191.5" font-family="Helvetica,sans-Serif" font-size="10.00" fill="#000000">buildRawErrorDistrib</text>
</a>
</g>
</g>
<!-- Node325&#45;&gt;Node326 -->
<g id="edge1" class="edge">
<title>Node325&#45;&gt;Node326</title>
<path fill="none" stroke="#191970" d="M44.1026,-110.7163C55.866,-126.3951 81.8662,-158.3223 110.9111,-176.5 113.8837,-178.3604 117.0701,-180.0514 120.3534,-181.584"/>
<polygon fill="#191970" stroke="#191970" points="119.1883,-184.89 129.7659,-185.4936 121.8734,-178.4254 119.1883,-184.89"/>
</g>
<!-- Node327 -->
<g id="node3" class="node">
<title>Node327</title>
<g id="a_node3"><a xlink:href="../../d0/d3e/pps-files_8cpp.html#abec458c05c4b47e56643bfa1bd52fbb5" target="_top" xlink:title="buildJitterDistrib">
<polygon fill="#ffffff" stroke="#000000" points="121.1895,-148.5 121.1895,-166.5 208.3223,-166.5 208.3223,-148.5 121.1895,-148.5"/>
<text text-anchor="middle" x="164.7559" y="-154.5" font-family="Helvetica,sans-Serif" font-size="10.00" fill="#000000">buildJitterDistrib</text>
</a>
</g>
</g>
<!-- Node325&#45;&gt;Node327 -->
<g id="edge2" class="edge">
<title>Node325&#45;&gt;Node327</title>
<path fill="none" stroke="#191970" d="M53.1629,-110.5304C67.8086,-118.7309 90.413,-130.8332 110.9111,-139.5 115.439,-141.4144 120.2464,-143.2661 125.0524,-145.0068"/>
<polygon fill="#191970" stroke="#191970" points="124.231,-148.4268 134.8258,-148.4086 126.5321,-141.8158 124.231,-148.4268"/>
</g>
<!-- Node328 -->
<g id="node4" class="node">
<title>Node328</title>
<g id="a_node4"><a xlink:href="../../d5/d60/pps-client_8cpp.html#a0b30b41495a6426b5bb557ced936901b" target="_top" xlink:title="detectDelaySpike">
<polygon fill="#ffffff" stroke="#000000" points="117.8447,-111.5 117.8447,-129.5 211.667,-129.5 211.667,-111.5 117.8447,-111.5"/>
<text text-anchor="middle" x="164.7559" y="-117.5" font-family="Helvetica,sans-Serif" font-size="10.00" fill="#000000">detectDelaySpike</text>
</a>
</g>
</g>
<!-- Node325&#45;&gt;Node328 -->
<g id="edge3" class="edge">
<title>Node325&#45;&gt;Node328</title>
<path fill="none" stroke="#191970" d="M74.9613,-107.0979C85.1809,-108.6232 96.4888,-110.3109 107.5357,-111.9597"/>
<polygon fill="#191970" stroke="#191970" points="107.1616,-115.4426 117.5687,-113.4572 108.195,-108.5192 107.1616,-115.4426"/>
</g>
<!-- Node329 -->
<g id="node5" class="node">
<title>Node329</title>
<g id="a_node5"><a xlink:href="../../d5/d60/pps-client_8cpp.html#a9173ef2f7e0585cc0edbc7e5a733bc3b" target="_top" xlink:title="getTimeSlew">
<polygon fill="#ffffff" stroke="#000000" points="128.04,-74.5 128.04,-92.5 201.4717,-92.5 201.4717,-74.5 128.04,-74.5"/>
<text text-anchor="middle" x="164.7559" y="-80.5" font-family="Helvetica,sans-Serif" font-size="10.00" fill="#000000">getTimeSlew</text>
</a>
</g>
</g>
<!-- Node325&#45;&gt;Node329 -->
<g id="edge4" class="edge">
<title>Node325&#45;&gt;Node329</title>
<path fill="none" stroke="#191970" d="M74.9613,-96.1968C88.4171,-94.2941 103.7595,-92.1248 117.9088,-90.1241"/>
<polygon fill="#191970" stroke="#191970" points="118.5452,-93.569 127.9567,-88.7033 117.5651,-86.6379 118.5452,-93.569"/>
</g>
<!-- Node330 -->
<g id="node6" class="node">
<title>Node330</title>
<g id="a_node6"><a xlink:href="../../d5/d60/pps-client_8cpp.html#ab553045428f9337e754db13f1d0ea647" target="_top" xlink:title="setHardLimit">
<polygon fill="#ffffff" stroke="#000000" points="128.6919,-37.5 128.6919,-55.5 200.8198,-55.5 200.8198,-37.5 128.6919,-37.5"/>
<text text-anchor="middle" x="164.7559" y="-43.5" font-family="Helvetica,sans-Serif" font-size="10.00" fill="#000000">setHardLimit</text>
</a>
</g>
</g>
<!-- Node325&#45;&gt;Node330 -->
<g id="edge5" class="edge">
<title>Node325&#45;&gt;Node330</title>
<path fill="none" stroke="#191970" d="M54.4114,-92.4886C69.1346,-84.8342 91.1379,-73.8008 110.9111,-65.5 116.1668,-63.2937 121.7779,-61.12 127.3197,-59.0755"/>
<polygon fill="#191970" stroke="#191970" points="128.898,-62.2277 137.1283,-55.5559 126.5338,-55.639 128.898,-62.2277"/>
</g>
<!-- Node331 -->
<g id="node7" class="node">
<title>Node331</title>
<g id="a_node7"><a xlink:href="../../d5/d60/pps-client_8cpp.html#a5443ab59528135706e70991cf1f880d2" target="_top" xlink:title="clampJitter">
<polygon fill="#ffffff" stroke="#000000" points="132.5835,-.5 132.5835,-18.5 196.9282,-18.5 196.9282,-.5 132.5835,-.5"/>
<text text-anchor="middle" x="164.7559" y="-6.5" font-family="Helvetica,sans-Serif" font-size="10.00" fill="#000000">clampJitter</text>
</a>
</g>
</g>
<!-- Node325&#45;&gt;Node331 -->
<g id="edge6" class="edge">
<title>Node325&#45;&gt;Node331</title>
<path fill="none" stroke="#191970" d="M44.5762,-92.0999C56.647,-76.7624 82.5913,-46.285 110.9111,-28.5 114.6967,-26.1227 118.8193,-23.9933 123.0427,-22.0984"/>
<polygon fill="#191970" stroke="#191970" points="124.4074,-25.3219 132.358,-18.3191 121.7758,-18.8354 124.4074,-25.3219"/>
</g>
</g>
</svg>
