<?xml version="1.0" encoding="UTF-8" standalone="no"?>
<!DOCTYPE svg PUBLIC "-//W3C//DTD SVG 1.1//EN"
 "http://www.w3.org/Graphics/SVG/1.1/DTD/svg11.dtd">
<!-- Generated by graphviz version 2.36.0 (20140111.2315)
 -->
<!-- Title: clampJitter Pages: 1 -->
<svg width="208pt" height="66pt"
 viewBox="0.00 0.00 208.00 66.00" xmlns="http://www.w3.org/2000/svg" xmlns:xlink="http://www.w3.org/1999/xlink">
<g id="graph0" class="graph" transform="scale(1 1) rotate(0) translate(4 62)">
<title>clampJitter</title>
<polygon fill="white" stroke="none" points="-4,4 -4,-62 204,-62 204,4 -4,4"/>
<!-- Node1 -->
<g id="node1" class="node"><title>Node1</title>
<polygon fill="#bfbfbf" stroke="black" points="0.5,-19.5 0.5,-38.5 65.5,-38.5 65.5,-19.5 0.5,-19.5"/>
<text text-anchor="middle" x="33" y="-26.5" font-family="Helvetica,sans-Serif" font-size="10.00">clampJitter</text>
</g>
<!-- Node2 -->
<g id="node2" class="node"><title>Node2</title>
<g id="a_node2"><a xlink:href="../../d5/d60/pps-client_8cpp.html#ad71923ccec11a6d6e132c43e60fe8765" target="_top" xlink:title="removeNoise">
<polygon fill="white" stroke="red" points="114,-38.5 114,-57.5 188,-57.5 188,-38.5 114,-38.5"/>
<text text-anchor="middle" x="151" y="-45.5" font-family="Helvetica,sans-Serif" font-size="10.00">removeNoise</text>
</a>
</g>
</g>
<!-- Node1&#45;&gt;Node2 -->
<g id="edge1" class="edge"><title>Node1&#45;&gt;Node2</title>
<path fill="none" stroke="midnightblue" d="M75.8358,-35.8524C88.2735,-37.8896 101.789,-40.1034 113.834,-42.0762"/>
<polygon fill="midnightblue" stroke="midnightblue" points="76.1318,-32.3543 65.6975,-34.1918 75.0002,-39.2623 76.1318,-32.3543"/>
</g>
<!-- Node3 -->
<g id="node3" class="node"><title>Node3</title>
<g id="a_node3"><a xlink:href="../../d5/d60/pps-client_8cpp.html#abfab868ee3b041247625234432820321" target="_top" xlink:title="removeIntrptNoise">
<polygon fill="white" stroke="red" points="102.5,-0.5 102.5,-19.5 199.5,-19.5 199.5,-0.5 102.5,-0.5"/>
<text text-anchor="middle" x="151" y="-7.5" font-family="Helvetica,sans-Serif" font-size="10.00">removeIntrptNoise</text>
</a>
</g>
</g>
<!-- Node1&#45;&gt;Node3 -->
<g id="edge2" class="edge"><title>Node1&#45;&gt;Node3</title>
<path fill="none" stroke="midnightblue" d="M75.8358,-22.1476C84.401,-20.7447 93.4773,-19.258 102.232,-17.824"/>
<polygon fill="midnightblue" stroke="midnightblue" points="75.0002,-18.7377 65.6975,-23.8082 76.1318,-25.6457 75.0002,-18.7377"/>
</g>
</g>
</svg>
