<?xml version="1.0" encoding="UTF-8" standalone="no"?>
<!DOCTYPE svg PUBLIC "-//W3C//DTD SVG 1.1//EN"
 "http://www.w3.org/Graphics/SVG/1.1/DTD/svg11.dtd">
<!-- Generated by graphviz version 2.36.0 (20140111.2315)
 -->
<!-- Title: initialize Pages: 1 -->
<svg width="300pt" height="47pt"
 viewBox="0.00 0.00 300.00 47.00" xmlns="http://www.w3.org/2000/svg" xmlns:xlink="http://www.w3.org/1999/xlink">
<g id="graph0" class="graph" transform="scale(1 1) rotate(0) translate(4 43)">
<title>initialize</title>
<polygon fill="white" stroke="none" points="-4,4 -4,-43 296,-43 296,4 -4,4"/>
<!-- Node1 -->
<g id="node1" class="node"><title>Node1</title>
<polygon fill="#bfbfbf" stroke="black" points="0,-0.5 0,-19.5 52,-19.5 52,-0.5 0,-0.5"/>
<text text-anchor="middle" x="26" y="-7.5" font-family="Helvetica,sans-Serif" font-size="10.00">initialize</text>
</g>
<!-- Node2 -->
<g id="node2" class="node"><title>Node2</title>
<g id="a_node2"><a xlink:href="../../d5/d60/pps-client_8cpp.html#a4610ca59593e517fde46aa10657a7891" target="_top" xlink:title="readPPS_SetTime">
<polygon fill="white" stroke="black" points="88,-19.5 88,-38.5 186,-38.5 186,-19.5 88,-19.5"/>
<text text-anchor="middle" x="137" y="-26.5" font-family="Helvetica,sans-Serif" font-size="10.00">readPPS_SetTime</text>
</a>
</g>
</g>
<!-- Node1&#45;&gt;Node2 -->
<g id="edge1" class="edge"><title>Node1&#45;&gt;Node2</title>
<path fill="none" stroke="midnightblue" d="M62.0269,-16.1056C70.2813,-17.5444 79.2218,-19.1029 87.9394,-20.6225"/>
<polygon fill="midnightblue" stroke="midnightblue" points="62.4593,-12.6283 52.0068,-14.359 61.2572,-19.5243 62.4593,-12.6283"/>
</g>
<!-- Node3 -->
<g id="node3" class="node"><title>Node3</title>
<g id="a_node3"><a xlink:href="../../d5/d60/pps-client_8cpp.html#a4b3bdab744bd7ed860326323fad180f2" target="_top" xlink:title="waitForPPS">
<polygon fill="white" stroke="red" points="222.5,-0.5 222.5,-19.5 291.5,-19.5 291.5,-0.5 222.5,-0.5"/>
<text text-anchor="middle" x="257" y="-7.5" font-family="Helvetica,sans-Serif" font-size="10.00">waitForPPS</text>
</a>
</g>
</g>
<!-- Node1&#45;&gt;Node3 -->
<g id="edge3" class="edge"><title>Node1&#45;&gt;Node3</title>
<path fill="none" stroke="midnightblue" d="M62.5315,-10C106.16,-10 179.61,-10 222.356,-10"/>
<polygon fill="midnightblue" stroke="midnightblue" points="62.382,-6.5001 52.382,-10 62.3819,-13.5001 62.382,-6.5001"/>
</g>
<!-- Node2&#45;&gt;Node3 -->
<g id="edge2" class="edge"><title>Node2&#45;&gt;Node3</title>
<path fill="none" stroke="midnightblue" d="M196.351,-19.6045C205.267,-18.1688 214.204,-16.7299 222.345,-15.419"/>
<polygon fill="midnightblue" stroke="midnightblue" points="195.652,-16.1719 186.336,-21.2172 196.765,-23.0829 195.652,-16.1719"/>
</g>
</g>
</svg>
