<?xml version="1.0" encoding="UTF-8" standalone="no"?>
<!DOCTYPE svg PUBLIC "-//W3C//DTD SVG 1.1//EN"
 "http://www.w3.org/Graphics/SVG/1.1/DTD/svg11.dtd">
<!-- Generated by graphviz version 2.40.1 (20161225.0304)
 -->
<!-- Title: buildRawErrorDistrib Pages: 1 -->
<svg width="249pt" height="64pt"
 viewBox="0.00 0.00 249.39 64.00" xmlns="http://www.w3.org/2000/svg" xmlns:xlink="http://www.w3.org/1999/xlink">
<g id="graph0" class="graph" transform="scale(1 1) rotate(0) translate(4 60)">
<title>buildRawErrorDistrib</title>
<polygon fill="#ffffff" stroke="transparent" points="-4,4 -4,-60 245.3887,-60 245.3887,4 -4,4"/>
<!-- Node7 -->
<g id="node1" class="node">
<title>Node7</title>
<polygon fill="#bfbfbf" stroke="#000000" points="0,-18.5 0,-36.5 107.6895,-36.5 107.6895,-18.5 0,-18.5"/>
<text text-anchor="middle" x="53.8447" y="-24.5" font-family="Helvetica,sans-Serif" font-size="10.00" fill="#000000">buildRawErrorDistrib</text>
</g>
<!-- Node8 -->
<g id="node2" class="node">
<title>Node8</title>
<g id="a_node2"><a xlink:href="../../d5/d60/pps-client_8cpp.html#ad71923ccec11a6d6e132c43e60fe8765" target="_top" xlink:title="removeNoise">
<polygon fill="#ffffff" stroke="#ff0000" points="155.0835,-37.5 155.0835,-55.5 229.9946,-55.5 229.9946,-37.5 155.0835,-37.5"/>
<text text-anchor="middle" x="192.5391" y="-43.5" font-family="Helvetica,sans-Serif" font-size="10.00" fill="#000000">removeNoise</text>
</a>
</g>
</g>
<!-- Node7&#45;&gt;Node8 -->
<g id="edge1" class="edge">
<title>Node7&#45;&gt;Node8</title>
<path fill="none" stroke="#191970" d="M117.8945,-36.2743C130.5036,-38.0017 143.3477,-39.7612 154.7462,-41.3227"/>
<polygon fill="#191970" stroke="#191970" points="118.2473,-32.79 107.8647,-34.9003 117.2971,-39.7252 118.2473,-32.79"/>
</g>
<!-- Node13 -->
<g id="node3" class="node">
<title>Node13</title>
<g id="a_node3"><a xlink:href="../../d5/d60/pps-client_8cpp.html#abfab868ee3b041247625234432820321" target="_top" xlink:title="removeIntrptNoise">
<polygon fill="#ffffff" stroke="#ff0000" points="143.6895,-.5 143.6895,-18.5 241.3887,-18.5 241.3887,-.5 143.6895,-.5"/>
<text text-anchor="middle" x="192.5391" y="-6.5" font-family="Helvetica,sans-Serif" font-size="10.00" fill="#000000">removeIntrptNoise</text>
</a>
</g>
</g>
<!-- Node7&#45;&gt;Node13 -->
<g id="edge2" class="edge">
<title>Node7&#45;&gt;Node13</title>
<path fill="none" stroke="#191970" d="M117.8618,-19.1918C126.4478,-18.0774 135.1434,-16.9489 143.418,-15.875"/>
<polygon fill="#191970" stroke="#191970" points="117.3311,-15.7312 107.8647,-20.4892 118.232,-22.673 117.3311,-15.7312"/>
</g>
</g>
</svg>
