<?xml version="1.0" encoding="UTF-8" standalone="no"?>
<!DOCTYPE svg PUBLIC "-//W3C//DTD SVG 1.1//EN"
 "http://www.w3.org/Graphics/SVG/1.1/DTD/svg11.dtd">
<!-- Generated by graphviz version 2.36.0 (20140111.2315)
 -->
<!-- Title: removeNoise Pages: 1 -->
<svg width="226pt" height="218pt"
 viewBox="0.00 0.00 226.00 218.00" xmlns="http://www.w3.org/2000/svg" xmlns:xlink="http://www.w3.org/1999/xlink">
<g id="graph0" class="graph" transform="scale(1 1) rotate(0) translate(4 214)">
<title>removeNoise</title>
<polygon fill="white" stroke="none" points="-4,4 -4,-214 222,-214 222,4 -4,4"/>
<!-- Node1 -->
<g id="node1" class="node"><title>Node1</title>
<polygon fill="#bfbfbf" stroke="black" points="0,-95.5 0,-114.5 74,-114.5 74,-95.5 0,-95.5"/>
<text text-anchor="middle" x="37" y="-102.5" font-family="Helvetica,sans-Serif" font-size="10.00">removeNoise</text>
</g>
<!-- Node2 -->
<g id="node2" class="node"><title>Node2</title>
<g id="a_node2"><a xlink:href="../../d5/d60/pps-client_8cpp.html#ad889ebd8ff46d7aece2aa6c4c7252ed2" target="_top" xlink:title="buildRawErrorDistrib">
<polygon fill="white" stroke="black" points="110.5,-190.5 110.5,-209.5 217.5,-209.5 217.5,-190.5 110.5,-190.5"/>
<text text-anchor="middle" x="164" y="-197.5" font-family="Helvetica,sans-Serif" font-size="10.00">buildRawErrorDistrib</text>
</a>
</g>
</g>
<!-- Node1&#45;&gt;Node2 -->
<g id="edge1" class="edge"><title>Node1&#45;&gt;Node2</title>
<path fill="none" stroke="midnightblue" d="M44.6694,-114.538C56.2397,-130.433 81.5391,-162.422 110,-181 112.954,-182.929 116.129,-184.691 119.404,-186.296"/>
<polygon fill="midnightblue" stroke="midnightblue" points="118.231,-189.603 128.795,-190.408 121.039,-183.191 118.231,-189.603"/>
</g>
<!-- Node3 -->
<g id="node3" class="node"><title>Node3</title>
<g id="a_node3"><a xlink:href="../../d0/d3e/pps-files_8cpp.html#abec458c05c4b47e56643bfa1bd52fbb5" target="_top" xlink:title="buildJitterDistrib">
<polygon fill="white" stroke="black" points="120.5,-152.5 120.5,-171.5 207.5,-171.5 207.5,-152.5 120.5,-152.5"/>
<text text-anchor="middle" x="164" y="-159.5" font-family="Helvetica,sans-Serif" font-size="10.00">buildJitterDistrib</text>
</a>
</g>
</g>
<!-- Node1&#45;&gt;Node3 -->
<g id="edge2" class="edge"><title>Node1&#45;&gt;Node3</title>
<path fill="none" stroke="midnightblue" d="M54.544,-114.592C68.9281,-122.722 90.4684,-134.396 110,-143 114.688,-145.065 119.678,-147.081 124.649,-148.981"/>
<polygon fill="midnightblue" stroke="midnightblue" points="123.509,-152.291 134.103,-152.475 125.936,-145.725 123.509,-152.291"/>
</g>
<!-- Node4 -->
<g id="node4" class="node"><title>Node4</title>
<g id="a_node4"><a xlink:href="../../d5/d60/pps-client_8cpp.html#a0b30b41495a6426b5bb557ced936901b" target="_top" xlink:title="detectDelaySpike">
<polygon fill="white" stroke="black" points="117,-114.5 117,-133.5 211,-133.5 211,-114.5 117,-114.5"/>
<text text-anchor="middle" x="164" y="-121.5" font-family="Helvetica,sans-Serif" font-size="10.00">detectDelaySpike</text>
</a>
</g>
</g>
<!-- Node1&#45;&gt;Node4 -->
<g id="edge3" class="edge"><title>Node1&#45;&gt;Node4</title>
<path fill="none" stroke="midnightblue" d="M74.1552,-110.496C84.3128,-112.04 95.6068,-113.756 106.643,-115.434"/>
<polygon fill="midnightblue" stroke="midnightblue" points="106.253,-118.915 116.666,-116.957 107.305,-111.994 106.253,-118.915"/>
</g>
<!-- Node5 -->
<g id="node5" class="node"><title>Node5</title>
<g id="a_node5"><a xlink:href="../../d5/d60/pps-client_8cpp.html#a9173ef2f7e0585cc0edbc7e5a733bc3b" target="_top" xlink:title="getTimeSlew">
<polygon fill="white" stroke="black" points="127,-76.5 127,-95.5 201,-95.5 201,-76.5 127,-76.5"/>
<text text-anchor="middle" x="164" y="-83.5" font-family="Helvetica,sans-Serif" font-size="10.00">getTimeSlew</text>
</a>
</g>
</g>
<!-- Node1&#45;&gt;Node5 -->
<g id="edge4" class="edge"><title>Node1&#45;&gt;Node5</title>
<path fill="none" stroke="midnightblue" d="M74.1552,-99.5044C87.5001,-97.476 102.806,-95.1494 116.912,-93.0053"/>
<polygon fill="midnightblue" stroke="midnightblue" points="117.566,-96.4463 126.926,-91.4832 116.514,-89.5258 117.566,-96.4463"/>
</g>
<!-- Node6 -->
<g id="node6" class="node"><title>Node6</title>
<g id="a_node6"><a xlink:href="../../d5/d60/pps-client_8cpp.html#ab553045428f9337e754db13f1d0ea647" target="_top" xlink:title="setHardLimit">
<polygon fill="white" stroke="black" points="128,-38.5 128,-57.5 200,-57.5 200,-38.5 128,-38.5"/>
<text text-anchor="middle" x="164" y="-45.5" font-family="Helvetica,sans-Serif" font-size="10.00">setHardLimit</text>
</a>
</g>
</g>
<!-- Node1&#45;&gt;Node6 -->
<g id="edge5" class="edge"><title>Node1&#45;&gt;Node6</title>
<path fill="none" stroke="midnightblue" d="M54.544,-95.408C68.9281,-87.2784 90.4684,-75.6035 110,-67 114.688,-64.935 119.678,-62.9192 124.649,-61.0191"/>
<polygon fill="midnightblue" stroke="midnightblue" points="125.936,-64.2748 134.103,-57.5249 123.509,-57.7089 125.936,-64.2748"/>
</g>
<!-- Node7 -->
<g id="node7" class="node"><title>Node7</title>
<g id="a_node7"><a xlink:href="../../d5/d60/pps-client_8cpp.html#a5443ab59528135706e70991cf1f880d2" target="_top" xlink:title="clampJitter">
<polygon fill="white" stroke="black" points="131.5,-0.5 131.5,-19.5 196.5,-19.5 196.5,-0.5 131.5,-0.5"/>
<text text-anchor="middle" x="164" y="-7.5" font-family="Helvetica,sans-Serif" font-size="10.00">clampJitter</text>
</a>
</g>
</g>
<!-- Node1&#45;&gt;Node7 -->
<g id="edge6" class="edge"><title>Node1&#45;&gt;Node7</title>
<path fill="none" stroke="midnightblue" d="M44.6694,-95.4617C56.2397,-79.5673 81.5391,-47.5784 110,-29 113.738,-26.5597 117.83,-24.3854 122.029,-22.4599"/>
<polygon fill="midnightblue" stroke="midnightblue" points="123.391,-25.6844 131.3,-18.6351 120.721,-19.2134 123.391,-25.6844"/>
</g>
</g>
</svg>
