<?xml version="1.0" encoding="UTF-8" standalone="no"?>
<!DOCTYPE svg PUBLIC "-//W3C//DTD SVG 1.1//EN"
 "http://www.w3.org/Graphics/SVG/1.1/DTD/svg11.dtd">
<!-- Generated by graphviz version 2.40.1 (20161225.0304)
 -->
<!-- Title: removeIntrptNoise Pages: 1 -->
<svg width="258pt" height="101pt"
 viewBox="0.00 0.00 258.31 101.00" xmlns="http://www.w3.org/2000/svg" xmlns:xlink="http://www.w3.org/1999/xlink">
<g id="graph0" class="graph" transform="scale(1 1) rotate(0) translate(4 97)">
<title>removeIntrptNoise</title>
<polygon fill="#ffffff" stroke="transparent" points="-4,4 -4,-97 254.3096,-97 254.3096,4 -4,4"/>
<!-- Node317 -->
<g id="node1" class="node">
<title>Node317</title>
<polygon fill="#bfbfbf" stroke="#000000" points="0,-37.5 0,-55.5 97.6992,-55.5 97.6992,-37.5 0,-37.5"/>
<text text-anchor="middle" x="48.8496" y="-43.5" font-family="Helvetica,sans-Serif" font-size="10.00" fill="#000000">removeIntrptNoise</text>
</g>
<!-- Node318 -->
<g id="node2" class="node">
<title>Node318</title>
<g id="a_node2"><a xlink:href="../../d5/d60/pps-client_8cpp.html#ad889ebd8ff46d7aece2aa6c4c7252ed2" target="_top" xlink:title="buildRawErrorDistrib">
<polygon fill="#ffffff" stroke="#000000" points="138.1597,-74.5 138.1597,-92.5 245.8491,-92.5 245.8491,-74.5 138.1597,-74.5"/>
<text text-anchor="middle" x="192.0044" y="-80.5" font-family="Helvetica,sans-Serif" font-size="10.00" fill="#000000">buildRawErrorDistrib</text>
</a>
</g>
</g>
<!-- Node317&#45;&gt;Node318 -->
<g id="edge1" class="edge">
<title>Node317&#45;&gt;Node318</title>
<path fill="none" stroke="#191970" d="M83.8692,-55.5512C102.9333,-60.4786 126.727,-66.6283 147.1377,-71.9037"/>
<polygon fill="#191970" stroke="#191970" points="146.2925,-75.3002 156.8502,-74.414 148.0442,-68.5229 146.2925,-75.3002"/>
</g>
<!-- Node319 -->
<g id="node3" class="node">
<title>Node319</title>
<g id="a_node3"><a xlink:href="../../d5/d60/pps-client_8cpp.html#a6128ff37a7e46aee507240712c6c8f74" target="_top" xlink:title="detectIntrptDelaySpike">
<polygon fill="#ffffff" stroke="#000000" points="133.6992,-37.5 133.6992,-55.5 250.3096,-55.5 250.3096,-37.5 133.6992,-37.5"/>
<text text-anchor="middle" x="192.0044" y="-43.5" font-family="Helvetica,sans-Serif" font-size="10.00" fill="#000000">detectIntrptDelaySpike</text>
</a>
</g>
</g>
<!-- Node317&#45;&gt;Node319 -->
<g id="edge2" class="edge">
<title>Node317&#45;&gt;Node319</title>
<path fill="none" stroke="#191970" d="M97.715,-46.5C105.9818,-46.5 114.6996,-46.5 123.36,-46.5"/>
<polygon fill="#191970" stroke="#191970" points="123.4698,-50.0001 133.4697,-46.5 123.4697,-43.0001 123.4698,-50.0001"/>
</g>
<!-- Node320 -->
<g id="node4" class="node">
<title>Node320</title>
<g id="a_node4"><a xlink:href="../../d5/d60/pps-client_8cpp.html#a5443ab59528135706e70991cf1f880d2" target="_top" xlink:title="clampJitter">
<polygon fill="#ffffff" stroke="#000000" points="159.832,-.5 159.832,-18.5 224.1768,-18.5 224.1768,-.5 159.832,-.5"/>
<text text-anchor="middle" x="192.0044" y="-6.5" font-family="Helvetica,sans-Serif" font-size="10.00" fill="#000000">clampJitter</text>
</a>
</g>
</g>
<!-- Node317&#45;&gt;Node320 -->
<g id="edge3" class="edge">
<title>Node317&#45;&gt;Node320</title>
<path fill="none" stroke="#191970" d="M83.8692,-37.4488C103.7869,-32.3008 128.8672,-25.8185 149.8583,-20.3931"/>
<polygon fill="#191970" stroke="#191970" points="150.988,-23.7162 159.794,-17.8251 149.2363,-16.9389 150.988,-23.7162"/>
</g>
</g>
</svg>
