<?xml version="1.0" encoding="UTF-8" standalone="no"?>
<!DOCTYPE svg PUBLIC "-//W3C//DTD SVG 1.1//EN"
 "http://www.w3.org/Graphics/SVG/1.1/DTD/svg11.dtd">
<!-- Generated by graphviz version 2.40.1 (20161225.0304)
 -->
<!-- Title: getInterruptDelay Pages: 1 -->
<svg width="369pt" height="177pt"
 viewBox="0.00 0.00 369.04 177.00" xmlns="http://www.w3.org/2000/svg" xmlns:xlink="http://www.w3.org/1999/xlink">
<g id="graph0" class="graph" transform="scale(1 1) rotate(0) translate(4 173)">
<title>getInterruptDelay</title>
<polygon fill="#ffffff" stroke="transparent" points="-4,4 -4,-173 365.0449,-173 365.0449,4 -4,4"/>
<!-- Node80 -->
<g id="node1" class="node">
<title>Node80</title>
<polygon fill="#bfbfbf" stroke="#000000" points="0,-74.5 0,-92.5 92.709,-92.5 92.709,-74.5 0,-74.5"/>
<text text-anchor="middle" x="46.3545" y="-80.5" font-family="Helvetica,sans-Serif" font-size="10.00" fill="#000000">getInterruptDelay</text>
</g>
<!-- Node81 -->
<g id="node2" class="node">
<title>Node81</title>
<g id="a_node2"><a xlink:href="../../d0/d3e/pps-files_8cpp.html#ae20c07f56a5b2b05b636f6a0a31ce214" target="_top" xlink:title="writeToLog">
<polygon fill="#ffffff" stroke="#ff0000" points="150.3789,-150.5 150.3789,-168.5 214.7383,-168.5 214.7383,-150.5 150.3789,-150.5"/>
<text text-anchor="middle" x="182.5586" y="-156.5" font-family="Helvetica,sans-Serif" font-size="10.00" fill="#000000">writeToLog</text>
</a>
</g>
</g>
<!-- Node80&#45;&gt;Node81 -->
<g id="edge1" class="edge">
<title>Node80&#45;&gt;Node81</title>
<path fill="none" stroke="#191970" d="M59.4107,-92.5716C75.3626,-103.4587 103.3623,-121.9403 128.709,-135.5 135.6583,-139.2177 143.2989,-142.8702 150.5862,-146.1604"/>
<polygon fill="#191970" stroke="#191970" points="149.6438,-149.5696 160.2065,-150.3946 152.4637,-143.1627 149.6438,-149.5696"/>
</g>
<!-- Node82 -->
<g id="node3" class="node">
<title>Node82</title>
<g id="a_node3"><a xlink:href="../../d0/d3e/pps-files_8cpp.html#a6f609d689ebe787455ce220808ca3ba0" target="_top" xlink:title="bufferStatusMsg">
<polygon fill="#ffffff" stroke="#000000" points="272.4082,-131.5 272.4082,-149.5 361.0449,-149.5 361.0449,-131.5 272.4082,-131.5"/>
<text text-anchor="middle" x="316.7266" y="-137.5" font-family="Helvetica,sans-Serif" font-size="10.00" fill="#000000">bufferStatusMsg</text>
</a>
</g>
</g>
<!-- Node80&#45;&gt;Node82 -->
<g id="edge6" class="edge">
<title>Node80&#45;&gt;Node82</title>
<path fill="none" stroke="#191970" d="M84.4372,-92.5145C98.3499,-95.7474 114.2242,-99.366 128.709,-102.5 173.4852,-112.1881 224.4316,-122.4371 261.9872,-129.8466"/>
<polygon fill="#191970" stroke="#191970" points="261.7207,-133.3612 272.2084,-131.8584 263.0725,-126.493 261.7207,-133.3612"/>
</g>
<!-- Node84 -->
<g id="node4" class="node">
<title>Node84</title>
<g id="a_node4"><a xlink:href="../../d0/d3e/pps-files_8cpp.html#a147e53428d3615f5cb06a942d4be3626" target="_top" xlink:title="buildInterruptDistrib">
<polygon fill="#ffffff" stroke="#ff0000" points="131.2065,-74.5 131.2065,-92.5 233.9106,-92.5 233.9106,-74.5 131.2065,-74.5"/>
<text text-anchor="middle" x="182.5586" y="-80.5" font-family="Helvetica,sans-Serif" font-size="10.00" fill="#000000">buildInterruptDistrib</text>
</a>
</g>
</g>
<!-- Node80&#45;&gt;Node84 -->
<g id="edge3" class="edge">
<title>Node80&#45;&gt;Node84</title>
<path fill="none" stroke="#191970" d="M92.8473,-83.5C101.9024,-83.5 111.5262,-83.5 120.9807,-83.5"/>
<polygon fill="#191970" stroke="#191970" points="121.1385,-87.0001 131.1385,-83.5 121.1384,-80.0001 121.1385,-87.0001"/>
</g>
<!-- Node86 -->
<g id="node5" class="node">
<title>Node86</title>
<g id="a_node5"><a xlink:href="../../d5/d60/pps-client_8cpp.html#abfab868ee3b041247625234432820321" target="_top" xlink:title="removeIntrptNoise">
<polygon fill="#ffffff" stroke="#ff0000" points="133.709,-37.5 133.709,-55.5 231.4082,-55.5 231.4082,-37.5 133.709,-37.5"/>
<text text-anchor="middle" x="182.5586" y="-43.5" font-family="Helvetica,sans-Serif" font-size="10.00" fill="#000000">removeIntrptNoise</text>
</a>
</g>
</g>
<!-- Node80&#45;&gt;Node86 -->
<g id="edge4" class="edge">
<title>Node80&#45;&gt;Node86</title>
<path fill="none" stroke="#191970" d="M79.6738,-74.4488C97.6473,-69.5662 120.0394,-63.4834 139.3399,-58.2404"/>
<polygon fill="#191970" stroke="#191970" points="140.3785,-61.5852 149.1112,-55.586 138.5434,-54.83 140.3785,-61.5852"/>
</g>
<!-- Node90 -->
<g id="node6" class="node">
<title>Node90</title>
<g id="a_node6"><a xlink:href="../../d0/d3e/pps-files_8cpp.html#ab624ed4418f2d1b17b046a714a0dd339" target="_top" xlink:title="buildSysDelayDistrib">
<polygon fill="#ffffff" stroke="#000000" points="128.709,-.5 128.709,-18.5 236.4082,-18.5 236.4082,-.5 128.709,-.5"/>
<text text-anchor="middle" x="182.5586" y="-6.5" font-family="Helvetica,sans-Serif" font-size="10.00" fill="#000000">buildSysDelayDistrib</text>
</a>
</g>
</g>
<!-- Node80&#45;&gt;Node90 -->
<g id="edge5" class="edge">
<title>Node80&#45;&gt;Node90</title>
<path fill="none" stroke="#191970" d="M58.0557,-74.307C73.5248,-62.4856 101.9563,-41.8884 128.709,-28.5 133.3011,-26.2019 138.2394,-24.0559 143.1959,-22.0946"/>
<polygon fill="#191970" stroke="#191970" points="144.5199,-25.3363 152.6635,-18.559 142.0709,-18.7787 144.5199,-25.3363"/>
</g>
<!-- Node81&#45;&gt;Node82 -->
<g id="edge2" class="edge">
<title>Node81&#45;&gt;Node82</title>
<path fill="none" stroke="#191970" d="M215.0369,-154.9006C229.1601,-152.9006 246.1013,-150.5015 262.0692,-148.2402"/>
<polygon fill="#191970" stroke="#191970" points="262.972,-151.6474 272.3824,-146.7797 261.9904,-144.7165 262.972,-151.6474"/>
</g>
</g>
</svg>
