<?xml version="1.0" encoding="UTF-8" standalone="no"?>
<!DOCTYPE svg PUBLIC "-//W3C//DTD SVG 1.1//EN"
 "http://www.w3.org/Graphics/SVG/1.1/DTD/svg11.dtd">
<!-- Generated by graphviz version 2.40.1 (20161225.0304)
 -->
<!-- Title: adjtimex Pages: 1 -->
<svg width="445pt" height="84pt"
 viewBox="0.00 0.00 444.92 84.00" xmlns="http://www.w3.org/2000/svg" xmlns:xlink="http://www.w3.org/1999/xlink">
<g id="graph0" class="graph" transform="scale(1 1) rotate(0) translate(4 80)">
<title>adjtimex</title>
<polygon fill="#ffffff" stroke="transparent" points="-4,4 -4,-80 440.917,-80 440.917,4 -4,4"/>
<!-- Node1 -->
<g id="node1" class="node">
<title>Node1</title>
<polygon fill="#bfbfbf" stroke="#000000" points="0,-19.5 0,-37.5 53.2363,-37.5 53.2363,-19.5 0,-19.5"/>
<text text-anchor="middle" x="26.6182" y="-25.5" font-family="Helvetica,sans-Serif" font-size="10.00" fill="#000000">adjtimex</text>
</g>
<!-- Node2 -->
<g id="node2" class="node">
<title>Node2</title>
<g id="a_node2"><a xlink:href="../../d5/d60/pps-client_8cpp.html#a1106ba0d807ae268b8713acba3808e07" target="_top" xlink:title="makeTimeCorrection">
<polygon fill="#ffffff" stroke="#000000" points="89.2363,-57.5 89.2363,-75.5 197.6729,-75.5 197.6729,-57.5 89.2363,-57.5"/>
<text text-anchor="middle" x="143.4546" y="-63.5" font-family="Helvetica,sans-Serif" font-size="10.00" fill="#000000">makeTimeCorrection</text>
</a>
</g>
</g>
<!-- Node1&#45;&gt;Node2 -->
<g id="edge1" class="edge">
<title>Node1&#45;&gt;Node2</title>
<path fill="none" stroke="#191970" d="M63.0156,-40.3379C79.9668,-45.8512 99.8158,-52.3069 115.5552,-57.426"/>
<polygon fill="#191970" stroke="#191970" points="64.015,-36.9826 53.4228,-37.218 61.8499,-43.6394 64.015,-36.9826"/>
</g>
<!-- Node3 -->
<g id="node3" class="node">
<title>Node3</title>
<g id="a_node3"><a xlink:href="../../d5/d60/pps-client_8cpp.html#a86496ba51a12c38a52f57267412a096a" target="_top" xlink:title="readPPS_SetTime">
<polygon fill="#ffffff" stroke="#000000" points="233.6729,-19.5 233.6729,-37.5 332.124,-37.5 332.124,-19.5 233.6729,-19.5"/>
<text text-anchor="middle" x="282.8984" y="-25.5" font-family="Helvetica,sans-Serif" font-size="10.00" fill="#000000">readPPS_SetTime</text>
</a>
</g>
</g>
<!-- Node1&#45;&gt;Node3 -->
<g id="edge4" class="edge">
<title>Node1&#45;&gt;Node3</title>
<path fill="none" stroke="#191970" d="M63.7102,-28.5C108.4944,-28.5 183.9701,-28.5 233.613,-28.5"/>
<polygon fill="#191970" stroke="#191970" points="63.5603,-25.0001 53.5603,-28.5 63.5602,-32.0001 63.5603,-25.0001"/>
</g>
<!-- Node4 -->
<g id="node4" class="node">
<title>Node4</title>
<g id="a_node4"><a xlink:href="../../d5/d60/pps-client_8cpp.html#a4b3bdab744bd7ed860326323fad180f2" target="_top" xlink:title="waitForPPS">
<polygon fill="#ffffff" stroke="#ff0000" points="368.124,-.5 368.124,-18.5 436.917,-18.5 436.917,-.5 368.124,-.5"/>
<text text-anchor="middle" x="402.5205" y="-6.5" font-family="Helvetica,sans-Serif" font-size="10.00" fill="#000000">waitForPPS</text>
</a>
</g>
</g>
<!-- Node1&#45;&gt;Node4 -->
<g id="edge5" class="edge">
<title>Node1&#45;&gt;Node4</title>
<path fill="none" stroke="#191970" d="M63.5224,-24.3854C104.888,-19.9849 173.9893,-13.2665 233.6729,-10.5 280.0863,-8.3486 333.752,-8.4779 367.8978,-8.8885"/>
<polygon fill="#191970" stroke="#191970" points="62.9428,-20.9275 53.3749,-25.4778 63.6921,-27.8873 62.9428,-20.9275"/>
</g>
<!-- Node2&#45;&gt;Node3 -->
<g id="edge2" class="edge">
<title>Node2&#45;&gt;Node3</title>
<path fill="none" stroke="#191970" d="M186.1791,-54.8571C206.5674,-49.301 230.5984,-42.7523 249.6062,-37.5725"/>
<polygon fill="#191970" stroke="#191970" points="185.2287,-51.4884 176.5008,-57.4945 187.0693,-58.2421 185.2287,-51.4884"/>
</g>
<!-- Node3&#45;&gt;Node4 -->
<g id="edge3" class="edge">
<title>Node3&#45;&gt;Node4</title>
<path fill="none" stroke="#191970" d="M342.1522,-19.0885C350.9703,-17.6879 359.8046,-16.2847 367.8882,-15.0008"/>
<polygon fill="#191970" stroke="#191970" points="341.5711,-15.6369 332.2439,-20.6623 342.6692,-22.5502 341.5711,-15.6369"/>
</g>
</g>
</svg>
