<?xml version="1.0" encoding="UTF-8" standalone="no"?>
<!DOCTYPE svg PUBLIC "-//W3C//DTD SVG 1.1//EN"
 "http://www.w3.org/Graphics/SVG/1.1/DTD/svg11.dtd">
<!-- Generated by graphviz version 2.36.0 (20140111.2315)
 -->
<!-- Title: makeSNTPTimeQuery Pages: 1 -->
<svg width="566pt" height="218pt"
 viewBox="0.00 0.00 566.00 218.00" xmlns="http://www.w3.org/2000/svg" xmlns:xlink="http://www.w3.org/1999/xlink">
<g id="graph0" class="graph" transform="scale(1 1) rotate(0) translate(4 214)">
<title>makeSNTPTimeQuery</title>
<polygon fill="white" stroke="none" points="-4,4 -4,-214 562,-214 562,4 -4,4"/>
<!-- Node1 -->
<g id="node1" class="node"><title>Node1</title>
<polygon fill="#bfbfbf" stroke="black" points="0,-95.5 0,-114.5 116,-114.5 116,-95.5 0,-95.5"/>
<text text-anchor="middle" x="58" y="-102.5" font-family="Helvetica,sans-Serif" font-size="10.00">makeSNTPTimeQuery</text>
</g>
<!-- Node2 -->
<g id="node2" class="node"><title>Node2</title>
<g id="a_node2"><a xlink:href="../../dc/d4f/pps-sntp_8cpp.html#ac0d0c84eb76dc4985ba295fbd8199c1c" target="_top" xlink:title="getTimeConsensisAndCount">
<polygon fill="white" stroke="black" points="290,-190.5 290,-209.5 432,-209.5 432,-190.5 290,-190.5"/>
<text text-anchor="middle" x="361" y="-197.5" font-family="Helvetica,sans-Serif" font-size="10.00">getTimeConsensisAndCount</text>
</a>
</g>
</g>
<!-- Node1&#45;&gt;Node2 -->
<g id="edge1" class="edge"><title>Node1&#45;&gt;Node2</title>
<path fill="none" stroke="midnightblue" d="M67.9491,-114.596C83.3871,-130.454 116.773,-161.788 152,-176 192.16,-192.202 239.985,-198.522 279.646,-200.648"/>
<polygon fill="midnightblue" stroke="midnightblue" points="279.657,-204.152 289.807,-201.112 279.977,-197.16 279.657,-204.152"/>
</g>
<!-- Node3 -->
<g id="node3" class="node"><title>Node3</title>
<g id="a_node3"><a xlink:href="../../d0/d3e/pps-files_8cpp.html#a6f609d689ebe787455ce220808ca3ba0" target="_top" xlink:title="bufferStatusMsg">
<polygon fill="white" stroke="black" points="468.5,-123.5 468.5,-142.5 557.5,-142.5 557.5,-123.5 468.5,-123.5"/>
<text text-anchor="middle" x="513" y="-130.5" font-family="Helvetica,sans-Serif" font-size="10.00">bufferStatusMsg</text>
</a>
</g>
</g>
<!-- Node1&#45;&gt;Node3 -->
<g id="edge10" class="edge"><title>Node1&#45;&gt;Node3</title>
<path fill="none" stroke="midnightblue" d="M76.5323,-114.579C94.7657,-123.953 124.445,-137.588 152,-143 259.011,-164.019 387.32,-151.754 458.228,-141.802"/>
<polygon fill="midnightblue" stroke="midnightblue" points="458.866,-145.247 468.264,-140.355 457.867,-138.318 458.866,-145.247"/>
</g>
<!-- Node4 -->
<g id="node4" class="node"><title>Node4</title>
<g id="a_node4"><a xlink:href="../../dc/d4f/pps-sntp_8cpp.html#ad78b6046af5bbade4a7fc8941d689f44" target="_top" xlink:title="updateLog">
<polygon fill="white" stroke="black" points="172,-114.5 172,-133.5 234,-133.5 234,-114.5 172,-114.5"/>
<text text-anchor="middle" x="203" y="-121.5" font-family="Helvetica,sans-Serif" font-size="10.00">updateLog</text>
</a>
</g>
</g>
<!-- Node1&#45;&gt;Node4 -->
<g id="edge3" class="edge"><title>Node1&#45;&gt;Node4</title>
<path fill="none" stroke="midnightblue" d="M116.34,-112.619C131.448,-114.626 147.435,-116.75 161.454,-118.613"/>
<polygon fill="midnightblue" stroke="midnightblue" points="161.371,-122.132 171.744,-119.98 162.293,-115.193 161.371,-122.132"/>
</g>
<!-- Node5 -->
<g id="node5" class="node"><title>Node5</title>
<g id="a_node5"><a xlink:href="../../d0/d3e/pps-files_8cpp.html#ae20c07f56a5b2b05b636f6a0a31ce214" target="_top" xlink:title="writeToLog">
<polygon fill="white" stroke="red" points="328.5,-95.5 328.5,-114.5 393.5,-114.5 393.5,-95.5 328.5,-95.5"/>
<text text-anchor="middle" x="361" y="-102.5" font-family="Helvetica,sans-Serif" font-size="10.00">writeToLog</text>
</a>
</g>
</g>
<!-- Node1&#45;&gt;Node5 -->
<g id="edge9" class="edge"><title>Node1&#45;&gt;Node5</title>
<path fill="none" stroke="midnightblue" d="M116.324,-105C175.208,-105 265.466,-105 318.02,-105"/>
<polygon fill="midnightblue" stroke="midnightblue" points="318.322,-108.5 328.322,-105 318.322,-101.5 318.322,-108.5"/>
</g>
<!-- Node6 -->
<g id="node6" class="node"><title>Node6</title>
<g id="a_node6"><a xlink:href="../../dc/d4f/pps-sntp_8cpp.html#a1121c37b30e0ab417a95d6be065a0666" target="_top" xlink:title="allocNTPServerList">
<polygon fill="white" stroke="red" points="152.5,-38.5 152.5,-57.5 253.5,-57.5 253.5,-38.5 152.5,-38.5"/>
<text text-anchor="middle" x="203" y="-45.5" font-family="Helvetica,sans-Serif" font-size="10.00">allocNTPServerList</text>
</a>
</g>
</g>
<!-- Node1&#45;&gt;Node6 -->
<g id="edge6" class="edge"><title>Node1&#45;&gt;Node6</title>
<path fill="none" stroke="midnightblue" d="M82.935,-95.4595C106.342,-86.1295 142.195,-71.8384 168.443,-61.3758"/>
<polygon fill="midnightblue" stroke="midnightblue" points="169.994,-64.5256 177.987,-57.5716 167.402,-58.0232 169.994,-64.5256"/>
</g>
<!-- Node7 -->
<g id="node7" class="node"><title>Node7</title>
<g id="a_node7"><a xlink:href="../../dc/d4f/pps-sntp_8cpp.html#aa210dcf9646721cd7a6148d795257899" target="_top" xlink:title="doTimeCheck">
<polygon fill="white" stroke="red" points="164.5,-0.5 164.5,-19.5 241.5,-19.5 241.5,-0.5 164.5,-0.5"/>
<text text-anchor="middle" x="203" y="-7.5" font-family="Helvetica,sans-Serif" font-size="10.00">doTimeCheck</text>
</a>
</g>
</g>
<!-- Node1&#45;&gt;Node7 -->
<g id="edge11" class="edge"><title>Node1&#45;&gt;Node7</title>
<path fill="none" stroke="midnightblue" d="M68.5262,-95.4142C84.5435,-79.7348 118.423,-48.4102 152,-29 155.429,-27.0176 159.104,-25.1683 162.847,-23.4628"/>
<polygon fill="midnightblue" stroke="midnightblue" points="164.335,-26.6338 172.192,-19.5256 161.617,-20.183 164.335,-26.6338"/>
</g>
<!-- Node2&#45;&gt;Node3 -->
<g id="edge2" class="edge"><title>Node2&#45;&gt;Node3</title>
<path fill="none" stroke="midnightblue" d="M393.429,-190.435C405.641,-186.406 419.638,-181.399 432,-176 451.027,-167.691 471.645,-156.554 487.184,-147.696"/>
<polygon fill="midnightblue" stroke="midnightblue" points="489.235,-150.553 496.143,-142.521 485.733,-144.492 489.235,-150.553"/>
</g>
<!-- Node4&#45;&gt;Node5 -->
<g id="edge4" class="edge"><title>Node4&#45;&gt;Node5</title>
<path fill="none" stroke="midnightblue" d="M234.078,-120.337C257.996,-117.424 291.729,-113.315 318.262,-110.083"/>
<polygon fill="midnightblue" stroke="midnightblue" points="318.904,-113.531 328.408,-108.848 318.058,-106.583 318.904,-113.531"/>
</g>
<!-- Node5&#45;&gt;Node3 -->
<g id="edge5" class="edge"><title>Node5&#45;&gt;Node3</title>
<path fill="none" stroke="midnightblue" d="M393.811,-110.938C412.52,-114.43 436.667,-118.938 458.254,-122.967"/>
<polygon fill="midnightblue" stroke="midnightblue" points="457.814,-126.446 468.286,-124.84 459.098,-119.564 457.814,-126.446"/>
</g>
<!-- Node6&#45;&gt;Node3 -->
<g id="edge8" class="edge"><title>Node6&#45;&gt;Node3</title>
<path fill="none" stroke="midnightblue" d="M253.801,-51.0488C300.901,-55.1429 372.966,-64.5736 432,-86 453.265,-93.7181 475.274,-107.113 490.812,-117.633"/>
<polygon fill="midnightblue" stroke="midnightblue" points="488.948,-120.599 499.157,-123.43 492.941,-114.85 488.948,-120.599"/>
</g>
<!-- Node6&#45;&gt;Node5 -->
<g id="edge7" class="edge"><title>Node6&#45;&gt;Node5</title>
<path fill="none" stroke="midnightblue" d="M228.378,-57.6236C245.548,-64.3355 269.106,-73.4123 290,-81 300.249,-84.722 311.397,-88.6141 321.72,-92.1544"/>
<polygon fill="midnightblue" stroke="midnightblue" points="320.715,-95.5095 331.31,-95.4239 322.974,-88.884 320.715,-95.5095"/>
</g>
</g>
</svg>
