<?xml version="1.0" encoding="UTF-8" standalone="no"?>
<!DOCTYPE svg PUBLIC "-//W3C//DTD SVG 1.1//EN"
 "http://www.w3.org/Graphics/SVG/1.1/DTD/svg11.dtd">
<!-- Generated by graphviz version 2.36.0 (20140111.2315)
 -->
<!-- Title: waitForNTPServers Pages: 1 -->
<svg width="352pt" height="47pt"
 viewBox="0.00 0.00 352.00 47.00" xmlns="http://www.w3.org/2000/svg" xmlns:xlink="http://www.w3.org/1999/xlink">
<g id="graph0" class="graph" transform="scale(1 1) rotate(0) translate(4 43)">
<title>waitForNTPServers</title>
<polygon fill="white" stroke="none" points="-4,4 -4,-43 348,-43 348,4 -4,4"/>
<!-- Node1 -->
<g id="node1" class="node"><title>Node1</title>
<polygon fill="#bfbfbf" stroke="black" points="0.5,-0.5 0.5,-19.5 103.5,-19.5 103.5,-0.5 0.5,-0.5"/>
<text text-anchor="middle" x="52" y="-7.5" font-family="Helvetica,sans-Serif" font-size="10.00">waitForNTPServers</text>
</g>
<!-- Node2 -->
<g id="node2" class="node"><title>Node2</title>
<g id="a_node2"><a xlink:href="../../dc/d4f/pps-sntp_8cpp.html#a1121c37b30e0ab417a95d6be065a0666" target="_top" xlink:title="allocNTPServerList">
<polygon fill="white" stroke="red" points="140.5,-19.5 140.5,-38.5 241.5,-38.5 241.5,-19.5 140.5,-19.5"/>
<text text-anchor="middle" x="191" y="-26.5" font-family="Helvetica,sans-Serif" font-size="10.00">allocNTPServerList</text>
</a>
</g>
</g>
<!-- Node1&#45;&gt;Node2 -->
<g id="edge1" class="edge"><title>Node1&#45;&gt;Node2</title>
<path fill="none" stroke="midnightblue" d="M103.625,-17.0209C112.375,-18.2344 121.543,-19.506 130.503,-20.7486"/>
<polygon fill="midnightblue" stroke="midnightblue" points="130.11,-24.2275 140.496,-22.1345 131.072,-17.2939 130.11,-24.2275"/>
</g>
<!-- Node3 -->
<g id="node3" class="node"><title>Node3</title>
<g id="a_node3"><a xlink:href="../../d0/d3e/pps-files_8cpp.html#ae20c07f56a5b2b05b636f6a0a31ce214" target="_top" xlink:title="writeToLog">
<polygon fill="white" stroke="red" points="278.5,-0.5 278.5,-19.5 343.5,-19.5 343.5,-0.5 278.5,-0.5"/>
<text text-anchor="middle" x="311" y="-7.5" font-family="Helvetica,sans-Serif" font-size="10.00">writeToLog</text>
</a>
</g>
</g>
<!-- Node1&#45;&gt;Node3 -->
<g id="edge3" class="edge"><title>Node1&#45;&gt;Node3</title>
<path fill="none" stroke="midnightblue" d="M103.775,-10C151.852,-10 223.179,-10 268.099,-10"/>
<polygon fill="midnightblue" stroke="midnightblue" points="268.368,-13.5001 278.368,-10 268.368,-6.5001 268.368,-13.5001"/>
</g>
<!-- Node2&#45;&gt;Node3 -->
<g id="edge2" class="edge"><title>Node2&#45;&gt;Node3</title>
<path fill="none" stroke="midnightblue" d="M241.701,-20.9974C250.477,-19.5842 259.536,-18.1256 268.072,-16.7511"/>
<polygon fill="midnightblue" stroke="midnightblue" points="268.856,-20.1701 278.172,-15.1249 267.743,-13.2591 268.856,-20.1701"/>
</g>
</g>
</svg>
