<?xml version="1.0" encoding="UTF-8" standalone="no"?>
<!DOCTYPE svg PUBLIC "-//W3C//DTD SVG 1.1//EN"
 "http://www.w3.org/Graphics/SVG/1.1/DTD/svg11.dtd">
<!-- Generated by graphviz version 2.36.0 (20140111.2315)
 -->
<!-- Title: allocNTPServerList Pages: 1 -->
<svg width="262pt" height="66pt"
 viewBox="0.00 0.00 262.00 66.00" xmlns="http://www.w3.org/2000/svg" xmlns:xlink="http://www.w3.org/1999/xlink">
<g id="graph0" class="graph" transform="scale(1 1) rotate(0) translate(4 62)">
<title>allocNTPServerList</title>
<polygon fill="white" stroke="none" points="-4,4 -4,-62 258,-62 258,4 -4,4"/>
<!-- Node1 -->
<g id="node1" class="node"><title>Node1</title>
<polygon fill="#bfbfbf" stroke="black" points="0.5,-19.5 0.5,-38.5 101.5,-38.5 101.5,-19.5 0.5,-19.5"/>
<text text-anchor="middle" x="51" y="-26.5" font-family="Helvetica,sans-Serif" font-size="10.00">allocNTPServerList</text>
</g>
<!-- Node2 -->
<g id="node2" class="node"><title>Node2</title>
<g id="a_node2"><a xlink:href="../../dc/d4f/pps-sntp_8cpp.html#a00920970793070954118aaecfa6024e0" target="_top" xlink:title="waitForNTPServers">
<polygon fill="white" stroke="red" points="144.5,-38.5 144.5,-57.5 247.5,-57.5 247.5,-38.5 144.5,-38.5"/>
<text text-anchor="middle" x="196" y="-45.5" font-family="Helvetica,sans-Serif" font-size="10.00">waitForNTPServers</text>
</a>
</g>
</g>
<!-- Node1&#45;&gt;Node2 -->
<g id="edge1" class="edge"><title>Node1&#45;&gt;Node2</title>
<path fill="none" stroke="midnightblue" d="M111.753,-36.9393C122.48,-38.3644 133.569,-39.8378 144.019,-41.2263"/>
<polygon fill="midnightblue" stroke="midnightblue" points="111.987,-33.4396 101.613,-35.592 111.065,-40.3786 111.987,-33.4396"/>
</g>
<!-- Node3 -->
<g id="node3" class="node"><title>Node3</title>
<g id="a_node3"><a xlink:href="../../dc/d4f/pps-sntp_8cpp.html#ab6d786ab6487a8937306f50e65b1e4cd" target="_top" xlink:title="makeSNTPTimeQuery">
<polygon fill="white" stroke="red" points="138,-0.5 138,-19.5 254,-19.5 254,-0.5 138,-0.5"/>
<text text-anchor="middle" x="196" y="-7.5" font-family="Helvetica,sans-Serif" font-size="10.00">makeSNTPTimeQuery</text>
</a>
</g>
</g>
<!-- Node1&#45;&gt;Node3 -->
<g id="edge2" class="edge"><title>Node1&#45;&gt;Node3</title>
<path fill="none" stroke="midnightblue" d="M111.586,-21.083C120.2,-19.9385 129.052,-18.7623 137.622,-17.6237"/>
<polygon fill="midnightblue" stroke="midnightblue" points="111.065,-17.6214 101.613,-22.408 111.987,-24.5604 111.065,-17.6214"/>
</g>
</g>
</svg>
