<?xml version="1.0" encoding="UTF-8" standalone="no"?>
<!DOCTYPE svg PUBLIC "-//W3C//DTD SVG 1.1//EN"
 "http://www.w3.org/Graphics/SVG/1.1/DTD/svg11.dtd">
<!-- Generated by graphviz version 2.40.1 (20161225.0304)
 -->
<!-- Title: getServerTime Pages: 1 -->
<svg width="238pt" height="101pt"
 viewBox="0.00 0.00 238.48 101.00" xmlns="http://www.w3.org/2000/svg" xmlns:xlink="http://www.w3.org/1999/xlink">
<g id="graph0" class="graph" transform="scale(1 1) rotate(0) translate(4 97)">
<title>getServerTime</title>
<polygon fill="#ffffff" stroke="transparent" points="-4,4 -4,-97 234.4756,-97 234.4756,4 -4,4"/>
<!-- Node24 -->
<g id="node1" class="node">
<title>Node24</title>
<polygon fill="#bfbfbf" stroke="#000000" points="0,-37.5 0,-55.5 81.21,-55.5 81.21,-37.5 0,-37.5"/>
<text text-anchor="middle" x="40.605" y="-43.5" font-family="Helvetica,sans-Serif" font-size="10.00" fill="#000000">getServerTime</text>
</g>
<!-- Node25 -->
<g id="node2" class="node">
<title>Node25</title>
<g id="a_node2"><a xlink:href="../../d0/d3e/pps-files_8cpp.html#a19da05b45d1e94170f5fe86decb70bfb" target="_top" xlink:title="sysCommand">
<polygon fill="#ffffff" stroke="#ff0000" points="135.2788,-74.5 135.2788,-92.5 212.4067,-92.5 212.4067,-74.5 135.2788,-74.5"/>
<text text-anchor="middle" x="173.8428" y="-80.5" font-family="Helvetica,sans-Serif" font-size="10.00" fill="#000000">sysCommand</text>
</a>
</g>
</g>
<!-- Node24&#45;&gt;Node25 -->
<g id="edge1" class="edge">
<title>Node24&#45;&gt;Node25</title>
<path fill="none" stroke="#191970" d="M73.1986,-55.5512C90.7001,-60.4114 112.4843,-66.4608 131.3053,-71.6874"/>
<polygon fill="#191970" stroke="#191970" points="130.5519,-75.1106 141.1239,-74.414 132.425,-68.3658 130.5519,-75.1106"/>
</g>
<!-- Node29 -->
<g id="node3" class="node">
<title>Node29</title>
<g id="a_node3"><a xlink:href="../../dc/d4f/pps-sntp_8cpp.html#a8043d13f1150e0583d390c8eb5e07848" target="_top" xlink:title="copyToLog">
<polygon fill="#ffffff" stroke="#000000" points="141.6582,-37.5 141.6582,-55.5 206.0273,-55.5 206.0273,-37.5 141.6582,-37.5"/>
<text text-anchor="middle" x="173.8428" y="-43.5" font-family="Helvetica,sans-Serif" font-size="10.00" fill="#000000">copyToLog</text>
</a>
</g>
</g>
<!-- Node24&#45;&gt;Node29 -->
<g id="edge2" class="edge">
<title>Node24&#45;&gt;Node29</title>
<path fill="none" stroke="#191970" d="M81.3047,-46.5C97.1246,-46.5 115.2549,-46.5 131.251,-46.5"/>
<polygon fill="#191970" stroke="#191970" points="131.4089,-50.0001 141.4089,-46.5 131.4088,-43.0001 131.4089,-50.0001"/>
</g>
<!-- Node30 -->
<g id="node4" class="node">
<title>Node30</title>
<g id="a_node4"><a xlink:href="../../d0/d3e/pps-files_8cpp.html#a5e4671d51ee126315cb694ef235d359a" target="_top" xlink:title="writeFileMsgToLogbuf">
<polygon fill="#ffffff" stroke="#ff0000" points="117.21,-.5 117.21,-18.5 230.4756,-18.5 230.4756,-.5 117.21,-.5"/>
<text text-anchor="middle" x="173.8428" y="-6.5" font-family="Helvetica,sans-Serif" font-size="10.00" fill="#000000">writeFileMsgToLogbuf</text>
</a>
</g>
</g>
<!-- Node24&#45;&gt;Node30 -->
<g id="edge3" class="edge">
<title>Node24&#45;&gt;Node30</title>
<path fill="none" stroke="#191970" d="M73.1986,-37.4488C90.7001,-32.5886 112.4843,-26.5392 131.3053,-21.3126"/>
<polygon fill="#191970" stroke="#191970" points="132.425,-24.6342 141.1239,-18.586 130.5519,-17.8894 132.425,-24.6342"/>
</g>
</g>
</svg>
