<?xml version="1.0" encoding="UTF-8" standalone="no"?>
<!DOCTYPE svg PUBLIC "-//W3C//DTD SVG 1.1//EN"
 "http://www.w3.org/Graphics/SVG/1.1/DTD/svg11.dtd">
<!-- Generated by graphviz version 2.36.0 (20140111.2315)
 -->
<!-- Title: allocNTPServerList Pages: 1 -->
<svg width="442pt" height="98pt"
 viewBox="0.00 0.00 442.00 97.89" xmlns="http://www.w3.org/2000/svg" xmlns:xlink="http://www.w3.org/1999/xlink">
<g id="graph0" class="graph" transform="scale(1 1) rotate(0) translate(4 93.8926)">
<title>allocNTPServerList</title>
<polygon fill="white" stroke="none" points="-4,4 -4,-93.8926 438,-93.8926 438,4 -4,4"/>
<!-- Node1 -->
<g id="node1" class="node"><title>Node1</title>
<polygon fill="#bfbfbf" stroke="black" points="0.5,-37.0234 0.5,-56.0234 101.5,-56.0234 101.5,-37.0234 0.5,-37.0234"/>
<text text-anchor="middle" x="51" y="-44.0234" font-family="Helvetica,sans-Serif" font-size="10.00">allocNTPServerList</text>
</g>
<!-- Node2 -->
<g id="node2" class="node"><title>Node2</title>
<g id="a_node2"><a xlink:href="../../d0/d3e/pps-files_8cpp.html#ae20c07f56a5b2b05b636f6a0a31ce214" target="_top" xlink:title="writeToLog">
<polygon fill="white" stroke="red" points="242.5,-37.0234 242.5,-56.0234 307.5,-56.0234 307.5,-37.0234 242.5,-37.0234"/>
<text text-anchor="middle" x="275" y="-44.0234" font-family="Helvetica,sans-Serif" font-size="10.00">writeToLog</text>
</a>
</g>
</g>
<!-- Node1&#45;&gt;Node2 -->
<g id="edge1" class="edge"><title>Node1&#45;&gt;Node2</title>
<path fill="none" stroke="midnightblue" d="M68.1164,-56.0961C84.9007,-65.4651 112.286,-79.0956 138,-84.5234 167.571,-90.7653 176.754,-92.1409 206,-84.5234 222.85,-80.1347 239.951,-70.5488 252.789,-62.1034"/>
<polygon fill="midnightblue" stroke="midnightblue" points="255.056,-64.7921 261.318,-56.246 251.093,-59.0216 255.056,-64.7921"/>
</g>
<!-- Node3 -->
<g id="node3" class="node"><title>Node3</title>
<g id="a_node3"><a xlink:href="../../d0/d3e/pps-files_8cpp.html#a6f609d689ebe787455ce220808ca3ba0" target="_top" xlink:title="bufferStatusMsg">
<polygon fill="white" stroke="black" points="344.5,-8.0234 344.5,-27.0234 433.5,-27.0234 433.5,-8.0234 344.5,-8.0234"/>
<text text-anchor="middle" x="389" y="-15.0234" font-family="Helvetica,sans-Serif" font-size="10.00">bufferStatusMsg</text>
</a>
</g>
</g>
<!-- Node1&#45;&gt;Node3 -->
<g id="edge7" class="edge"><title>Node1&#45;&gt;Node3</title>
<path fill="none" stroke="midnightblue" d="M68.1164,-36.9507C84.9007,-27.5817 112.286,-13.9512 138,-8.5234 204.392,5.491 282.862,-0.952701 333.939,-8.10328"/>
<polygon fill="midnightblue" stroke="midnightblue" points="333.692,-11.6042 344.093,-9.58477 334.703,-4.67758 333.692,-11.6042"/>
</g>
<!-- Node4 -->
<g id="node4" class="node"><title>Node4</title>
<g id="a_node4"><a xlink:href="../../d0/d3e/pps-files_8cpp.html#a94ad6f36dae10e5652ea241b11d2e5c7" target="_top" xlink:title="open_logerr">
<polygon fill="white" stroke="red" points="138.5,-56.0234 138.5,-75.0234 205.5,-75.0234 205.5,-56.0234 138.5,-56.0234"/>
<text text-anchor="middle" x="172" y="-63.0234" font-family="Helvetica,sans-Serif" font-size="10.00">open_logerr</text>
</a>
</g>
</g>
<!-- Node1&#45;&gt;Node4 -->
<g id="edge3" class="edge"><title>Node1&#45;&gt;Node4</title>
<path fill="none" stroke="midnightblue" d="M101.777,-54.471C110.561,-55.8735 119.636,-57.3225 128.208,-58.691"/>
<polygon fill="midnightblue" stroke="midnightblue" points="127.933,-62.1914 138.36,-60.3119 129.037,-55.279 127.933,-62.1914"/>
</g>
<!-- Node5 -->
<g id="node5" class="node"><title>Node5</title>
<g id="a_node5"><a xlink:href="../../d0/d3e/pps-files_8cpp.html#a459e7950f1def63780ba7fda8e3c12d2" target="_top" xlink:title="read_logerr">
<polygon fill="white" stroke="red" points="139.5,-18.0234 139.5,-37.0234 204.5,-37.0234 204.5,-18.0234 139.5,-18.0234"/>
<text text-anchor="middle" x="172" y="-25.0234" font-family="Helvetica,sans-Serif" font-size="10.00">read_logerr</text>
</a>
</g>
</g>
<!-- Node1&#45;&gt;Node5 -->
<g id="edge5" class="edge"><title>Node1&#45;&gt;Node5</title>
<path fill="none" stroke="midnightblue" d="M101.777,-38.5758C110.933,-37.114 120.404,-35.6018 129.291,-34.1828"/>
<polygon fill="midnightblue" stroke="midnightblue" points="130.08,-37.6013 139.403,-32.5683 128.976,-30.6888 130.08,-37.6013"/>
</g>
<!-- Node2&#45;&gt;Node3 -->
<g id="edge2" class="edge"><title>Node2&#45;&gt;Node3</title>
<path fill="none" stroke="midnightblue" d="M307.795,-38.2907C318.199,-35.5968 329.984,-32.5455 341.254,-29.6273"/>
<polygon fill="midnightblue" stroke="midnightblue" points="342.174,-33.0045 350.978,-27.1095 340.42,-26.2279 342.174,-33.0045"/>
</g>
<!-- Node4&#45;&gt;Node2 -->
<g id="edge4" class="edge"><title>Node4&#45;&gt;Node2</title>
<path fill="none" stroke="midnightblue" d="M205.513,-59.4071C214.06,-57.7992 223.398,-56.0425 232.353,-54.358"/>
<polygon fill="midnightblue" stroke="midnightblue" points="233.057,-57.787 242.238,-52.4985 231.763,-50.9076 233.057,-57.787"/>
</g>
<!-- Node5&#45;&gt;Node2 -->
<g id="edge6" class="edge"><title>Node5&#45;&gt;Node2</title>
<path fill="none" stroke="midnightblue" d="M204.68,-33.483C213.517,-35.1454 223.251,-36.9765 232.56,-38.7278"/>
<polygon fill="midnightblue" stroke="midnightblue" points="231.958,-42.1758 242.432,-40.585 233.252,-35.2964 231.958,-42.1758"/>
</g>
</g>
</svg>
