<?xml version="1.0" encoding="UTF-8" standalone="no"?>
<!DOCTYPE svg PUBLIC "-//W3C//DTD SVG 1.1//EN"
 "http://www.w3.org/Graphics/SVG/1.1/DTD/svg11.dtd">
<!-- Generated by graphviz version 2.40.1 (20161225.0304)
 -->
<!-- Title: /Users/ray/Dropbox/Git_Repo/PPS&#45;Client/client/pps&#45;client.h Pages: 1 -->
<svg width="1042pt" height="102pt"
 viewBox="0.00 0.00 1041.68 102.00" xmlns="http://www.w3.org/2000/svg" xmlns:xlink="http://www.w3.org/1999/xlink">
<g id="graph0" class="graph" transform="scale(1 1) rotate(0) translate(4 98)">
<title>/Users/ray/Dropbox/Git_Repo/PPS&#45;Client/client/pps&#45;client.h</title>
<polygon fill="#ffffff" stroke="transparent" points="-4,4 -4,-98 1037.6821,-98 1037.6821,4 -4,4"/>
<!-- Node0 -->
<g id="node1" class="node">
<title>Node0</title>
<polygon fill="#bfbfbf" stroke="#000000" points="444.377,-55.5 444.377,-93.5 557.0859,-93.5 557.0859,-55.5 444.377,-55.5"/>
<text text-anchor="start" x="452.377" y="-81.5" font-family="Helvetica,sans-Serif" font-size="10.00" fill="#000000">/Users/ray/Dropbox</text>
<text text-anchor="start" x="452.377" y="-71.5" font-family="Helvetica,sans-Serif" font-size="10.00" fill="#000000">/Git_Repo/PPS&#45;Client</text>
<text text-anchor="middle" x="500.7314" y="-61.5" font-family="Helvetica,sans-Serif" font-size="10.00" fill="#000000">/client/pps&#45;client.h</text>
</g>
<!-- Node1 -->
<g id="node2" class="node">
<title>Node1</title>
<polygon fill="#ffffff" stroke="#bfbfbf" points="0,-.5 0,-18.5 45.4629,-18.5 45.4629,-.5 0,-.5"/>
<text text-anchor="middle" x="22.7314" y="-6.5" font-family="Helvetica,sans-Serif" font-size="10.00" fill="#000000">stdio.h</text>
</g>
<!-- Node0&#45;&gt;Node1 -->
<g id="edge1" class="edge">
<title>Node0&#45;&gt;Node1</title>
<path fill="none" stroke="#191970" d="M444.268,-70.4737C361.0528,-63.8815 200.5763,-48.6591 55.6517,-18.8836"/>
<polygon fill="#191970" stroke="#191970" points="56.1913,-15.4209 45.6877,-16.808 54.7638,-22.2738 56.1913,-15.4209"/>
</g>
<!-- Node2 -->
<g id="node3" class="node">
<title>Node2</title>
<polygon fill="#ffffff" stroke="#bfbfbf" points="63.8892,-.5 63.8892,-18.5 111.5737,-18.5 111.5737,-.5 63.8892,-.5"/>
<text text-anchor="middle" x="87.7314" y="-6.5" font-family="Helvetica,sans-Serif" font-size="10.00" fill="#000000">stdlib.h</text>
</g>
<!-- Node0&#45;&gt;Node2 -->
<g id="edge2" class="edge">
<title>Node0&#45;&gt;Node2</title>
<path fill="none" stroke="#191970" d="M444.1097,-68.8291C371.3357,-60.9706 241.0206,-44.9757 121.7763,-19.228"/>
<polygon fill="#191970" stroke="#191970" points="122.2644,-15.7521 111.7474,-17.0334 120.768,-22.5903 122.2644,-15.7521"/>
</g>
<!-- Node3 -->
<g id="node4" class="node">
<title>Node3</title>
<polygon fill="#ffffff" stroke="#bfbfbf" points="129.1157,-.5 129.1157,-18.5 172.3472,-18.5 172.3472,-.5 129.1157,-.5"/>
<text text-anchor="middle" x="150.7314" y="-6.5" font-family="Helvetica,sans-Serif" font-size="10.00" fill="#000000">time.h</text>
</g>
<!-- Node0&#45;&gt;Node3 -->
<g id="edge3" class="edge">
<title>Node0&#45;&gt;Node3</title>
<path fill="none" stroke="#191970" d="M444.1861,-67.0485C382.0038,-58.3291 279.0584,-42.3492 182.5126,-19.2069"/>
<polygon fill="#191970" stroke="#191970" points="183.1335,-15.756 172.59,-16.7971 181.4816,-22.5583 183.1335,-15.756"/>
</g>
<!-- Node4 -->
<g id="node5" class="node">
<title>Node4</title>
<polygon fill="#ffffff" stroke="#bfbfbf" points="190.2192,-.5 190.2192,-18.5 241.2437,-18.5 241.2437,-.5 190.2192,-.5"/>
<text text-anchor="middle" x="215.7314" y="-6.5" font-family="Helvetica,sans-Serif" font-size="10.00" fill="#000000">unistd.h</text>
</g>
<!-- Node0&#45;&gt;Node4 -->
<g id="edge4" class="edge">
<title>Node0&#45;&gt;Node4</title>
<path fill="none" stroke="#191970" d="M443.961,-62.6851C395.3574,-52.3906 323.2946,-36.7043 251.0411,-18.9885"/>
<polygon fill="#191970" stroke="#191970" points="251.857,-15.5849 241.31,-16.5903 250.1819,-22.3816 251.857,-15.5849"/>
</g>
<!-- Node5 -->
<g id="node6" class="node">
<title>Node5</title>
<polygon fill="#ffffff" stroke="#bfbfbf" points="259.6035,-.5 259.6035,-18.5 317.8594,-18.5 317.8594,-.5 259.6035,-.5"/>
<text text-anchor="middle" x="288.7314" y="-6.5" font-family="Helvetica,sans-Serif" font-size="10.00" fill="#000000">pthread.h</text>
</g>
<!-- Node0&#45;&gt;Node5 -->
<g id="edge5" class="edge">
<title>Node0&#45;&gt;Node5</title>
<path fill="none" stroke="#191970" d="M444.1978,-57.1666C407.4037,-45.8854 360.3591,-31.4613 327.7048,-21.4494"/>
<polygon fill="#191970" stroke="#191970" points="328.6467,-18.0774 318.06,-18.4922 326.5947,-24.7699 328.6467,-18.0774"/>
</g>
<!-- Node6 -->
<g id="node7" class="node">
<title>Node6</title>
<polygon fill="#ffffff" stroke="#bfbfbf" points="335.4976,-.5 335.4976,-18.5 385.9653,-18.5 385.9653,-.5 335.4976,-.5"/>
<text text-anchor="middle" x="360.7314" y="-6.5" font-family="Helvetica,sans-Serif" font-size="10.00" fill="#000000">signal.h</text>
</g>
<!-- Node0&#45;&gt;Node6 -->
<g id="edge6" class="edge">
<title>Node0&#45;&gt;Node6</title>
<path fill="none" stroke="#191970" d="M459.484,-55.3494C437.026,-44.9225 409.7889,-32.2767 389.6125,-22.9091"/>
<polygon fill="#191970" stroke="#191970" points="390.8708,-19.6345 380.3268,-18.5978 387.923,-25.9836 390.8708,-19.6345"/>
</g>
<!-- Node7 -->
<g id="node8" class="node">
<title>Node7</title>
<polygon fill="#ffffff" stroke="#bfbfbf" points="404.335,-.5 404.335,-18.5 453.1279,-18.5 453.1279,-.5 404.335,-.5"/>
<text text-anchor="middle" x="428.7314" y="-6.5" font-family="Helvetica,sans-Serif" font-size="10.00" fill="#000000">string.h</text>
</g>
<!-- Node0&#45;&gt;Node7 -->
<g id="edge7" class="edge">
<title>Node0&#45;&gt;Node7</title>
<path fill="none" stroke="#191970" d="M479.5185,-55.3494C469.0186,-45.8704 456.4875,-34.5576 446.5,-25.541"/>
<polygon fill="#191970" stroke="#191970" points="448.5771,-22.701 438.8091,-18.5978 443.8864,-27.8969 448.5771,-22.701"/>
</g>
<!-- Node8 -->
<g id="node9" class="node">
<title>Node8</title>
<polygon fill="#ffffff" stroke="#bfbfbf" points="471.6133,-.5 471.6133,-18.5 529.8496,-18.5 529.8496,-.5 471.6133,-.5"/>
<text text-anchor="middle" x="500.7314" y="-6.5" font-family="Helvetica,sans-Serif" font-size="10.00" fill="#000000">sys/stat.h</text>
</g>
<!-- Node0&#45;&gt;Node8 -->
<g id="edge8" class="edge">
<title>Node0&#45;&gt;Node8</title>
<path fill="none" stroke="#191970" d="M500.7314,-55.3494C500.7314,-47.0079 500.7314,-37.2463 500.7314,-28.879"/>
<polygon fill="#191970" stroke="#191970" points="504.2315,-28.5978 500.7314,-18.5978 497.2315,-28.5979 504.2315,-28.5978"/>
</g>
<!-- Node9 -->
<g id="node10" class="node">
<title>Node9</title>
<polygon fill="#ffffff" stroke="#bfbfbf" points="547.3916,-.5 547.3916,-18.5 590.0713,-18.5 590.0713,-.5 547.3916,-.5"/>
<text text-anchor="middle" x="568.7314" y="-6.5" font-family="Helvetica,sans-Serif" font-size="10.00" fill="#000000">fcntl.h</text>
</g>
<!-- Node0&#45;&gt;Node9 -->
<g id="edge9" class="edge">
<title>Node0&#45;&gt;Node9</title>
<path fill="none" stroke="#191970" d="M520.7659,-55.3494C530.6824,-45.8704 542.5174,-34.5576 551.9501,-25.541"/>
<polygon fill="#191970" stroke="#191970" points="554.4034,-28.0378 559.2137,-18.5978 549.5665,-22.9776 554.4034,-28.0378"/>
</g>
<!-- Node10 -->
<g id="node11" class="node">
<title>Node10</title>
<polygon fill="#ffffff" stroke="#bfbfbf" points="607.7266,-.5 607.7266,-18.5 673.7363,-18.5 673.7363,-.5 607.7266,-.5"/>
<text text-anchor="middle" x="640.7314" y="-6.5" font-family="Helvetica,sans-Serif" font-size="10.00" fill="#000000">sys/timex.h</text>
</g>
<!-- Node0&#45;&gt;Node10 -->
<g id="edge10" class="edge">
<title>Node0&#45;&gt;Node10</title>
<path fill="none" stroke="#191970" d="M541.9789,-55.3494C564.4369,-44.9225 591.674,-32.2767 611.8504,-22.9091"/>
<polygon fill="#191970" stroke="#191970" points="613.5399,-25.9836 621.1361,-18.5978 610.5921,-19.6345 613.5399,-25.9836"/>
</g>
<!-- Node11 -->
<g id="node12" class="node">
<title>Node11</title>
<polygon fill="#ffffff" stroke="#bfbfbf" points="691.4458,-.5 691.4458,-18.5 738.0171,-18.5 738.0171,-.5 691.4458,-.5"/>
<text text-anchor="middle" x="714.7314" y="-6.5" font-family="Helvetica,sans-Serif" font-size="10.00" fill="#000000">math.h</text>
</g>
<!-- Node0&#45;&gt;Node11 -->
<g id="edge11" class="edge">
<title>Node0&#45;&gt;Node11</title>
<path fill="none" stroke="#191970" d="M557.2374,-57.337C596.852,-45.3045 648.4479,-29.6329 681.5875,-19.5671"/>
<polygon fill="#191970" stroke="#191970" points="682.6948,-22.8887 691.246,-16.6334 680.6604,-16.1909 682.6948,-22.8887"/>
</g>
<!-- Node12 -->
<g id="node13" class="node">
<title>Node12</title>
<polygon fill="#ffffff" stroke="#bfbfbf" points="755.7217,-.5 755.7217,-18.5 821.7412,-18.5 821.7412,-.5 755.7217,-.5"/>
<text text-anchor="middle" x="788.7314" y="-6.5" font-family="Helvetica,sans-Serif" font-size="10.00" fill="#000000">sys/types.h</text>
</g>
<!-- Node0&#45;&gt;Node12 -->
<g id="edge12" class="edge">
<title>Node0&#45;&gt;Node12</title>
<path fill="none" stroke="#191970" d="M557.4037,-61.7235C605.0255,-50.9853 675.1705,-35.1634 745.7562,-19.2195"/>
<polygon fill="#191970" stroke="#191970" points="746.7338,-22.5869 755.7168,-16.9694 745.1914,-15.7589 746.7338,-22.5869"/>
</g>
<!-- Node13 -->
<g id="node14" class="node">
<title>Node13</title>
<polygon fill="#ffffff" stroke="#bfbfbf" points="839.8892,-.5 839.8892,-18.5 887.5737,-18.5 887.5737,-.5 839.8892,-.5"/>
<text text-anchor="middle" x="863.7314" y="-6.5" font-family="Helvetica,sans-Serif" font-size="10.00" fill="#000000">errno.h</text>
</g>
<!-- Node0&#45;&gt;Node13 -->
<g id="edge13" class="edge">
<title>Node0&#45;&gt;Node13</title>
<path fill="none" stroke="#191970" d="M557.1666,-67.0017C621.1166,-58.0603 728.5782,-41.6928 829.8804,-18.9881"/>
<polygon fill="#191970" stroke="#191970" points="830.6838,-22.3949 839.6629,-16.7711 829.1366,-15.568 830.6838,-22.3949"/>
</g>
<!-- Node14 -->
<g id="node15" class="node">
<title>Node14</title>
<polygon fill="#ffffff" stroke="#bfbfbf" points="905.7783,-.5 905.7783,-18.5 945.6846,-18.5 945.6846,-.5 905.7783,-.5"/>
<text text-anchor="middle" x="925.7314" y="-6.5" font-family="Helvetica,sans-Serif" font-size="10.00" fill="#000000">poll.h</text>
</g>
<!-- Node0&#45;&gt;Node14 -->
<g id="edge14" class="edge">
<title>Node0&#45;&gt;Node14</title>
<path fill="none" stroke="#191970" d="M557.3774,-69.7461C632.8002,-62.7143 770.3312,-47.4462 895.7992,-18.8684"/>
<polygon fill="#191970" stroke="#191970" points="896.6246,-22.27 905.5794,-16.6077 895.0481,-15.4498 896.6246,-22.27"/>
</g>
<!-- Node15 -->
<g id="node16" class="node">
<title>Node15</title>
<polygon fill="#ffffff" stroke="#bfbfbf" points="963.7808,-.5 963.7808,-18.5 1033.6821,-18.5 1033.6821,-.5 963.7808,-.5"/>
<text text-anchor="middle" x="998.7314" y="-6.5" font-family="Helvetica,sans-Serif" font-size="10.00" fill="#000000">sys/mman.h</text>
</g>
<!-- Node0&#45;&gt;Node15 -->
<g id="edge15" class="edge">
<title>Node0&#45;&gt;Node15</title>
<path fill="none" stroke="#191970" d="M557.238,-69.2613C641.4106,-61.09 804.8685,-43.8091 953.5017,-19.076"/>
<polygon fill="#191970" stroke="#191970" points="954.4404,-22.4675 963.7225,-17.3594 953.2809,-15.5642 954.4404,-22.4675"/>
</g>
</g>
</svg>
