<?xml version="1.0" encoding="UTF-8" standalone="no"?>
<!DOCTYPE svg PUBLIC "-//W3C//DTD SVG 1.1//EN"
 "http://www.w3.org/Graphics/SVG/1.1/DTD/svg11.dtd">
<!-- Generated by graphviz version 2.36.0 (20140111.2315)
 -->
<!-- Title: client/pps&#45;client.h Pages: 1 -->
<svg width="1054pt" height="84pt"
 viewBox="0.00 0.00 1054.00 84.00" xmlns="http://www.w3.org/2000/svg" xmlns:xlink="http://www.w3.org/1999/xlink">
<g id="graph0" class="graph" transform="scale(1 1) rotate(0) translate(4 80)">
<title>client/pps&#45;client.h</title>
<polygon fill="white" stroke="none" points="-4,4 -4,-80 1050,-80 1050,4 -4,4"/>
<!-- Node1 -->
<g id="node1" class="node"><title>Node1</title>
<polygon fill="#bfbfbf" stroke="black" points="456.5,-56.5 456.5,-75.5 549.5,-75.5 549.5,-56.5 456.5,-56.5"/>
<text text-anchor="middle" x="503" y="-63.5" font-family="Helvetica,sans-Serif" font-size="10.00">client/pps&#45;client.h</text>
</g>
<!-- Node2 -->
<g id="node2" class="node"><title>Node2</title>
<polygon fill="white" stroke="#bfbfbf" points="0,-0.5 0,-19.5 46,-19.5 46,-0.5 0,-0.5"/>
<text text-anchor="middle" x="23" y="-7.5" font-family="Helvetica,sans-Serif" font-size="10.00">stdio.h</text>
</g>
<!-- Node1&#45;&gt;Node2 -->
<g id="edge1" class="edge"><title>Node1&#45;&gt;Node2</title>
<path fill="none" stroke="midnightblue" d="M456.182,-62.9819C376.003,-58.9434 207.23,-47.9023 56.2267,-19.9285"/>
<polygon fill="midnightblue" stroke="midnightblue" points="56.7821,-16.4716 46.3072,-18.0613 55.4872,-23.3508 56.7821,-16.4716"/>
</g>
<!-- Node3 -->
<g id="node3" class="node"><title>Node3</title>
<polygon fill="white" stroke="#bfbfbf" points="64,-0.5 64,-19.5 112,-19.5 112,-0.5 64,-0.5"/>
<text text-anchor="middle" x="88" y="-7.5" font-family="Helvetica,sans-Serif" font-size="10.00">stdlib.h</text>
</g>
<!-- Node1&#45;&gt;Node3 -->
<g id="edge2" class="edge"><title>Node1&#45;&gt;Node3</title>
<path fill="none" stroke="midnightblue" d="M456.497,-61.7682C386.062,-56.3825 248.038,-43.9127 121.887,-19.9048"/>
<polygon fill="midnightblue" stroke="midnightblue" points="122.535,-16.4655 112.053,-18.0049 121.207,-23.3384 122.535,-16.4655"/>
</g>
<!-- Node4 -->
<g id="node4" class="node"><title>Node4</title>
<polygon fill="white" stroke="#bfbfbf" points="130,-0.5 130,-19.5 174,-19.5 174,-0.5 130,-0.5"/>
<text text-anchor="middle" x="152" y="-7.5" font-family="Helvetica,sans-Serif" font-size="10.00">time.h</text>
</g>
<!-- Node1&#45;&gt;Node4 -->
<g id="edge3" class="edge"><title>Node1&#45;&gt;Node4</title>
<path fill="none" stroke="midnightblue" d="M456.265,-60.5428C395.57,-54.2889 286.24,-41.4402 184.113,-19.9774"/>
<polygon fill="midnightblue" stroke="midnightblue" points="184.764,-16.5377 174.254,-17.8734 183.303,-23.3835 184.764,-16.5377"/>
</g>
<!-- Node5 -->
<g id="node5" class="node"><title>Node5</title>
<polygon fill="white" stroke="#bfbfbf" points="192.5,-0.5 192.5,-19.5 243.5,-19.5 243.5,-0.5 192.5,-0.5"/>
<text text-anchor="middle" x="218" y="-7.5" font-family="Helvetica,sans-Serif" font-size="10.00">unistd.h</text>
</g>
<!-- Node1&#45;&gt;Node5 -->
<g id="edge4" class="edge"><title>Node1&#45;&gt;Node5</title>
<path fill="none" stroke="midnightblue" d="M456.05,-57.7543C407.627,-50.0202 329.724,-36.8541 253.78,-20.2613"/>
<polygon fill="midnightblue" stroke="midnightblue" points="254.085,-16.7444 243.565,-18.0059 252.575,-23.5798 254.085,-16.7444"/>
</g>
<!-- Node6 -->
<g id="node6" class="node"><title>Node6</title>
<polygon fill="white" stroke="#bfbfbf" points="261.5,-0.5 261.5,-19.5 318.5,-19.5 318.5,-0.5 261.5,-0.5"/>
<text text-anchor="middle" x="290" y="-7.5" font-family="Helvetica,sans-Serif" font-size="10.00">pthread.h</text>
</g>
<!-- Node1&#45;&gt;Node6 -->
<g id="edge5" class="edge"><title>Node1&#45;&gt;Node6</title>
<path fill="none" stroke="midnightblue" d="M469.25,-56.4435C430.968,-46.7383 368.664,-30.9429 328.513,-20.7639"/>
<polygon fill="midnightblue" stroke="midnightblue" points="329.364,-17.369 318.811,-18.3042 327.644,-24.1544 329.364,-17.369"/>
</g>
<!-- Node7 -->
<g id="node7" class="node"><title>Node7</title>
<polygon fill="white" stroke="#bfbfbf" points="337,-0.5 337,-19.5 387,-19.5 387,-0.5 337,-0.5"/>
<text text-anchor="middle" x="362" y="-7.5" font-family="Helvetica,sans-Serif" font-size="10.00">signal.h</text>
</g>
<!-- Node1&#45;&gt;Node7 -->
<g id="edge6" class="edge"><title>Node1&#45;&gt;Node7</title>
<path fill="none" stroke="midnightblue" d="M480.658,-56.4435C457.247,-47.4776 420.264,-33.314 393.81,-23.1827"/>
<polygon fill="midnightblue" stroke="midnightblue" points="394.828,-19.8245 384.237,-19.5164 392.324,-26.3615 394.828,-19.8245"/>
</g>
<!-- Node8 -->
<g id="node8" class="node"><title>Node8</title>
<polygon fill="white" stroke="#bfbfbf" points="405.5,-0.5 405.5,-19.5 454.5,-19.5 454.5,-0.5 405.5,-0.5"/>
<text text-anchor="middle" x="430" y="-7.5" font-family="Helvetica,sans-Serif" font-size="10.00">string.h</text>
</g>
<!-- Node1&#45;&gt;Node8 -->
<g id="edge7" class="edge"><title>Node1&#45;&gt;Node8</title>
<path fill="none" stroke="midnightblue" d="M491.271,-56.324C480.163,-48.1066 463.258,-35.6017 450.017,-25.8069"/>
<polygon fill="midnightblue" stroke="midnightblue" points="452.063,-22.9671 441.942,-19.8339 447.9,-28.5948 452.063,-22.9671"/>
</g>
<!-- Node9 -->
<g id="node9" class="node"><title>Node9</title>
<polygon fill="white" stroke="#bfbfbf" points="473,-0.5 473,-19.5 533,-19.5 533,-0.5 473,-0.5"/>
<text text-anchor="middle" x="503" y="-7.5" font-family="Helvetica,sans-Serif" font-size="10.00">sys/stat.h</text>
</g>
<!-- Node1&#45;&gt;Node9 -->
<g id="edge8" class="edge"><title>Node1&#45;&gt;Node9</title>
<path fill="none" stroke="midnightblue" d="M503,-56.083C503,-49.0059 503,-38.8611 503,-29.9865"/>
<polygon fill="midnightblue" stroke="midnightblue" points="506.5,-29.751 503,-19.7511 499.5,-29.7511 506.5,-29.751"/>
</g>
<!-- Node10 -->
<g id="node10" class="node"><title>Node10</title>
<polygon fill="white" stroke="#bfbfbf" points="551,-0.5 551,-19.5 595,-19.5 595,-0.5 551,-0.5"/>
<text text-anchor="middle" x="573" y="-7.5" font-family="Helvetica,sans-Serif" font-size="10.00">fcntl.h</text>
</g>
<!-- Node1&#45;&gt;Node10 -->
<g id="edge9" class="edge"><title>Node1&#45;&gt;Node10</title>
<path fill="none" stroke="midnightblue" d="M514.247,-56.324C524.797,-48.1849 540.801,-35.8395 553.442,-26.0874"/>
<polygon fill="midnightblue" stroke="midnightblue" points="555.769,-28.7132 561.549,-19.8339 551.493,-23.1707 555.769,-28.7132"/>
</g>
<!-- Node11 -->
<g id="node11" class="node"><title>Node11</title>
<polygon fill="white" stroke="#bfbfbf" points="613,-0.5 613,-19.5 681,-19.5 681,-0.5 613,-0.5"/>
<text text-anchor="middle" x="647" y="-7.5" font-family="Helvetica,sans-Serif" font-size="10.00">sys/timex.h</text>
</g>
<!-- Node1&#45;&gt;Node11 -->
<g id="edge10" class="edge"><title>Node1&#45;&gt;Node11</title>
<path fill="none" stroke="midnightblue" d="M525.817,-56.4435C549.832,-47.4381 587.829,-33.1891 614.869,-23.049"/>
<polygon fill="midnightblue" stroke="midnightblue" points="616.155,-26.3049 624.29,-19.5164 613.697,-19.7506 616.155,-26.3049"/>
</g>
<!-- Node12 -->
<g id="node12" class="node"><title>Node12</title>
<polygon fill="white" stroke="#bfbfbf" points="699.5,-0.5 699.5,-19.5 746.5,-19.5 746.5,-0.5 699.5,-0.5"/>
<text text-anchor="middle" x="723" y="-7.5" font-family="Helvetica,sans-Serif" font-size="10.00">math.h</text>
</g>
<!-- Node1&#45;&gt;Node12 -->
<g id="edge11" class="edge"><title>Node1&#45;&gt;Node12</title>
<path fill="none" stroke="midnightblue" d="M539.982,-56.4469C575.698,-48.1098 631.557,-34.8701 689.209,-20.1445"/>
<polygon fill="midnightblue" stroke="midnightblue" points="690.413,-23.4493 699.23,-17.5746 688.674,-16.6687 690.413,-23.4493"/>
</g>
<!-- Node13 -->
<g id="node13" class="node"><title>Node13</title>
<polygon fill="white" stroke="#bfbfbf" points="765,-0.5 765,-19.5 833,-19.5 833,-0.5 765,-0.5"/>
<text text-anchor="middle" x="799" y="-7.5" font-family="Helvetica,sans-Serif" font-size="10.00">sys/types.h</text>
</g>
<!-- Node1&#45;&gt;Node13 -->
<g id="edge12" class="edge"><title>Node1&#45;&gt;Node13</title>
<path fill="none" stroke="midnightblue" d="M549.51,-57.054C600.128,-48.3223 683.416,-33.7103 755,-20 755.101,-19.9807 755.201,-19.9615 755.302,-19.9421"/>
<polygon fill="midnightblue" stroke="midnightblue" points="755.766,-23.4178 764.907,-18.0614 754.421,-16.5483 755.766,-23.4178"/>
</g>
<!-- Node14 -->
<g id="node14" class="node"><title>Node14</title>
<polygon fill="white" stroke="#bfbfbf" points="851.5,-0.5 851.5,-19.5 898.5,-19.5 898.5,-0.5 851.5,-0.5"/>
<text text-anchor="middle" x="875" y="-7.5" font-family="Helvetica,sans-Serif" font-size="10.00">errno.h</text>
</g>
<!-- Node1&#45;&gt;Node14 -->
<g id="edge13" class="edge"><title>Node1&#45;&gt;Node14</title>
<path fill="none" stroke="midnightblue" d="M549.661,-60.8079C613.404,-54.6415 731.383,-41.6635 841.364,-19.8706"/>
<polygon fill="midnightblue" stroke="midnightblue" points="842.184,-23.2758 851.298,-17.8733 840.804,-16.4131 842.184,-23.2758"/>
</g>
<!-- Node15 -->
<g id="node15" class="node"><title>Node15</title>
<polygon fill="white" stroke="#bfbfbf" points="917,-0.5 917,-19.5 957,-19.5 957,-0.5 917,-0.5"/>
<text text-anchor="middle" x="937" y="-7.5" font-family="Helvetica,sans-Serif" font-size="10.00">poll.h</text>
</g>
<!-- Node1&#45;&gt;Node15 -->
<g id="edge14" class="edge"><title>Node1&#45;&gt;Node15</title>
<path fill="none" stroke="midnightblue" d="M549.776,-62.5379C625.476,-57.9405 779.247,-46.0555 907,-20 907.1,-19.9796 907.2,-19.9591 907.3,-19.9383"/>
<polygon fill="midnightblue" stroke="midnightblue" points="907.919,-23.3905 916.793,-17.602 906.246,-16.5933 907.919,-23.3905"/>
</g>
<!-- Node16 -->
<g id="node16" class="node"><title>Node16</title>
<polygon fill="white" stroke="#bfbfbf" points="975.5,-0.5 975.5,-19.5 1046.5,-19.5 1046.5,-0.5 975.5,-0.5"/>
<text text-anchor="middle" x="1011" y="-7.5" font-family="Helvetica,sans-Serif" font-size="10.00">sys/mman.h</text>
</g>
<!-- Node1&#45;&gt;Node16 -->
<g id="edge15" class="edge"><title>Node1&#45;&gt;Node16</title>
<path fill="none" stroke="midnightblue" d="M549.519,-62.0327C631.457,-56.4678 807.02,-43.0332 965.279,-19.9603"/>
<polygon fill="midnightblue" stroke="midnightblue" points="965.813,-23.4194 975.195,-18.4983 964.792,-16.4943 965.813,-23.4194"/>
</g>
</g>
</svg>
