<?xml version="1.0" encoding="UTF-8" standalone="no"?>
<!DOCTYPE svg PUBLIC "-//W3C//DTD SVG 1.1//EN"
 "http://www.w3.org/Graphics/SVG/1.1/DTD/svg11.dtd">
<!-- Generated by graphviz version 2.36.0 (20140111.2315)
 -->
<!-- Title: writeFileMsgToLogbuf Pages: 1 -->
<svg width="258pt" height="66pt"
 viewBox="0.00 0.00 258.00 66.00" xmlns="http://www.w3.org/2000/svg" xmlns:xlink="http://www.w3.org/1999/xlink">
<g id="graph0" class="graph" transform="scale(1 1) rotate(0) translate(4 62)">
<title>writeFileMsgToLogbuf</title>
<polygon fill="white" stroke="none" points="-4,4 -4,-62 254,-62 254,4 -4,4"/>
<!-- Node1 -->
<g id="node1" class="node"><title>Node1</title>
<polygon fill="#bfbfbf" stroke="black" points="0.5,-19.5 0.5,-38.5 113.5,-38.5 113.5,-19.5 0.5,-19.5"/>
<text text-anchor="middle" x="57" y="-26.5" font-family="Helvetica,sans-Serif" font-size="10.00">writeFileMsgToLogbuf</text>
</g>
<!-- Node2 -->
<g id="node2" class="node"><title>Node2</title>
<g id="a_node2"><a xlink:href="../../d0/d3e/pps-files_8cpp.html#a2f76a2c4a4ca7cc05e6110eb49378ad1" target="_top" xlink:title="writeFileMsgToLog">
<polygon fill="white" stroke="red" points="150.5,-38.5 150.5,-57.5 249.5,-57.5 249.5,-38.5 150.5,-38.5"/>
<text text-anchor="middle" x="200" y="-45.5" font-family="Helvetica,sans-Serif" font-size="10.00">writeFileMsgToLog</text>
</a>
</g>
</g>
<!-- Node1&#45;&gt;Node2 -->
<g id="edge1" class="edge"><title>Node1&#45;&gt;Node2</title>
<path fill="none" stroke="midnightblue" d="M123.682,-37.8507C132.564,-39.0476 141.549,-40.2583 150.068,-41.4064"/>
<polygon fill="midnightblue" stroke="midnightblue" points="124.105,-34.3762 113.727,-36.5093 123.17,-41.3135 124.105,-34.3762"/>
</g>
<!-- Node3 -->
<g id="node3" class="node"><title>Node3</title>
<g id="a_node3"><a xlink:href="../../dc/d4f/pps-sntp_8cpp.html#aa86ca22d55c1290a2392299c7097b471" target="_top" xlink:title="getServerTime">
<polygon fill="white" stroke="red" points="160,-0.5 160,-19.5 240,-19.5 240,-0.5 160,-0.5"/>
<text text-anchor="middle" x="200" y="-7.5" font-family="Helvetica,sans-Serif" font-size="10.00">getServerTime</text>
</a>
</g>
</g>
<!-- Node1&#45;&gt;Node3 -->
<g id="edge2" class="edge"><title>Node1&#45;&gt;Node3</title>
<path fill="none" stroke="midnightblue" d="M123.939,-20.1146C136.186,-18.4643 148.618,-16.7891 159.747,-15.2894"/>
<polygon fill="midnightblue" stroke="midnightblue" points="123.17,-16.6865 113.727,-21.4907 124.105,-23.6238 123.17,-16.6865"/>
</g>
</g>
</svg>
