<?xml version="1.0" encoding="UTF-8" standalone="no"?>
<!DOCTYPE svg PUBLIC "-//W3C//DTD SVG 1.1//EN"
 "http://www.w3.org/Graphics/SVG/1.1/DTD/svg11.dtd">
<!-- Generated by graphviz version 2.40.1 (20161225.0304)
 -->
<!-- Title: getChildPID Pages: 1 -->
<svg width="183pt" height="64pt"
 viewBox="0.00 0.00 182.73 64.00" xmlns="http://www.w3.org/2000/svg" xmlns:xlink="http://www.w3.org/1999/xlink">
<g id="graph0" class="graph" transform="scale(1 1) rotate(0) translate(4 60)">
<title>getChildPID</title>
<polygon fill="#ffffff" stroke="transparent" points="-4,4 -4,-60 178.7334,-60 178.7334,4 -4,4"/>
<!-- Node277 -->
<g id="node1" class="node">
<title>Node277</title>
<polygon fill="#bfbfbf" stroke="#000000" points="0,-18.5 0,-36.5 69.3594,-36.5 69.3594,-18.5 0,-18.5"/>
<text text-anchor="middle" x="34.6797" y="-24.5" font-family="Helvetica,sans-Serif" font-size="10.00" fill="#000000">getChildPID</text>
</g>
<!-- Node278 -->
<g id="node2" class="node">
<title>Node278</title>
<g id="a_node2"><a xlink:href="../../d0/d3e/pps-files_8cpp.html#a94ad6f36dae10e5652ea241b11d2e5c7" target="_top" xlink:title="open_logerr">
<polygon fill="#ffffff" stroke="#ff0000" points="105.3594,-37.5 105.3594,-55.5 174.7334,-55.5 174.7334,-37.5 105.3594,-37.5"/>
<text text-anchor="middle" x="140.0464" y="-43.5" font-family="Helvetica,sans-Serif" font-size="10.00" fill="#000000">open_logerr</text>
</a>
</g>
</g>
<!-- Node277&#45;&gt;Node278 -->
<g id="edge1" class="edge">
<title>Node277&#45;&gt;Node278</title>
<path fill="none" stroke="#191970" d="M69.4727,-33.774C77.7449,-35.2656 86.6848,-36.8777 95.3316,-38.4369"/>
<polygon fill="#191970" stroke="#191970" points="94.8275,-41.9024 105.2899,-40.2326 96.0698,-35.0135 94.8275,-41.9024"/>
</g>
<!-- Node282 -->
<g id="node3" class="node">
<title>Node282</title>
<g id="a_node3"><a xlink:href="../../d0/d3e/pps-files_8cpp.html#a459e7950f1def63780ba7fda8e3c12d2" target="_top" xlink:title="read_logerr">
<polygon fill="#ffffff" stroke="#ff0000" points="106.4751,-.5 106.4751,-18.5 173.6177,-18.5 173.6177,-.5 106.4751,-.5"/>
<text text-anchor="middle" x="140.0464" y="-6.5" font-family="Helvetica,sans-Serif" font-size="10.00" fill="#000000">read_logerr</text>
</a>
</g>
</g>
<!-- Node277&#45;&gt;Node282 -->
<g id="edge2" class="edge">
<title>Node277&#45;&gt;Node282</title>
<path fill="none" stroke="#191970" d="M69.4727,-21.5562C78.0961,-20.0831 87.4452,-18.486 96.4313,-16.9508"/>
<polygon fill="#191970" stroke="#191970" points="97.097,-20.3879 106.3648,-15.2539 95.9182,-13.4879 97.097,-20.3879"/>
</g>
</g>
</svg>
