<?xml version="1.0" encoding="UTF-8" standalone="no"?>
<!DOCTYPE svg PUBLIC "-//W3C//DTD SVG 1.1//EN"
 "http://www.w3.org/Graphics/SVG/1.1/DTD/svg11.dtd">
<!-- Generated by graphviz version 2.40.1 (20161225.0304)
 -->
<!-- Title: sysCommand Pages: 1 -->
<svg width="395pt" height="407pt"
 viewBox="0.00 0.00 394.57 407.00" xmlns="http://www.w3.org/2000/svg" xmlns:xlink="http://www.w3.org/1999/xlink">
<g id="graph0" class="graph" transform="scale(1 1) rotate(0) translate(4 403)">
<title>sysCommand</title>
<polygon fill="#ffffff" stroke="transparent" points="-4,4 -4,-403 390.5654,-403 390.5654,4 -4,4"/>
<!-- Node519 -->
<g id="node1" class="node">
<title>Node519</title>
<polygon fill="#bfbfbf" stroke="#000000" points="0,-190.5 0,-208.5 77.1279,-208.5 77.1279,-190.5 0,-190.5"/>
<text text-anchor="middle" x="38.564" y="-196.5" font-family="Helvetica,sans-Serif" font-size="10.00" fill="#000000">sysCommand</text>
</g>
<!-- Node520 -->
<g id="node2" class="node">
<title>Node520</title>
<g id="a_node2"><a xlink:href="../../d5/d60/pps-client_8cpp.html#a4b3bdab744bd7ed860326323fad180f2" target="_top" xlink:title="waitForPPS">
<polygon fill="#ffffff" stroke="#000000" points="240.1963,-380.5 240.1963,-398.5 308.9893,-398.5 308.9893,-380.5 240.1963,-380.5"/>
<text text-anchor="middle" x="274.5928" y="-386.5" font-family="Helvetica,sans-Serif" font-size="10.00" fill="#000000">waitForPPS</text>
</a>
</g>
</g>
<!-- Node519&#45;&gt;Node520 -->
<g id="edge1" class="edge">
<title>Node519&#45;&gt;Node520</title>
<path fill="none" stroke="#191970" d="M41.1289,-218.4621C46.969,-253.6603 64.718,-328.8441 113.1279,-365.5 149.7298,-393.2148 204.6663,-395.4639 240.0754,-393.3789"/>
<polygon fill="#191970" stroke="#191970" points="44.5842,-217.9025 39.6275,-208.5386 37.663,-218.9497 44.5842,-217.9025"/>
</g>
<!-- Node521 -->
<g id="node3" class="node">
<title>Node521</title>
<g id="a_node3"><a xlink:href="../../d5/d60/pps-client_8cpp.html#a0ddf1224851353fc92bfbff6f499fa97" target="_top" xlink:title="main">
<polygon fill="#ffffff" stroke="#000000" points="348.8906,-227.5 348.8906,-245.5 386.5654,-245.5 386.5654,-227.5 348.8906,-227.5"/>
<text text-anchor="middle" x="367.728" y="-233.5" font-family="Helvetica,sans-Serif" font-size="10.00" fill="#000000">main</text>
</a>
</g>
</g>
<!-- Node519&#45;&gt;Node521 -->
<g id="edge3" class="edge">
<title>Node519&#45;&gt;Node521</title>
<path fill="none" stroke="#191970" d="M42.806,-218.6807C50.6952,-249.1547 70.8152,-307.7131 113.1279,-332.5 201.9855,-384.5529 324.133,-278.338 358.4377,-245.6585"/>
<polygon fill="#191970" stroke="#191970" points="46.1797,-217.7404 40.4344,-208.8386 39.3745,-219.3803 46.1797,-217.7404"/>
</g>
<!-- Node522 -->
<g id="node4" class="node">
<title>Node522</title>
<g id="a_node4"><a xlink:href="../../d0/d3e/pps-files_8cpp.html#ac59e9111236426cdcbea6d1774ca7fea" target="_top" xlink:title="ppsIsRunning">
<polygon fill="#ffffff" stroke="#ff0000" points="118.1353,-304.5 118.1353,-322.5 195.2876,-322.5 195.2876,-304.5 118.1353,-304.5"/>
<text text-anchor="middle" x="156.7114" y="-310.5" font-family="Helvetica,sans-Serif" font-size="10.00" fill="#000000">ppsIsRunning</text>
</a>
</g>
</g>
<!-- Node519&#45;&gt;Node522 -->
<g id="edge4" class="edge">
<title>Node519&#45;&gt;Node522</title>
<path fill="none" stroke="#191970" d="M50.1425,-217.1384C63.5676,-236.6149 87.1967,-268.0483 113.1279,-289.5 120.183,-295.3363 128.8679,-300.4542 136.6233,-304.4479"/>
<polygon fill="#191970" stroke="#191970" points="52.8998,-214.9671 44.4063,-208.6338 47.0965,-218.8814 52.8998,-214.9671"/>
</g>
<!-- Node524 -->
<g id="node5" class="node">
<title>Node524</title>
<g id="a_node5"><a xlink:href="../../d0/d3e/pps-files_8cpp.html#a4ec814a023712bff67399cc287385ed3" target="_top" xlink:title="restartNTP">
<polygon fill="#ffffff" stroke="#000000" points="124.5415,-228.5 124.5415,-246.5 188.8813,-246.5 188.8813,-228.5 124.5415,-228.5"/>
<text text-anchor="middle" x="156.7114" y="-234.5" font-family="Helvetica,sans-Serif" font-size="10.00" fill="#000000">restartNTP</text>
</a>
</g>
</g>
<!-- Node519&#45;&gt;Node524 -->
<g id="edge5" class="edge">
<title>Node519&#45;&gt;Node524</title>
<path fill="none" stroke="#191970" d="M76.1835,-211.5997C93.1454,-217.0551 112.8381,-223.3889 128.5037,-228.4275"/>
<polygon fill="#191970" stroke="#191970" points="77.1547,-208.2355 66.5633,-208.5055 75.0113,-214.8993 77.1547,-208.2355"/>
</g>
<!-- Node525 -->
<g id="node6" class="node">
<title>Node525</title>
<g id="a_node6"><a xlink:href="../../d0/d3e/pps-files_8cpp.html#a63902ed5404b3607594a3ad7d080da10" target="_top" xlink:title="disableNTP">
<polygon fill="#ffffff" stroke="#000000" points="240.748,-246.5 240.748,-264.5 308.4375,-264.5 308.4375,-246.5 240.748,-246.5"/>
<text text-anchor="middle" x="274.5928" y="-252.5" font-family="Helvetica,sans-Serif" font-size="10.00" fill="#000000">disableNTP</text>
</a>
</g>
</g>
<!-- Node519&#45;&gt;Node525 -->
<g id="edge10" class="edge">
<title>Node519&#45;&gt;Node525</title>
<path fill="none" stroke="#191970" d="M53.8292,-216.1088C67.7393,-229.9197 89.6461,-248.5528 113.1279,-256.5 155.2146,-270.7439 207.0813,-266.9665 240.4843,-262.0231"/>
<polygon fill="#191970" stroke="#191970" points="56.0813,-213.4031 46.6116,-208.6517 51.0514,-218.2714 56.0813,-213.4031"/>
</g>
<!-- Node526 -->
<g id="node7" class="node">
<title>Node526</title>
<g id="a_node7"><a xlink:href="../../d0/d3e/pps-files_8cpp.html#a6354b54021f614ab3ab87ef5b3df64d0" target="_top" xlink:title="enableNTP">
<polygon fill="#ffffff" stroke="#000000" points="241.5781,-209.5 241.5781,-227.5 307.6074,-227.5 307.6074,-209.5 241.5781,-209.5"/>
<text text-anchor="middle" x="274.5928" y="-215.5" font-family="Helvetica,sans-Serif" font-size="10.00" fill="#000000">enableNTP</text>
</a>
</g>
</g>
<!-- Node519&#45;&gt;Node526 -->
<g id="edge11" class="edge">
<title>Node519&#45;&gt;Node526</title>
<path fill="none" stroke="#191970" d="M87.3184,-203.4247C133.3213,-207.1278 201.0543,-212.5802 241.2084,-215.8126"/>
<polygon fill="#191970" stroke="#191970" points="87.5236,-199.93 77.275,-202.6162 86.9619,-206.9074 87.5236,-199.93"/>
</g>
<!-- Node527 -->
<g id="node8" class="node">
<title>Node527</title>
<g id="a_node8"><a xlink:href="../../d0/d3e/pps-files_8cpp.html#a0ff8b8ea02b0483a116f8b5089546ea4" target="_top" xlink:title="copyMajorTo">
<polygon fill="#ffffff" stroke="#000000" points="120.3667,-152.5 120.3667,-170.5 193.0562,-170.5 193.0562,-152.5 120.3667,-152.5"/>
<text text-anchor="middle" x="156.7114" y="-158.5" font-family="Helvetica,sans-Serif" font-size="10.00" fill="#000000">copyMajorTo</text>
</a>
</g>
</g>
<!-- Node519&#45;&gt;Node527 -->
<g id="edge12" class="edge">
<title>Node519&#45;&gt;Node527</title>
<path fill="none" stroke="#191970" d="M76.1835,-187.4003C93.1454,-181.9449 112.8381,-175.6111 128.5037,-170.5725"/>
<polygon fill="#191970" stroke="#191970" points="75.0113,-184.1007 66.5633,-190.4945 77.1547,-190.7645 75.0113,-184.1007"/>
</g>
<!-- Node528 -->
<g id="node9" class="node">
<title>Node528</title>
<g id="a_node9"><a xlink:href="../../d0/d3e/pps-files_8cpp.html#aa2b23a7e75f02567f73cee9a532cd2ab" target="_top" xlink:title="driver_load">
<polygon fill="#ffffff" stroke="#000000" points="241.8564,-133.5 241.8564,-151.5 307.3291,-151.5 307.3291,-133.5 241.8564,-133.5"/>
<text text-anchor="middle" x="274.5928" y="-139.5" font-family="Helvetica,sans-Serif" font-size="10.00" fill="#000000">driver_load</text>
</a>
</g>
</g>
<!-- Node519&#45;&gt;Node528 -->
<g id="edge17" class="edge">
<title>Node519&#45;&gt;Node528</title>
<path fill="none" stroke="#191970" d="M54.3622,-182.7644C68.3367,-169.2628 90.0445,-151.2825 113.1279,-143.5 155.7624,-129.126 208.4043,-132.3826 241.7469,-136.8126"/>
<polygon fill="#191970" stroke="#191970" points="51.6494,-180.5285 47.0758,-190.0854 56.6109,-185.4665 51.6494,-180.5285"/>
</g>
<!-- Node529 -->
<g id="node10" class="node">
<title>Node529</title>
<g id="a_node10"><a xlink:href="../../d0/d3e/pps-files_8cpp.html#a80576b7ed0230355826c49f761ce773f" target="_top" xlink:title="getLinuxVersion">
<polygon fill="#ffffff" stroke="#000000" points="113.1279,-76.5 113.1279,-94.5 200.2949,-94.5 200.2949,-76.5 113.1279,-76.5"/>
<text text-anchor="middle" x="156.7114" y="-82.5" font-family="Helvetica,sans-Serif" font-size="10.00" fill="#000000">getLinuxVersion</text>
</a>
</g>
</g>
<!-- Node519&#45;&gt;Node529 -->
<g id="edge15" class="edge">
<title>Node519&#45;&gt;Node529</title>
<path fill="none" stroke="#191970" d="M50.1425,-181.8616C63.5676,-162.3851 87.1967,-130.9517 113.1279,-109.5 120.183,-103.6637 128.8679,-98.5458 136.6233,-94.5521"/>
<polygon fill="#191970" stroke="#191970" points="47.0965,-180.1186 44.4063,-190.3662 52.8998,-184.0329 47.0965,-180.1186"/>
</g>
<!-- Node530 -->
<g id="node11" class="node">
<title>Node530</title>
<g id="a_node11"><a xlink:href="../../d0/d3e/pps-files_8cpp.html#ad93a555ba6311fb8b1c2199527fe8cc2" target="_top" xlink:title="driver_unload">
<polygon fill="#ffffff" stroke="#000000" points="236.2949,-58.5 236.2949,-76.5 312.8906,-76.5 312.8906,-58.5 236.2949,-58.5"/>
<text text-anchor="middle" x="274.5928" y="-64.5" font-family="Helvetica,sans-Serif" font-size="10.00" fill="#000000">driver_unload</text>
</a>
</g>
</g>
<!-- Node519&#45;&gt;Node530 -->
<g id="edge18" class="edge">
<title>Node519&#45;&gt;Node530</title>
<path fill="none" stroke="#191970" d="M42.806,-180.3193C50.6952,-149.8453 70.8152,-91.2869 113.1279,-66.5 153.28,-42.9789 209.2511,-50.3822 243.6432,-58.4948"/>
<polygon fill="#191970" stroke="#191970" points="39.3745,-179.6197 40.4344,-190.1614 46.1797,-181.2596 39.3745,-179.6197"/>
</g>
<!-- Node531 -->
<g id="node12" class="node">
<title>Node531</title>
<g id="a_node12"><a xlink:href="../../dc/d4f/pps-sntp_8cpp.html#aa86ca22d55c1290a2392299c7097b471" target="_top" xlink:title="getServerTime">
<polygon fill="#ffffff" stroke="#ff0000" points="116.1064,-.5 116.1064,-18.5 197.3164,-18.5 197.3164,-.5 116.1064,-.5"/>
<text text-anchor="middle" x="156.7114" y="-6.5" font-family="Helvetica,sans-Serif" font-size="10.00" fill="#000000">getServerTime</text>
</a>
</g>
</g>
<!-- Node519&#45;&gt;Node531 -->
<g id="edge20" class="edge">
<title>Node519&#45;&gt;Node531</title>
<path fill="none" stroke="#191970" d="M42.82,-180.663C51.1718,-147.3792 72.5317,-77.5334 113.1279,-33.5 118.8659,-27.2762 126.5977,-22.3004 133.9559,-18.5292"/>
<polygon fill="#191970" stroke="#191970" points="39.3993,-179.9189 40.4773,-190.4587 46.2073,-181.5471 39.3993,-179.9189"/>
</g>
<!-- Node520&#45;&gt;Node521 -->
<g id="edge2" class="edge">
<title>Node520&#45;&gt;Node521</title>
<path fill="none" stroke="#191970" d="M302.9229,-374.599C306.5703,-371.898 310.0254,-368.8573 312.8906,-365.5 345.1175,-327.7379 360.8051,-268.2429 365.8485,-245.6311"/>
<polygon fill="#191970" stroke="#191970" points="300.7014,-371.8699 294.2503,-380.2744 304.5344,-377.7273 300.7014,-371.8699"/>
</g>
<!-- Node524&#45;&gt;Node525 -->
<g id="edge6" class="edge">
<title>Node524&#45;&gt;Node525</title>
<path fill="none" stroke="#191970" d="M199.0004,-243.9573C212.5754,-246.0302 227.4342,-248.2991 240.3581,-250.2725"/>
<polygon fill="#191970" stroke="#191970" points="199.3368,-240.4682 188.923,-242.4186 198.2801,-247.388 199.3368,-240.4682"/>
</g>
<!-- Node524&#45;&gt;Node526 -->
<g id="edge8" class="edge">
<title>Node524&#45;&gt;Node526</title>
<path fill="none" stroke="#191970" d="M199.1779,-230.6553C212.9963,-228.4281 228.1282,-225.9891 241.1871,-223.8843"/>
<polygon fill="#191970" stroke="#191970" points="198.2386,-227.2614 188.923,-232.3082 199.3526,-234.1722 198.2386,-227.2614"/>
</g>
<!-- Node525&#45;&gt;Node521 -->
<g id="edge7" class="edge">
<title>Node525&#45;&gt;Node521</title>
<path fill="none" stroke="#191970" d="M318.5053,-246.5416C329.0953,-244.3813 339.8689,-242.1834 348.6261,-240.3969"/>
<polygon fill="#191970" stroke="#191970" points="317.5788,-243.1585 308.4802,-248.5868 318.978,-250.0172 317.5788,-243.1585"/>
</g>
<!-- Node526&#45;&gt;Node521 -->
<g id="edge9" class="edge">
<title>Node526&#45;&gt;Node521</title>
<path fill="none" stroke="#191970" d="M317.6109,-226.814C328.5696,-228.932 339.792,-231.1009 348.8316,-232.8479"/>
<polygon fill="#191970" stroke="#191970" points="318.1735,-223.358 307.691,-224.8968 316.8452,-230.2309 318.1735,-223.358"/>
</g>
<!-- Node527&#45;&gt;Node528 -->
<g id="edge13" class="edge">
<title>Node527&#45;&gt;Node528</title>
<path fill="none" stroke="#191970" d="M203.3847,-153.9772C216.1556,-151.9188 229.7305,-149.7309 241.5652,-147.8234"/>
<polygon fill="#191970" stroke="#191970" points="202.6793,-150.5457 193.3636,-155.5924 203.7932,-157.4565 202.6793,-150.5457"/>
</g>
<!-- Node528&#45;&gt;Node521 -->
<g id="edge14" class="edge">
<title>Node528&#45;&gt;Node521</title>
<path fill="none" stroke="#191970" d="M290.5938,-158.6496C310.2537,-178.492 342.9334,-211.4752 358.688,-227.3761"/>
<polygon fill="#191970" stroke="#191970" points="293.0476,-156.1534 283.523,-151.5131 288.075,-161.0802 293.0476,-156.1534"/>
</g>
<!-- Node529&#45;&gt;Node528 -->
<g id="edge16" class="edge">
<title>Node529&#45;&gt;Node528</title>
<path fill="none" stroke="#191970" d="M184.526,-98.9494C206.4324,-109.5419 236.3831,-124.0242 255.6112,-133.3217"/>
<polygon fill="#191970" stroke="#191970" points="185.9165,-95.7341 175.3901,-94.5318 182.8692,-102.036 185.9165,-95.7341"/>
</g>
<!-- Node530&#45;&gt;Node521 -->
<g id="edge19" class="edge">
<title>Node530&#45;&gt;Node521</title>
<path fill="none" stroke="#191970" d="M287.1639,-84.867C294.9652,-95.9602 304.9755,-110.7863 312.8906,-124.5 334.2108,-161.4394 355.1914,-207.8507 363.7297,-227.2814"/>
<polygon fill="#191970" stroke="#191970" points="289.8788,-82.6456 281.225,-76.5331 284.1781,-86.7081 289.8788,-82.6456"/>
</g>
</g>
</svg>
