<?xml version="1.0" encoding="UTF-8" standalone="no"?>
<!DOCTYPE svg PUBLIC "-//W3C//DTD SVG 1.1//EN"
 "http://www.w3.org/Graphics/SVG/1.1/DTD/svg11.dtd">
<!-- Generated by graphviz version 2.40.1 (20161225.0304)
 -->
<!-- Title: replaceNTPConfig Pages: 1 -->
<svg width="457pt" height="76pt"
 viewBox="0.00 0.00 456.82 76.04" xmlns="http://www.w3.org/2000/svg" xmlns:xlink="http://www.w3.org/1999/xlink">
<g id="graph0" class="graph" transform="scale(1 1) rotate(0) translate(4 72.0401)">
<title>replaceNTPConfig</title>
<polygon fill="#ffffff" stroke="transparent" points="-4,4 -4,-72.0401 452.8213,-72.0401 452.8213,4 -4,4"/>
<!-- Node478 -->
<g id="node1" class="node">
<title>Node478</title>
<polygon fill="#bfbfbf" stroke="#000000" points="0,-11.5401 0,-29.5401 97.7041,-29.5401 97.7041,-11.5401 0,-11.5401"/>
<text text-anchor="middle" x="48.8521" y="-17.5401" font-family="Helvetica,sans-Serif" font-size="10.00" fill="#000000">replaceNTPConfig</text>
</g>
<!-- Node479 -->
<g id="node2" class="node">
<title>Node479</title>
<g id="a_node2"><a xlink:href="../../d0/d3e/pps-files_8cpp.html#a94ad6f36dae10e5652ea241b11d2e5c7" target="_top" xlink:title="open_logerr">
<polygon fill="#ffffff" stroke="#000000" points="133.7041,-49.5401 133.7041,-67.5401 203.0781,-67.5401 203.0781,-49.5401 133.7041,-49.5401"/>
<text text-anchor="middle" x="168.3911" y="-55.5401" font-family="Helvetica,sans-Serif" font-size="10.00" fill="#000000">open_logerr</text>
</a>
</g>
</g>
<!-- Node478&#45;&gt;Node479 -->
<g id="edge1" class="edge">
<title>Node478&#45;&gt;Node479</title>
<path fill="none" stroke="#191970" d="M77.1811,-29.5455C92.9949,-34.5726 112.9136,-40.9045 130.0997,-46.3677"/>
<polygon fill="#191970" stroke="#191970" points="129.2607,-49.7735 139.8511,-49.4676 131.3814,-43.1025 129.2607,-49.7735"/>
</g>
<!-- Node480 -->
<g id="node3" class="node">
<title>Node480</title>
<g id="a_node3"><a xlink:href="../../d0/d3e/pps-files_8cpp.html#a1509c961be7011d1a6a4b2d23715357a" target="_top" xlink:title="couldNotOpenMsgTo">
<polygon fill="#ffffff" stroke="#000000" points="339.4375,-11.5401 339.4375,-29.5401 448.8213,-29.5401 448.8213,-11.5401 339.4375,-11.5401"/>
<text text-anchor="middle" x="394.1294" y="-17.5401" font-family="Helvetica,sans-Serif" font-size="10.00" fill="#000000">couldNotOpenMsgTo</text>
</a>
</g>
</g>
<!-- Node478&#45;&gt;Node480 -->
<g id="edge6" class="edge">
<title>Node478&#45;&gt;Node480</title>
<path fill="none" stroke="#191970" d="M97.7247,-12.2019C149.027,-4.5924 232.0008,4.4806 303.4375,-2.5401 317.8352,-3.9551 333.3358,-6.6047 347.3783,-9.4442"/>
<polygon fill="#191970" stroke="#191970" points="346.8031,-12.8997 357.3091,-11.5305 348.2423,-6.0493 346.8031,-12.8997"/>
</g>
<!-- Node481 -->
<g id="node4" class="node">
<title>Node481</title>
<g id="a_node4"><a xlink:href="../../d0/d3e/pps-files_8cpp.html#ae20c07f56a5b2b05b636f6a0a31ce214" target="_top" xlink:title="writeToLog">
<polygon fill="#ffffff" stroke="#ff0000" points="239.0781,-11.5401 239.0781,-29.5401 303.4375,-29.5401 303.4375,-11.5401 239.0781,-11.5401"/>
<text text-anchor="middle" x="271.2578" y="-17.5401" font-family="Helvetica,sans-Serif" font-size="10.00" fill="#000000">writeToLog</text>
</a>
</g>
</g>
<!-- Node478&#45;&gt;Node481 -->
<g id="edge5" class="edge">
<title>Node478&#45;&gt;Node481</title>
<path fill="none" stroke="#191970" d="M97.9353,-20.5401C137.1064,-20.5401 191.4185,-20.5401 228.75,-20.5401"/>
<polygon fill="#191970" stroke="#191970" points="228.8024,-24.0402 238.8024,-20.5401 228.8023,-17.0402 228.8024,-24.0402"/>
</g>
<!-- Node479&#45;&gt;Node480 -->
<g id="edge2" class="edge">
<title>Node479&#45;&gt;Node480</title>
<path fill="none" stroke="#191970" d="M203.1859,-54.2935C230.5184,-50.8012 269.5033,-45.475 303.4375,-39.5401 316.5702,-37.2432 330.7046,-34.4423 343.8159,-31.7043"/>
<polygon fill="#191970" stroke="#191970" points="344.5503,-35.1265 353.6092,-29.6322 343.1012,-28.2781 344.5503,-35.1265"/>
</g>
<!-- Node479&#45;&gt;Node481 -->
<g id="edge3" class="edge">
<title>Node479&#45;&gt;Node481</title>
<path fill="none" stroke="#191970" d="M192.7691,-49.5346C205.9957,-44.6486 222.5595,-38.5297 237.0576,-33.174"/>
<polygon fill="#191970" stroke="#191970" points="238.5308,-36.361 246.6983,-29.6126 236.1051,-29.7947 238.5308,-36.361"/>
</g>
<!-- Node481&#45;&gt;Node480 -->
<g id="edge4" class="edge">
<title>Node481&#45;&gt;Node480</title>
<path fill="none" stroke="#191970" d="M303.5409,-20.5401C311.4966,-20.5401 320.3015,-20.5401 329.2044,-20.5401"/>
<polygon fill="#191970" stroke="#191970" points="329.2577,-24.0402 339.2576,-20.5401 329.2576,-17.0402 329.2577,-24.0402"/>
</g>
</g>
</svg>
