<?xml version="1.0" encoding="UTF-8" standalone="no"?>
<!DOCTYPE svg PUBLIC "-//W3C//DTD SVG 1.1//EN"
 "http://www.w3.org/Graphics/SVG/1.1/DTD/svg11.dtd">
<!-- Generated by graphviz version 2.40.1 (20161225.0304)
 -->
<!-- Title: getDriverGPIOvals Pages: 1 -->
<svg width="229pt" height="64pt"
 viewBox="0.00 0.00 228.66 64.00" xmlns="http://www.w3.org/2000/svg" xmlns:xlink="http://www.w3.org/1999/xlink">
<g id="graph0" class="graph" transform="scale(1 1) rotate(0) translate(4 60)">
<title>getDriverGPIOvals</title>
<polygon fill="#ffffff" stroke="transparent" points="-4,4 -4,-60 224.6611,-60 224.6611,4 -4,4"/>
<!-- Node291 -->
<g id="node1" class="node">
<title>Node291</title>
<polygon fill="#bfbfbf" stroke="#000000" points="0,-18.5 0,-36.5 99.3545,-36.5 99.3545,-18.5 0,-18.5"/>
<text text-anchor="middle" x="49.6772" y="-24.5" font-family="Helvetica,sans-Serif" font-size="10.00" fill="#000000">getDriverGPIOvals</text>
</g>
<!-- Node292 -->
<g id="node2" class="node">
<title>Node292</title>
<g id="a_node2"><a xlink:href="../../d0/d3e/pps-files_8cpp.html#a7661ba76cbaa3908193ac55fd2f73330" target="_top" xlink:title="readConfigFile">
<polygon fill="#ffffff" stroke="#000000" points="137.4907,-37.5 137.4907,-55.5 218.5249,-55.5 218.5249,-37.5 137.4907,-37.5"/>
<text text-anchor="middle" x="178.0078" y="-43.5" font-family="Helvetica,sans-Serif" font-size="10.00" fill="#000000">readConfigFile</text>
</a>
</g>
</g>
<!-- Node291&#45;&gt;Node292 -->
<g id="edge1" class="edge">
<title>Node291&#45;&gt;Node292</title>
<path fill="none" stroke="#191970" d="M99.6607,-34.9003C108.7624,-36.2479 118.2649,-37.6548 127.3849,-39.005"/>
<polygon fill="#191970" stroke="#191970" points="127.0727,-42.4969 137.4776,-40.4993 128.098,-35.5724 127.0727,-42.4969"/>
</g>
<!-- Node293 -->
<g id="node3" class="node">
<title>Node293</title>
<g id="a_node3"><a xlink:href="../../d0/d3e/pps-files_8cpp.html#a8c064fc9e8b4e8138ae4c845fb50aaf3" target="_top" xlink:title="configHasValue">
<polygon fill="#ffffff" stroke="#000000" points="135.3545,-.5 135.3545,-18.5 220.6611,-18.5 220.6611,-.5 135.3545,-.5"/>
<text text-anchor="middle" x="178.0078" y="-6.5" font-family="Helvetica,sans-Serif" font-size="10.00" fill="#000000">configHasValue</text>
</a>
</g>
</g>
<!-- Node291&#45;&gt;Node293 -->
<g id="edge2" class="edge">
<title>Node291&#45;&gt;Node293</title>
<path fill="none" stroke="#191970" d="M99.6607,-20.4892C107.9663,-19.3242 116.6056,-18.1124 124.9835,-16.9373"/>
<polygon fill="#191970" stroke="#191970" points="125.6161,-20.383 135.033,-15.5278 124.6438,-13.4508 125.6161,-20.383"/>
</g>
</g>
</svg>
