<?xml version="1.0" encoding="UTF-8" standalone="no"?>
<!DOCTYPE svg PUBLIC "-//W3C//DTD SVG 1.1//EN"
 "http://www.w3.org/Graphics/SVG/1.1/DTD/svg11.dtd">
<!-- Generated by graphviz version 2.40.1 (20161225.0304)
 -->
<!-- Title: bufferStatusMsg Pages: 1 -->
<svg width="393pt" height="243pt"
 viewBox="0.00 0.00 393.32 243.00" xmlns="http://www.w3.org/2000/svg" xmlns:xlink="http://www.w3.org/1999/xlink">
<g id="graph0" class="graph" transform="scale(1 1) rotate(0) translate(4 239)">
<title>bufferStatusMsg</title>
<polygon fill="#ffffff" stroke="transparent" points="-4,4 -4,-239 389.3174,-239 389.3174,4 -4,4"/>
<!-- Node43 -->
<g id="node1" class="node">
<title>Node43</title>
<polygon fill="#bfbfbf" stroke="#000000" points="0,-112.5 0,-130.5 88.6367,-130.5 88.6367,-112.5 0,-112.5"/>
<text text-anchor="middle" x="44.3184" y="-118.5" font-family="Helvetica,sans-Serif" font-size="10.00" fill="#000000">bufferStatusMsg</text>
</g>
<!-- Node44 -->
<g id="node2" class="node">
<title>Node44</title>
<g id="a_node2"><a xlink:href="../../d5/d60/pps-client_8cpp.html#aaed9f7309f80d45af2c4aecf5eff8e41" target="_top" xlink:title="getInterruptDelay">
<polygon fill="#ffffff" stroke="#ff0000" points="289.7373,-216.5 289.7373,-234.5 382.4463,-234.5 382.4463,-216.5 289.7373,-216.5"/>
<text text-anchor="middle" x="336.0918" y="-222.5" font-family="Helvetica,sans-Serif" font-size="10.00" fill="#000000">getInterruptDelay</text>
</a>
</g>
</g>
<!-- Node43&#45;&gt;Node44 -->
<g id="edge1" class="edge">
<title>Node43&#45;&gt;Node44</title>
<path fill="none" stroke="#191970" d="M56.9336,-138.5976C71.2035,-156.5277 96.1912,-183.9442 124.6367,-197.5 177.2881,-222.5912 245.1922,-227.4068 289.6517,-227.398"/>
<polygon fill="#191970" stroke="#191970" points="59.6955,-136.4476 50.8211,-130.6599 54.1493,-140.7185 59.6955,-136.4476"/>
</g>
<!-- Node47 -->
<g id="node3" class="node">
<title>Node47</title>
<g id="a_node3"><a xlink:href="../../d5/d60/pps-client_8cpp.html#a86496ba51a12c38a52f57267412a096a" target="_top" xlink:title="readPPS_SetTime">
<polygon fill="#ffffff" stroke="#ff0000" points="286.8662,-160.5 286.8662,-178.5 385.3174,-178.5 385.3174,-160.5 286.8662,-160.5"/>
<text text-anchor="middle" x="336.0918" y="-166.5" font-family="Helvetica,sans-Serif" font-size="10.00" fill="#000000">readPPS_SetTime</text>
</a>
</g>
</g>
<!-- Node43&#45;&gt;Node47 -->
<g id="edge2" class="edge">
<title>Node43&#45;&gt;Node47</title>
<path fill="none" stroke="#191970" d="M60.5905,-137.7453C75.7154,-151.6078 99.6198,-170.5251 124.6367,-178.5 183.6259,-197.3045 256.5703,-187.4556 299.5433,-178.5261"/>
<polygon fill="#191970" stroke="#191970" points="62.7999,-135.0166 53.1397,-130.6655 57.9781,-140.0911 62.7999,-135.0166"/>
</g>
<!-- Node46 -->
<g id="node4" class="node">
<title>Node46</title>
<g id="a_node4"><a xlink:href="../../d5/d60/pps-client_8cpp.html#a0ddf1224851353fc92bfbff6f499fa97" target="_top" xlink:title="main">
<polygon fill="#ffffff" stroke="#000000" points="317.2544,-123.5 317.2544,-141.5 354.9292,-141.5 354.9292,-123.5 317.2544,-123.5"/>
<text text-anchor="middle" x="336.0918" y="-129.5" font-family="Helvetica,sans-Serif" font-size="10.00" fill="#000000">main</text>
</a>
</g>
</g>
<!-- Node43&#45;&gt;Node46 -->
<g id="edge3" class="edge">
<title>Node43&#45;&gt;Node46</title>
<path fill="none" stroke="#191970" d="M99.2147,-123.5696C165.5045,-126.0688 273.5172,-130.1409 317.033,-131.7815"/>
<polygon fill="#191970" stroke="#191970" points="99.0749,-120.062 88.9501,-123.1826 98.8111,-127.057 99.0749,-120.062"/>
</g>
<!-- Node48 -->
<g id="node5" class="node">
<title>Node48</title>
<g id="a_node5"><a xlink:href="../../d0/d3e/pps-files_8cpp.html#a01969eeb557969d5dbd30f22e2cdecc3" target="_top" xlink:title="writeToLogNoTimestamp">
<polygon fill="#ffffff" stroke="#ff0000" points="124.6367,-74.5 124.6367,-92.5 250.8662,-92.5 250.8662,-74.5 124.6367,-74.5"/>
<text text-anchor="middle" x="187.7515" y="-80.5" font-family="Helvetica,sans-Serif" font-size="10.00" fill="#000000">writeToLogNoTimestamp</text>
</a>
</g>
</g>
<!-- Node43&#45;&gt;Node48 -->
<g id="edge4" class="edge">
<title>Node43&#45;&gt;Node48</title>
<path fill="none" stroke="#191970" d="M87.9794,-109.9328C109.0119,-104.3606 133.8664,-97.7759 153.5067,-92.5725"/>
<polygon fill="#191970" stroke="#191970" points="87.0802,-106.5502 78.31,-112.4945 88.8729,-113.3168 87.0802,-106.5502"/>
</g>
<!-- Node50 -->
<g id="node6" class="node">
<title>Node50</title>
<g id="a_node6"><a xlink:href="../../d0/d3e/pps-files_8cpp.html#ae20c07f56a5b2b05b636f6a0a31ce214" target="_top" xlink:title="writeToLog">
<polygon fill="#ffffff" stroke="#ff0000" points="155.5718,-150.5 155.5718,-168.5 219.9312,-168.5 219.9312,-150.5 155.5718,-150.5"/>
<text text-anchor="middle" x="187.7515" y="-156.5" font-family="Helvetica,sans-Serif" font-size="10.00" fill="#000000">writeToLog</text>
</a>
</g>
</g>
<!-- Node43&#45;&gt;Node50 -->
<g id="edge5" class="edge">
<title>Node43&#45;&gt;Node50</title>
<path fill="none" stroke="#191970" d="M87.9773,-133.0666C109.7216,-138.8274 135.5513,-145.6705 155.4813,-150.9506"/>
<polygon fill="#191970" stroke="#191970" points="88.8729,-129.6832 78.31,-130.5055 87.0802,-136.4498 88.8729,-129.6832"/>
</g>
<!-- Node93 -->
<g id="node7" class="node">
<title>Node93</title>
<g id="a_node7"><a xlink:href="../../d0/d3e/pps-files_8cpp.html#a99055dd0dc705a74bb0b3ab03fea92e3" target="_top" xlink:title="bufferStateParams">
<polygon fill="#ffffff" stroke="#ff0000" points="138.1523,-37.5 138.1523,-55.5 237.3506,-55.5 237.3506,-37.5 138.1523,-37.5"/>
<text text-anchor="middle" x="187.7515" y="-43.5" font-family="Helvetica,sans-Serif" font-size="10.00" fill="#000000">bufferStateParams</text>
</a>
</g>
</g>
<!-- Node43&#45;&gt;Node93 -->
<g id="edge9" class="edge">
<title>Node43&#45;&gt;Node93</title>
<path fill="none" stroke="#191970" d="M62.8028,-105.6005C78.3852,-92.9077 101.7454,-75.4874 124.6367,-64.5 132.0328,-60.95 140.261,-57.9731 148.2683,-55.5276"/>
<polygon fill="#191970" stroke="#191970" points="60.4465,-103.008 54.9985,-112.0949 64.924,-108.3887 60.4465,-103.008"/>
</g>
<!-- Node99 -->
<g id="node8" class="node">
<title>Node99</title>
<g id="a_node8"><a xlink:href="../../df/d28/pps-serial_8cpp.html#a90b59dcade2c7323b79780215baae4fd" target="_top" xlink:title="makeSerialTimeQuery">
<polygon fill="#ffffff" stroke="#ff0000" points="130.1982,-.5 130.1982,-18.5 245.3047,-18.5 245.3047,-.5 130.1982,-.5"/>
<text text-anchor="middle" x="187.7515" y="-6.5" font-family="Helvetica,sans-Serif" font-size="10.00" fill="#000000">makeSerialTimeQuery</text>
</a>
</g>
</g>
<!-- Node43&#45;&gt;Node99 -->
<g id="edge10" class="edge">
<title>Node43&#45;&gt;Node99</title>
<path fill="none" stroke="#191970" d="M54.8257,-103.7904C68.3378,-82.5428 93.779,-47.3125 124.6367,-27.5 130.3896,-23.8063 136.9128,-20.8553 143.5293,-18.5017"/>
<polygon fill="#191970" stroke="#191970" points="51.7476,-102.1139 49.4803,-112.4633 57.7067,-105.7868 51.7476,-102.1139"/>
</g>
<!-- Node50&#45;&gt;Node44 -->
<g id="edge6" class="edge">
<title>Node50&#45;&gt;Node44</title>
<path fill="none" stroke="#191970" d="M217.3259,-172.6583C246.4138,-185.6002 290.0567,-205.0179 315.5461,-216.3587"/>
<polygon fill="#191970" stroke="#191970" points="218.6258,-169.4059 208.0665,-168.5386 215.7802,-175.8015 218.6258,-169.4059"/>
</g>
<!-- Node50&#45;&gt;Node47 -->
<g id="edge7" class="edge">
<title>Node50&#45;&gt;Node47</title>
<path fill="none" stroke="#191970" d="M229.97,-162.3461C247.6634,-163.5388 268.3558,-164.9337 286.7465,-166.1735"/>
<polygon fill="#191970" stroke="#191970" points="230.1519,-158.8505 219.9391,-161.6699 229.681,-165.8346 230.1519,-158.8505"/>
</g>
<!-- Node50&#45;&gt;Node46 -->
<g id="edge8" class="edge">
<title>Node50&#45;&gt;Node46</title>
<path fill="none" stroke="#191970" d="M230.1066,-151.7908C258.7782,-146.5721 295.2759,-139.9291 317.1018,-135.9564"/>
<polygon fill="#191970" stroke="#191970" points="229.1507,-148.4072 219.9391,-153.6414 230.4042,-155.294 229.1507,-148.4072"/>
</g>
</g>
</svg>
