<?xml version="1.0" encoding="UTF-8" standalone="no"?>
<!DOCTYPE svg PUBLIC "-//W3C//DTD SVG 1.1//EN"
 "http://www.w3.org/Graphics/SVG/1.1/DTD/svg11.dtd">
<!-- Generated by graphviz version 2.40.1 (20161225.0304)
 -->
<!-- Title: writeFileMsgToLogbuf Pages: 1 -->
<svg width="257pt" height="64pt"
 viewBox="0.00 0.00 256.63 64.00" xmlns="http://www.w3.org/2000/svg" xmlns:xlink="http://www.w3.org/1999/xlink">
<g id="graph0" class="graph" transform="scale(1 1) rotate(0) translate(4 60)">
<title>writeFileMsgToLogbuf</title>
<polygon fill="#ffffff" stroke="transparent" points="-4,4 -4,-60 252.6299,-60 252.6299,4 -4,4"/>
<!-- Node574 -->
<g id="node1" class="node">
<title>Node574</title>
<polygon fill="#bfbfbf" stroke="#000000" points="0,-18.5 0,-36.5 113.2656,-36.5 113.2656,-18.5 0,-18.5"/>
<text text-anchor="middle" x="56.6328" y="-24.5" font-family="Helvetica,sans-Serif" font-size="10.00" fill="#000000">writeFileMsgToLogbuf</text>
</g>
<!-- Node575 -->
<g id="node2" class="node">
<title>Node575</title>
<g id="a_node2"><a xlink:href="../../d0/d3e/pps-files_8cpp.html#a2f76a2c4a4ca7cc05e6110eb49378ad1" target="_top" xlink:title="writeFileMsgToLog">
<polygon fill="#ffffff" stroke="#ff0000" points="149.2656,-37.5 149.2656,-55.5 248.6299,-55.5 248.6299,-37.5 149.2656,-37.5"/>
<text text-anchor="middle" x="198.9478" y="-43.5" font-family="Helvetica,sans-Serif" font-size="10.00" fill="#000000">writeFileMsgToLog</text>
</a>
</g>
</g>
<!-- Node574&#45;&gt;Node575 -->
<g id="edge1" class="edge">
<title>Node574&#45;&gt;Node575</title>
<path fill="none" stroke="#191970" d="M123.3305,-36.4046C131.9451,-37.5547 140.6473,-38.7165 148.9292,-39.8222"/>
<polygon fill="#191970" stroke="#191970" points="123.6636,-32.9181 113.2884,-35.0639 122.7372,-39.8565 123.6636,-32.9181"/>
</g>
<!-- Node580 -->
<g id="node3" class="node">
<title>Node580</title>
<g id="a_node3"><a xlink:href="../../dc/d4f/pps-sntp_8cpp.html#aa86ca22d55c1290a2392299c7097b471" target="_top" xlink:title="getServerTime">
<polygon fill="#ffffff" stroke="#ff0000" points="158.3428,-.5 158.3428,-18.5 239.5527,-18.5 239.5527,-.5 158.3428,-.5"/>
<text text-anchor="middle" x="198.9478" y="-6.5" font-family="Helvetica,sans-Serif" font-size="10.00" fill="#000000">getServerTime</text>
</a>
</g>
</g>
<!-- Node574&#45;&gt;Node580 -->
<g id="edge2" class="edge">
<title>Node574&#45;&gt;Node580</title>
<path fill="none" stroke="#191970" d="M123.2566,-19.0734C135.207,-17.5619 147.3285,-16.0288 158.2657,-14.6455"/>
<polygon fill="#191970" stroke="#191970" points="122.7701,-15.607 113.2884,-20.3342 123.6485,-22.5516 122.7701,-15.607"/>
</g>
</g>
</svg>
