<?xml version="1.0" encoding="UTF-8" standalone="no"?>
<!DOCTYPE svg PUBLIC "-//W3C//DTD SVG 1.1//EN"
 "http://www.w3.org/Graphics/SVG/1.1/DTD/svg11.dtd">
<!-- Generated by graphviz version 2.40.1 (20161225.0304)
 -->
<!-- Title: ppsIsRunning Pages: 1 -->
<svg width="299pt" height="46pt"
 viewBox="0.00 0.00 298.64 46.00" xmlns="http://www.w3.org/2000/svg" xmlns:xlink="http://www.w3.org/1999/xlink">
<g id="graph0" class="graph" transform="scale(1 1) rotate(0) translate(4 42)">
<title>ppsIsRunning</title>
<polygon fill="#ffffff" stroke="transparent" points="-4,4 -4,-42 294.6396,-42 294.6396,4 -4,4"/>
<!-- Node395 -->
<g id="node1" class="node">
<title>Node395</title>
<polygon fill="#bfbfbf" stroke="#000000" points="0,-.5 0,-18.5 77.1523,-18.5 77.1523,-.5 0,-.5"/>
<text text-anchor="middle" x="38.5762" y="-6.5" font-family="Helvetica,sans-Serif" font-size="10.00" fill="#000000">ppsIsRunning</text>
</g>
<!-- Node396 -->
<g id="node2" class="node">
<title>Node396</title>
<g id="a_node2"><a xlink:href="../../d0/d3e/pps-files_8cpp.html#a19da05b45d1e94170f5fe86decb70bfb" target="_top" xlink:title="sysCommand">
<polygon fill="#ffffff" stroke="#000000" points="113.1523,-19.5 113.1523,-37.5 190.2803,-37.5 190.2803,-19.5 113.1523,-19.5"/>
<text text-anchor="middle" x="151.7163" y="-25.5" font-family="Helvetica,sans-Serif" font-size="10.00" fill="#000000">sysCommand</text>
</a>
</g>
</g>
<!-- Node395&#45;&gt;Node396 -->
<g id="edge1" class="edge">
<title>Node395&#45;&gt;Node396</title>
<path fill="none" stroke="#191970" d="M77.1961,-15.9856C85.4781,-17.3764 94.3327,-18.8634 102.9418,-20.3091"/>
<polygon fill="#191970" stroke="#191970" points="102.4447,-23.7746 112.8863,-21.9791 103.604,-16.8712 102.4447,-23.7746"/>
</g>
<!-- Node397 -->
<g id="node3" class="node">
<title>Node397</title>
<g id="a_node3"><a xlink:href="../../d0/d3e/pps-files_8cpp.html#ae20c07f56a5b2b05b636f6a0a31ce214" target="_top" xlink:title="writeToLog">
<polygon fill="#ffffff" stroke="#ff0000" points="226.2803,-.5 226.2803,-18.5 290.6396,-18.5 290.6396,-.5 226.2803,-.5"/>
<text text-anchor="middle" x="258.46" y="-6.5" font-family="Helvetica,sans-Serif" font-size="10.00" fill="#000000">writeToLog</text>
</a>
</g>
</g>
<!-- Node395&#45;&gt;Node397 -->
<g id="edge3" class="edge">
<title>Node395&#45;&gt;Node397</title>
<path fill="none" stroke="#191970" d="M77.3808,-9.5C116.2828,-9.5 176.0092,-9.5 216.118,-9.5"/>
<polygon fill="#191970" stroke="#191970" points="216.1197,-13.0001 226.1197,-9.5 216.1196,-6.0001 216.1197,-13.0001"/>
</g>
<!-- Node396&#45;&gt;Node397 -->
<g id="edge2" class="edge">
<title>Node396&#45;&gt;Node397</title>
<path fill="none" stroke="#191970" d="M190.5552,-21.5868C198.8615,-20.1083 207.6763,-18.5393 216.1074,-17.0386"/>
<polygon fill="#191970" stroke="#191970" points="216.9095,-20.4509 226.1414,-15.2526 215.6828,-13.5593 216.9095,-20.4509"/>
</g>
</g>
</svg>
