<?xml version="1.0" encoding="UTF-8" standalone="no"?>
<!DOCTYPE svg PUBLIC "-//W3C//DTD SVG 1.1//EN"
 "http://www.w3.org/Graphics/SVG/1.1/DTD/svg11.dtd">
<!-- Generated by graphviz version 2.40.1 (20161225.0304)
 -->
<!-- Title: restartNTP Pages: 1 -->
<svg width="176pt" height="64pt"
 viewBox="0.00 0.00 176.03 64.00" xmlns="http://www.w3.org/2000/svg" xmlns:xlink="http://www.w3.org/1999/xlink">
<g id="graph0" class="graph" transform="scale(1 1) rotate(0) translate(4 60)">
<title>restartNTP</title>
<polygon fill="#ffffff" stroke="transparent" points="-4,4 -4,-60 172.0293,-60 172.0293,4 -4,4"/>
<!-- Node495 -->
<g id="node1" class="node">
<title>Node495</title>
<polygon fill="#bfbfbf" stroke="#000000" points="0,-18.5 0,-36.5 64.3398,-36.5 64.3398,-18.5 0,-18.5"/>
<text text-anchor="middle" x="32.1699" y="-24.5" font-family="Helvetica,sans-Serif" font-size="10.00" fill="#000000">restartNTP</text>
</g>
<!-- Node496 -->
<g id="node2" class="node">
<title>Node496</title>
<g id="a_node2"><a xlink:href="../../d0/d3e/pps-files_8cpp.html#a63902ed5404b3607594a3ad7d080da10" target="_top" xlink:title="disableNTP">
<polygon fill="#ffffff" stroke="#ff0000" points="100.3398,-37.5 100.3398,-55.5 168.0293,-55.5 168.0293,-37.5 100.3398,-37.5"/>
<text text-anchor="middle" x="134.1846" y="-43.5" font-family="Helvetica,sans-Serif" font-size="10.00" fill="#000000">disableNTP</text>
</a>
</g>
</g>
<!-- Node495&#45;&gt;Node496 -->
<g id="edge1" class="edge">
<title>Node495&#45;&gt;Node496</title>
<path fill="none" stroke="#191970" d="M74.2821,-35.3433C82.8457,-36.9383 91.7545,-38.5975 100.0024,-40.1336"/>
<polygon fill="#191970" stroke="#191970" points="74.9198,-31.902 64.448,-33.5117 73.6381,-38.7836 74.9198,-31.902"/>
</g>
<!-- Node498 -->
<g id="node3" class="node">
<title>Node498</title>
<g id="a_node3"><a xlink:href="../../d0/d3e/pps-files_8cpp.html#a6354b54021f614ab3ab87ef5b3df64d0" target="_top" xlink:title="enableNTP">
<polygon fill="#ffffff" stroke="#ff0000" points="101.1699,-.5 101.1699,-18.5 167.1992,-18.5 167.1992,-.5 101.1699,-.5"/>
<text text-anchor="middle" x="134.1846" y="-6.5" font-family="Helvetica,sans-Serif" font-size="10.00" fill="#000000">enableNTP</text>
</a>
</g>
</g>
<!-- Node495&#45;&gt;Node498 -->
<g id="edge2" class="edge">
<title>Node495&#45;&gt;Node498</title>
<path fill="none" stroke="#191970" d="M74.3051,-20.0654C83.2302,-18.4907 92.5292,-16.8499 101.0633,-15.3441"/>
<polygon fill="#191970" stroke="#191970" points="73.6877,-16.6202 64.448,-21.8047 74.9041,-23.5138 73.6877,-16.6202"/>
</g>
</g>
</svg>
