<?xml version="1.0" encoding="UTF-8" standalone="no"?>
<!DOCTYPE svg PUBLIC "-//W3C//DTD SVG 1.1//EN"
 "http://www.w3.org/Graphics/SVG/1.1/DTD/svg11.dtd">
<!-- Generated by graphviz version 2.36.0 (20140111.2315)
 -->
<!-- Title: open_logerr Pages: 1 -->
<svg width="400pt" height="665pt"
 viewBox="0.00 0.00 400.00 665.30" xmlns="http://www.w3.org/2000/svg" xmlns:xlink="http://www.w3.org/1999/xlink">
<g id="graph0" class="graph" transform="scale(1 1) rotate(0) translate(4 661.298)">
<title>open_logerr</title>
<polygon fill="white" stroke="none" points="-4,4 -4,-661.298 396,-661.298 396,4 -4,4"/>
<!-- Node1 -->
<g id="node1" class="node"><title>Node1</title>
<polygon fill="#bfbfbf" stroke="black" points="0.5,-323.5 0.5,-342.5 67.5,-342.5 67.5,-323.5 0.5,-323.5"/>
<text text-anchor="middle" x="34" y="-330.5" font-family="Helvetica,sans-Serif" font-size="10.00">open_logerr</text>
</g>
<!-- Node2 -->
<g id="node2" class="node"><title>Node2</title>
<g id="a_node2"><a xlink:href="../../d5/d60/pps-client_8cpp.html#a0ddf1224851353fc92bfbff6f499fa97" target="_top" xlink:title="main">
<polygon fill="white" stroke="black" points="354,-285.5 354,-304.5 392,-304.5 392,-285.5 354,-285.5"/>
<text text-anchor="middle" x="373" y="-292.5" font-family="Helvetica,sans-Serif" font-size="10.00">main</text>
</a>
</g>
</g>
<!-- Node1&#45;&gt;Node2 -->
<g id="edge1" class="edge"><title>Node1&#45;&gt;Node2</title>
<path fill="none" stroke="midnightblue" d="M36.3882,-352.992C41.1377,-414.841 59.0037,-601.072 104,-637 140.121,-665.841 168.854,-661.578 208,-637 334.036,-557.869 365.354,-351.913 370.964,-304.729"/>
<polygon fill="midnightblue" stroke="midnightblue" points="39.8523,-352.373 35.6295,-342.657 32.8711,-352.886 39.8523,-352.373"/>
</g>
<!-- Node3 -->
<g id="node3" class="node"><title>Node3</title>
<g id="a_node3"><a xlink:href="../../d0/d3e/pps-files_8cpp.html#afdccb305ab5e5c4f3402fe7969c6737b" target="_top" xlink:title="writeStatusStrings">
<polygon fill="white" stroke="red" points="107.5,-608.5 107.5,-627.5 204.5,-627.5 204.5,-608.5 107.5,-608.5"/>
<text text-anchor="middle" x="156" y="-615.5" font-family="Helvetica,sans-Serif" font-size="10.00">writeStatusStrings</text>
</a>
</g>
</g>
<!-- Node1&#45;&gt;Node3 -->
<g id="edge2" class="edge"><title>Node1&#45;&gt;Node3</title>
<path fill="none" stroke="midnightblue" d="M34.3118,-352.755C33.7163,-401.135 38.912,-526.851 104,-599 107.481,-602.859 111.82,-605.936 116.488,-608.39"/>
<polygon fill="midnightblue" stroke="midnightblue" points="37.8126,-352.754 34.5388,-342.678 30.8143,-352.596 37.8126,-352.754"/>
</g>
<!-- Node4 -->
<g id="node4" class="node"><title>Node4</title>
<g id="a_node4"><a xlink:href="../../d0/d3e/pps-files_8cpp.html#ab03cf9b5563affdcf46a4ca95d4ff4ed" target="_top" xlink:title="getChildPID">
<polygon fill="white" stroke="black" points="121,-570.5 121,-589.5 191,-589.5 191,-570.5 121,-570.5"/>
<text text-anchor="middle" x="156" y="-577.5" font-family="Helvetica,sans-Serif" font-size="10.00">getChildPID</text>
</a>
</g>
</g>
<!-- Node1&#45;&gt;Node4 -->
<g id="edge3" class="edge"><title>Node1&#45;&gt;Node4</title>
<path fill="none" stroke="midnightblue" d="M35.9209,-352.917C38.8895,-395.3 51.3983,-495.48 104,-556 109.392,-562.204 116.737,-566.921 124.172,-570.458"/>
<polygon fill="midnightblue" stroke="midnightblue" points="39.4064,-352.568 35.3214,-342.793 32.4187,-352.982 39.4064,-352.568"/>
</g>
<!-- Node5 -->
<g id="node5" class="node"><title>Node5</title>
<g id="a_node5"><a xlink:href="../../d0/d3e/pps-files_8cpp.html#a9942302e3e5272291f62fda42bdf6319" target="_top" xlink:title="createPIDfile">
<polygon fill="white" stroke="black" points="244,-380.5 244,-399.5 318,-399.5 318,-380.5 244,-380.5"/>
<text text-anchor="middle" x="281" y="-387.5" font-family="Helvetica,sans-Serif" font-size="10.00">createPIDfile</text>
</a>
</g>
</g>
<!-- Node1&#45;&gt;Node5 -->
<g id="edge4" class="edge"><title>Node1&#45;&gt;Node5</title>
<path fill="none" stroke="midnightblue" d="M35.3083,-352.85C37.1375,-393.027 47.6398,-483.506 104,-523 141.854,-549.526 168.291,-546.658 208,-523 254.693,-495.182 272.95,-425.392 278.228,-399.695"/>
<polygon fill="midnightblue" stroke="midnightblue" points="38.8026,-352.612 34.9878,-342.728 31.8061,-352.833 38.8026,-352.612"/>
</g>
<!-- Node6 -->
<g id="node6" class="node"><title>Node6</title>
<g id="a_node6"><a xlink:href="../../d0/d3e/pps-files_8cpp.html#a7192857cf334ce14c00dd49dca3c541a" target="_top" xlink:title="readConfigFile">
<polygon fill="white" stroke="red" points="116,-494.5 116,-513.5 196,-513.5 196,-494.5 116,-494.5"/>
<text text-anchor="middle" x="156" y="-501.5" font-family="Helvetica,sans-Serif" font-size="10.00">readConfigFile</text>
</a>
</g>
</g>
<!-- Node1&#45;&gt;Node6 -->
<g id="edge6" class="edge"><title>Node1&#45;&gt;Node6</title>
<path fill="none" stroke="midnightblue" d="M38.8069,-352.6C46.0066,-384.61 64.5695,-448.219 104,-485 108.146,-488.867 113.149,-491.965 118.382,-494.442"/>
<polygon fill="midnightblue" stroke="midnightblue" points="42.2057,-351.754 36.7187,-342.691 35.3562,-353.198 42.2057,-351.754"/>
</g>
<!-- Node7 -->
<g id="node7" class="node"><title>Node7</title>
<g id="a_node7"><a xlink:href="../../d0/d3e/pps-files_8cpp.html#aa688c89aacc832cc1e7ef6ff1be6541e" target="_top" xlink:title="writeDistribution">
<polygon fill="white" stroke="red" points="112.5,-456.5 112.5,-475.5 199.5,-475.5 199.5,-456.5 112.5,-456.5"/>
<text text-anchor="middle" x="156" y="-463.5" font-family="Helvetica,sans-Serif" font-size="10.00">writeDistribution</text>
</a>
</g>
</g>
<!-- Node1&#45;&gt;Node7 -->
<g id="edge7" class="edge"><title>Node1&#45;&gt;Node7</title>
<path fill="none" stroke="midnightblue" d="M41.9863,-352.262C52.0227,-377.389 72.8161,-421.18 104,-447 108.658,-450.857 114.174,-453.972 119.829,-456.477"/>
<polygon fill="midnightblue" stroke="midnightblue" points="45.1867,-350.832 38.3446,-342.743 38.6488,-353.333 45.1867,-350.832"/>
</g>
<!-- Node8 -->
<g id="node8" class="node"><title>Node8</title>
<g id="a_node8"><a xlink:href="../../d0/d3e/pps-files_8cpp.html#a82969e14917a0330c7a2174bea9af5d6" target="_top" xlink:title="writeMultipleDistrib">
<polygon fill="white" stroke="red" points="106,-418.5 106,-437.5 206,-437.5 206,-418.5 106,-418.5"/>
<text text-anchor="middle" x="156" y="-425.5" font-family="Helvetica,sans-Serif" font-size="10.00">writeMultipleDistrib</text>
</a>
</g>
</g>
<!-- Node1&#45;&gt;Node8 -->
<g id="edge8" class="edge"><title>Node1&#45;&gt;Node8</title>
<path fill="none" stroke="midnightblue" d="M47.3945,-351.016C59.9224,-368.034 80.7158,-393.236 104,-409 109.555,-412.761 115.952,-415.897 122.296,-418.466"/>
<polygon fill="midnightblue" stroke="midnightblue" points="49.9825,-348.618 41.3215,-342.516 44.2867,-352.687 49.9825,-348.618"/>
</g>
<!-- Node9 -->
<g id="node9" class="node"><title>Node9</title>
<g id="a_node9"><a xlink:href="../../d0/d3e/pps-files_8cpp.html#a73e9f77c69f58e616293b5ca5126e77f" target="_top" xlink:title="writeOffsets">
<polygon fill="white" stroke="red" points="121,-380.5 121,-399.5 191,-399.5 191,-380.5 121,-380.5"/>
<text text-anchor="middle" x="156" y="-387.5" font-family="Helvetica,sans-Serif" font-size="10.00">writeOffsets</text>
</a>
</g>
</g>
<!-- Node1&#45;&gt;Node9 -->
<g id="edge9" class="edge"><title>Node1&#45;&gt;Node9</title>
<path fill="none" stroke="midnightblue" d="M59.6161,-347.708C72.5852,-355.161 88.8958,-364.073 104,-371 111.386,-374.387 119.565,-377.643 127.171,-380.473"/>
<polygon fill="midnightblue" stroke="midnightblue" points="61.2308,-344.599 50.8282,-342.589 57.7074,-350.647 61.2308,-344.599"/>
</g>
<!-- Node10 -->
<g id="node10" class="node"><title>Node10</title>
<g id="a_node10"><a xlink:href="../../d0/d3e/pps-files_8cpp.html#a493e043705885cfcebc5ac807989eb4d" target="_top" xlink:title="writeFrequencyVars">
<polygon fill="white" stroke="red" points="104,-342.5 104,-361.5 208,-361.5 208,-342.5 104,-342.5"/>
<text text-anchor="middle" x="156" y="-349.5" font-family="Helvetica,sans-Serif" font-size="10.00">writeFrequencyVars</text>
</a>
</g>
</g>
<!-- Node1&#45;&gt;Node10 -->
<g id="edge10" class="edge"><title>Node1&#45;&gt;Node10</title>
<path fill="none" stroke="midnightblue" d="M77.7643,-339.771C86.1831,-341.104 95.0967,-342.515 103.761,-343.887"/>
<polygon fill="midnightblue" stroke="midnightblue" points="78.2149,-336.299 67.7905,-338.192 77.1201,-343.213 78.2149,-336.299"/>
</g>
<!-- Node11 -->
<g id="node11" class="node"><title>Node11</title>
<g id="a_node11"><a xlink:href="../../d0/d3e/pps-files_8cpp.html#a4e1eee07f00ecb77c3ae3f508744f610" target="_top" xlink:title="saveDoubleArray">
<polygon fill="white" stroke="red" points="110,-304.5 110,-323.5 202,-323.5 202,-304.5 110,-304.5"/>
<text text-anchor="middle" x="156" y="-311.5" font-family="Helvetica,sans-Serif" font-size="10.00">saveDoubleArray</text>
</a>
</g>
</g>
<!-- Node1&#45;&gt;Node11 -->
<g id="edge11" class="edge"><title>Node1&#45;&gt;Node11</title>
<path fill="none" stroke="midnightblue" d="M77.8198,-326.22C88.1471,-324.585 99.216,-322.832 109.655,-321.18"/>
<polygon fill="midnightblue" stroke="midnightblue" points="77.1201,-322.787 67.7905,-327.808 78.2149,-329.701 77.1201,-322.787"/>
</g>
<!-- Node12 -->
<g id="node12" class="node"><title>Node12</title>
<g id="a_node12"><a xlink:href="../../d0/d3e/pps-files_8cpp.html#af916d258db5da33fc999021de2722283" target="_top" xlink:title="writeSysDelay">
<polygon fill="white" stroke="red" points="116,-266.5 116,-285.5 196,-285.5 196,-266.5 116,-266.5"/>
<text text-anchor="middle" x="156" y="-273.5" font-family="Helvetica,sans-Serif" font-size="10.00">writeSysDelay</text>
</a>
</g>
</g>
<!-- Node1&#45;&gt;Node12 -->
<g id="edge12" class="edge"><title>Node1&#45;&gt;Node12</title>
<path fill="none" stroke="midnightblue" d="M59.6161,-318.292C72.5852,-310.839 88.8958,-301.927 104,-295 111.386,-291.613 119.565,-288.357 127.171,-285.527"/>
<polygon fill="midnightblue" stroke="midnightblue" points="57.7074,-315.353 50.8282,-323.411 61.2308,-321.401 57.7074,-315.353"/>
</g>
<!-- Node13 -->
<g id="node13" class="node"><title>Node13</title>
<g id="a_node13"><a xlink:href="../../d0/d3e/pps-files_8cpp.html#aad53ec22f551c789425b2870f59fbae9" target="_top" xlink:title="writeTimestamp">
<polygon fill="white" stroke="red" points="113,-228.5 113,-247.5 199,-247.5 199,-228.5 113,-228.5"/>
<text text-anchor="middle" x="156" y="-235.5" font-family="Helvetica,sans-Serif" font-size="10.00">writeTimestamp</text>
</a>
</g>
</g>
<!-- Node1&#45;&gt;Node13 -->
<g id="edge13" class="edge"><title>Node1&#45;&gt;Node13</title>
<path fill="none" stroke="midnightblue" d="M47.3945,-314.984C59.9224,-297.966 80.7158,-272.764 104,-257 109.555,-253.239 115.952,-250.103 122.296,-247.534"/>
<polygon fill="midnightblue" stroke="midnightblue" points="44.2867,-313.313 41.3215,-323.484 49.9825,-317.382 44.2867,-313.313"/>
</g>
<!-- Node14 -->
<g id="node14" class="node"><title>Node14</title>
<g id="a_node14"><a xlink:href="../../d0/d3e/pps-files_8cpp.html#a180a91d8d62c36158e3b769ac35aa01e" target="_top" xlink:title="replaceNTPConfig">
<polygon fill="white" stroke="black" points="107.5,-152.5 107.5,-171.5 204.5,-171.5 204.5,-152.5 107.5,-152.5"/>
<text text-anchor="middle" x="156" y="-159.5" font-family="Helvetica,sans-Serif" font-size="10.00">replaceNTPConfig</text>
</a>
</g>
</g>
<!-- Node1&#45;&gt;Node14 -->
<g id="edge14" class="edge"><title>Node1&#45;&gt;Node14</title>
<path fill="none" stroke="midnightblue" d="M39.5562,-313.546C47.6553,-282.817 67.2659,-222.77 104,-186 110.086,-179.908 118.014,-175.168 125.799,-171.571"/>
<polygon fill="midnightblue" stroke="midnightblue" points="36.1119,-312.892 37.0828,-323.443 42.903,-314.59 36.1119,-312.892"/>
</g>
<!-- Node15 -->
<g id="node15" class="node"><title>Node15</title>
<g id="a_node15"><a xlink:href="../../d0/d3e/pps-files_8cpp.html#a63902ed5404b3607594a3ad7d080da10" target="_top" xlink:title="disableNTP">
<polygon fill="white" stroke="black" points="247,-190.5 247,-209.5 315,-209.5 315,-190.5 247,-190.5"/>
<text text-anchor="middle" x="281" y="-197.5" font-family="Helvetica,sans-Serif" font-size="10.00">disableNTP</text>
</a>
</g>
</g>
<!-- Node1&#45;&gt;Node15 -->
<g id="edge19" class="edge"><title>Node1&#45;&gt;Node15</title>
<path fill="none" stroke="midnightblue" d="M40.7084,-313.655C49.5772,-287.352 69.3549,-241.061 104,-219 147.292,-191.432 208.999,-191.746 246.672,-195.297"/>
<polygon fill="midnightblue" stroke="midnightblue" points="37.345,-312.683 37.6534,-323.273 44.0165,-314.802 37.345,-312.683"/>
</g>
<!-- Node16 -->
<g id="node16" class="node"><title>Node16</title>
<g id="a_node16"><a xlink:href="../../d0/d3e/pps-files_8cpp.html#a6354b54021f614ab3ab87ef5b3df64d0" target="_top" xlink:title="enableNTP">
<polygon fill="white" stroke="black" points="248.5,-152.5 248.5,-171.5 313.5,-171.5 313.5,-152.5 248.5,-152.5"/>
<text text-anchor="middle" x="281" y="-159.5" font-family="Helvetica,sans-Serif" font-size="10.00">enableNTP</text>
</a>
</g>
</g>
<!-- Node1&#45;&gt;Node16 -->
<g id="edge20" class="edge"><title>Node1&#45;&gt;Node16</title>
<path fill="none" stroke="midnightblue" d="M35.3083,-313.15C37.1375,-272.973 47.6398,-182.494 104,-143 152.072,-109.314 226.383,-136.47 261.02,-152.432"/>
<polygon fill="midnightblue" stroke="midnightblue" points="31.8061,-313.167 34.9878,-323.272 38.8026,-313.388 31.8061,-313.167"/>
</g>
<!-- Node17 -->
<g id="node17" class="node"><title>Node17</title>
<g id="a_node17"><a xlink:href="../../d0/d3e/pps-files_8cpp.html#a0ff8b8ea02b0483a116f8b5089546ea4" target="_top" xlink:title="copyMajorTo">
<polygon fill="white" stroke="red" points="119.5,-76.5 119.5,-95.5 192.5,-95.5 192.5,-76.5 119.5,-76.5"/>
<text text-anchor="middle" x="156" y="-83.5" font-family="Helvetica,sans-Serif" font-size="10.00">copyMajorTo</text>
</a>
</g>
</g>
<!-- Node1&#45;&gt;Node17 -->
<g id="edge21" class="edge"><title>Node1&#45;&gt;Node17</title>
<path fill="none" stroke="midnightblue" d="M35.9209,-313.083C38.8895,-270.7 51.3983,-170.52 104,-110 109.392,-103.796 116.737,-99.0794 124.172,-95.542"/>
<polygon fill="midnightblue" stroke="midnightblue" points="32.4187,-313.018 35.3214,-323.207 39.4064,-313.432 32.4187,-313.018"/>
</g>
<!-- Node18 -->
<g id="node18" class="node"><title>Node18</title>
<g id="a_node18"><a xlink:href="../../d0/d3e/pps-files_8cpp.html#aa402d7b46a75b43bb077558f5343f3b8" target="_top" xlink:title="daemonSaveArray">
<polygon fill="white" stroke="red" points="107.5,-38.5 107.5,-57.5 204.5,-57.5 204.5,-38.5 107.5,-38.5"/>
<text text-anchor="middle" x="156" y="-45.5" font-family="Helvetica,sans-Serif" font-size="10.00">daemonSaveArray</text>
</a>
</g>
</g>
<!-- Node1&#45;&gt;Node18 -->
<g id="edge22" class="edge"><title>Node1&#45;&gt;Node18</title>
<path fill="none" stroke="midnightblue" d="M34.3118,-313.245C33.7163,-264.865 38.912,-139.149 104,-67 107.481,-63.1414 111.82,-60.0637 116.488,-57.6096"/>
<polygon fill="midnightblue" stroke="midnightblue" points="30.8143,-313.404 34.5388,-323.322 37.8126,-313.246 30.8143,-313.404"/>
</g>
<!-- Node19 -->
<g id="node19" class="node"><title>Node19</title>
<g id="a_node19"><a xlink:href="../../dc/d4f/pps-sntp_8cpp.html#a1121c37b30e0ab417a95d6be065a0666" target="_top" xlink:title="allocNTPServerList">
<polygon fill="white" stroke="red" points="105.5,-0.5 105.5,-19.5 206.5,-19.5 206.5,-0.5 105.5,-0.5"/>
<text text-anchor="middle" x="156" y="-7.5" font-family="Helvetica,sans-Serif" font-size="10.00">allocNTPServerList</text>
</a>
</g>
</g>
<!-- Node1&#45;&gt;Node19 -->
<g id="edge23" class="edge"><title>Node1&#45;&gt;Node19</title>
<path fill="none" stroke="midnightblue" d="M37.0374,-313.243C43.6296,-252.861 66.1732,-72.2433 104,-29 107.422,-25.0885 111.727,-21.9808 116.378,-19.5119"/>
<polygon fill="midnightblue" stroke="midnightblue" points="33.5397,-313.036 35.9618,-323.35 40.5004,-313.777 33.5397,-313.036"/>
</g>
<!-- Node5&#45;&gt;Node2 -->
<g id="edge5" class="edge"><title>Node5&#45;&gt;Node2</title>
<path fill="none" stroke="midnightblue" d="M298.388,-372.701C317.315,-352.723 347.779,-320.566 362.892,-304.614"/>
<polygon fill="midnightblue" stroke="midnightblue" points="295.629,-370.524 291.293,-380.191 300.711,-375.339 295.629,-370.524"/>
</g>
<!-- Node14&#45;&gt;Node15 -->
<g id="edge15" class="edge"><title>Node14&#45;&gt;Node15</title>
<path fill="none" stroke="midnightblue" d="M198.045,-174.68C214.664,-179.815 233.532,-185.644 248.972,-190.414"/>
<polygon fill="midnightblue" stroke="midnightblue" points="198.626,-171.197 188.038,-171.589 196.559,-177.885 198.626,-171.197"/>
</g>
<!-- Node14&#45;&gt;Node16 -->
<g id="edge17" class="edge"><title>Node14&#45;&gt;Node16</title>
<path fill="none" stroke="midnightblue" d="M214.609,-162C226.151,-162 237.876,-162 248.149,-162"/>
<polygon fill="midnightblue" stroke="midnightblue" points="214.555,-158.5 204.555,-162 214.555,-165.5 214.555,-158.5"/>
</g>
<!-- Node15&#45;&gt;Node2 -->
<g id="edge16" class="edge"><title>Node15&#45;&gt;Node2</title>
<path fill="none" stroke="midnightblue" d="M298.388,-217.299C317.315,-237.277 347.779,-269.434 362.892,-285.386"/>
<polygon fill="midnightblue" stroke="midnightblue" points="300.711,-214.661 291.293,-209.809 295.629,-219.476 300.711,-214.661"/>
</g>
<!-- Node16&#45;&gt;Node2 -->
<g id="edge18" class="edge"><title>Node16&#45;&gt;Node2</title>
<path fill="none" stroke="midnightblue" d="M314.094,-177.409C315.478,-178.54 316.79,-179.737 318,-181 348.143,-212.475 364.053,-263.902 369.644,-285.243"/>
<polygon fill="midnightblue" stroke="midnightblue" points="315.843,-174.366 305.605,-171.641 311.909,-180.156 315.843,-174.366"/>
</g>
</g>
</svg>
