<?xml version="1.0" encoding="UTF-8" standalone="no"?>
<!DOCTYPE svg PUBLIC "-//W3C//DTD SVG 1.1//EN"
 "http://www.w3.org/Graphics/SVG/1.1/DTD/svg11.dtd">
<!-- Generated by graphviz version 2.40.1 (20161225.0304)
 -->
<!-- Title: couldNotOpenMsgTo Pages: 1 -->
<svg width="519pt" height="179pt"
 viewBox="0.00 0.00 518.69 179.00" xmlns="http://www.w3.org/2000/svg" xmlns:xlink="http://www.w3.org/1999/xlink">
<g id="graph0" class="graph" transform="scale(1 1) rotate(0) translate(4 175)">
<title>couldNotOpenMsgTo</title>
<polygon fill="#ffffff" stroke="transparent" points="-4,4 -4,-175 514.6914,-175 514.6914,4 -4,4"/>
<!-- Node141 -->
<g id="node1" class="node">
<title>Node141</title>
<polygon fill="#bfbfbf" stroke="#000000" points="0,-76.5 0,-94.5 109.3838,-94.5 109.3838,-76.5 0,-76.5"/>
<text text-anchor="middle" x="54.6919" y="-82.5" font-family="Helvetica,sans-Serif" font-size="10.00" fill="#000000">couldNotOpenMsgTo</text>
</g>
<!-- Node142 -->
<g id="node2" class="node">
<title>Node142</title>
<g id="a_node2"><a xlink:href="../../d0/d3e/pps-files_8cpp.html#a01969eeb557969d5dbd30f22e2cdecc3" target="_top" xlink:title="writeToLogNoTimestamp">
<polygon fill="#ffffff" stroke="#ff0000" points="145.3838,-152.5 145.3838,-170.5 271.6133,-170.5 271.6133,-152.5 145.3838,-152.5"/>
<text text-anchor="middle" x="208.4985" y="-158.5" font-family="Helvetica,sans-Serif" font-size="10.00" fill="#000000">writeToLogNoTimestamp</text>
</a>
</g>
</g>
<!-- Node141&#45;&gt;Node142 -->
<g id="edge1" class="edge">
<title>Node141&#45;&gt;Node142</title>
<path fill="none" stroke="#191970" d="M77.4109,-99.8609C95.4389,-110.9264 121.4946,-126.1953 145.3838,-137.5 157.1457,-143.0659 170.5737,-148.3172 182.0116,-152.4803"/>
<polygon fill="#191970" stroke="#191970" points="79.112,-96.7974 68.7691,-94.5007 75.4223,-102.7461 79.112,-96.7974"/>
</g>
<!-- Node144 -->
<g id="node3" class="node">
<title>Node144</title>
<g id="a_node3"><a xlink:href="../../d0/d3e/pps-files_8cpp.html#ae20c07f56a5b2b05b636f6a0a31ce214" target="_top" xlink:title="writeToLog">
<polygon fill="#ffffff" stroke="#ff0000" points="176.3188,-76.5 176.3188,-94.5 240.6782,-94.5 240.6782,-76.5 176.3188,-76.5"/>
<text text-anchor="middle" x="208.4985" y="-82.5" font-family="Helvetica,sans-Serif" font-size="10.00" fill="#000000">writeToLog</text>
</a>
</g>
</g>
<!-- Node141&#45;&gt;Node144 -->
<g id="edge2" class="edge">
<title>Node141&#45;&gt;Node144</title>
<path fill="none" stroke="#191970" d="M119.8366,-85.5C139.289,-85.5 159.7694,-85.5 176.1399,-85.5"/>
<polygon fill="#191970" stroke="#191970" points="119.7852,-82.0001 109.7852,-85.5 119.7852,-89.0001 119.7852,-82.0001"/>
</g>
<!-- Node171 -->
<g id="node4" class="node">
<title>Node171</title>
<g id="a_node4"><a xlink:href="../../d0/d3e/pps-files_8cpp.html#a94ad6f36dae10e5652ea241b11d2e5c7" target="_top" xlink:title="open_logerr">
<polygon fill="#ffffff" stroke="#ff0000" points="307.6133,-114.5 307.6133,-132.5 376.9873,-132.5 376.9873,-114.5 307.6133,-114.5"/>
<text text-anchor="middle" x="342.3003" y="-120.5" font-family="Helvetica,sans-Serif" font-size="10.00" fill="#000000">open_logerr</text>
</a>
</g>
</g>
<!-- Node141&#45;&gt;Node171 -->
<g id="edge6" class="edge">
<title>Node141&#45;&gt;Node171</title>
<path fill="none" stroke="#191970" d="M103.4328,-96.7422C116.9632,-99.5813 131.6972,-102.4126 145.3838,-104.5 201.7458,-113.0962 267.8111,-118.5332 307.297,-121.2936"/>
<polygon fill="#191970" stroke="#191970" points="103.8695,-93.2564 93.3579,-94.5819 102.4018,-100.1008 103.8695,-93.2564"/>
</g>
<!-- Node187 -->
<g id="node5" class="node">
<title>Node187</title>
<g id="a_node5"><a xlink:href="../../d0/d3e/pps-files_8cpp.html#a180a91d8d62c36158e3b769ac35aa01e" target="_top" xlink:title="replaceNTPConfig">
<polygon fill="#ffffff" stroke="#ff0000" points="412.9873,-76.5 412.9873,-94.5 510.6914,-94.5 510.6914,-76.5 412.9873,-76.5"/>
<text text-anchor="middle" x="461.8394" y="-82.5" font-family="Helvetica,sans-Serif" font-size="10.00" fill="#000000">replaceNTPConfig</text>
</a>
</g>
</g>
<!-- Node141&#45;&gt;Node187 -->
<g id="edge8" class="edge">
<title>Node141&#45;&gt;Node187</title>
<path fill="none" stroke="#191970" d="M101.443,-74.4042C115.4855,-71.5646 130.9861,-68.915 145.3838,-67.5 239.8537,-58.2156 350.6955,-69.6162 412.952,-78.041"/>
<polygon fill="#191970" stroke="#191970" points="100.579,-71.0092 91.5122,-76.4904 102.0182,-77.8596 100.579,-71.0092"/>
</g>
<!-- Node197 -->
<g id="node6" class="node">
<title>Node197</title>
<g id="a_node6"><a xlink:href="../../d0/d3e/pps-files_8cpp.html#a5e4671d51ee126315cb694ef235d359a" target="_top" xlink:title="writeFileMsgToLogbuf">
<polygon fill="#ffffff" stroke="#ff0000" points="151.8657,-.5 151.8657,-18.5 265.1313,-18.5 265.1313,-.5 151.8657,-.5"/>
<text text-anchor="middle" x="208.4985" y="-6.5" font-family="Helvetica,sans-Serif" font-size="10.00" fill="#000000">writeFileMsgToLogbuf</text>
</a>
</g>
</g>
<!-- Node141&#45;&gt;Node197 -->
<g id="edge7" class="edge">
<title>Node141&#45;&gt;Node197</title>
<path fill="none" stroke="#191970" d="M77.4109,-71.1391C95.4389,-60.0736 121.4946,-44.8047 145.3838,-33.5 157.1457,-27.9341 170.5737,-22.6828 182.0116,-18.5197"/>
<polygon fill="#191970" stroke="#191970" points="75.4223,-68.2539 68.7691,-76.4993 79.112,-74.2026 75.4223,-68.2539"/>
</g>
<!-- Node144&#45;&gt;Node171 -->
<g id="edge3" class="edge">
<title>Node144&#45;&gt;Node171</title>
<path fill="none" stroke="#191970" d="M250.0287,-97.2947C269.4766,-102.8179 292.2822,-109.2948 310.3551,-114.4275"/>
<polygon fill="#191970" stroke="#191970" points="250.7835,-93.8707 240.2077,-94.5055 248.871,-100.6044 250.7835,-93.8707"/>
</g>
<!-- Node144&#45;&gt;Node187 -->
<g id="edge5" class="edge">
<title>Node144&#45;&gt;Node187</title>
<path fill="none" stroke="#191970" d="M251.0646,-85.5C295.7135,-85.5 365.7962,-85.5 412.7499,-85.5"/>
<polygon fill="#191970" stroke="#191970" points="250.8417,-82.0001 240.8417,-85.5 250.8416,-89.0001 250.8417,-82.0001"/>
</g>
<!-- Node171&#45;&gt;Node187 -->
<g id="edge4" class="edge">
<title>Node171&#45;&gt;Node187</title>
<path fill="none" stroke="#191970" d="M380.363,-111.4003C397.5246,-105.9449 417.4493,-99.6111 433.2993,-94.5725"/>
<polygon fill="#191970" stroke="#191970" points="379.0991,-108.1294 370.6294,-114.4945 381.2198,-114.8005 379.0991,-108.1294"/>
</g>
</g>
</svg>
