<?xml version="1.0" encoding="UTF-8" standalone="no"?>
<!DOCTYPE svg PUBLIC "-//W3C//DTD SVG 1.1//EN"
 "http://www.w3.org/Graphics/SVG/1.1/DTD/svg11.dtd">
<!-- Generated by graphviz version 2.36.0 (20140111.2315)
 -->
<!-- Title: readConfigFile Pages: 1 -->
<svg width="302pt" height="47pt"
 viewBox="0.00 0.00 302.00 47.00" xmlns="http://www.w3.org/2000/svg" xmlns:xlink="http://www.w3.org/1999/xlink">
<g id="graph0" class="graph" transform="scale(1 1) rotate(0) translate(4 43)">
<title>readConfigFile</title>
<polygon fill="white" stroke="none" points="-4,4 -4,-43 298,-43 298,4 -4,4"/>
<!-- Node1 -->
<g id="node1" class="node"><title>Node1</title>
<polygon fill="#bfbfbf" stroke="black" points="0,-19.5 0,-38.5 80,-38.5 80,-19.5 0,-19.5"/>
<text text-anchor="middle" x="40" y="-26.5" font-family="Helvetica,sans-Serif" font-size="10.00">readConfigFile</text>
</g>
<!-- Node2 -->
<g id="node2" class="node"><title>Node2</title>
<g id="a_node2"><a xlink:href="../../d5/d60/pps-client_8cpp.html#a4b3bdab744bd7ed860326323fad180f2" target="_top" xlink:title="waitForPPS">
<polygon fill="white" stroke="red" points="224.5,-19.5 224.5,-38.5 293.5,-38.5 293.5,-19.5 224.5,-19.5"/>
<text text-anchor="middle" x="259" y="-26.5" font-family="Helvetica,sans-Serif" font-size="10.00">waitForPPS</text>
</a>
</g>
</g>
<!-- Node1&#45;&gt;Node2 -->
<g id="edge1" class="edge"><title>Node1&#45;&gt;Node2</title>
<path fill="none" stroke="midnightblue" d="M90.0813,-29C131.028,-29 188.299,-29 224.255,-29"/>
<polygon fill="midnightblue" stroke="midnightblue" points="90.0459,-25.5001 80.0459,-29 90.0458,-32.5001 90.0459,-25.5001"/>
</g>
<!-- Node3 -->
<g id="node3" class="node"><title>Node3</title>
<g id="a_node3"><a xlink:href="../../d0/d3e/pps-files_8cpp.html#a3ce43a5b60daa4f8158895454f2b7bd3" target="_top" xlink:title="processFiles">
<polygon fill="white" stroke="black" points="116,-0.5 116,-19.5 188,-19.5 188,-0.5 116,-0.5"/>
<text text-anchor="middle" x="152" y="-7.5" font-family="Helvetica,sans-Serif" font-size="10.00">processFiles</text>
</a>
</g>
</g>
<!-- Node1&#45;&gt;Node3 -->
<g id="edge2" class="edge"><title>Node1&#45;&gt;Node3</title>
<path fill="none" stroke="midnightblue" d="M90.0809,-20.5224C98.7113,-19.0317 107.538,-17.507 115.699,-16.0975"/>
<polygon fill="midnightblue" stroke="midnightblue" points="89.3499,-17.0967 80.0916,-22.2478 90.5414,-23.9946 89.3499,-17.0967"/>
</g>
<!-- Node3&#45;&gt;Node2 -->
<g id="edge3" class="edge"><title>Node3&#45;&gt;Node2</title>
<path fill="none" stroke="midnightblue" d="M198.352,-18.2066C207.11,-19.7913 216.138,-21.4249 224.437,-22.9266"/>
<polygon fill="midnightblue" stroke="midnightblue" points="198.719,-14.7162 188.256,-16.3796 197.473,-21.6043 198.719,-14.7162"/>
</g>
</g>
</svg>
