<?xml version="1.0" encoding="UTF-8" standalone="no"?>
<!DOCTYPE svg PUBLIC "-//W3C//DTD SVG 1.1//EN"
 "http://www.w3.org/Graphics/SVG/1.1/DTD/svg11.dtd">
<!-- Generated by graphviz version 2.36.0 (20140111.2315)
 -->
<!-- Title: missingArg Pages: 1 -->
<svg width="354pt" height="47pt"
 viewBox="0.00 0.00 354.00 47.00" xmlns="http://www.w3.org/2000/svg" xmlns:xlink="http://www.w3.org/1999/xlink">
<g id="graph0" class="graph" transform="scale(1 1) rotate(0) translate(4 43)">
<title>missingArg</title>
<polygon fill="white" stroke="none" points="-4,4 -4,-43 350,-43 350,4 -4,4"/>
<!-- Node1 -->
<g id="node1" class="node"><title>Node1</title>
<polygon fill="#bfbfbf" stroke="black" points="0.5,-0.5 0.5,-19.5 65.5,-19.5 65.5,-0.5 0.5,-0.5"/>
<text text-anchor="middle" x="33" y="-7.5" font-family="Helvetica,sans-Serif" font-size="10.00">missingArg</text>
</g>
<!-- Node2 -->
<g id="node2" class="node"><title>Node2</title>
<g id="a_node2"><a xlink:href="../../d0/d3e/pps-files_8cpp.html#ac20a2f5a5d6284628d71e7e0cdc08248" target="_top" xlink:title="parseSaveDataRequest">
<polygon fill="white" stroke="black" points="102.5,-19.5 102.5,-38.5 223.5,-38.5 223.5,-19.5 102.5,-19.5"/>
<text text-anchor="middle" x="163" y="-26.5" font-family="Helvetica,sans-Serif" font-size="10.00">parseSaveDataRequest</text>
</a>
</g>
</g>
<!-- Node1&#45;&gt;Node2 -->
<g id="edge1" class="edge"><title>Node1&#45;&gt;Node2</title>
<path fill="none" stroke="midnightblue" d="M75.6646,-16.1846C84.1664,-17.4466 93.2694,-18.7978 102.26,-20.1323"/>
<polygon fill="midnightblue" stroke="midnightblue" points="76.046,-12.7029 65.6405,-14.6966 75.0181,-19.6271 76.046,-12.7029"/>
</g>
<!-- Node3 -->
<g id="node3" class="node"><title>Node3</title>
<g id="a_node3"><a xlink:href="../../d0/d3e/pps-files_8cpp.html#aa3e1b9d34eeedb9b1d03863dee0b8e58" target="_top" xlink:title="accessDaemon">
<polygon fill="white" stroke="red" points="260.5,-0.5 260.5,-19.5 345.5,-19.5 345.5,-0.5 260.5,-0.5"/>
<text text-anchor="middle" x="303" y="-7.5" font-family="Helvetica,sans-Serif" font-size="10.00">accessDaemon</text>
</a>
</g>
</g>
<!-- Node1&#45;&gt;Node3 -->
<g id="edge3" class="edge"><title>Node1&#45;&gt;Node3</title>
<path fill="none" stroke="midnightblue" d="M75.7098,-10C125.914,-10 209.728,-10 260.043,-10"/>
<polygon fill="midnightblue" stroke="midnightblue" points="75.5311,-6.5001 65.5311,-10 75.5311,-13.5001 75.5311,-6.5001"/>
</g>
<!-- Node2&#45;&gt;Node3 -->
<g id="edge2" class="edge"><title>Node2&#45;&gt;Node3</title>
<path fill="none" stroke="midnightblue" d="M233.65,-19.4106C242.817,-18.1483 251.97,-16.8882 260.46,-15.7193"/>
<polygon fill="midnightblue" stroke="midnightblue" points="233.155,-15.9455 223.726,-20.7768 234.11,-22.8801 233.155,-15.9455"/>
</g>
</g>
</svg>
