<?xml version="1.0" encoding="UTF-8" standalone="no"?>
<!DOCTYPE svg PUBLIC "-//W3C//DTD SVG 1.1//EN"
 "http://www.w3.org/Graphics/SVG/1.1/DTD/svg11.dtd">
<!-- Generated by graphviz version 2.36.0 (20140111.2315)
 -->
<!-- Title: replaceNTPConfig Pages: 1 -->
<svg width="458pt" height="78pt"
 viewBox="0.00 0.00 458.00 77.69" xmlns="http://www.w3.org/2000/svg" xmlns:xlink="http://www.w3.org/1999/xlink">
<g id="graph0" class="graph" transform="scale(1 1) rotate(0) translate(4 73.6901)">
<title>replaceNTPConfig</title>
<polygon fill="white" stroke="none" points="-4,4 -4,-73.6901 454,-73.6901 454,4 -4,4"/>
<!-- Node1 -->
<g id="node1" class="node"><title>Node1</title>
<polygon fill="#bfbfbf" stroke="black" points="0.5,-12.1901 0.5,-31.1901 97.5,-31.1901 97.5,-12.1901 0.5,-12.1901"/>
<text text-anchor="middle" x="49" y="-19.1901" font-family="Helvetica,sans-Serif" font-size="10.00">replaceNTPConfig</text>
</g>
<!-- Node2 -->
<g id="node2" class="node"><title>Node2</title>
<g id="a_node2"><a xlink:href="../../d0/d3e/pps-files_8cpp.html#a94ad6f36dae10e5652ea241b11d2e5c7" target="_top" xlink:title="open_logerr">
<polygon fill="white" stroke="black" points="134.5,-50.1901 134.5,-69.1901 201.5,-69.1901 201.5,-50.1901 134.5,-50.1901"/>
<text text-anchor="middle" x="168" y="-57.1901" font-family="Helvetica,sans-Serif" font-size="10.00">open_logerr</text>
</a>
</g>
</g>
<!-- Node1&#45;&gt;Node2 -->
<g id="edge1" class="edge"><title>Node1&#45;&gt;Node2</title>
<path fill="none" stroke="midnightblue" d="M79.524,-31.2791C94.2119,-36.0495 112.16,-41.8788 127.968,-47.013"/>
<polygon fill="midnightblue" stroke="midnightblue" points="126.893,-50.3439 137.485,-50.1041 129.056,-43.6862 126.893,-50.3439"/>
</g>
<!-- Node3 -->
<g id="node3" class="node"><title>Node3</title>
<g id="a_node3"><a xlink:href="../../d0/d3e/pps-files_8cpp.html#a1509c961be7011d1a6a4b2d23715357a" target="_top" xlink:title="couldNotOpenMsgTo">
<polygon fill="white" stroke="black" points="340.5,-12.1901 340.5,-31.1901 449.5,-31.1901 449.5,-12.1901 340.5,-12.1901"/>
<text text-anchor="middle" x="395" y="-19.1901" font-family="Helvetica,sans-Serif" font-size="10.00">couldNotOpenMsgTo</text>
</a>
</g>
</g>
<!-- Node1&#45;&gt;Node3 -->
<g id="edge6" class="edge"><title>Node1&#45;&gt;Node3</title>
<path fill="none" stroke="midnightblue" d="M97.825,-13.0261C148.939,-4.95475 232.31,4.79467 304,-2.69008 318.315,-4.1846 333.705,-6.98168 347.639,-9.97896"/>
<polygon fill="midnightblue" stroke="midnightblue" points="346.969,-13.4155 357.492,-12.1811 348.496,-6.58408 346.969,-13.4155"/>
</g>
<!-- Node4 -->
<g id="node4" class="node"><title>Node4</title>
<g id="a_node4"><a xlink:href="../../d0/d3e/pps-files_8cpp.html#ae20c07f56a5b2b05b636f6a0a31ce214" target="_top" xlink:title="writeToLog">
<polygon fill="white" stroke="red" points="238.5,-12.1901 238.5,-31.1901 303.5,-31.1901 303.5,-12.1901 238.5,-12.1901"/>
<text text-anchor="middle" x="271" y="-19.1901" font-family="Helvetica,sans-Serif" font-size="10.00">writeToLog</text>
</a>
</g>
</g>
<!-- Node1&#45;&gt;Node4 -->
<g id="edge5" class="edge"><title>Node1&#45;&gt;Node4</title>
<path fill="none" stroke="midnightblue" d="M97.7367,-21.6901C136.665,-21.6901 191.106,-21.6901 228.302,-21.6901"/>
<polygon fill="midnightblue" stroke="midnightblue" points="228.309,-25.1902 238.309,-21.6901 228.309,-18.1902 228.309,-25.1902"/>
</g>
<!-- Node2&#45;&gt;Node3 -->
<g id="edge2" class="edge"><title>Node2&#45;&gt;Node3</title>
<path fill="none" stroke="midnightblue" d="M201.559,-55.7406C228.963,-52.2649 269.15,-46.8138 304,-40.6901 316.165,-38.5525 329.194,-35.9723 341.455,-33.412"/>
<polygon fill="midnightblue" stroke="midnightblue" points="342.481,-36.7725 351.538,-31.2761 341.03,-29.9245 342.481,-36.7725"/>
</g>
<!-- Node2&#45;&gt;Node4 -->
<g id="edge3" class="edge"><title>Node2&#45;&gt;Node4</title>
<path fill="none" stroke="midnightblue" d="M194.487,-50.1011C206.807,-45.4657 221.785,-39.8304 235.143,-34.8048"/>
<polygon fill="midnightblue" stroke="midnightblue" points="236.395,-38.0733 244.522,-31.276 233.93,-31.5217 236.395,-38.0733"/>
</g>
<!-- Node4&#45;&gt;Node3 -->
<g id="edge4" class="edge"><title>Node4&#45;&gt;Node3</title>
<path fill="none" stroke="midnightblue" d="M303.736,-21.6901C311.84,-21.6901 320.849,-21.6901 329.948,-21.6901"/>
<polygon fill="midnightblue" stroke="midnightblue" points="330.216,-25.1902 340.216,-21.6901 330.216,-18.1902 330.216,-25.1902"/>
</g>
</g>
</svg>
