<?xml version="1.0" encoding="UTF-8" standalone="no"?>
<!DOCTYPE svg PUBLIC "-//W3C//DTD SVG 1.1//EN"
 "http://www.w3.org/Graphics/SVG/1.1/DTD/svg11.dtd">
<!-- Generated by graphviz version 2.36.0 (20140111.2315)
 -->
<!-- Title: createPIDfile Pages: 1 -->
<svg width="288pt" height="47pt"
 viewBox="0.00 0.00 288.00 47.00" xmlns="http://www.w3.org/2000/svg" xmlns:xlink="http://www.w3.org/1999/xlink">
<g id="graph0" class="graph" transform="scale(1 1) rotate(0) translate(4 43)">
<title>createPIDfile</title>
<polygon fill="white" stroke="none" points="-4,4 -4,-43 284,-43 284,4 -4,4"/>
<!-- Node1 -->
<g id="node1" class="node"><title>Node1</title>
<polygon fill="#bfbfbf" stroke="black" points="0,-0.5 0,-19.5 74,-19.5 74,-0.5 0,-0.5"/>
<text text-anchor="middle" x="37" y="-7.5" font-family="Helvetica,sans-Serif" font-size="10.00">createPIDfile</text>
</g>
<!-- Node2 -->
<g id="node2" class="node"><title>Node2</title>
<g id="a_node2"><a xlink:href="../../d0/d3e/pps-files_8cpp.html#a94ad6f36dae10e5652ea241b11d2e5c7" target="_top" xlink:title="open_logerr">
<polygon fill="white" stroke="red" points="110.5,-19.5 110.5,-38.5 177.5,-38.5 177.5,-19.5 110.5,-19.5"/>
<text text-anchor="middle" x="144" y="-26.5" font-family="Helvetica,sans-Serif" font-size="10.00">open_logerr</text>
</a>
</g>
</g>
<!-- Node1&#45;&gt;Node2 -->
<g id="edge1" class="edge"><title>Node1&#45;&gt;Node2</title>
<path fill="none" stroke="midnightblue" d="M74.135,-16.5387C82.5773,-18.0664 91.6468,-19.7075 100.343,-21.2811"/>
<polygon fill="midnightblue" stroke="midnightblue" points="99.8558,-24.7497 110.319,-23.0863 101.102,-17.8616 99.8558,-24.7497"/>
</g>
<!-- Node3 -->
<g id="node3" class="node"><title>Node3</title>
<g id="a_node3"><a xlink:href="../../d0/d3e/pps-files_8cpp.html#ae20c07f56a5b2b05b636f6a0a31ce214" target="_top" xlink:title="writeToLog">
<polygon fill="white" stroke="red" points="214.5,-0.5 214.5,-19.5 279.5,-19.5 279.5,-0.5 214.5,-0.5"/>
<text text-anchor="middle" x="247" y="-7.5" font-family="Helvetica,sans-Serif" font-size="10.00">writeToLog</text>
</a>
</g>
</g>
<!-- Node1&#45;&gt;Node3 -->
<g id="edge3" class="edge"><title>Node1&#45;&gt;Node3</title>
<path fill="none" stroke="midnightblue" d="M74.2308,-10C110.404,-10 165.95,-10 204.023,-10"/>
<polygon fill="midnightblue" stroke="midnightblue" points="204.268,-13.5001 214.268,-10 204.268,-6.5001 204.268,-13.5001"/>
</g>
<!-- Node2&#45;&gt;Node3 -->
<g id="edge2" class="edge"><title>Node2&#45;&gt;Node3</title>
<path fill="none" stroke="midnightblue" d="M177.513,-22.8837C186.06,-21.2758 195.398,-19.5191 204.353,-17.8346"/>
<polygon fill="midnightblue" stroke="midnightblue" points="205.057,-21.2636 214.238,-15.9751 203.763,-14.3842 205.057,-21.2636"/>
</g>
</g>
</svg>
