<?xml version="1.0" encoding="UTF-8" standalone="no"?>
<!DOCTYPE svg PUBLIC "-//W3C//DTD SVG 1.1//EN"
 "http://www.w3.org/Graphics/SVG/1.1/DTD/svg11.dtd">
<!-- Generated by graphviz version 2.36.0 (20140111.2315)
 -->
<!-- Title: writeDistribution Pages: 1 -->
<svg width="254pt" height="104pt"
 viewBox="0.00 0.00 254.00 104.00" xmlns="http://www.w3.org/2000/svg" xmlns:xlink="http://www.w3.org/1999/xlink">
<g id="graph0" class="graph" transform="scale(1 1) rotate(0) translate(4 100)">
<title>writeDistribution</title>
<polygon fill="white" stroke="none" points="-4,4 -4,-100 250,-100 250,4 -4,4"/>
<!-- Node1 -->
<g id="node1" class="node"><title>Node1</title>
<polygon fill="#bfbfbf" stroke="black" points="0.5,-38.5 0.5,-57.5 87.5,-57.5 87.5,-38.5 0.5,-38.5"/>
<text text-anchor="middle" x="44" y="-45.5" font-family="Helvetica,sans-Serif" font-size="10.00">writeDistribution</text>
</g>
<!-- Node2 -->
<g id="node2" class="node"><title>Node2</title>
<g id="a_node2"><a xlink:href="../../d0/d3e/pps-files_8cpp.html#aacdfbe498da2a6d42d753a7a75cf4ae5" target="_top" xlink:title="writeSysdelayDistribFile">
<polygon fill="white" stroke="red" points="124,-76.5 124,-95.5 246,-95.5 246,-76.5 124,-76.5"/>
<text text-anchor="middle" x="185" y="-83.5" font-family="Helvetica,sans-Serif" font-size="10.00">writeSysdelayDistribFile</text>
</a>
</g>
</g>
<!-- Node1&#45;&gt;Node2 -->
<g id="edge1" class="edge"><title>Node1&#45;&gt;Node2</title>
<path fill="none" stroke="midnightblue" d="M89.7953,-60.2462C108.955,-65.484 130.994,-71.5091 148.936,-76.4141"/>
<polygon fill="midnightblue" stroke="midnightblue" points="90.6446,-56.85 80.0756,-57.589 88.7986,-63.6022 90.6446,-56.85"/>
</g>
<!-- Node3 -->
<g id="node3" class="node"><title>Node3</title>
<g id="a_node3"><a xlink:href="../../d0/d3e/pps-files_8cpp.html#a376e9b76d9e9b1caf06ae3bd8c969f46" target="_top" xlink:title="writeJitterDistribFile">
<polygon fill="white" stroke="red" points="133,-38.5 133,-57.5 237,-57.5 237,-38.5 133,-38.5"/>
<text text-anchor="middle" x="185" y="-45.5" font-family="Helvetica,sans-Serif" font-size="10.00">writeJitterDistribFile</text>
</a>
</g>
</g>
<!-- Node1&#45;&gt;Node3 -->
<g id="edge2" class="edge"><title>Node1&#45;&gt;Node3</title>
<path fill="none" stroke="midnightblue" d="M98.0729,-48C109.449,-48 121.447,-48 132.752,-48"/>
<polygon fill="midnightblue" stroke="midnightblue" points="97.8388,-44.5001 87.8388,-48 97.8387,-51.5001 97.8388,-44.5001"/>
</g>
<!-- Node4 -->
<g id="node4" class="node"><title>Node4</title>
<g id="a_node4"><a xlink:href="../../d0/d3e/pps-files_8cpp.html#a82b5d210a2a50fc93755e34d3016247e" target="_top" xlink:title="writeErrorDistribFile">
<polygon fill="white" stroke="red" points="133.5,-0.5 133.5,-19.5 236.5,-19.5 236.5,-0.5 133.5,-0.5"/>
<text text-anchor="middle" x="185" y="-7.5" font-family="Helvetica,sans-Serif" font-size="10.00">writeErrorDistribFile</text>
</a>
</g>
</g>
<!-- Node1&#45;&gt;Node4 -->
<g id="edge3" class="edge"><title>Node1&#45;&gt;Node4</title>
<path fill="none" stroke="midnightblue" d="M89.7953,-35.7538C108.955,-30.516 130.994,-24.4909 148.936,-19.5859"/>
<polygon fill="midnightblue" stroke="midnightblue" points="88.7986,-32.3978 80.0756,-38.411 90.6446,-39.15 88.7986,-32.3978"/>
</g>
</g>
</svg>
