<?xml version="1.0" encoding="UTF-8" standalone="no"?>
<!DOCTYPE svg PUBLIC "-//W3C//DTD SVG 1.1//EN"
 "http://www.w3.org/Graphics/SVG/1.1/DTD/svg11.dtd">
<!-- Generated by graphviz version 2.40.1 (20161225.0304)
 -->
<!-- Title: writeStatusStrings Pages: 1 -->
<svg width="310pt" height="46pt"
 viewBox="0.00 0.00 310.32 46.00" xmlns="http://www.w3.org/2000/svg" xmlns:xlink="http://www.w3.org/1999/xlink">
<g id="graph0" class="graph" transform="scale(1 1) rotate(0) translate(4 42)">
<title>writeStatusStrings</title>
<polygon fill="#ffffff" stroke="transparent" points="-4,4 -4,-42 306.3193,-42 306.3193,4 -4,4"/>
<!-- Node632 -->
<g id="node1" class="node">
<title>Node632</title>
<polygon fill="#bfbfbf" stroke="#000000" points="0,-.5 0,-18.5 96.5859,-18.5 96.5859,-.5 0,-.5"/>
<text text-anchor="middle" x="48.293" y="-6.5" font-family="Helvetica,sans-Serif" font-size="10.00" fill="#000000">writeStatusStrings</text>
</g>
<!-- Node633 -->
<g id="node2" class="node">
<title>Node633</title>
<g id="a_node2"><a xlink:href="../../d0/d3e/pps-files_8cpp.html#a94ad6f36dae10e5652ea241b11d2e5c7" target="_top" xlink:title="open_logerr">
<polygon fill="#ffffff" stroke="#ff0000" points="132.5859,-19.5 132.5859,-37.5 201.96,-37.5 201.96,-19.5 132.5859,-19.5"/>
<text text-anchor="middle" x="167.2729" y="-25.5" font-family="Helvetica,sans-Serif" font-size="10.00" fill="#000000">open_logerr</text>
</a>
</g>
</g>
<!-- Node632&#45;&gt;Node633 -->
<g id="edge1" class="edge">
<title>Node632&#45;&gt;Node633</title>
<path fill="none" stroke="#191970" d="M96.6867,-17.228C105.1942,-18.5866 114.0156,-19.9953 122.4212,-21.3376"/>
<polygon fill="#191970" stroke="#191970" points="121.9922,-24.8134 132.419,-22.9342 123.0961,-17.9009 121.9922,-24.8134"/>
</g>
<!-- Node635 -->
<g id="node3" class="node">
<title>Node635</title>
<g id="a_node3"><a xlink:href="../../d0/d3e/pps-files_8cpp.html#ae20c07f56a5b2b05b636f6a0a31ce214" target="_top" xlink:title="writeToLog">
<polygon fill="#ffffff" stroke="#ff0000" points="237.96,-.5 237.96,-18.5 302.3193,-18.5 302.3193,-.5 237.96,-.5"/>
<text text-anchor="middle" x="270.1396" y="-6.5" font-family="Helvetica,sans-Serif" font-size="10.00" fill="#000000">writeToLog</text>
</a>
</g>
</g>
<!-- Node632&#45;&gt;Node635 -->
<g id="edge3" class="edge">
<title>Node632&#45;&gt;Node635</title>
<path fill="none" stroke="#191970" d="M96.704,-9.5C135.8601,-9.5 190.4467,-9.5 227.8624,-9.5"/>
<polygon fill="#191970" stroke="#191970" points="227.9332,-13.0001 237.9331,-9.5 227.9331,-6.0001 227.9332,-13.0001"/>
</g>
<!-- Node633&#45;&gt;Node635 -->
<g id="edge2" class="edge">
<title>Node633&#45;&gt;Node635</title>
<path fill="none" stroke="#191970" d="M202.0989,-22.0675C210.3937,-20.5354 219.3341,-18.884 227.9204,-17.2981"/>
<polygon fill="#191970" stroke="#191970" points="228.5793,-20.7357 237.7773,-15.4775 227.3079,-13.8521 228.5793,-20.7357"/>
</g>
</g>
</svg>
