<?xml version="1.0" encoding="UTF-8" standalone="no"?>
<!DOCTYPE svg PUBLIC "-//W3C//DTD SVG 1.1//EN"
 "http://www.w3.org/Graphics/SVG/1.1/DTD/svg11.dtd">
<!-- Generated by graphviz version 2.36.0 (20140111.2315)
 -->
<!-- Title: bufferStatusMsg Pages: 1 -->
<svg width="566pt" height="294pt"
 viewBox="0.00 0.00 566.00 294.00" xmlns="http://www.w3.org/2000/svg" xmlns:xlink="http://www.w3.org/1999/xlink">
<g id="graph0" class="graph" transform="scale(1 1) rotate(0) translate(4 290)">
<title>bufferStatusMsg</title>
<polygon fill="white" stroke="none" points="-4,4 -4,-290 562,-290 562,4 -4,4"/>
<!-- Node1 -->
<g id="node1" class="node"><title>Node1</title>
<polygon fill="#bfbfbf" stroke="black" points="0.5,-133.5 0.5,-152.5 89.5,-152.5 89.5,-133.5 0.5,-133.5"/>
<text text-anchor="middle" x="45" y="-140.5" font-family="Helvetica,sans-Serif" font-size="10.00">bufferStatusMsg</text>
</g>
<!-- Node2 -->
<g id="node2" class="node"><title>Node2</title>
<g id="a_node2"><a xlink:href="../../d5/d60/pps-client_8cpp.html#a8a87b6ef0bf407467331509efdd5b3e9" target="_top" xlink:title="getInterruptDelay">
<polygon fill="white" stroke="red" points="309,-266.5 309,-285.5 401,-285.5 401,-266.5 309,-266.5"/>
<text text-anchor="middle" x="355" y="-273.5" font-family="Helvetica,sans-Serif" font-size="10.00">getInterruptDelay</text>
</a>
</g>
</g>
<!-- Node1&#45;&gt;Node2 -->
<g id="edge1" class="edge"><title>Node1&#45;&gt;Node2</title>
<path fill="none" stroke="midnightblue" d="M54.8816,-161.647C67.2412,-185.347 92.0006,-225.515 126,-245 182.841,-277.576 260.426,-281.137 308.849,-279.488"/>
<polygon fill="midnightblue" stroke="midnightblue" points="57.9611,-159.98 50.353,-152.606 51.7024,-163.115 57.9611,-159.98"/>
</g>
<!-- Node3 -->
<g id="node3" class="node"><title>Node3</title>
<g id="a_node3"><a xlink:href="../../d5/d60/pps-client_8cpp.html#a4610ca59593e517fde46aa10657a7891" target="_top" xlink:title="readPPS_SetTime">
<polygon fill="white" stroke="red" points="306,-228.5 306,-247.5 404,-247.5 404,-228.5 306,-228.5"/>
<text text-anchor="middle" x="355" y="-235.5" font-family="Helvetica,sans-Serif" font-size="10.00">readPPS_SetTime</text>
</a>
</g>
</g>
<!-- Node1&#45;&gt;Node3 -->
<g id="edge2" class="edge"><title>Node1&#45;&gt;Node3</title>
<path fill="none" stroke="midnightblue" d="M58.6483,-160.651C72.7797,-178.813 97.4572,-206.204 126,-219 183.811,-244.917 258.09,-245.915 305.876,-242.984"/>
<polygon fill="midnightblue" stroke="midnightblue" points="61.3914,-158.475 52.5875,-152.581 55.794,-162.679 61.3914,-158.475"/>
</g>
<!-- Node4 -->
<g id="node4" class="node"><title>Node4</title>
<g id="a_node4"><a xlink:href="../../d5/d60/pps-client_8cpp.html#a0ddf1224851353fc92bfbff6f499fa97" target="_top" xlink:title="main">
<polygon fill="white" stroke="black" points="336,-114.5 336,-133.5 374,-133.5 374,-114.5 336,-114.5"/>
<text text-anchor="middle" x="355" y="-121.5" font-family="Helvetica,sans-Serif" font-size="10.00">main</text>
</a>
</g>
</g>
<!-- Node1&#45;&gt;Node4 -->
<g id="edge3" class="edge"><title>Node1&#45;&gt;Node4</title>
<path fill="none" stroke="midnightblue" d="M99.8364,-139.679C170.385,-135.327 290.466,-127.919 335.88,-125.118"/>
<polygon fill="midnightblue" stroke="midnightblue" points="99.5673,-136.189 89.8018,-140.298 99.9984,-143.175 99.5673,-136.189"/>
</g>
<!-- Node5 -->
<g id="node5" class="node"><title>Node5</title>
<g id="a_node5"><a xlink:href="../../d0/d3e/pps-files_8cpp.html#ae20c07f56a5b2b05b636f6a0a31ce214" target="_top" xlink:title="writeToLog">
<polygon fill="white" stroke="red" points="164.5,-190.5 164.5,-209.5 229.5,-209.5 229.5,-190.5 164.5,-190.5"/>
<text text-anchor="middle" x="197" y="-197.5" font-family="Helvetica,sans-Serif" font-size="10.00">writeToLog</text>
</a>
</g>
</g>
<!-- Node1&#45;&gt;Node5 -->
<g id="edge4" class="edge"><title>Node1&#45;&gt;Node5</title>
<path fill="none" stroke="midnightblue" d="M77.8409,-156.656C92.4353,-162.78 110.01,-169.967 126,-176 139.342,-181.034 154.275,-186.214 166.91,-190.468"/>
<polygon fill="midnightblue" stroke="midnightblue" points="78.8432,-153.28 68.2694,-152.613 76.1194,-159.728 78.8432,-153.28"/>
</g>
<!-- Node6 -->
<g id="node6" class="node"><title>Node6</title>
<g id="a_node6"><a xlink:href="../../dc/d4f/pps-sntp_8cpp.html#a1121c37b30e0ab417a95d6be065a0666" target="_top" xlink:title="allocNTPServerList">
<polygon fill="white" stroke="red" points="304.5,-152.5 304.5,-171.5 405.5,-171.5 405.5,-152.5 304.5,-152.5"/>
<text text-anchor="middle" x="355" y="-159.5" font-family="Helvetica,sans-Serif" font-size="10.00">allocNTPServerList</text>
</a>
</g>
</g>
<!-- Node1&#45;&gt;Node6 -->
<g id="edge12" class="edge"><title>Node1&#45;&gt;Node6</title>
<path fill="none" stroke="midnightblue" d="M99.8275,-146.321C157.561,-149.882 248.475,-155.49 304.487,-158.946"/>
<polygon fill="midnightblue" stroke="midnightblue" points="99.9984,-142.825 89.8018,-145.702 99.5673,-149.811 99.9984,-142.825"/>
</g>
<!-- Node7 -->
<g id="node7" class="node"><title>Node7</title>
<g id="a_node7"><a xlink:href="../../dc/d4f/pps-sntp_8cpp.html#ab6d786ab6487a8937306f50e65b1e4cd" target="_top" xlink:title="makeSNTPTimeQuery">
<polygon fill="white" stroke="red" points="442,-114.5 442,-133.5 558,-133.5 558,-114.5 442,-114.5"/>
<text text-anchor="middle" x="500" y="-121.5" font-family="Helvetica,sans-Serif" font-size="10.00">makeSNTPTimeQuery</text>
</a>
</g>
</g>
<!-- Node1&#45;&gt;Node7 -->
<g id="edge15" class="edge"><title>Node1&#45;&gt;Node7</title>
<path fill="none" stroke="midnightblue" d="M94.2675,-131.246C104.691,-128.958 115.68,-126.735 126,-125 249.034,-104.31 281.871,-92.4498 406,-105 424.363,-106.857 444.459,-110.725 461.257,-114.49"/>
<polygon fill="midnightblue" stroke="midnightblue" points="93.4762,-127.836 84.4876,-133.445 95.0118,-134.666 93.4762,-127.836"/>
</g>
<!-- Node8 -->
<g id="node8" class="node"><title>Node8</title>
<g id="a_node8"><a xlink:href="../../d0/d3e/pps-files_8cpp.html#a99055dd0dc705a74bb0b3ab03fea92e3" target="_top" xlink:title="bufferStateParams">
<polygon fill="white" stroke="red" points="148,-0.5 148,-19.5 246,-19.5 246,-0.5 148,-0.5"/>
<text text-anchor="middle" x="197" y="-7.5" font-family="Helvetica,sans-Serif" font-size="10.00">bufferStateParams</text>
</a>
</g>
</g>
<!-- Node1&#45;&gt;Node8 -->
<g id="edge11" class="edge"><title>Node1&#45;&gt;Node8</title>
<path fill="none" stroke="midnightblue" d="M54.2148,-124.009C66.2321,-98.4978 91.0376,-53.5384 126,-29 132.494,-24.4425 140.03,-20.9775 147.704,-18.3432"/>
<polygon fill="midnightblue" stroke="midnightblue" points="50.9252,-122.788 49.9828,-133.341 57.3003,-125.679 50.9252,-122.788"/>
</g>
<!-- Node9 -->
<g id="node9" class="node"><title>Node9</title>
<g id="a_node9"><a xlink:href="../../dc/d4f/pps-sntp_8cpp.html#ac0d0c84eb76dc4985ba295fbd8199c1c" target="_top" xlink:title="getTimeConsensisAndCount">
<polygon fill="white" stroke="black" points="126,-38.5 126,-57.5 268,-57.5 268,-38.5 126,-38.5"/>
<text text-anchor="middle" x="197" y="-45.5" font-family="Helvetica,sans-Serif" font-size="10.00">getTimeConsensisAndCount</text>
</a>
</g>
</g>
<!-- Node1&#45;&gt;Node9 -->
<g id="edge13" class="edge"><title>Node1&#45;&gt;Node9</title>
<path fill="none" stroke="midnightblue" d="M61.4306,-125.854C76.5304,-109.973 100.867,-86.6612 126,-72 136.209,-66.0445 148.121,-61.2698 159.193,-57.5965"/>
<polygon fill="midnightblue" stroke="midnightblue" points="58.665,-123.688 54.421,-133.396 63.7925,-128.454 58.665,-123.688"/>
</g>
<!-- Node5&#45;&gt;Node2 -->
<g id="edge5" class="edge"><title>Node5&#45;&gt;Node2</title>
<path fill="none" stroke="midnightblue" d="M222.879,-214.572C244.069,-226.691 275.521,-243.999 304,-257 311.349,-260.355 319.478,-263.624 327.008,-266.478"/>
<polygon fill="midnightblue" stroke="midnightblue" points="224.6,-211.524 214.188,-209.563 221.104,-217.589 224.6,-211.524"/>
</g>
<!-- Node5&#45;&gt;Node3 -->
<g id="edge6" class="edge"><title>Node5&#45;&gt;Node3</title>
<path fill="none" stroke="midnightblue" d="M239.516,-210.113C262.837,-215.794 291.776,-222.843 314.723,-228.432"/>
<polygon fill="midnightblue" stroke="midnightblue" points="240.113,-206.656 229.569,-207.69 238.456,-213.457 240.113,-206.656"/>
</g>
<!-- Node5&#45;&gt;Node4 -->
<g id="edge7" class="edge"><title>Node5&#45;&gt;Node4</title>
<path fill="none" stroke="midnightblue" d="M222.879,-185.428C244.069,-173.309 275.521,-156.001 304,-143 314.306,-138.295 326.145,-133.759 335.715,-130.3"/>
<polygon fill="midnightblue" stroke="midnightblue" points="221.104,-182.411 214.188,-190.437 224.6,-188.476 221.104,-182.411"/>
</g>
<!-- Node5&#45;&gt;Node6 -->
<g id="edge8" class="edge"><title>Node5&#45;&gt;Node6</title>
<path fill="none" stroke="midnightblue" d="M239.516,-189.887C262.837,-184.206 291.776,-177.157 314.723,-171.568"/>
<polygon fill="midnightblue" stroke="midnightblue" points="238.456,-186.543 229.569,-192.31 240.113,-193.344 238.456,-186.543"/>
</g>
<!-- Node5&#45;&gt;Node7 -->
<g id="edge10" class="edge"><title>Node5&#45;&gt;Node7</title>
<path fill="none" stroke="midnightblue" d="M239.615,-201.688C282.432,-202.172 350.52,-199.415 406,-181 437.992,-170.381 470.457,-146.972 487.27,-133.693"/>
<polygon fill="midnightblue" stroke="midnightblue" points="239.622,-198.188 229.561,-201.51 239.497,-205.187 239.622,-198.188"/>
</g>
<!-- Node6&#45;&gt;Node7 -->
<g id="edge9" class="edge"><title>Node6&#45;&gt;Node7</title>
<path fill="none" stroke="midnightblue" d="M401.813,-149.826C421.587,-144.571 444.384,-138.513 462.927,-133.586"/>
<polygon fill="midnightblue" stroke="midnightblue" points="400.851,-146.46 392.085,-152.411 402.648,-153.225 400.851,-146.46"/>
</g>
<!-- Node9&#45;&gt;Node7 -->
<g id="edge14" class="edge"><title>Node9&#45;&gt;Node7</title>
<path fill="none" stroke="midnightblue" d="M278.369,-49.8976C317.632,-52.668 365.109,-58.7953 406,-72 436.63,-81.8911 468.586,-102.359 485.915,-114.457"/>
<polygon fill="midnightblue" stroke="midnightblue" points="278.518,-46.4 268.313,-49.248 278.066,-53.3854 278.518,-46.4"/>
</g>
</g>
</svg>
