<?xml version="1.0" encoding="UTF-8" standalone="no"?>
<!DOCTYPE svg PUBLIC "-//W3C//DTD SVG 1.1//EN"
 "http://www.w3.org/Graphics/SVG/1.1/DTD/svg11.dtd">
<!-- Generated by graphviz version 2.36.0 (20140111.2315)
 -->
<!-- Title: disableNTP Pages: 1 -->
<svg width="416pt" height="167pt"
 viewBox="0.00 0.00 416.00 166.59" xmlns="http://www.w3.org/2000/svg" xmlns:xlink="http://www.w3.org/1999/xlink">
<g id="graph0" class="graph" transform="scale(1 1) rotate(0) translate(4 162.587)">
<title>disableNTP</title>
<polygon fill="white" stroke="none" points="-4,4 -4,-162.587 412,-162.587 412,4 -4,4"/>
<!-- Node1 -->
<g id="node1" class="node"><title>Node1</title>
<polygon fill="#bfbfbf" stroke="black" points="0,-76.5 0,-95.5 68,-95.5 68,-76.5 0,-76.5"/>
<text text-anchor="middle" x="34" y="-83.5" font-family="Helvetica,sans-Serif" font-size="10.00">disableNTP</text>
</g>
<!-- Node2 -->
<g id="node2" class="node"><title>Node2</title>
<g id="a_node2"><a xlink:href="../../d0/d3e/pps-files_8cpp.html#a94ad6f36dae10e5652ea241b11d2e5c7" target="_top" xlink:title="open_logerr">
<polygon fill="white" stroke="red" points="238.5,-114.5 238.5,-133.5 305.5,-133.5 305.5,-114.5 238.5,-114.5"/>
<text text-anchor="middle" x="272" y="-121.5" font-family="Helvetica,sans-Serif" font-size="10.00">open_logerr</text>
</a>
</g>
</g>
<!-- Node1&#45;&gt;Node2 -->
<g id="edge1" class="edge"><title>Node1&#45;&gt;Node2</title>
<path fill="none" stroke="midnightblue" d="M65.6714,-95.5462C77.5464,-98.9513 91.3129,-102.547 104,-105 145.931,-113.107 194.502,-118.155 228.416,-120.991"/>
<polygon fill="midnightblue" stroke="midnightblue" points="228.197,-124.485 238.446,-121.801 228.761,-117.508 228.197,-124.485"/>
</g>
<!-- Node3 -->
<g id="node3" class="node"><title>Node3</title>
<g id="a_node3"><a xlink:href="../../d0/d3e/pps-files_8cpp.html#ae20c07f56a5b2b05b636f6a0a31ce214" target="_top" xlink:title="writeToLog">
<polygon fill="white" stroke="red" points="342.5,-76.5 342.5,-95.5 407.5,-95.5 407.5,-76.5 342.5,-76.5"/>
<text text-anchor="middle" x="375" y="-83.5" font-family="Helvetica,sans-Serif" font-size="10.00">writeToLog</text>
</a>
</g>
</g>
<!-- Node1&#45;&gt;Node3 -->
<g id="edge5" class="edge"><title>Node1&#45;&gt;Node3</title>
<path fill="none" stroke="midnightblue" d="M48.2787,-95.5546C61.6653,-104.677 83.2595,-118.035 104,-125 189.444,-153.694 221.294,-173.806 306,-143 327.58,-135.152 347.084,-117.118 359.613,-103.421"/>
<polygon fill="midnightblue" stroke="midnightblue" points="362.519,-105.414 366.469,-95.5825 357.251,-100.805 362.519,-105.414"/>
</g>
<!-- Node4 -->
<g id="node4" class="node"><title>Node4</title>
<g id="a_node4"><a xlink:href="../../d0/d3e/pps-files_8cpp.html#a459e7950f1def63780ba7fda8e3c12d2" target="_top" xlink:title="read_logerr">
<polygon fill="white" stroke="red" points="239.5,-38.5 239.5,-57.5 304.5,-57.5 304.5,-38.5 239.5,-38.5"/>
<text text-anchor="middle" x="272" y="-45.5" font-family="Helvetica,sans-Serif" font-size="10.00">read_logerr</text>
</a>
</g>
</g>
<!-- Node1&#45;&gt;Node4 -->
<g id="edge3" class="edge"><title>Node1&#45;&gt;Node4</title>
<path fill="none" stroke="midnightblue" d="M65.6714,-76.4538C77.5464,-73.0487 91.3129,-69.4531 104,-67 146.321,-58.8173 195.405,-53.7516 229.357,-50.9303"/>
<polygon fill="midnightblue" stroke="midnightblue" points="229.695,-54.4144 239.383,-50.1258 229.135,-47.4369 229.695,-54.4144"/>
</g>
<!-- Node5 -->
<g id="node5" class="node"><title>Node5</title>
<g id="a_node5"><a xlink:href="../../d0/d3e/pps-files_8cpp.html#a180a91d8d62c36158e3b769ac35aa01e" target="_top" xlink:title="replaceNTPConfig">
<polygon fill="white" stroke="red" points="104.5,-76.5 104.5,-95.5 201.5,-95.5 201.5,-76.5 104.5,-76.5"/>
<text text-anchor="middle" x="153" y="-83.5" font-family="Helvetica,sans-Serif" font-size="10.00">replaceNTPConfig</text>
</a>
</g>
</g>
<!-- Node1&#45;&gt;Node5 -->
<g id="edge6" class="edge"><title>Node1&#45;&gt;Node5</title>
<path fill="none" stroke="midnightblue" d="M68.2145,-86C76.3628,-86 85.3215,-86 94.2567,-86"/>
<polygon fill="midnightblue" stroke="midnightblue" points="94.2904,-89.5001 104.29,-86 94.2903,-82.5001 94.2904,-89.5001"/>
</g>
<!-- Node6 -->
<g id="node6" class="node"><title>Node6</title>
<g id="a_node6"><a xlink:href="../../d0/d3e/pps-files_8cpp.html#a4ec814a023712bff67399cc287385ed3" target="_top" xlink:title="restartNTP">
<polygon fill="white" stroke="red" points="120.5,-0.5 120.5,-19.5 185.5,-19.5 185.5,-0.5 120.5,-0.5"/>
<text text-anchor="middle" x="153" y="-7.5" font-family="Helvetica,sans-Serif" font-size="10.00">restartNTP</text>
</a>
</g>
</g>
<!-- Node1&#45;&gt;Node6 -->
<g id="edge9" class="edge"><title>Node1&#45;&gt;Node6</title>
<path fill="none" stroke="midnightblue" d="M46.2609,-76.496C59.5572,-65.5199 82.5789,-47.2733 104,-34 109.509,-30.5863 115.569,-27.2557 121.472,-24.2152"/>
<polygon fill="midnightblue" stroke="midnightblue" points="123.131,-27.2989 130.52,-19.7056 120.009,-21.034 123.131,-27.2989"/>
</g>
<!-- Node2&#45;&gt;Node3 -->
<g id="edge2" class="edge"><title>Node2&#45;&gt;Node3</title>
<path fill="none" stroke="midnightblue" d="M298.487,-114.411C310.807,-109.776 325.785,-104.14 339.143,-99.1147"/>
<polygon fill="midnightblue" stroke="midnightblue" points="340.395,-102.383 348.522,-95.5859 337.93,-95.8316 340.395,-102.383"/>
</g>
<!-- Node4&#45;&gt;Node3 -->
<g id="edge4" class="edge"><title>Node4&#45;&gt;Node3</title>
<path fill="none" stroke="midnightblue" d="M298.487,-57.589C310.807,-62.2244 325.785,-67.8596 339.143,-72.8853"/>
<polygon fill="midnightblue" stroke="midnightblue" points="337.93,-76.1684 348.522,-76.4141 340.395,-69.6168 337.93,-76.1684"/>
</g>
<!-- Node5&#45;&gt;Node2 -->
<g id="edge7" class="edge"><title>Node5&#45;&gt;Node2</title>
<path fill="none" stroke="midnightblue" d="M183.524,-95.589C198.212,-100.359 216.16,-106.189 231.968,-111.323"/>
<polygon fill="midnightblue" stroke="midnightblue" points="230.893,-114.654 241.485,-114.414 233.056,-107.996 230.893,-114.654"/>
</g>
<!-- Node5&#45;&gt;Node3 -->
<g id="edge8" class="edge"><title>Node5&#45;&gt;Node3</title>
<path fill="none" stroke="midnightblue" d="M201.737,-86C240.665,-86 295.106,-86 332.302,-86"/>
<polygon fill="midnightblue" stroke="midnightblue" points="332.309,-89.5001 342.309,-86 332.309,-82.5001 332.309,-89.5001"/>
</g>
<!-- Node6&#45;&gt;Node3 -->
<g id="edge10" class="edge"><title>Node6&#45;&gt;Node3</title>
<path fill="none" stroke="midnightblue" d="M185.637,-8.83995C217.369,-8.82831 266.993,-12.0002 306,-29 326.816,-38.0719 346.206,-55.595 358.91,-68.8289"/>
<polygon fill="midnightblue" stroke="midnightblue" points="356.551,-71.4333 365.909,-76.4008 361.691,-66.6817 356.551,-71.4333"/>
</g>
</g>
</svg>
