<?xml version="1.0" encoding="UTF-8" standalone="no"?>
<!DOCTYPE svg PUBLIC "-//W3C//DTD SVG 1.1//EN"
 "http://www.w3.org/Graphics/SVG/1.1/DTD/svg11.dtd">
<!-- Generated by graphviz version 2.40.1 (20161225.0304)
 -->
<!-- Title: writeDistribution Pages: 1 -->
<svg width="301pt" height="46pt"
 viewBox="0.00 0.00 300.87 46.00" xmlns="http://www.w3.org/2000/svg" xmlns:xlink="http://www.w3.org/1999/xlink">
<g id="graph0" class="graph" transform="scale(1 1) rotate(0) translate(4 42)">
<title>writeDistribution</title>
<polygon fill="#ffffff" stroke="transparent" points="-4,4 -4,-42 296.8662,-42 296.8662,4 -4,4"/>
<!-- Node540 -->
<g id="node1" class="node">
<title>Node540</title>
<polygon fill="#bfbfbf" stroke="#000000" points="0,-.5 0,-18.5 87.1328,-18.5 87.1328,-.5 0,-.5"/>
<text text-anchor="middle" x="43.5664" y="-6.5" font-family="Helvetica,sans-Serif" font-size="10.00" fill="#000000">writeDistribution</text>
</g>
<!-- Node541 -->
<g id="node2" class="node">
<title>Node541</title>
<g id="a_node2"><a xlink:href="../../d0/d3e/pps-files_8cpp.html#a94ad6f36dae10e5652ea241b11d2e5c7" target="_top" xlink:title="open_logerr">
<polygon fill="#ffffff" stroke="#ff0000" points="123.1328,-19.5 123.1328,-37.5 192.5068,-37.5 192.5068,-19.5 123.1328,-19.5"/>
<text text-anchor="middle" x="157.8198" y="-25.5" font-family="Helvetica,sans-Serif" font-size="10.00" fill="#000000">open_logerr</text>
</a>
</g>
</g>
<!-- Node540&#45;&gt;Node541 -->
<g id="edge1" class="edge">
<title>Node540&#45;&gt;Node541</title>
<path fill="none" stroke="#191970" d="M87.413,-16.7916C95.7345,-18.1754 104.454,-19.6254 112.8108,-21.0151"/>
<polygon fill="#191970" stroke="#191970" points="112.3346,-24.4839 122.7733,-22.6719 113.483,-17.5788 112.3346,-24.4839"/>
</g>
<!-- Node543 -->
<g id="node3" class="node">
<title>Node543</title>
<g id="a_node3"><a xlink:href="../../d0/d3e/pps-files_8cpp.html#ae20c07f56a5b2b05b636f6a0a31ce214" target="_top" xlink:title="writeToLog">
<polygon fill="#ffffff" stroke="#ff0000" points="228.5068,-.5 228.5068,-18.5 292.8662,-18.5 292.8662,-.5 228.5068,-.5"/>
<text text-anchor="middle" x="260.6865" y="-6.5" font-family="Helvetica,sans-Serif" font-size="10.00" fill="#000000">writeToLog</text>
</a>
</g>
</g>
<!-- Node540&#45;&gt;Node543 -->
<g id="edge3" class="edge">
<title>Node540&#45;&gt;Node543</title>
<path fill="none" stroke="#191970" d="M87.2427,-9.5C125.3882,-9.5 180.4154,-9.5 218.2034,-9.5"/>
<polygon fill="#191970" stroke="#191970" points="218.3761,-13.0001 228.3761,-9.5 218.3761,-6.0001 218.3761,-13.0001"/>
</g>
<!-- Node541&#45;&gt;Node543 -->
<g id="edge2" class="edge">
<title>Node541&#45;&gt;Node543</title>
<path fill="none" stroke="#191970" d="M192.6458,-22.0675C200.9406,-20.5354 209.881,-18.884 218.4672,-17.2981"/>
<polygon fill="#191970" stroke="#191970" points="219.1262,-20.7357 228.3241,-15.4775 217.8547,-13.8521 219.1262,-20.7357"/>
</g>
</g>
</svg>
