<?xml version="1.0" encoding="UTF-8" standalone="no"?>
<!DOCTYPE svg PUBLIC "-//W3C//DTD SVG 1.1//EN"
 "http://www.w3.org/Graphics/SVG/1.1/DTD/svg11.dtd">
<!-- Generated by graphviz version 2.36.0 (20140111.2315)
 -->
<!-- Title: errorReadingMsgTo Pages: 1 -->
<svg width="260pt" height="66pt"
 viewBox="0.00 0.00 260.00 66.00" xmlns="http://www.w3.org/2000/svg" xmlns:xlink="http://www.w3.org/1999/xlink">
<g id="graph0" class="graph" transform="scale(1 1) rotate(0) translate(4 62)">
<title>errorReadingMsgTo</title>
<polygon fill="white" stroke="none" points="-4,4 -4,-62 256,-62 256,4 -4,4"/>
<!-- Node1 -->
<g id="node1" class="node"><title>Node1</title>
<polygon fill="#bfbfbf" stroke="black" points="0,-19.5 0,-38.5 102,-38.5 102,-19.5 0,-19.5"/>
<text text-anchor="middle" x="51" y="-26.5" font-family="Helvetica,sans-Serif" font-size="10.00">errorReadingMsgTo</text>
</g>
<!-- Node2 -->
<g id="node2" class="node"><title>Node2</title>
<g id="a_node2"><a xlink:href="../../d0/d3e/pps-files_8cpp.html#a459e7950f1def63780ba7fda8e3c12d2" target="_top" xlink:title="read_logerr">
<polygon fill="white" stroke="red" points="162.5,-38.5 162.5,-57.5 227.5,-57.5 227.5,-38.5 162.5,-38.5"/>
<text text-anchor="middle" x="195" y="-45.5" font-family="Helvetica,sans-Serif" font-size="10.00">read_logerr</text>
</a>
</g>
</g>
<!-- Node1&#45;&gt;Node2 -->
<g id="edge1" class="edge"><title>Node1&#45;&gt;Node2</title>
<path fill="none" stroke="midnightblue" d="M112.053,-37.0353C129.245,-39.3356 147.315,-41.7534 162.098,-43.7314"/>
<polygon fill="midnightblue" stroke="midnightblue" points="112.44,-33.5559 102.064,-35.6987 111.511,-40.4941 112.44,-33.5559"/>
</g>
<!-- Node3 -->
<g id="node3" class="node"><title>Node3</title>
<g id="a_node3"><a xlink:href="../../d0/d3e/pps-files_8cpp.html#a5e4671d51ee126315cb694ef235d359a" target="_top" xlink:title="writeFileMsgToLogbuf">
<polygon fill="white" stroke="red" points="138.5,-0.5 138.5,-19.5 251.5,-19.5 251.5,-0.5 138.5,-0.5"/>
<text text-anchor="middle" x="195" y="-7.5" font-family="Helvetica,sans-Serif" font-size="10.00">writeFileMsgToLogbuf</text>
</a>
</g>
</g>
<!-- Node1&#45;&gt;Node3 -->
<g id="edge2" class="edge"><title>Node1&#45;&gt;Node3</title>
<path fill="none" stroke="midnightblue" d="M112.065,-20.9631C120.698,-19.808 129.552,-18.6234 138.099,-17.4797"/>
<polygon fill="midnightblue" stroke="midnightblue" points="111.511,-17.5059 102.064,-22.3013 112.44,-24.4441 111.511,-17.5059"/>
</g>
</g>
</svg>
