<?xml version="1.0" encoding="UTF-8" standalone="no"?>
<!DOCTYPE svg PUBLIC "-//W3C//DTD SVG 1.1//EN"
 "http://www.w3.org/Graphics/SVG/1.1/DTD/svg11.dtd">
<!-- Generated by graphviz version 2.40.1 (20161225.0304)
 -->
<!-- Title: writeSysDelay Pages: 1 -->
<svg width="293pt" height="46pt"
 viewBox="0.00 0.00 293.08 46.00" xmlns="http://www.w3.org/2000/svg" xmlns:xlink="http://www.w3.org/1999/xlink">
<g id="graph0" class="graph" transform="scale(1 1) rotate(0) translate(4 42)">
<title>writeSysDelay</title>
<polygon fill="#ffffff" stroke="transparent" points="-4,4 -4,-42 289.083,-42 289.083,4 -4,4"/>
<!-- Node640 -->
<g id="node1" class="node">
<title>Node640</title>
<polygon fill="#bfbfbf" stroke="#000000" points="0,-.5 0,-18.5 79.3496,-18.5 79.3496,-.5 0,-.5"/>
<text text-anchor="middle" x="39.6748" y="-6.5" font-family="Helvetica,sans-Serif" font-size="10.00" fill="#000000">writeSysDelay</text>
</g>
<!-- Node641 -->
<g id="node2" class="node">
<title>Node641</title>
<g id="a_node2"><a xlink:href="../../d0/d3e/pps-files_8cpp.html#a94ad6f36dae10e5652ea241b11d2e5c7" target="_top" xlink:title="open_logerr">
<polygon fill="#ffffff" stroke="#ff0000" points="115.3496,-19.5 115.3496,-37.5 184.7236,-37.5 184.7236,-19.5 115.3496,-19.5"/>
<text text-anchor="middle" x="150.0366" y="-25.5" font-family="Helvetica,sans-Serif" font-size="10.00" fill="#000000">open_logerr</text>
</a>
</g>
</g>
<!-- Node640&#45;&gt;Node641 -->
<g id="edge1" class="edge">
<title>Node640&#45;&gt;Node641</title>
<path fill="none" stroke="#191970" d="M79.518,-16.3594C87.7701,-17.7801 96.5194,-19.2864 104.944,-20.7368"/>
<polygon fill="#191970" stroke="#191970" points="104.5549,-24.2212 115.0037,-22.4687 105.7426,-17.3227 104.5549,-24.2212"/>
</g>
<!-- Node643 -->
<g id="node3" class="node">
<title>Node643</title>
<g id="a_node3"><a xlink:href="../../d0/d3e/pps-files_8cpp.html#ae20c07f56a5b2b05b636f6a0a31ce214" target="_top" xlink:title="writeToLog">
<polygon fill="#ffffff" stroke="#ff0000" points="220.7236,-.5 220.7236,-18.5 285.083,-18.5 285.083,-.5 220.7236,-.5"/>
<text text-anchor="middle" x="252.9033" y="-6.5" font-family="Helvetica,sans-Serif" font-size="10.00" fill="#000000">writeToLog</text>
</a>
</g>
</g>
<!-- Node640&#45;&gt;Node643 -->
<g id="edge3" class="edge">
<title>Node640&#45;&gt;Node643</title>
<path fill="none" stroke="#191970" d="M79.7815,-9.5C117.0532,-9.5 172.3809,-9.5 210.4023,-9.5"/>
<polygon fill="#191970" stroke="#191970" points="210.638,-13.0001 220.6379,-9.5 210.6379,-6.0001 210.638,-13.0001"/>
</g>
<!-- Node641&#45;&gt;Node643 -->
<g id="edge2" class="edge">
<title>Node641&#45;&gt;Node643</title>
<path fill="none" stroke="#191970" d="M184.8626,-22.0675C193.1574,-20.5354 202.0978,-18.884 210.684,-17.2981"/>
<polygon fill="#191970" stroke="#191970" points="211.343,-20.7357 220.5409,-15.4775 210.0715,-13.8521 211.343,-20.7357"/>
</g>
</g>
</svg>
