<?xml version="1.0" encoding="UTF-8" standalone="no"?>
<!DOCTYPE svg PUBLIC "-//W3C//DTD SVG 1.1//EN"
 "http://www.w3.org/Graphics/SVG/1.1/DTD/svg11.dtd">
<!-- Generated by graphviz version 2.40.1 (20161225.0304)
 -->
<!-- Title: printAcceptedArgs Pages: 1 -->
<svg width="385pt" height="46pt"
 viewBox="0.00 0.00 384.81 46.00" xmlns="http://www.w3.org/2000/svg" xmlns:xlink="http://www.w3.org/1999/xlink">
<g id="graph0" class="graph" transform="scale(1 1) rotate(0) translate(4 42)">
<title>printAcceptedArgs</title>
<polygon fill="#ffffff" stroke="transparent" points="-4,4 -4,-42 380.8066,-42 380.8066,4 -4,4"/>
<!-- Node404 -->
<g id="node1" class="node">
<title>Node404</title>
<polygon fill="#bfbfbf" stroke="#000000" points="0,-.5 0,-18.5 97.709,-18.5 97.709,-.5 0,-.5"/>
<text text-anchor="middle" x="48.8545" y="-6.5" font-family="Helvetica,sans-Serif" font-size="10.00" fill="#000000">printAcceptedArgs</text>
</g>
<!-- Node405 -->
<g id="node2" class="node">
<title>Node405</title>
<g id="a_node2"><a xlink:href="../../d0/d3e/pps-files_8cpp.html#ac20a2f5a5d6284628d71e7e0cdc08248" target="_top" xlink:title="parseSaveDataRequest">
<polygon fill="#ffffff" stroke="#000000" points="133.709,-19.5 133.709,-37.5 255.8857,-37.5 255.8857,-19.5 133.709,-19.5"/>
<text text-anchor="middle" x="194.7974" y="-25.5" font-family="Helvetica,sans-Serif" font-size="10.00" fill="#000000">parseSaveDataRequest</text>
</a>
</g>
</g>
<!-- Node404&#45;&gt;Node405 -->
<g id="edge1" class="edge">
<title>Node404&#45;&gt;Node405</title>
<path fill="none" stroke="#191970" d="M107.9568,-17.1944C116.3661,-18.2892 125.0306,-19.4172 133.481,-20.5174"/>
<polygon fill="#191970" stroke="#191970" points="108.2255,-13.6999 97.8574,-15.8796 107.3218,-20.6414 108.2255,-13.6999"/>
</g>
<!-- Node406 -->
<g id="node3" class="node">
<title>Node406</title>
<g id="a_node3"><a xlink:href="../../d0/d3e/pps-files_8cpp.html#aa3e1b9d34eeedb9b1d03863dee0b8e58" target="_top" xlink:title="accessDaemon">
<polygon fill="#ffffff" stroke="#ff0000" points="291.8857,-.5 291.8857,-18.5 376.8066,-18.5 376.8066,-.5 291.8857,-.5"/>
<text text-anchor="middle" x="334.3462" y="-6.5" font-family="Helvetica,sans-Serif" font-size="10.00" fill="#000000">accessDaemon</text>
</a>
</g>
</g>
<!-- Node404&#45;&gt;Node406 -->
<g id="edge3" class="edge">
<title>Node404&#45;&gt;Node406</title>
<path fill="none" stroke="#191970" d="M108.1799,-9.5C162.8821,-9.5 242.764,-9.5 291.4966,-9.5"/>
<polygon fill="#191970" stroke="#191970" points="107.9323,-6.0001 97.9323,-9.5 107.9322,-13.0001 107.9323,-6.0001"/>
</g>
<!-- Node405&#45;&gt;Node406 -->
<g id="edge2" class="edge">
<title>Node405&#45;&gt;Node406</title>
<path fill="none" stroke="#191970" d="M266.1883,-18.7799C274.877,-17.5969 283.5323,-16.4185 291.6147,-15.318"/>
<polygon fill="#191970" stroke="#191970" points="265.4419,-15.3492 256.0055,-20.1663 266.3863,-22.2852 265.4419,-15.3492"/>
</g>
</g>
</svg>
