<?xml version="1.0" encoding="UTF-8" standalone="no"?>
<!DOCTYPE svg PUBLIC "-//W3C//DTD SVG 1.1//EN"
 "http://www.w3.org/Graphics/SVG/1.1/DTD/svg11.dtd">
<!-- Generated by graphviz version 2.40.1 (20161225.0304)
 -->
<!-- Title: open_logerr Pages: 1 -->
<svg width="323pt" height="46pt"
 viewBox="0.00 0.00 323.12 46.00" xmlns="http://www.w3.org/2000/svg" xmlns:xlink="http://www.w3.org/1999/xlink">
<g id="graph0" class="graph" transform="scale(1 1) rotate(0) translate(4 42)">
<title>open_logerr</title>
<polygon fill="#ffffff" stroke="transparent" points="-4,4 -4,-42 319.1172,-42 319.1172,4 -4,4"/>
<!-- Node350 -->
<g id="node1" class="node">
<title>Node350</title>
<polygon fill="#bfbfbf" stroke="#000000" points="0,-19.5 0,-37.5 69.374,-37.5 69.374,-19.5 0,-19.5"/>
<text text-anchor="middle" x="34.687" y="-25.5" font-family="Helvetica,sans-Serif" font-size="10.00" fill="#000000">open_logerr</text>
</g>
<!-- Node351 -->
<g id="node2" class="node">
<title>Node351</title>
<g id="a_node2"><a xlink:href="../../d0/d3e/pps-files_8cpp.html#a1509c961be7011d1a6a4b2d23715357a" target="_top" xlink:title="couldNotOpenMsgTo">
<polygon fill="#ffffff" stroke="#000000" points="205.7334,-19.5 205.7334,-37.5 315.1172,-37.5 315.1172,-19.5 205.7334,-19.5"/>
<text text-anchor="middle" x="260.4253" y="-25.5" font-family="Helvetica,sans-Serif" font-size="10.00" fill="#000000">couldNotOpenMsgTo</text>
</a>
</g>
</g>
<!-- Node350&#45;&gt;Node351 -->
<g id="edge1" class="edge">
<title>Node350&#45;&gt;Node351</title>
<path fill="none" stroke="#191970" d="M69.4639,-28.5C102.8696,-28.5 154.1762,-28.5 195.1988,-28.5"/>
<polygon fill="#191970" stroke="#191970" points="195.3896,-32.0001 205.3896,-28.5 195.3896,-25.0001 195.3896,-32.0001"/>
</g>
<!-- Node352 -->
<g id="node3" class="node">
<title>Node352</title>
<g id="a_node3"><a xlink:href="../../d0/d3e/pps-files_8cpp.html#ae20c07f56a5b2b05b636f6a0a31ce214" target="_top" xlink:title="writeToLog">
<polygon fill="#ffffff" stroke="#ff0000" points="105.374,-.5 105.374,-18.5 169.7334,-18.5 169.7334,-.5 105.374,-.5"/>
<text text-anchor="middle" x="137.5537" y="-6.5" font-family="Helvetica,sans-Serif" font-size="10.00" fill="#000000">writeToLog</text>
</a>
</g>
</g>
<!-- Node350&#45;&gt;Node352 -->
<g id="edge2" class="edge">
<title>Node350&#45;&gt;Node352</title>
<path fill="none" stroke="#191970" d="M69.513,-22.0675C77.8078,-20.5354 86.7482,-18.884 95.3344,-17.2981"/>
<polygon fill="#191970" stroke="#191970" points="95.9934,-20.7357 105.1913,-15.4775 94.7219,-13.8521 95.9934,-20.7357"/>
</g>
<!-- Node352&#45;&gt;Node351 -->
<g id="edge3" class="edge">
<title>Node352&#45;&gt;Node351</title>
<path fill="none" stroke="#191970" d="M169.8368,-14.492C177.7925,-15.7222 186.5974,-17.0838 195.5003,-18.4604"/>
<polygon fill="#191970" stroke="#191970" points="195.1361,-21.9457 205.5535,-20.015 196.2059,-15.0279 195.1361,-21.9457"/>
</g>
</g>
</svg>
