<?xml version="1.0" encoding="UTF-8" standalone="no"?>
<!DOCTYPE svg PUBLIC "-//W3C//DTD SVG 1.1//EN"
 "http://www.w3.org/Graphics/SVG/1.1/DTD/svg11.dtd">
<!-- Generated by graphviz version 2.36.0 (20140111.2315)
 -->
<!-- Title: showStatusEachSecond Pages: 1 -->
<svg width="246pt" height="66pt"
 viewBox="0.00 0.00 246.00 66.00" xmlns="http://www.w3.org/2000/svg" xmlns:xlink="http://www.w3.org/1999/xlink">
<g id="graph0" class="graph" transform="scale(1 1) rotate(0) translate(4 62)">
<title>showStatusEachSecond</title>
<polygon fill="white" stroke="none" points="-4,4 -4,-62 242,-62 242,4 -4,4"/>
<!-- Node1 -->
<g id="node1" class="node"><title>Node1</title>
<polygon fill="#bfbfbf" stroke="black" points="0,-19.5 0,-38.5 124,-38.5 124,-19.5 0,-19.5"/>
<text text-anchor="middle" x="62" y="-26.5" font-family="Helvetica,sans-Serif" font-size="10.00">showStatusEachSecond</text>
</g>
<!-- Node2 -->
<g id="node2" class="node"><title>Node2</title>
<g id="a_node2"><a xlink:href="../../d5/d60/pps-client_8cpp.html#a505a6be9b7669b349cea03a9fe663d74" target="_top" xlink:title="setSyncDelay">
<polygon fill="white" stroke="black" points="160,-38.5 160,-57.5 238,-57.5 238,-38.5 160,-38.5"/>
<text text-anchor="middle" x="199" y="-45.5" font-family="Helvetica,sans-Serif" font-size="10.00">setSyncDelay</text>
</a>
</g>
</g>
<!-- Node1&#45;&gt;Node2 -->
<g id="edge1" class="edge"><title>Node1&#45;&gt;Node2</title>
<path fill="none" stroke="midnightblue" d="M124.18,-37.6105C132.81,-38.8251 141.579,-40.0593 149.916,-41.2327"/>
<polygon fill="midnightblue" stroke="midnightblue" points="149.443,-44.7005 159.833,-42.6284 150.419,-37.7688 149.443,-44.7005"/>
</g>
<!-- Node3 -->
<g id="node3" class="node"><title>Node3</title>
<g id="a_node3"><a xlink:href="../../d0/d3e/pps-files_8cpp.html#a614325a5ddd56a0f08a04763bde4fe41" target="_top" xlink:title="getSeqNum">
<polygon fill="white" stroke="black" points="165,-0.5 165,-19.5 233,-19.5 233,-0.5 165,-0.5"/>
<text text-anchor="middle" x="199" y="-7.5" font-family="Helvetica,sans-Serif" font-size="10.00">getSeqNum</text>
</a>
</g>
</g>
<!-- Node1&#45;&gt;Node3 -->
<g id="edge2" class="edge"><title>Node1&#45;&gt;Node3</title>
<path fill="none" stroke="midnightblue" d="M124.18,-20.3895C134.427,-18.9473 144.869,-17.4777 154.552,-16.1149"/>
<polygon fill="midnightblue" stroke="midnightblue" points="155.301,-19.544 164.716,-14.6844 154.326,-12.6124 155.301,-19.544"/>
</g>
</g>
</svg>
