<?xml version="1.0" encoding="UTF-8" standalone="no"?>
<!DOCTYPE svg PUBLIC "-//W3C//DTD SVG 1.1//EN"
 "http://www.w3.org/Graphics/SVG/1.1/DTD/svg11.dtd">
<!-- Generated by graphviz version 2.40.1 (20161225.0304)
 -->
<!-- Title: writeMultipleDistrib Pages: 1 -->
<svg width="314pt" height="46pt"
 viewBox="0.00 0.00 313.64 46.00" xmlns="http://www.w3.org/2000/svg" xmlns:xlink="http://www.w3.org/1999/xlink">
<g id="graph0" class="graph" transform="scale(1 1) rotate(0) translate(4 42)">
<title>writeMultipleDistrib</title>
<polygon fill="#ffffff" stroke="transparent" points="-4,4 -4,-42 309.6396,-42 309.6396,4 -4,4"/>
<!-- Node612 -->
<g id="node1" class="node">
<title>Node612</title>
<polygon fill="#bfbfbf" stroke="#000000" points="0,-.5 0,-18.5 99.9063,-18.5 99.9063,-.5 0,-.5"/>
<text text-anchor="middle" x="49.9531" y="-6.5" font-family="Helvetica,sans-Serif" font-size="10.00" fill="#000000">writeMultipleDistrib</text>
</g>
<!-- Node613 -->
<g id="node2" class="node">
<title>Node613</title>
<g id="a_node2"><a xlink:href="../../d0/d3e/pps-files_8cpp.html#a94ad6f36dae10e5652ea241b11d2e5c7" target="_top" xlink:title="open_logerr">
<polygon fill="#ffffff" stroke="#ff0000" points="135.9063,-19.5 135.9063,-37.5 205.2803,-37.5 205.2803,-19.5 135.9063,-19.5"/>
<text text-anchor="middle" x="170.5933" y="-25.5" font-family="Helvetica,sans-Serif" font-size="10.00" fill="#000000">open_logerr</text>
</a>
</g>
</g>
<!-- Node612&#45;&gt;Node613 -->
<g id="edge1" class="edge">
<title>Node612&#45;&gt;Node613</title>
<path fill="none" stroke="#191970" d="M100.0673,-17.3926C108.6279,-18.7409 117.4709,-20.1336 125.8794,-21.4579"/>
<polygon fill="#191970" stroke="#191970" points="125.4496,-24.9332 135.8724,-23.0317 126.5387,-18.0185 125.4496,-24.9332"/>
</g>
<!-- Node615 -->
<g id="node3" class="node">
<title>Node615</title>
<g id="a_node3"><a xlink:href="../../d0/d3e/pps-files_8cpp.html#ae20c07f56a5b2b05b636f6a0a31ce214" target="_top" xlink:title="writeToLog">
<polygon fill="#ffffff" stroke="#ff0000" points="241.2803,-.5 241.2803,-18.5 305.6396,-18.5 305.6396,-.5 241.2803,-.5"/>
<text text-anchor="middle" x="273.46" y="-6.5" font-family="Helvetica,sans-Serif" font-size="10.00" fill="#000000">writeToLog</text>
</a>
</g>
</g>
<!-- Node612&#45;&gt;Node615 -->
<g id="edge3" class="edge">
<title>Node612&#45;&gt;Node615</title>
<path fill="none" stroke="#191970" d="M100.1124,-9.5C139.5235,-9.5 193.7974,-9.5 231.0595,-9.5"/>
<polygon fill="#191970" stroke="#191970" points="231.0917,-13.0001 241.0917,-9.5 231.0917,-6.0001 231.0917,-13.0001"/>
</g>
<!-- Node613&#45;&gt;Node615 -->
<g id="edge2" class="edge">
<title>Node613&#45;&gt;Node615</title>
<path fill="none" stroke="#191970" d="M205.4192,-22.0675C213.7141,-20.5354 222.6544,-18.884 231.2407,-17.2981"/>
<polygon fill="#191970" stroke="#191970" points="231.8997,-20.7357 241.0976,-15.4775 230.6282,-13.8521 231.8997,-20.7357"/>
</g>
</g>
</svg>
