<?xml version="1.0" encoding="UTF-8" standalone="no"?>
<!DOCTYPE svg PUBLIC "-//W3C//DTD SVG 1.1//EN"
 "http://www.w3.org/Graphics/SVG/1.1/DTD/svg11.dtd">
<!-- Generated by graphviz version 2.40.1 (20161225.0304)
 -->
<!-- Title: writeFrequencyVars Pages: 1 -->
<svg width="318pt" height="46pt"
 viewBox="0.00 0.00 317.92 46.00" xmlns="http://www.w3.org/2000/svg" xmlns:xlink="http://www.w3.org/1999/xlink">
<g id="graph0" class="graph" transform="scale(1 1) rotate(0) translate(4 42)">
<title>writeFrequencyVars</title>
<polygon fill="#ffffff" stroke="transparent" points="-4,4 -4,-42 313.917,-42 313.917,4 -4,4"/>
<!-- Node582 -->
<g id="node1" class="node">
<title>Node582</title>
<polygon fill="#bfbfbf" stroke="#000000" points="0,-.5 0,-18.5 104.1836,-18.5 104.1836,-.5 0,-.5"/>
<text text-anchor="middle" x="52.0918" y="-6.5" font-family="Helvetica,sans-Serif" font-size="10.00" fill="#000000">writeFrequencyVars</text>
</g>
<!-- Node583 -->
<g id="node2" class="node">
<title>Node583</title>
<g id="a_node2"><a xlink:href="../../d0/d3e/pps-files_8cpp.html#a94ad6f36dae10e5652ea241b11d2e5c7" target="_top" xlink:title="open_logerr">
<polygon fill="#ffffff" stroke="#ff0000" points="140.1836,-19.5 140.1836,-37.5 209.5576,-37.5 209.5576,-19.5 140.1836,-19.5"/>
<text text-anchor="middle" x="174.8706" y="-25.5" font-family="Helvetica,sans-Serif" font-size="10.00" fill="#000000">open_logerr</text>
</a>
</g>
</g>
<!-- Node582&#45;&gt;Node583 -->
<g id="edge1" class="edge">
<title>Node582&#45;&gt;Node583</title>
<path fill="none" stroke="#191970" d="M104.5172,-17.6128C113.0432,-18.9322 121.805,-20.2881 130.1256,-21.5757"/>
<polygon fill="#191970" stroke="#191970" points="129.5928,-25.0348 140.0104,-23.1054 130.6633,-18.1172 129.5928,-25.0348"/>
</g>
<!-- Node585 -->
<g id="node3" class="node">
<title>Node585</title>
<g id="a_node3"><a xlink:href="../../d0/d3e/pps-files_8cpp.html#ae20c07f56a5b2b05b636f6a0a31ce214" target="_top" xlink:title="writeToLog">
<polygon fill="#ffffff" stroke="#ff0000" points="245.5576,-.5 245.5576,-18.5 309.917,-18.5 309.917,-.5 245.5576,-.5"/>
<text text-anchor="middle" x="277.7373" y="-6.5" font-family="Helvetica,sans-Serif" font-size="10.00" fill="#000000">writeToLog</text>
</a>
</g>
</g>
<!-- Node582&#45;&gt;Node585 -->
<g id="edge3" class="edge">
<title>Node582&#45;&gt;Node585</title>
<path fill="none" stroke="#191970" d="M104.4266,-9.5C144.0037,-9.5 197.6799,-9.5 234.7611,-9.5"/>
<polygon fill="#191970" stroke="#191970" points="235.2277,-13.0001 245.2276,-9.5 235.2276,-6.0001 235.2277,-13.0001"/>
</g>
<!-- Node583&#45;&gt;Node585 -->
<g id="edge2" class="edge">
<title>Node583&#45;&gt;Node585</title>
<path fill="none" stroke="#191970" d="M209.6966,-22.0675C217.9914,-20.5354 226.9318,-18.884 235.518,-17.2981"/>
<polygon fill="#191970" stroke="#191970" points="236.177,-20.7357 245.3749,-15.4775 234.9055,-13.8521 236.177,-20.7357"/>
</g>
</g>
</svg>
