<?xml version="1.0" encoding="UTF-8" standalone="no"?>
<!DOCTYPE svg PUBLIC "-//W3C//DTD SVG 1.1//EN"
 "http://www.w3.org/Graphics/SVG/1.1/DTD/svg11.dtd">
<!-- Generated by graphviz version 2.40.1 (20161225.0304)
 -->
<!-- Title: saveDoubleArray Pages: 1 -->
<svg width="306pt" height="46pt"
 viewBox="0.00 0.00 306.44 46.00" xmlns="http://www.w3.org/2000/svg" xmlns:xlink="http://www.w3.org/1999/xlink">
<g id="graph0" class="graph" transform="scale(1 1) rotate(0) translate(4 42)">
<title>saveDoubleArray</title>
<polygon fill="#ffffff" stroke="transparent" points="-4,4 -4,-42 302.4375,-42 302.4375,4 -4,4"/>
<!-- Node499 -->
<g id="node1" class="node">
<title>Node499</title>
<polygon fill="#bfbfbf" stroke="#000000" points="0,-.5 0,-18.5 92.7041,-18.5 92.7041,-.5 0,-.5"/>
<text text-anchor="middle" x="46.3521" y="-6.5" font-family="Helvetica,sans-Serif" font-size="10.00" fill="#000000">saveDoubleArray</text>
</g>
<!-- Node500 -->
<g id="node2" class="node">
<title>Node500</title>
<g id="a_node2"><a xlink:href="../../d0/d3e/pps-files_8cpp.html#a94ad6f36dae10e5652ea241b11d2e5c7" target="_top" xlink:title="open_logerr">
<polygon fill="#ffffff" stroke="#ff0000" points="128.7041,-19.5 128.7041,-37.5 198.0781,-37.5 198.0781,-19.5 128.7041,-19.5"/>
<text text-anchor="middle" x="163.3911" y="-25.5" font-family="Helvetica,sans-Serif" font-size="10.00" fill="#000000">open_logerr</text>
</a>
</g>
</g>
<!-- Node499&#45;&gt;Node500 -->
<g id="edge1" class="edge">
<title>Node499&#45;&gt;Node500</title>
<path fill="none" stroke="#191970" d="M92.9453,-17.0639C101.3748,-18.4323 110.1491,-19.8568 118.5279,-21.2169"/>
<polygon fill="#191970" stroke="#191970" points="118.0705,-24.6884 128.5021,-22.8362 119.1922,-17.7789 118.0705,-24.6884"/>
</g>
<!-- Node502 -->
<g id="node3" class="node">
<title>Node502</title>
<g id="a_node3"><a xlink:href="../../d0/d3e/pps-files_8cpp.html#ae20c07f56a5b2b05b636f6a0a31ce214" target="_top" xlink:title="writeToLog">
<polygon fill="#ffffff" stroke="#ff0000" points="234.0781,-.5 234.0781,-18.5 298.4375,-18.5 298.4375,-.5 234.0781,-.5"/>
<text text-anchor="middle" x="266.2578" y="-6.5" font-family="Helvetica,sans-Serif" font-size="10.00" fill="#000000">writeToLog</text>
</a>
</g>
</g>
<!-- Node499&#45;&gt;Node502 -->
<g id="edge3" class="edge">
<title>Node499&#45;&gt;Node502</title>
<path fill="none" stroke="#191970" d="M92.7197,-9.5C131.421,-9.5 186.1353,-9.5 223.726,-9.5"/>
<polygon fill="#191970" stroke="#191970" points="223.8469,-13.0001 233.8469,-9.5 223.8469,-6.0001 223.8469,-13.0001"/>
</g>
<!-- Node500&#45;&gt;Node502 -->
<g id="edge2" class="edge">
<title>Node500&#45;&gt;Node502</title>
<path fill="none" stroke="#191970" d="M198.2171,-22.0675C206.5119,-20.5354 215.4523,-18.884 224.0385,-17.2981"/>
<polygon fill="#191970" stroke="#191970" points="224.6975,-20.7357 233.8954,-15.4775 223.426,-13.8521 224.6975,-20.7357"/>
</g>
</g>
</svg>
