<?xml version="1.0" encoding="UTF-8" standalone="no"?>
<!DOCTYPE svg PUBLIC "-//W3C//DTD SVG 1.1//EN"
 "http://www.w3.org/Graphics/SVG/1.1/DTD/svg11.dtd">
<!-- Generated by graphviz version 2.40.1 (20161225.0304)
 -->
<!-- Title: writeToLogNoTimestamp Pages: 1 -->
<svg width="280pt" height="64pt"
 viewBox="0.00 0.00 279.61 64.00" xmlns="http://www.w3.org/2000/svg" xmlns:xlink="http://www.w3.org/1999/xlink">
<g id="graph0" class="graph" transform="scale(1 1) rotate(0) translate(4 60)">
<title>writeToLogNoTimestamp</title>
<polygon fill="#ffffff" stroke="transparent" points="-4,4 -4,-60 275.6133,-60 275.6133,4 -4,4"/>
<!-- Node727 -->
<g id="node1" class="node">
<title>Node727</title>
<polygon fill="#bfbfbf" stroke="#000000" points="0,-18.5 0,-36.5 126.2295,-36.5 126.2295,-18.5 0,-18.5"/>
<text text-anchor="middle" x="63.1147" y="-24.5" font-family="Helvetica,sans-Serif" font-size="10.00" fill="#000000">writeToLogNoTimestamp</text>
</g>
<!-- Node728 -->
<g id="node2" class="node">
<title>Node728</title>
<g id="a_node2"><a xlink:href="../../d0/d3e/pps-files_8cpp.html#a6f609d689ebe787455ce220808ca3ba0" target="_top" xlink:title="bufferStatusMsg">
<polygon fill="#ffffff" stroke="#000000" points="172.603,-37.5 172.603,-55.5 261.2397,-55.5 261.2397,-37.5 172.603,-37.5"/>
<text text-anchor="middle" x="216.9214" y="-43.5" font-family="Helvetica,sans-Serif" font-size="10.00" fill="#000000">bufferStatusMsg</text>
</a>
</g>
</g>
<!-- Node727&#45;&gt;Node728 -->
<g id="edge1" class="edge">
<title>Node727&#45;&gt;Node728</title>
<path fill="none" stroke="#191970" d="M126.5618,-35.3377C138.4661,-36.8083 150.8144,-38.3337 162.4174,-39.767"/>
<polygon fill="#191970" stroke="#191970" points="162.0385,-43.2467 172.3922,-40.9992 162.8968,-36.2995 162.0385,-43.2467"/>
</g>
<!-- Node729 -->
<g id="node3" class="node">
<title>Node729</title>
<g id="a_node3"><a xlink:href="../../d0/d3e/pps-files_8cpp.html#a1509c961be7011d1a6a4b2d23715357a" target="_top" xlink:title="couldNotOpenMsgTo">
<polygon fill="#ffffff" stroke="#000000" points="162.2295,-.5 162.2295,-18.5 271.6133,-18.5 271.6133,-.5 162.2295,-.5"/>
<text text-anchor="middle" x="216.9214" y="-6.5" font-family="Helvetica,sans-Serif" font-size="10.00" fill="#000000">couldNotOpenMsgTo</text>
</a>
</g>
</g>
<!-- Node727&#45;&gt;Node729 -->
<g id="edge2" class="edge">
<title>Node727&#45;&gt;Node729</title>
<path fill="none" stroke="#191970" d="M126.5618,-20.0748C134.9156,-19.0971 143.4881,-18.0939 151.8682,-17.1132"/>
<polygon fill="#191970" stroke="#191970" points="152.4417,-20.57 161.9671,-15.9313 151.628,-13.6175 152.4417,-20.57"/>
</g>
</g>
</svg>
