<?xml version="1.0" encoding="UTF-8" standalone="no"?>
<!DOCTYPE svg PUBLIC "-//W3C//DTD SVG 1.1//EN"
 "http://www.w3.org/Graphics/SVG/1.1/DTD/svg11.dtd">
<!-- Generated by graphviz version 2.40.1 (20161225.0304)
 -->
<!-- Title: driver_load Pages: 1 -->
<svg width="410pt" height="120pt"
 viewBox="0.00 0.00 410.13 120.22" xmlns="http://www.w3.org/2000/svg" xmlns:xlink="http://www.w3.org/1999/xlink">
<g id="graph0" class="graph" transform="scale(1 1) rotate(0) translate(4 116.22)">
<title>driver_load</title>
<polygon fill="#ffffff" stroke="transparent" points="-4,4 -4,-116.22 406.127,-116.22 406.127,4 -4,4"/>
<!-- Node229 -->
<g id="node1" class="node">
<title>Node229</title>
<polygon fill="#bfbfbf" stroke="#000000" points="0,-36.72 0,-54.72 65.4727,-54.72 65.4727,-36.72 0,-36.72"/>
<text text-anchor="middle" x="32.7363" y="-42.72" font-family="Helvetica,sans-Serif" font-size="10.00" fill="#000000">driver_load</text>
</g>
<!-- Node230 -->
<g id="node2" class="node">
<title>Node230</title>
<g id="a_node2"><a xlink:href="../../d0/d3e/pps-files_8cpp.html#a80576b7ed0230355826c49f761ce773f" target="_top" xlink:title="getLinuxVersion">
<polygon fill="#ffffff" stroke="#000000" points="101.4727,-93.72 101.4727,-111.72 188.6396,-111.72 188.6396,-93.72 101.4727,-93.72"/>
<text text-anchor="middle" x="145.0562" y="-99.72" font-family="Helvetica,sans-Serif" font-size="10.00" fill="#000000">getLinuxVersion</text>
</a>
</g>
</g>
<!-- Node229&#45;&gt;Node230 -->
<g id="edge1" class="edge">
<title>Node229&#45;&gt;Node230</title>
<path fill="none" stroke="#191970" d="M50.5337,-54.7518C68.6648,-63.953 97.0146,-78.3399 117.941,-88.9596"/>
<polygon fill="#191970" stroke="#191970" points="116.4687,-92.1373 126.9701,-93.5417 119.6365,-85.8951 116.4687,-92.1373"/>
</g>
<!-- Node231 -->
<g id="node3" class="node">
<title>Node231</title>
<g id="a_node3"><a xlink:href="../../d0/d3e/pps-files_8cpp.html#a19da05b45d1e94170f5fe86decb70bfb" target="_top" xlink:title="sysCommand">
<polygon fill="#ffffff" stroke="#000000" points="224.6396,-55.72 224.6396,-73.72 301.7676,-73.72 301.7676,-55.72 224.6396,-55.72"/>
<text text-anchor="middle" x="263.2036" y="-61.72" font-family="Helvetica,sans-Serif" font-size="10.00" fill="#000000">sysCommand</text>
</a>
</g>
</g>
<!-- Node229&#45;&gt;Node231 -->
<g id="edge6" class="edge">
<title>Node229&#45;&gt;Node231</title>
<path fill="none" stroke="#191970" d="M65.7567,-48.4422C104.6703,-51.6503 169.6834,-57.0101 214.4112,-60.6975"/>
<polygon fill="#191970" stroke="#191970" points="214.2185,-64.1934 224.4723,-61.5269 214.7937,-57.2171 214.2185,-64.1934"/>
</g>
<!-- Node232 -->
<g id="node4" class="node">
<title>Node232</title>
<g id="a_node4"><a xlink:href="../../d0/d3e/pps-files_8cpp.html#ae20c07f56a5b2b05b636f6a0a31ce214" target="_top" xlink:title="writeToLog">
<polygon fill="#ffffff" stroke="#ff0000" points="337.7676,-36.72 337.7676,-54.72 402.127,-54.72 402.127,-36.72 337.7676,-36.72"/>
<text text-anchor="middle" x="369.9473" y="-42.72" font-family="Helvetica,sans-Serif" font-size="10.00" fill="#000000">writeToLog</text>
</a>
</g>
</g>
<!-- Node229&#45;&gt;Node232 -->
<g id="edge5" class="edge">
<title>Node229&#45;&gt;Node232</title>
<path fill="none" stroke="#191970" d="M44.5982,-36.6889C57.7,-27.3308 79.8194,-13.3069 101.4727,-7.72 185.2295,13.8906 287.0672,-15.0994 337.8785,-33.1842"/>
<polygon fill="#191970" stroke="#191970" points="336.746,-36.4966 347.3399,-36.6375 339.1461,-29.9209 336.746,-36.4966"/>
</g>
<!-- Node235 -->
<g id="node5" class="node">
<title>Node235</title>
<g id="a_node5"><a xlink:href="../../d0/d3e/pps-files_8cpp.html#a0ff8b8ea02b0483a116f8b5089546ea4" target="_top" xlink:title="copyMajorTo">
<polygon fill="#ffffff" stroke="#ff0000" points="108.7114,-17.72 108.7114,-35.72 181.4009,-35.72 181.4009,-17.72 108.7114,-17.72"/>
<text text-anchor="middle" x="145.0562" y="-23.72" font-family="Helvetica,sans-Serif" font-size="10.00" fill="#000000">copyMajorTo</text>
</a>
</g>
</g>
<!-- Node229&#45;&gt;Node235 -->
<g id="edge7" class="edge">
<title>Node229&#45;&gt;Node235</title>
<path fill="none" stroke="#191970" d="M65.5258,-40.1733C75.8375,-38.429 87.4286,-36.4683 98.5056,-34.5945"/>
<polygon fill="#191970" stroke="#191970" points="99.2063,-38.0258 108.4824,-32.9068 98.0387,-31.1238 99.2063,-38.0258"/>
</g>
<!-- Node230&#45;&gt;Node231 -->
<g id="edge2" class="edge">
<title>Node230&#45;&gt;Node231</title>
<path fill="none" stroke="#191970" d="M173.0555,-93.7145C188.6851,-88.6875 208.3719,-82.3556 225.3579,-76.8924"/>
<polygon fill="#191970" stroke="#191970" points="226.5478,-80.1863 234.9959,-73.7925 224.4045,-73.5225 226.5478,-80.1863"/>
</g>
<!-- Node230&#45;&gt;Node232 -->
<g id="edge4" class="edge">
<title>Node230&#45;&gt;Node232</title>
<path fill="none" stroke="#191970" d="M188.9305,-101.9181C220.9024,-100.2577 264.8908,-95.7184 301.7676,-83.72 318.3585,-78.3219 335.5066,-68.7419 348.4549,-60.5517"/>
<polygon fill="#191970" stroke="#191970" points="350.621,-63.3171 357.0729,-54.9134 346.7886,-57.4594 350.621,-63.3171"/>
</g>
<!-- Node231&#45;&gt;Node232 -->
<g id="edge3" class="edge">
<title>Node231&#45;&gt;Node232</title>
<path fill="none" stroke="#191970" d="M302.0425,-57.8068C310.3488,-56.3283 319.1636,-54.7593 327.5947,-53.2586"/>
<polygon fill="#191970" stroke="#191970" points="328.3968,-56.6709 337.6287,-51.4726 327.1701,-49.7793 328.3968,-56.6709"/>
</g>
<!-- Node235&#45;&gt;Node231 -->
<g id="edge8" class="edge">
<title>Node235&#45;&gt;Node231</title>
<path fill="none" stroke="#191970" d="M173.0555,-35.7255C188.6851,-40.7525 208.3719,-47.0844 225.3579,-52.5476"/>
<polygon fill="#191970" stroke="#191970" points="224.4045,-55.9175 234.9959,-55.6475 226.5478,-49.2537 224.4045,-55.9175"/>
</g>
<!-- Node235&#45;&gt;Node232 -->
<g id="edge9" class="edge">
<title>Node235&#45;&gt;Node232</title>
<path fill="none" stroke="#191970" d="M181.4387,-29.7938C221.3204,-33.1632 285.234,-38.563 327.4053,-42.1258"/>
<polygon fill="#191970" stroke="#191970" points="327.3713,-45.6353 337.6305,-42.9897 327.9607,-38.6602 327.3713,-45.6353"/>
</g>
</g>
</svg>
