<?xml version="1.0" encoding="UTF-8" standalone="no"?>
<!DOCTYPE svg PUBLIC "-//W3C//DTD SVG 1.1//EN"
 "http://www.w3.org/Graphics/SVG/1.1/DTD/svg11.dtd">
<!-- Generated by graphviz version 2.40.1 (20161225.0304)
 -->
<!-- Title: read_logerr Pages: 1 -->
<svg width="184pt" height="138pt"
 viewBox="0.00 0.00 183.83 138.00" xmlns="http://www.w3.org/2000/svg" xmlns:xlink="http://www.w3.org/1999/xlink">
<g id="graph0" class="graph" transform="scale(1 1) rotate(0) translate(4 134)">
<title>read_logerr</title>
<polygon fill="#ffffff" stroke="transparent" points="-4,4 -4,-134 179.832,-134 179.832,4 -4,4"/>
<!-- Node448 -->
<g id="node1" class="node">
<title>Node448</title>
<polygon fill="#bfbfbf" stroke="#000000" points="0,-55.5 0,-73.5 67.1426,-73.5 67.1426,-55.5 0,-55.5"/>
<text text-anchor="middle" x="33.5713" y="-61.5" font-family="Helvetica,sans-Serif" font-size="10.00" fill="#000000">read_logerr</text>
</g>
<!-- Node449 -->
<g id="node2" class="node">
<title>Node449</title>
<g id="a_node2"><a xlink:href="../../d0/d3e/pps-files_8cpp.html#ab03cf9b5563affdcf46a4ca95d4ff4ed" target="_top" xlink:title="getChildPID">
<polygon fill="#ffffff" stroke="#000000" points="104.8076,-111.5 104.8076,-129.5 174.167,-129.5 174.167,-111.5 104.8076,-111.5"/>
<text text-anchor="middle" x="139.4873" y="-117.5" font-family="Helvetica,sans-Serif" font-size="10.00" fill="#000000">getChildPID</text>
</a>
</g>
</g>
<!-- Node448&#45;&gt;Node449 -->
<g id="edge1" class="edge">
<title>Node448&#45;&gt;Node449</title>
<path fill="none" stroke="#191970" d="M58.7186,-78.5517C71.8832,-85.8272 88.3088,-94.7795 103.1426,-102.5 108.8889,-105.4907 115.1989,-108.6566 120.9255,-111.4854"/>
<polygon fill="#191970" stroke="#191970" points="60.221,-75.3826 49.7785,-73.5919 56.8251,-81.5037 60.221,-75.3826"/>
</g>
<!-- Node450 -->
<g id="node3" class="node">
<title>Node450</title>
<g id="a_node3"><a xlink:href="../../d0/d3e/pps-files_8cpp.html#a63902ed5404b3607594a3ad7d080da10" target="_top" xlink:title="disableNTP">
<polygon fill="#ffffff" stroke="#ff0000" points="105.6426,-74.5 105.6426,-92.5 173.332,-92.5 173.332,-74.5 105.6426,-74.5"/>
<text text-anchor="middle" x="139.4873" y="-80.5" font-family="Helvetica,sans-Serif" font-size="10.00" fill="#000000">disableNTP</text>
</a>
</g>
</g>
<!-- Node448&#45;&gt;Node450 -->
<g id="edge2" class="edge">
<title>Node448&#45;&gt;Node450</title>
<path fill="none" stroke="#191970" d="M77.3946,-72.3614C86.8269,-74.0534 96.6579,-75.8169 105.6415,-77.4285"/>
<polygon fill="#191970" stroke="#191970" points="77.8359,-68.8847 67.375,-70.564 76.5999,-75.7747 77.8359,-68.8847"/>
</g>
<!-- Node452 -->
<g id="node4" class="node">
<title>Node452</title>
<g id="a_node4"><a xlink:href="../../d0/d3e/pps-files_8cpp.html#a6354b54021f614ab3ab87ef5b3df64d0" target="_top" xlink:title="enableNTP">
<polygon fill="#ffffff" stroke="#ff0000" points="106.4727,-37.5 106.4727,-55.5 172.502,-55.5 172.502,-37.5 106.4727,-37.5"/>
<text text-anchor="middle" x="139.4873" y="-43.5" font-family="Helvetica,sans-Serif" font-size="10.00" fill="#000000">enableNTP</text>
</a>
</g>
</g>
<!-- Node448&#45;&gt;Node452 -->
<g id="edge3" class="edge">
<title>Node448&#45;&gt;Node452</title>
<path fill="none" stroke="#191970" d="M77.2903,-57.0701C87.0087,-55.4185 97.1554,-53.6941 106.3663,-52.1288"/>
<polygon fill="#191970" stroke="#191970" points="76.6472,-53.6292 67.375,-58.7552 77.8201,-60.5302 76.6472,-53.6292"/>
</g>
<!-- Node453 -->
<g id="node5" class="node">
<title>Node453</title>
<g id="a_node5"><a xlink:href="../../d0/d3e/pps-files_8cpp.html#a0ff8b8ea02b0483a116f8b5089546ea4" target="_top" xlink:title="copyMajorTo">
<polygon fill="#ffffff" stroke="#ff0000" points="103.1426,-.5 103.1426,-18.5 175.832,-18.5 175.832,-.5 103.1426,-.5"/>
<text text-anchor="middle" x="139.4873" y="-6.5" font-family="Helvetica,sans-Serif" font-size="10.00" fill="#000000">copyMajorTo</text>
</a>
</g>
</g>
<!-- Node448&#45;&gt;Node453 -->
<g id="edge4" class="edge">
<title>Node448&#45;&gt;Node453</title>
<path fill="none" stroke="#191970" d="M59.9869,-50.7829C79.3498,-40.7282 105.0975,-27.3579 121.9714,-18.5956"/>
<polygon fill="#191970" stroke="#191970" points="58.323,-47.7031 51.0612,-55.4179 61.549,-53.9155 58.323,-47.7031"/>
</g>
</g>
</svg>
