<?xml version="1.0" encoding="UTF-8" standalone="no"?>
<!DOCTYPE svg PUBLIC "-//W3C//DTD SVG 1.1//EN"
 "http://www.w3.org/Graphics/SVG/1.1/DTD/svg11.dtd">
<!-- Generated by graphviz version 2.40.1 (20161225.0304)
 -->
<!-- Title: getLinuxVersion Pages: 1 -->
<svg width="309pt" height="46pt"
 viewBox="0.00 0.00 308.65 46.00" xmlns="http://www.w3.org/2000/svg" xmlns:xlink="http://www.w3.org/1999/xlink">
<g id="graph0" class="graph" transform="scale(1 1) rotate(0) translate(4 42)">
<title>getLinuxVersion</title>
<polygon fill="#ffffff" stroke="transparent" points="-4,4 -4,-42 304.6543,-42 304.6543,4 -4,4"/>
<!-- Node296 -->
<g id="node1" class="node">
<title>Node296</title>
<polygon fill="#bfbfbf" stroke="#000000" points="0,-.5 0,-18.5 87.167,-18.5 87.167,-.5 0,-.5"/>
<text text-anchor="middle" x="43.5835" y="-6.5" font-family="Helvetica,sans-Serif" font-size="10.00" fill="#000000">getLinuxVersion</text>
</g>
<!-- Node297 -->
<g id="node2" class="node">
<title>Node297</title>
<g id="a_node2"><a xlink:href="../../d0/d3e/pps-files_8cpp.html#a19da05b45d1e94170f5fe86decb70bfb" target="_top" xlink:title="sysCommand">
<polygon fill="#ffffff" stroke="#000000" points="123.167,-19.5 123.167,-37.5 200.2949,-37.5 200.2949,-19.5 123.167,-19.5"/>
<text text-anchor="middle" x="161.731" y="-25.5" font-family="Helvetica,sans-Serif" font-size="10.00" fill="#000000">sysCommand</text>
</a>
</g>
</g>
<!-- Node296&#45;&gt;Node297 -->
<g id="edge1" class="edge">
<title>Node296&#45;&gt;Node297</title>
<path fill="none" stroke="#191970" d="M87.2416,-16.5209C95.56,-17.8587 104.3169,-19.2669 112.7874,-20.6291"/>
<polygon fill="#191970" stroke="#191970" points="112.4998,-24.1277 122.9287,-22.26 113.6113,-17.2165 112.4998,-24.1277"/>
</g>
<!-- Node298 -->
<g id="node3" class="node">
<title>Node298</title>
<g id="a_node3"><a xlink:href="../../d0/d3e/pps-files_8cpp.html#ae20c07f56a5b2b05b636f6a0a31ce214" target="_top" xlink:title="writeToLog">
<polygon fill="#ffffff" stroke="#ff0000" points="236.2949,-.5 236.2949,-18.5 300.6543,-18.5 300.6543,-.5 236.2949,-.5"/>
<text text-anchor="middle" x="268.4746" y="-6.5" font-family="Helvetica,sans-Serif" font-size="10.00" fill="#000000">writeToLog</text>
</a>
</g>
</g>
<!-- Node296&#45;&gt;Node298 -->
<g id="edge3" class="edge">
<title>Node296&#45;&gt;Node298</title>
<path fill="none" stroke="#191970" d="M87.2114,-9.5C127.3128,-9.5 186.3877,-9.5 226.0906,-9.5"/>
<polygon fill="#191970" stroke="#191970" points="226.243,-13.0001 236.2429,-9.5 226.2429,-6.0001 226.243,-13.0001"/>
</g>
<!-- Node297&#45;&gt;Node298 -->
<g id="edge2" class="edge">
<title>Node297&#45;&gt;Node298</title>
<path fill="none" stroke="#191970" d="M200.5698,-21.5868C208.8762,-20.1083 217.6909,-18.5393 226.1221,-17.0386"/>
<polygon fill="#191970" stroke="#191970" points="226.9242,-20.4509 236.1561,-15.2526 225.6974,-13.5593 226.9242,-20.4509"/>
</g>
</g>
</svg>
