<?xml version="1.0" encoding="UTF-8" standalone="no"?>
<!DOCTYPE svg PUBLIC "-//W3C//DTD SVG 1.1//EN"
 "http://www.w3.org/Graphics/SVG/1.1/DTD/svg11.dtd">
<!-- Generated by graphviz version 2.36.0 (20140111.2315)
 -->
<!-- Title: restartNTP Pages: 1 -->
<svg width="210pt" height="66pt"
 viewBox="0.00 0.00 210.00 66.00" xmlns="http://www.w3.org/2000/svg" xmlns:xlink="http://www.w3.org/1999/xlink">
<g id="graph0" class="graph" transform="scale(1 1) rotate(0) translate(4 62)">
<title>restartNTP</title>
<polygon fill="white" stroke="none" points="-4,4 -4,-62 206,-62 206,4 -4,4"/>
<!-- Node1 -->
<g id="node1" class="node"><title>Node1</title>
<polygon fill="#bfbfbf" stroke="black" points="0.5,-19.5 0.5,-38.5 65.5,-38.5 65.5,-19.5 0.5,-19.5"/>
<text text-anchor="middle" x="33" y="-26.5" font-family="Helvetica,sans-Serif" font-size="10.00">restartNTP</text>
</g>
<!-- Node2 -->
<g id="node2" class="node"><title>Node2</title>
<g id="a_node2"><a xlink:href="../../d0/d3e/pps-files_8cpp.html#ae20c07f56a5b2b05b636f6a0a31ce214" target="_top" xlink:title="writeToLog">
<polygon fill="white" stroke="red" points="119.5,-38.5 119.5,-57.5 184.5,-57.5 184.5,-38.5 119.5,-38.5"/>
<text text-anchor="middle" x="152" y="-45.5" font-family="Helvetica,sans-Serif" font-size="10.00">writeToLog</text>
</a>
</g>
</g>
<!-- Node1&#45;&gt;Node2 -->
<g id="edge1" class="edge"><title>Node1&#45;&gt;Node2</title>
<path fill="none" stroke="midnightblue" d="M65.6619,-34.1417C79.0585,-36.3172 94.8526,-38.882 109.188,-41.21"/>
<polygon fill="midnightblue" stroke="midnightblue" points="108.881,-44.7059 119.313,-42.8542 110.003,-37.7965 108.881,-44.7059"/>
</g>
<!-- Node3 -->
<g id="node3" class="node"><title>Node3</title>
<g id="a_node3"><a xlink:href="../../d0/d3e/pps-files_8cpp.html#a2f76a2c4a4ca7cc05e6110eb49378ad1" target="_top" xlink:title="writeFileMsgToLog">
<polygon fill="white" stroke="red" points="102.5,-0.5 102.5,-19.5 201.5,-19.5 201.5,-0.5 102.5,-0.5"/>
<text text-anchor="middle" x="152" y="-7.5" font-family="Helvetica,sans-Serif" font-size="10.00">writeFileMsgToLog</text>
</a>
</g>
</g>
<!-- Node1&#45;&gt;Node3 -->
<g id="edge2" class="edge"><title>Node1&#45;&gt;Node3</title>
<path fill="none" stroke="midnightblue" d="M65.6619,-23.8583C73.912,-22.5186 83.0713,-21.0312 92.2392,-19.5424"/>
<polygon fill="midnightblue" stroke="midnightblue" points="92.8384,-22.991 102.148,-17.9332 91.7163,-16.0815 92.8384,-22.991"/>
</g>
</g>
</svg>
