<?xml version="1.0" encoding="UTF-8" standalone="no"?>
<!DOCTYPE svg PUBLIC "-//W3C//DTD SVG 1.1//EN"
 "http://www.w3.org/Graphics/SVG/1.1/DTD/svg11.dtd">
<!-- Generated by graphviz version 2.40.1 (20161225.0304)
 -->
<!-- Title: parseSaveDataRequest Pages: 1 -->
<svg width="265pt" height="101pt"
 viewBox="0.00 0.00 265.00 101.00" xmlns="http://www.w3.org/2000/svg" xmlns:xlink="http://www.w3.org/1999/xlink">
<g id="graph0" class="graph" transform="scale(1 1) rotate(0) translate(4 97)">
<title>parseSaveDataRequest</title>
<polygon fill="#ffffff" stroke="transparent" points="-4,4 -4,-97 260.999,-97 260.999,4 -4,4"/>
<!-- Node384 -->
<g id="node1" class="node">
<title>Node384</title>
<polygon fill="#bfbfbf" stroke="#000000" points="0,-37.5 0,-55.5 122.1768,-55.5 122.1768,-37.5 0,-37.5"/>
<text text-anchor="middle" x="61.0884" y="-43.5" font-family="Helvetica,sans-Serif" font-size="10.00" fill="#000000">parseSaveDataRequest</text>
</g>
<!-- Node385 -->
<g id="node2" class="node">
<title>Node385</title>
<g id="a_node2"><a xlink:href="../../d0/d3e/pps-files_8cpp.html#a8837a1d11d52d5de8fb802ac99f84a3d" target="_top" xlink:title="printAcceptedArgs">
<polygon fill="#ffffff" stroke="#000000" points="158.7334,-74.5 158.7334,-92.5 256.4424,-92.5 256.4424,-74.5 158.7334,-74.5"/>
<text text-anchor="middle" x="207.5879" y="-80.5" font-family="Helvetica,sans-Serif" font-size="10.00" fill="#000000">printAcceptedArgs</text>
</a>
</g>
</g>
<!-- Node384&#45;&gt;Node385 -->
<g id="edge1" class="edge">
<title>Node384&#45;&gt;Node385</title>
<path fill="none" stroke="#191970" d="M96.9262,-55.5512C116.5085,-60.4969 140.9671,-66.6742 161.9066,-71.9627"/>
<polygon fill="#191970" stroke="#191970" points="161.3138,-75.4228 171.8665,-74.4782 163.028,-68.6359 161.3138,-75.4228"/>
</g>
<!-- Node386 -->
<g id="node3" class="node">
<title>Node386</title>
<g id="a_node3"><a xlink:href="../../d0/d3e/pps-files_8cpp.html#acee307839ee7844080177e544b8b63d0" target="_top" xlink:title="missingArg">
<polygon fill="#ffffff" stroke="#000000" points="174.8589,-37.5 174.8589,-55.5 240.3169,-55.5 240.3169,-37.5 174.8589,-37.5"/>
<text text-anchor="middle" x="207.5879" y="-43.5" font-family="Helvetica,sans-Serif" font-size="10.00" fill="#000000">missingArg</text>
</a>
</g>
</g>
<!-- Node384&#45;&gt;Node386 -->
<g id="edge2" class="edge">
<title>Node384&#45;&gt;Node386</title>
<path fill="none" stroke="#191970" d="M122.3685,-46.5C136.4745,-46.5 151.1892,-46.5 164.3432,-46.5"/>
<polygon fill="#191970" stroke="#191970" points="164.5165,-50.0001 174.5164,-46.5 164.5164,-43.0001 164.5165,-50.0001"/>
</g>
<!-- Node387 -->
<g id="node4" class="node">
<title>Node387</title>
<g id="a_node4"><a xlink:href="../../d0/d3e/pps-files_8cpp.html#aa402d7b46a75b43bb077558f5343f3b8" target="_top" xlink:title="daemonSaveArray">
<polygon fill="#ffffff" stroke="#ff0000" points="158.1768,-.5 158.1768,-18.5 256.999,-18.5 256.999,-.5 158.1768,-.5"/>
<text text-anchor="middle" x="207.5879" y="-6.5" font-family="Helvetica,sans-Serif" font-size="10.00" fill="#000000">daemonSaveArray</text>
</a>
</g>
</g>
<!-- Node384&#45;&gt;Node387 -->
<g id="edge3" class="edge">
<title>Node384&#45;&gt;Node387</title>
<path fill="none" stroke="#191970" d="M96.9262,-37.4488C116.5085,-32.5031 140.9671,-26.3258 161.9066,-21.0373"/>
<polygon fill="#191970" stroke="#191970" points="163.028,-24.3641 171.8665,-18.5218 161.3138,-17.5772 163.028,-24.3641"/>
</g>
</g>
</svg>
