<?xml version="1.0" encoding="UTF-8" standalone="no"?>
<!DOCTYPE svg PUBLIC "-//W3C//DTD SVG 1.1//EN"
 "http://www.w3.org/Graphics/SVG/1.1/DTD/svg11.dtd">
<!-- Generated by graphviz version 2.40.1 (20161225.0304)
 -->
<!-- Title: writeDistribution Pages: 1 -->
<svg width="253pt" height="101pt"
 viewBox="0.00 0.00 253.27 101.00" xmlns="http://www.w3.org/2000/svg" xmlns:xlink="http://www.w3.org/1999/xlink">
<g id="graph0" class="graph" transform="scale(1 1) rotate(0) translate(4 97)">
<title>writeDistribution</title>
<polygon fill="#ffffff" stroke="transparent" points="-4,4 -4,-97 249.2705,-97 249.2705,4 -4,4"/>
<!-- Node545 -->
<g id="node1" class="node">
<title>Node545</title>
<polygon fill="#bfbfbf" stroke="#000000" points="0,-37.5 0,-55.5 87.1328,-55.5 87.1328,-37.5 0,-37.5"/>
<text text-anchor="middle" x="43.5664" y="-43.5" font-family="Helvetica,sans-Serif" font-size="10.00" fill="#000000">writeDistribution</text>
</g>
<!-- Node546 -->
<g id="node2" class="node">
<title>Node546</title>
<g id="a_node2"><a xlink:href="../../d0/d3e/pps-files_8cpp.html#aacdfbe498da2a6d42d753a7a75cf4ae5" target="_top" xlink:title="writeSysdelayDistribFile">
<polygon fill="#ffffff" stroke="#ff0000" points="123.1328,-74.5 123.1328,-92.5 245.2705,-92.5 245.2705,-74.5 123.1328,-74.5"/>
<text text-anchor="middle" x="184.2017" y="-80.5" font-family="Helvetica,sans-Serif" font-size="10.00" fill="#000000">writeSysdelayDistribFile</text>
</a>
</g>
</g>
<!-- Node545&#45;&gt;Node546 -->
<g id="edge1" class="edge">
<title>Node545&#45;&gt;Node546</title>
<path fill="none" stroke="#191970" d="M87.7754,-58.131C107.7502,-63.3862 131.001,-69.5033 149.6662,-74.414"/>
<polygon fill="#191970" stroke="#191970" points="88.5311,-54.7108 77.9697,-55.5512 86.75,-61.4804 88.5311,-54.7108"/>
</g>
<!-- Node550 -->
<g id="node3" class="node">
<title>Node550</title>
<g id="a_node3"><a xlink:href="../../d0/d3e/pps-files_8cpp.html#a376e9b76d9e9b1caf06ae3bd8c969f46" target="_top" xlink:title="writeJitterDistribFile">
<polygon fill="#ffffff" stroke="#ff0000" points="132.5859,-37.5 132.5859,-55.5 235.8174,-55.5 235.8174,-37.5 132.5859,-37.5"/>
<text text-anchor="middle" x="184.2017" y="-43.5" font-family="Helvetica,sans-Serif" font-size="10.00" fill="#000000">writeJitterDistribFile</text>
</a>
</g>
</g>
<!-- Node545&#45;&gt;Node550 -->
<g id="edge2" class="edge">
<title>Node545&#45;&gt;Node550</title>
<path fill="none" stroke="#191970" d="M97.5736,-46.5C108.994,-46.5 121.022,-46.5 132.3602,-46.5"/>
<polygon fill="#191970" stroke="#191970" points="97.2934,-43.0001 87.2934,-46.5 97.2933,-50.0001 97.2934,-43.0001"/>
</g>
<!-- Node551 -->
<g id="node4" class="node">
<title>Node551</title>
<g id="a_node4"><a xlink:href="../../d0/d3e/pps-files_8cpp.html#a82b5d210a2a50fc93755e34d3016247e" target="_top" xlink:title="writeErrorDistribFile">
<polygon fill="#ffffff" stroke="#ff0000" points="132.3101,-.5 132.3101,-18.5 236.0933,-18.5 236.0933,-.5 132.3101,-.5"/>
<text text-anchor="middle" x="184.2017" y="-6.5" font-family="Helvetica,sans-Serif" font-size="10.00" fill="#000000">writeErrorDistribFile</text>
</a>
</g>
</g>
<!-- Node545&#45;&gt;Node551 -->
<g id="edge3" class="edge">
<title>Node545&#45;&gt;Node551</title>
<path fill="none" stroke="#191970" d="M87.7754,-34.869C107.7502,-29.6138 131.001,-23.4967 149.6662,-18.586"/>
<polygon fill="#191970" stroke="#191970" points="86.75,-31.5196 77.9697,-37.4488 88.5311,-38.2892 86.75,-31.5196"/>
</g>
</g>
</svg>
