<?xml version="1.0" encoding="UTF-8" standalone="no"?>
<!DOCTYPE svg PUBLIC "-//W3C//DTD SVG 1.1//EN"
 "http://www.w3.org/Graphics/SVG/1.1/DTD/svg11.dtd">
<!-- Generated by graphviz version 2.40.1 (20161225.0304)
 -->
<!-- Title: writeTimestamp Pages: 1 -->
<svg width="300pt" height="46pt"
 viewBox="0.00 0.00 299.93 46.00" xmlns="http://www.w3.org/2000/svg" xmlns:xlink="http://www.w3.org/1999/xlink">
<g id="graph0" class="graph" transform="scale(1 1) rotate(0) translate(4 42)">
<title>writeTimestamp</title>
<polygon fill="#ffffff" stroke="transparent" points="-4,4 -4,-42 295.9336,-42 295.9336,4 -4,4"/>
<!-- Node660 -->
<g id="node1" class="node">
<title>Node660</title>
<polygon fill="#bfbfbf" stroke="#000000" points="0,-.5 0,-18.5 86.2002,-18.5 86.2002,-.5 0,-.5"/>
<text text-anchor="middle" x="43.1001" y="-6.5" font-family="Helvetica,sans-Serif" font-size="10.00" fill="#000000">writeTimestamp</text>
</g>
<!-- Node661 -->
<g id="node2" class="node">
<title>Node661</title>
<g id="a_node2"><a xlink:href="../../d0/d3e/pps-files_8cpp.html#a94ad6f36dae10e5652ea241b11d2e5c7" target="_top" xlink:title="open_logerr">
<polygon fill="#ffffff" stroke="#ff0000" points="122.2002,-19.5 122.2002,-37.5 191.5742,-37.5 191.5742,-19.5 122.2002,-19.5"/>
<text text-anchor="middle" x="156.8872" y="-25.5" font-family="Helvetica,sans-Serif" font-size="10.00" fill="#000000">open_logerr</text>
</a>
</g>
</g>
<!-- Node660&#45;&gt;Node661 -->
<g id="edge1" class="edge">
<title>Node660&#45;&gt;Node661</title>
<path fill="none" stroke="#191970" d="M86.4427,-16.7373C94.837,-18.139 103.6492,-19.6104 112.089,-21.0197"/>
<polygon fill="#191970" stroke="#191970" points="111.7061,-24.5041 122.146,-22.699 112.859,-17.5997 111.7061,-24.5041"/>
</g>
<!-- Node663 -->
<g id="node3" class="node">
<title>Node663</title>
<g id="a_node3"><a xlink:href="../../d0/d3e/pps-files_8cpp.html#ae20c07f56a5b2b05b636f6a0a31ce214" target="_top" xlink:title="writeToLog">
<polygon fill="#ffffff" stroke="#ff0000" points="227.5742,-.5 227.5742,-18.5 291.9336,-18.5 291.9336,-.5 227.5742,-.5"/>
<text text-anchor="middle" x="259.7539" y="-6.5" font-family="Helvetica,sans-Serif" font-size="10.00" fill="#000000">writeToLog</text>
</a>
</g>
</g>
<!-- Node660&#45;&gt;Node663 -->
<g id="edge3" class="edge">
<title>Node660&#45;&gt;Node663</title>
<path fill="none" stroke="#191970" d="M86.4225,-9.5C124.4612,-9.5 179.4694,-9.5 217.2593,-9.5"/>
<polygon fill="#191970" stroke="#191970" points="217.433,-13.0001 227.433,-9.5 217.4329,-6.0001 217.433,-13.0001"/>
</g>
<!-- Node661&#45;&gt;Node663 -->
<g id="edge2" class="edge">
<title>Node661&#45;&gt;Node663</title>
<path fill="none" stroke="#191970" d="M191.7132,-22.0675C200.008,-20.5354 208.9484,-18.884 217.5346,-17.2981"/>
<polygon fill="#191970" stroke="#191970" points="218.1936,-20.7357 227.3915,-15.4775 216.9221,-13.8521 218.1936,-20.7357"/>
</g>
</g>
</svg>
