<?xml version="1.0" encoding="UTF-8" standalone="no"?>
<!DOCTYPE svg PUBLIC "-//W3C//DTD SVG 1.1//EN"
 "http://www.w3.org/Graphics/SVG/1.1/DTD/svg11.dtd">
<!-- Generated by graphviz version 2.36.0 (20140111.2315)
 -->
<!-- Title: driver_load Pages: 1 -->
<svg width="284pt" height="47pt"
 viewBox="0.00 0.00 284.00 47.00" xmlns="http://www.w3.org/2000/svg" xmlns:xlink="http://www.w3.org/1999/xlink">
<g id="graph0" class="graph" transform="scale(1 1) rotate(0) translate(4 43)">
<title>driver_load</title>
<polygon fill="white" stroke="none" points="-4,4 -4,-43 280,-43 280,4 -4,4"/>
<!-- Node1 -->
<g id="node1" class="node"><title>Node1</title>
<polygon fill="#bfbfbf" stroke="black" points="0,-0.5 0,-19.5 64,-19.5 64,-0.5 0,-0.5"/>
<text text-anchor="middle" x="32" y="-7.5" font-family="Helvetica,sans-Serif" font-size="10.00">driver_load</text>
</g>
<!-- Node2 -->
<g id="node2" class="node"><title>Node2</title>
<g id="a_node2"><a xlink:href="../../d0/d3e/pps-files_8cpp.html#a0ff8b8ea02b0483a116f8b5089546ea4" target="_top" xlink:title="copyMajorTo">
<polygon fill="white" stroke="red" points="100.5,-19.5 100.5,-38.5 173.5,-38.5 173.5,-19.5 100.5,-19.5"/>
<text text-anchor="middle" x="137" y="-26.5" font-family="Helvetica,sans-Serif" font-size="10.00">copyMajorTo</text>
</a>
</g>
</g>
<!-- Node1&#45;&gt;Node2 -->
<g id="edge1" class="edge"><title>Node1&#45;&gt;Node2</title>
<path fill="none" stroke="midnightblue" d="M64.1829,-15.7522C72.4427,-17.2758 81.5329,-18.9527 90.3878,-20.5861"/>
<polygon fill="midnightblue" stroke="midnightblue" points="89.7595,-24.0292 100.229,-22.4014 91.0294,-17.1453 89.7595,-24.0292"/>
</g>
<!-- Node3 -->
<g id="node3" class="node"><title>Node3</title>
<g id="a_node3"><a xlink:href="../../d0/d3e/pps-files_8cpp.html#ae20c07f56a5b2b05b636f6a0a31ce214" target="_top" xlink:title="writeToLog">
<polygon fill="white" stroke="red" points="210.5,-0.5 210.5,-19.5 275.5,-19.5 275.5,-0.5 210.5,-0.5"/>
<text text-anchor="middle" x="243" y="-7.5" font-family="Helvetica,sans-Serif" font-size="10.00">writeToLog</text>
</a>
</g>
</g>
<!-- Node1&#45;&gt;Node3 -->
<g id="edge3" class="edge"><title>Node1&#45;&gt;Node3</title>
<path fill="none" stroke="midnightblue" d="M64.2894,-10C100.458,-10 160.141,-10 200.245,-10"/>
<polygon fill="midnightblue" stroke="midnightblue" points="200.497,-13.5001 210.497,-10 200.497,-6.5001 200.497,-13.5001"/>
</g>
<!-- Node2&#45;&gt;Node3 -->
<g id="edge2" class="edge"><title>Node2&#45;&gt;Node3</title>
<path fill="none" stroke="midnightblue" d="M173.5,-22.5144C182.222,-20.921 191.634,-19.2014 200.607,-17.5622"/>
<polygon fill="midnightblue" stroke="midnightblue" points="201.282,-20.9969 210.49,-15.7566 200.024,-14.1109 201.282,-20.9969"/>
</g>
</g>
</svg>
