<?xml version="1.0" encoding="UTF-8" standalone="no"?>
<!DOCTYPE svg PUBLIC "-//W3C//DTD SVG 1.1//EN"
 "http://www.w3.org/Graphics/SVG/1.1/DTD/svg11.dtd">
<!-- Generated by graphviz version 2.40.1 (20161225.0304)
 -->
<!-- Title: replaceNTPConfig Pages: 1 -->
<svg width="209pt" height="64pt"
 viewBox="0.00 0.00 209.39 64.00" xmlns="http://www.w3.org/2000/svg" xmlns:xlink="http://www.w3.org/1999/xlink">
<g id="graph0" class="graph" transform="scale(1 1) rotate(0) translate(4 60)">
<title>replaceNTPConfig</title>
<polygon fill="#ffffff" stroke="transparent" points="-4,4 -4,-60 205.3936,-60 205.3936,4 -4,4"/>
<!-- Node483 -->
<g id="node1" class="node">
<title>Node483</title>
<polygon fill="#bfbfbf" stroke="#000000" points="0,-18.5 0,-36.5 97.7041,-36.5 97.7041,-18.5 0,-18.5"/>
<text text-anchor="middle" x="48.8521" y="-24.5" font-family="Helvetica,sans-Serif" font-size="10.00" fill="#000000">replaceNTPConfig</text>
</g>
<!-- Node484 -->
<g id="node2" class="node">
<title>Node484</title>
<g id="a_node2"><a xlink:href="../../d0/d3e/pps-files_8cpp.html#a63902ed5404b3607594a3ad7d080da10" target="_top" xlink:title="disableNTP">
<polygon fill="#ffffff" stroke="#ff0000" points="133.7041,-37.5 133.7041,-55.5 201.3936,-55.5 201.3936,-37.5 133.7041,-37.5"/>
<text text-anchor="middle" x="167.5488" y="-43.5" font-family="Helvetica,sans-Serif" font-size="10.00" fill="#000000">disableNTP</text>
</a>
</g>
</g>
<!-- Node483&#45;&gt;Node484 -->
<g id="edge1" class="edge">
<title>Node483&#45;&gt;Node484</title>
<path fill="none" stroke="#191970" d="M107.7537,-36.9285C116.5978,-38.3442 125.4551,-39.762 133.5401,-41.0562"/>
<polygon fill="#191970" stroke="#191970" points="108.2434,-33.4624 97.8159,-35.3377 107.1369,-40.3744 108.2434,-33.4624"/>
</g>
<!-- Node486 -->
<g id="node3" class="node">
<title>Node486</title>
<g id="a_node3"><a xlink:href="../../d0/d3e/pps-files_8cpp.html#a6354b54021f614ab3ab87ef5b3df64d0" target="_top" xlink:title="enableNTP">
<polygon fill="#ffffff" stroke="#ff0000" points="134.5342,-.5 134.5342,-18.5 200.5635,-18.5 200.5635,-.5 134.5342,-.5"/>
<text text-anchor="middle" x="167.5488" y="-6.5" font-family="Helvetica,sans-Serif" font-size="10.00" fill="#000000">enableNTP</text>
</a>
</g>
</g>
<!-- Node483&#45;&gt;Node486 -->
<g id="edge2" class="edge">
<title>Node483&#45;&gt;Node486</title>
<path fill="none" stroke="#191970" d="M107.9661,-18.5355C116.9986,-17.1658 126.0383,-15.7949 134.2483,-14.5499"/>
<polygon fill="#191970" stroke="#191970" points="107.178,-15.1149 97.8159,-20.0748 108.2276,-22.0358 107.178,-15.1149"/>
</g>
</g>
</svg>
