<?xml version="1.0" encoding="UTF-8" standalone="no"?>
<!DOCTYPE svg PUBLIC "-//W3C//DTD SVG 1.1//EN"
 "http://www.w3.org/Graphics/SVG/1.1/DTD/svg11.dtd">
<!-- Generated by graphviz version 2.40.1 (20161225.0304)
 -->
<!-- Title: disableNTP Pages: 1 -->
<svg width="423pt" height="210pt"
 viewBox="0.00 0.00 422.88 210.49" xmlns="http://www.w3.org/2000/svg" xmlns:xlink="http://www.w3.org/1999/xlink">
<g id="graph0" class="graph" transform="scale(1 1) rotate(0) translate(4 206.4861)">
<title>disableNTP</title>
<polygon fill="#ffffff" stroke="transparent" points="-4,4 -4,-206.4861 418.8809,-206.4861 418.8809,4 -4,4"/>
<!-- Node215 -->
<g id="node1" class="node">
<title>Node215</title>
<polygon fill="#bfbfbf" stroke="#000000" points="0,-95.5 0,-113.5 67.6895,-113.5 67.6895,-95.5 0,-95.5"/>
<text text-anchor="middle" x="33.8447" y="-101.5" font-family="Helvetica,sans-Serif" font-size="10.00" fill="#000000">disableNTP</text>
</g>
<!-- Node216 -->
<g id="node2" class="node">
<title>Node216</title>
<g id="a_node2"><a xlink:href="../../d0/d3e/pps-files_8cpp.html#a94ad6f36dae10e5652ea241b11d2e5c7" target="_top" xlink:title="open_logerr">
<polygon fill="#ffffff" stroke="#ff0000" points="241.2705,-152.5 241.2705,-170.5 310.6445,-170.5 310.6445,-152.5 241.2705,-152.5"/>
<text text-anchor="middle" x="275.9575" y="-158.5" font-family="Helvetica,sans-Serif" font-size="10.00" fill="#000000">open_logerr</text>
</a>
</g>
</g>
<!-- Node215&#45;&gt;Node216 -->
<g id="edge1" class="edge">
<title>Node215&#45;&gt;Node216</title>
<path fill="none" stroke="#191970" d="M47.0536,-113.7337C60.6011,-122.6967 82.6157,-135.8872 103.6895,-142.5 145.6273,-155.6598 195.7963,-159.9876 231.1471,-161.2779"/>
<polygon fill="#191970" stroke="#191970" points="231.0605,-164.7768 241.1605,-161.5768 231.2694,-157.7799 231.0605,-164.7768"/>
</g>
<!-- Node218 -->
<g id="node3" class="node">
<title>Node218</title>
<g id="a_node3"><a xlink:href="../../d0/d3e/pps-files_8cpp.html#ae20c07f56a5b2b05b636f6a0a31ce214" target="_top" xlink:title="writeToLog">
<polygon fill="#ffffff" stroke="#ff0000" points="350.5215,-95.5 350.5215,-113.5 414.8809,-113.5 414.8809,-95.5 350.5215,-95.5"/>
<text text-anchor="middle" x="382.7012" y="-101.5" font-family="Helvetica,sans-Serif" font-size="10.00" fill="#000000">writeToLog</text>
</a>
</g>
</g>
<!-- Node215&#45;&gt;Node218 -->
<g id="edge3" class="edge">
<title>Node215&#45;&gt;Node218</title>
<path fill="none" stroke="#191970" d="M41.3032,-113.7053C52.9915,-127.4015 77.0582,-152.7853 103.6895,-164.5 189.7075,-202.3382 228.7082,-218.8005 314.5215,-180.5 341.1245,-168.6264 361.6704,-140.6742 372.9718,-122.1821"/>
<polygon fill="#191970" stroke="#191970" points="376.0143,-123.9123 378.0221,-113.5095 369.9652,-120.3897 376.0143,-123.9123"/>
</g>
<!-- Node220 -->
<g id="node4" class="node">
<title>Node220</title>
<g id="a_node4"><a xlink:href="../../d0/d3e/pps-files_8cpp.html#a19da05b45d1e94170f5fe86decb70bfb" target="_top" xlink:title="sysCommand">
<polygon fill="#ffffff" stroke="#000000" points="237.3936,-38.5 237.3936,-56.5 314.5215,-56.5 314.5215,-38.5 237.3936,-38.5"/>
<text text-anchor="middle" x="275.9575" y="-44.5" font-family="Helvetica,sans-Serif" font-size="10.00" fill="#000000">sysCommand</text>
</a>
</g>
</g>
<!-- Node215&#45;&gt;Node220 -->
<g id="edge4" class="edge">
<title>Node215&#45;&gt;Node220</title>
<path fill="none" stroke="#191970" d="M67.7644,-96.5144C109.3517,-86.7236 180.1258,-70.0614 227.4545,-58.9189"/>
<polygon fill="#191970" stroke="#191970" points="228.5415,-62.2588 237.4733,-56.5602 226.9373,-55.4451 228.5415,-62.2588"/>
</g>
<!-- Node221 -->
<g id="node5" class="node">
<title>Node221</title>
<g id="a_node5"><a xlink:href="../../d0/d3e/pps-files_8cpp.html#a459e7950f1def63780ba7fda8e3c12d2" target="_top" xlink:title="read_logerr">
<polygon fill="#ffffff" stroke="#ff0000" points="242.3862,-76.5 242.3862,-94.5 309.5288,-94.5 309.5288,-76.5 242.3862,-76.5"/>
<text text-anchor="middle" x="275.9575" y="-82.5" font-family="Helvetica,sans-Serif" font-size="10.00" fill="#000000">read_logerr</text>
</a>
</g>
</g>
<!-- Node215&#45;&gt;Node221 -->
<g id="edge6" class="edge">
<title>Node215&#45;&gt;Node221</title>
<path fill="none" stroke="#191970" d="M67.7644,-101.8381C110.7164,-98.4674 184.8022,-92.6535 232.0363,-88.9468"/>
<polygon fill="#191970" stroke="#191970" points="232.5719,-92.4156 242.2674,-88.1439 232.0242,-85.437 232.5719,-92.4156"/>
</g>
<!-- Node223 -->
<g id="node6" class="node">
<title>Node223</title>
<g id="a_node6"><a xlink:href="../../d0/d3e/pps-files_8cpp.html#a180a91d8d62c36158e3b769ac35aa01e" target="_top" xlink:title="replaceNTPConfig">
<polygon fill="#ffffff" stroke="#ff0000" points="103.6895,-114.5 103.6895,-132.5 201.3936,-132.5 201.3936,-114.5 103.6895,-114.5"/>
<text text-anchor="middle" x="152.5415" y="-120.5" font-family="Helvetica,sans-Serif" font-size="10.00" fill="#000000">replaceNTPConfig</text>
</a>
</g>
</g>
<!-- Node215&#45;&gt;Node223 -->
<g id="edge8" class="edge">
<title>Node215&#45;&gt;Node223</title>
<path fill="none" stroke="#191970" d="M67.8585,-109.9446C75.9217,-111.2353 84.7531,-112.649 93.5733,-114.0609"/>
<polygon fill="#191970" stroke="#191970" points="93.0577,-117.5228 103.4852,-115.6475 94.1642,-110.6108 93.0577,-117.5228"/>
</g>
<!-- Node224 -->
<g id="node7" class="node">
<title>Node224</title>
<g id="a_node7"><a xlink:href="../../d0/d3e/pps-files_8cpp.html#a4ec814a023712bff67399cc287385ed3" target="_top" xlink:title="restartNTP">
<polygon fill="#ffffff" stroke="#ff0000" points="120.3716,-.5 120.3716,-18.5 184.7114,-18.5 184.7114,-.5 120.3716,-.5"/>
<text text-anchor="middle" x="152.5415" y="-6.5" font-family="Helvetica,sans-Serif" font-size="10.00" fill="#000000">restartNTP</text>
</a>
</g>
</g>
<!-- Node215&#45;&gt;Node224 -->
<g id="edge11" class="edge">
<title>Node215&#45;&gt;Node224</title>
<path fill="none" stroke="#191970" d="M41.1893,-95.2287C53.0958,-80.6515 77.8907,-52.1182 103.6895,-33.5 109.0197,-29.6533 115.0602,-26.1251 121.0315,-23.0262"/>
<polygon fill="#191970" stroke="#191970" points="122.7962,-26.0595 130.2458,-18.526 119.7242,-19.7696 122.7962,-26.0595"/>
</g>
<!-- Node216&#45;&gt;Node218 -->
<g id="edge2" class="edge">
<title>Node216&#45;&gt;Node218</title>
<path fill="none" stroke="#191970" d="M293.1077,-152.342C310.2261,-143.2009 336.7572,-129.0336 356.5114,-118.4851"/>
<polygon fill="#191970" stroke="#191970" points="358.421,-121.4331 365.5935,-113.6353 355.1237,-115.2584 358.421,-121.4331"/>
</g>
<!-- Node220&#45;&gt;Node218 -->
<g id="edge5" class="edge">
<title>Node220&#45;&gt;Node218</title>
<path fill="none" stroke="#191970" d="M294.884,-56.5877C301.1672,-59.6675 308.1765,-63.1715 314.5215,-66.5 329.1026,-74.1491 345.2019,-83.0978 358.0933,-90.3892"/>
<polygon fill="#191970" stroke="#191970" points="356.4223,-93.4653 366.8457,-95.3633 359.881,-87.3794 356.4223,-93.4653"/>
</g>
<!-- Node221&#45;&gt;Node218 -->
<g id="edge7" class="edge">
<title>Node221&#45;&gt;Node218</title>
<path fill="none" stroke="#191970" d="M309.7319,-91.5117C319.4435,-93.2403 330.1604,-95.1479 340.3216,-96.9566"/>
<polygon fill="#191970" stroke="#191970" points="339.7812,-100.4153 350.2398,-98.722 341.0079,-93.5236 339.7812,-100.4153"/>
</g>
<!-- Node223&#45;&gt;Node216 -->
<g id="edge9" class="edge">
<title>Node223&#45;&gt;Node216</title>
<path fill="none" stroke="#191970" d="M181.7894,-132.5055C198.2686,-137.5795 219.0655,-143.9828 236.9209,-149.4806"/>
<polygon fill="#191970" stroke="#191970" points="235.9047,-152.8298 246.4919,-152.4275 237.9646,-146.1397 235.9047,-152.8298"/>
</g>
<!-- Node223&#45;&gt;Node218 -->
<g id="edge10" class="edge">
<title>Node223&#45;&gt;Node218</title>
<path fill="none" stroke="#191970" d="M201.6342,-119.4473C242.8396,-116.0458 301.0925,-111.2369 340.2971,-108.0005"/>
<polygon fill="#191970" stroke="#191970" points="340.6471,-111.4836 350.3252,-107.1727 340.0711,-104.5074 340.6471,-111.4836"/>
</g>
<!-- Node224&#45;&gt;Node218 -->
<g id="edge12" class="edge">
<title>Node224&#45;&gt;Node218</title>
<path fill="none" stroke="#191970" d="M184.9177,-6.7923C219.0816,-5.3669 273.5458,-7.2626 314.5215,-28.5 339.8835,-41.645 360.3329,-68.3581 372.0041,-86.3474"/>
<polygon fill="#191970" stroke="#191970" points="369.3141,-88.6505 377.5604,-95.3024 375.2621,-84.9598 369.3141,-88.6505"/>
</g>
<!-- Node224&#45;&gt;Node220 -->
<g id="edge13" class="edge">
<title>Node224&#45;&gt;Node220</title>
<path fill="none" stroke="#191970" d="M181.7894,-18.5055C198.2686,-23.5795 219.0655,-29.9828 236.9209,-35.4806"/>
<polygon fill="#191970" stroke="#191970" points="235.9047,-38.8298 246.4919,-38.4275 237.9646,-32.1397 235.9047,-38.8298"/>
</g>
</g>
</svg>
