<?xml version="1.0" encoding="UTF-8" standalone="no"?>
<!DOCTYPE svg PUBLIC "-//W3C//DTD SVG 1.1//EN"
 "http://www.w3.org/Graphics/SVG/1.1/DTD/svg11.dtd">
<!-- Generated by graphviz version 2.36.0 (20140111.2315)
 -->
<!-- Title: processFiles Pages: 1 -->
<svg width="238pt" height="294pt"
 viewBox="0.00 0.00 238.00 294.00" xmlns="http://www.w3.org/2000/svg" xmlns:xlink="http://www.w3.org/1999/xlink">
<g id="graph0" class="graph" transform="scale(1 1) rotate(0) translate(4 290)">
<title>processFiles</title>
<polygon fill="white" stroke="none" points="-4,4 -4,-290 234,-290 234,4 -4,4"/>
<!-- Node1 -->
<g id="node1" class="node"><title>Node1</title>
<polygon fill="#bfbfbf" stroke="black" points="0,-133.5 0,-152.5 72,-152.5 72,-133.5 0,-133.5"/>
<text text-anchor="middle" x="36" y="-140.5" font-family="Helvetica,sans-Serif" font-size="10.00">processFiles</text>
</g>
<!-- Node2 -->
<g id="node2" class="node"><title>Node2</title>
<g id="a_node2"><a xlink:href="../../d0/d3e/pps-files_8cpp.html#a7192857cf334ce14c00dd49dca3c541a" target="_top" xlink:title="readConfigFile">
<polygon fill="white" stroke="red" points="129,-266.5 129,-285.5 209,-285.5 209,-266.5 129,-266.5"/>
<text text-anchor="middle" x="169" y="-273.5" font-family="Helvetica,sans-Serif" font-size="10.00">readConfigFile</text>
</a>
</g>
</g>
<!-- Node1&#45;&gt;Node2 -->
<g id="edge1" class="edge"><title>Node1&#45;&gt;Node2</title>
<path fill="none" stroke="midnightblue" d="M40.2976,-152.545C48.3248,-174.372 70.9829,-228.257 108,-257 111.542,-259.751 115.491,-262.108 119.626,-264.127"/>
<polygon fill="midnightblue" stroke="midnightblue" points="118.311,-267.371 128.886,-268.028 121.029,-260.92 118.311,-267.371"/>
</g>
<!-- Node3 -->
<g id="node3" class="node"><title>Node3</title>
<g id="a_node3"><a xlink:href="../../d0/d3e/pps-files_8cpp.html#a23f820cbb1d3a2f2137db2e31893fa30" target="_top" xlink:title="isEnabled">
<polygon fill="white" stroke="black" points="139.5,-228.5 139.5,-247.5 198.5,-247.5 198.5,-228.5 139.5,-228.5"/>
<text text-anchor="middle" x="169" y="-235.5" font-family="Helvetica,sans-Serif" font-size="10.00">isEnabled</text>
</a>
</g>
</g>
<!-- Node1&#45;&gt;Node3 -->
<g id="edge2" class="edge"><title>Node1&#45;&gt;Node3</title>
<path fill="none" stroke="midnightblue" d="M43.4704,-152.659C54.7235,-168.732 79.4467,-200.977 108,-219 114.553,-223.136 122.08,-226.439 129.539,-229.052"/>
<polygon fill="midnightblue" stroke="midnightblue" points="128.627,-232.435 139.217,-232.103 130.732,-225.759 128.627,-232.435"/>
</g>
<!-- Node4 -->
<g id="node4" class="node"><title>Node4</title>
<g id="a_node4"><a xlink:href="../../d0/d3e/pps-files_8cpp.html#a82b5d210a2a50fc93755e34d3016247e" target="_top" xlink:title="writeErrorDistribFile">
<polygon fill="white" stroke="red" points="117.5,-190.5 117.5,-209.5 220.5,-209.5 220.5,-190.5 117.5,-190.5"/>
<text text-anchor="middle" x="169" y="-197.5" font-family="Helvetica,sans-Serif" font-size="10.00">writeErrorDistribFile</text>
</a>
</g>
</g>
<!-- Node1&#45;&gt;Node4 -->
<g id="edge3" class="edge"><title>Node1&#45;&gt;Node4</title>
<path fill="none" stroke="midnightblue" d="M52.9376,-152.631C67.06,-160.895 88.4188,-172.743 108,-181 113.16,-183.176 118.658,-185.242 124.153,-187.155"/>
<polygon fill="midnightblue" stroke="midnightblue" points="123.373,-190.584 133.966,-190.424 125.585,-183.943 123.373,-190.584"/>
</g>
<!-- Node5 -->
<g id="node5" class="node"><title>Node5</title>
<g id="a_node5"><a xlink:href="../../d0/d3e/pps-files_8cpp.html#a376e9b76d9e9b1caf06ae3bd8c969f46" target="_top" xlink:title="writeJitterDistribFile">
<polygon fill="white" stroke="red" points="117,-152.5 117,-171.5 221,-171.5 221,-152.5 117,-152.5"/>
<text text-anchor="middle" x="169" y="-159.5" font-family="Helvetica,sans-Serif" font-size="10.00">writeJitterDistribFile</text>
</a>
</g>
</g>
<!-- Node1&#45;&gt;Node5 -->
<g id="edge4" class="edge"><title>Node1&#45;&gt;Node5</title>
<path fill="none" stroke="midnightblue" d="M72.1056,-148.092C82.6568,-149.622 94.56,-151.348 106.3,-153.051"/>
<polygon fill="midnightblue" stroke="midnightblue" points="106.138,-156.564 116.537,-154.536 107.143,-149.637 106.138,-156.564"/>
</g>
<!-- Node6 -->
<g id="node6" class="node"><title>Node6</title>
<g id="a_node6"><a xlink:href="../../d0/d3e/pps-files_8cpp.html#a12357fc4095bc2b5a705b4d9816ca9db" target="_top" xlink:title="isDisabled">
<polygon fill="white" stroke="black" points="138,-114.5 138,-133.5 200,-133.5 200,-114.5 138,-114.5"/>
<text text-anchor="middle" x="169" y="-121.5" font-family="Helvetica,sans-Serif" font-size="10.00">isDisabled</text>
</a>
</g>
</g>
<!-- Node1&#45;&gt;Node6 -->
<g id="edge5" class="edge"><title>Node1&#45;&gt;Node6</title>
<path fill="none" stroke="midnightblue" d="M72.1056,-137.908C89.2113,-135.427 109.871,-132.431 127.627,-129.856"/>
<polygon fill="midnightblue" stroke="midnightblue" points="128.302,-133.294 137.697,-128.395 127.298,-126.367 128.302,-133.294"/>
</g>
<!-- Node7 -->
<g id="node7" class="node"><title>Node7</title>
<g id="a_node7"><a xlink:href="../../d0/d3e/pps-files_8cpp.html#a79d35d0474566fc87be99d5ab1a7dc86" target="_top" xlink:title="writeIntrptDistribFile">
<polygon fill="white" stroke="red" points="117,-76.5 117,-95.5 221,-95.5 221,-76.5 117,-76.5"/>
<text text-anchor="middle" x="169" y="-83.5" font-family="Helvetica,sans-Serif" font-size="10.00">writeIntrptDistribFile</text>
</a>
</g>
</g>
<!-- Node1&#45;&gt;Node7 -->
<g id="edge6" class="edge"><title>Node1&#45;&gt;Node7</title>
<path fill="none" stroke="midnightblue" d="M52.9376,-133.369C67.06,-125.105 88.4188,-113.257 108,-105 113.16,-102.824 118.658,-100.758 124.153,-98.845"/>
<polygon fill="midnightblue" stroke="midnightblue" points="125.585,-102.057 133.966,-95.5759 123.373,-95.4161 125.585,-102.057"/>
</g>
<!-- Node8 -->
<g id="node8" class="node"><title>Node8</title>
<g id="a_node8"><a xlink:href="../../d0/d3e/pps-files_8cpp.html#aacdfbe498da2a6d42d753a7a75cf4ae5" target="_top" xlink:title="writeSysdelayDistribFile">
<polygon fill="white" stroke="red" points="108,-38.5 108,-57.5 230,-57.5 230,-38.5 108,-38.5"/>
<text text-anchor="middle" x="169" y="-45.5" font-family="Helvetica,sans-Serif" font-size="10.00">writeSysdelayDistribFile</text>
</a>
</g>
</g>
<!-- Node1&#45;&gt;Node8 -->
<g id="edge7" class="edge"><title>Node1&#45;&gt;Node8</title>
<path fill="none" stroke="midnightblue" d="M43.4704,-133.341C54.7235,-117.268 79.4467,-85.0226 108,-67 111.335,-64.895 114.922,-63.0059 118.624,-61.3136"/>
<polygon fill="midnightblue" stroke="midnightblue" points="120.044,-64.5147 127.985,-57.5017 117.404,-58.0316 120.044,-64.5147"/>
</g>
<!-- Node9 -->
<g id="node9" class="node"><title>Node9</title>
<g id="a_node9"><a xlink:href="../../d0/d3e/pps-files_8cpp.html#aca306fa07c76457fb21e59fe66939707" target="_top" xlink:title="processWriteRequest">
<polygon fill="white" stroke="red" points="113.5,-0.5 113.5,-19.5 224.5,-19.5 224.5,-0.5 113.5,-0.5"/>
<text text-anchor="middle" x="169" y="-7.5" font-family="Helvetica,sans-Serif" font-size="10.00">processWriteRequest</text>
</a>
</g>
</g>
<!-- Node1&#45;&gt;Node9 -->
<g id="edge8" class="edge"><title>Node1&#45;&gt;Node9</title>
<path fill="none" stroke="midnightblue" d="M40.2976,-133.455C48.3248,-111.628 70.9829,-57.7426 108,-29 110.425,-27.1174 113.04,-25.4192 115.774,-23.8875"/>
<polygon fill="midnightblue" stroke="midnightblue" points="117.327,-27.0244 124.827,-19.541 114.297,-20.7141 117.327,-27.0244"/>
</g>
</g>
</svg>
