<?xml version="1.0" encoding="UTF-8" standalone="no"?>
<!DOCTYPE svg PUBLIC "-//W3C//DTD SVG 1.1//EN"
 "http://www.w3.org/Graphics/SVG/1.1/DTD/svg11.dtd">
<!-- Generated by graphviz version 2.40.1 (20161225.0304)
 -->
<!-- Title: processWriteRequest Pages: 1 -->
<svg width="360pt" height="118pt"
 viewBox="0.00 0.00 359.96 118.42" xmlns="http://www.w3.org/2000/svg" xmlns:xlink="http://www.w3.org/1999/xlink">
<g id="graph0" class="graph" transform="scale(1 1) rotate(0) translate(4 114.4188)">
<title>processWriteRequest</title>
<polygon fill="#ffffff" stroke="transparent" points="-4,4 -4,-114.4188 355.958,-114.4188 355.958,4 -4,4"/>
<!-- Node431 -->
<g id="node1" class="node">
<title>Node431</title>
<polygon fill="#bfbfbf" stroke="#000000" points="0,-55.5 0,-73.5 111.415,-73.5 111.415,-55.5 0,-55.5"/>
<text text-anchor="middle" x="55.7075" y="-61.5" font-family="Helvetica,sans-Serif" font-size="10.00" fill="#000000">processWriteRequest</text>
</g>
<!-- Node432 -->
<g id="node2" class="node">
<title>Node432</title>
<g id="a_node2"><a xlink:href="../../d0/d3e/pps-files_8cpp.html#ae20c07f56a5b2b05b636f6a0a31ce214" target="_top" xlink:title="writeToLog">
<polygon fill="#ffffff" stroke="#ff0000" points="287.5986,-55.5 287.5986,-73.5 351.958,-73.5 351.958,-55.5 287.5986,-55.5"/>
<text text-anchor="middle" x="319.7783" y="-61.5" font-family="Helvetica,sans-Serif" font-size="10.00" fill="#000000">writeToLog</text>
</a>
</g>
</g>
<!-- Node431&#45;&gt;Node432 -->
<g id="edge1" class="edge">
<title>Node431&#45;&gt;Node432</title>
<path fill="none" stroke="#191970" d="M71.9864,-73.5586C89.8541,-82.9403 119.6945,-96.9842 147.415,-102.5 192.8286,-111.5363 206.7832,-114.1456 251.5986,-102.5 268.907,-98.0023 286.4886,-88.0435 299.4622,-79.4493"/>
<polygon fill="#191970" stroke="#191970" points="301.7892,-82.0956 308.0248,-73.5301 297.8086,-76.3375 301.7892,-82.0956"/>
</g>
<!-- Node435 -->
<g id="node3" class="node">
<title>Node435</title>
<g id="a_node3"><a xlink:href="../../d0/d3e/pps-files_8cpp.html#a4e1eee07f00ecb77c3ae3f508744f610" target="_top" xlink:title="saveDoubleArray">
<polygon fill="#ffffff" stroke="#ff0000" points="153.1548,-74.5 153.1548,-92.5 245.8589,-92.5 245.8589,-74.5 153.1548,-74.5"/>
<text text-anchor="middle" x="199.5068" y="-80.5" font-family="Helvetica,sans-Serif" font-size="10.00" fill="#000000">saveDoubleArray</text>
</a>
</g>
</g>
<!-- Node431&#45;&gt;Node435 -->
<g id="edge2" class="edge">
<title>Node431&#45;&gt;Node435</title>
<path fill="none" stroke="#191970" d="M111.7158,-71.9003C121.8888,-73.2444 132.5086,-74.6476 142.7042,-75.9947"/>
<polygon fill="#191970" stroke="#191970" points="142.3538,-79.4788 152.7262,-77.3189 143.2708,-72.5391 142.3538,-79.4788"/>
</g>
<!-- Node437 -->
<g id="node4" class="node">
<title>Node437</title>
<g id="a_node4"><a xlink:href="../../d0/d3e/pps-files_8cpp.html#a493e043705885cfcebc5ac807989eb4d" target="_top" xlink:title="writeFrequencyVars">
<polygon fill="#ffffff" stroke="#ff0000" points="147.415,-37.5 147.415,-55.5 251.5986,-55.5 251.5986,-37.5 147.415,-37.5"/>
<text text-anchor="middle" x="199.5068" y="-43.5" font-family="Helvetica,sans-Serif" font-size="10.00" fill="#000000">writeFrequencyVars</text>
</a>
</g>
</g>
<!-- Node431&#45;&gt;Node437 -->
<g id="edge4" class="edge">
<title>Node431&#45;&gt;Node437</title>
<path fill="none" stroke="#191970" d="M111.7158,-57.4892C120.0134,-56.4505 128.6082,-55.3747 137.0277,-54.3208"/>
<polygon fill="#191970" stroke="#191970" points="137.691,-57.7652 147.1788,-53.0501 136.8215,-50.8194 137.691,-57.7652"/>
</g>
<!-- Node438 -->
<g id="node5" class="node">
<title>Node438</title>
<g id="a_node5"><a xlink:href="../../d0/d3e/pps-files_8cpp.html#a73e9f77c69f58e616293b5ca5126e77f" target="_top" xlink:title="writeOffsets">
<polygon fill="#ffffff" stroke="#ff0000" points="165.2007,-.5 165.2007,-18.5 233.813,-18.5 233.813,-.5 165.2007,-.5"/>
<text text-anchor="middle" x="199.5068" y="-6.5" font-family="Helvetica,sans-Serif" font-size="10.00" fill="#000000">writeOffsets</text>
</a>
</g>
</g>
<!-- Node431&#45;&gt;Node438 -->
<g id="edge6" class="edge">
<title>Node431&#45;&gt;Node438</title>
<path fill="none" stroke="#191970" d="M78.2611,-55.4699C96.7884,-48.0945 123.7406,-37.4627 147.415,-28.5 153.0095,-26.382 158.9573,-24.1728 164.7573,-22.0413"/>
<polygon fill="#191970" stroke="#191970" points="166.0991,-25.2775 174.2902,-18.5576 163.6964,-18.7027 166.0991,-25.2775"/>
</g>
<!-- Node435&#45;&gt;Node432 -->
<g id="edge3" class="edge">
<title>Node435&#45;&gt;Node432</title>
<path fill="none" stroke="#191970" d="M246.0069,-76.1541C256.418,-74.5094 267.4047,-72.7738 277.6277,-71.1588"/>
<polygon fill="#191970" stroke="#191970" points="278.2152,-74.6095 287.5465,-69.5918 277.1229,-67.6952 278.2152,-74.6095"/>
</g>
<!-- Node437&#45;&gt;Node432 -->
<g id="edge5" class="edge">
<title>Node437&#45;&gt;Node432</title>
<path fill="none" stroke="#191970" d="M251.9098,-54.3427C260.3666,-55.6084 269.0308,-56.9051 277.2184,-58.1304"/>
<polygon fill="#191970" stroke="#191970" points="276.8752,-61.618 287.2831,-59.6367 277.9114,-54.6951 276.8752,-61.618"/>
</g>
<!-- Node438&#45;&gt;Node432 -->
<g id="edge7" class="edge">
<title>Node438&#45;&gt;Node432</title>
<path fill="none" stroke="#191970" d="M226.5531,-18.5749C234.6953,-21.5176 243.5919,-24.9458 251.5986,-28.5 266.3199,-35.0349 282.2651,-43.38 295.0314,-50.3899"/>
<polygon fill="#191970" stroke="#191970" points="293.6613,-53.633 304.1013,-55.4381 297.0657,-47.5165 293.6613,-53.633"/>
</g>
</g>
</svg>
