<?xml version="1.0" encoding="UTF-8" standalone="no"?>
<!DOCTYPE svg PUBLIC "-//W3C//DTD SVG 1.1//EN"
 "http://www.w3.org/Graphics/SVG/1.1/DTD/svg11.dtd">
<!-- Generated by graphviz version 2.40.1 (20161225.0304)
 -->
<!-- Title: accessDaemon Pages: 1 -->
<svg width="387pt" height="216pt"
 viewBox="0.00 0.00 387.03 216.00" xmlns="http://www.w3.org/2000/svg" xmlns:xlink="http://www.w3.org/1999/xlink">
<g id="graph0" class="graph" transform="scale(1 1) rotate(0) translate(4 212)">
<title>accessDaemon</title>
<polygon fill="#ffffff" stroke="transparent" points="-4,4 -4,-212 383.0332,-212 383.0332,4 -4,4"/>
<!-- Node0 -->
<g id="node1" class="node">
<title>Node0</title>
<polygon fill="#bfbfbf" stroke="#000000" points="0,-95.5 0,-113.5 84.9209,-113.5 84.9209,-95.5 0,-95.5"/>
<text text-anchor="middle" x="42.4604" y="-101.5" font-family="Helvetica,sans-Serif" font-size="10.00" fill="#000000">accessDaemon</text>
</g>
<!-- Node1 -->
<g id="node2" class="node">
<title>Node1</title>
<g id="a_node2"><a xlink:href="../../d0/d3e/pps-files_8cpp.html#ac59e9111236426cdcbea6d1774ca7fea" target="_top" xlink:title="ppsIsRunning">
<polygon fill="#ffffff" stroke="#ff0000" points="144.5464,-189.5 144.5464,-207.5 221.6987,-207.5 221.6987,-189.5 144.5464,-189.5"/>
<text text-anchor="middle" x="183.1226" y="-195.5" font-family="Helvetica,sans-Serif" font-size="10.00" fill="#000000">ppsIsRunning</text>
</a>
</g>
</g>
<!-- Node0&#45;&gt;Node1 -->
<g id="edge1" class="edge">
<title>Node0&#45;&gt;Node1</title>
<path fill="none" stroke="#191970" d="M49.399,-113.6971C61.9262,-129.6627 89.916,-162.5174 120.9209,-180.5 125.3061,-183.0434 130.0764,-185.2493 134.9601,-187.1576"/>
<polygon fill="#191970" stroke="#191970" points="133.8252,-190.4685 144.42,-190.4713 136.1393,-183.8621 133.8252,-190.4685"/>
</g>
<!-- Node6 -->
<g id="node3" class="node">
<title>Node6</title>
<g id="a_node3"><a xlink:href="../../d0/d3e/pps-files_8cpp.html#a6a3869251603ae4e569abadbd7dab11c" target="_top" xlink:title="INThandler">
<polygon fill="#ffffff" stroke="#000000" points="150.3887,-152.5 150.3887,-170.5 215.8564,-170.5 215.8564,-152.5 150.3887,-152.5"/>
<text text-anchor="middle" x="183.1226" y="-158.5" font-family="Helvetica,sans-Serif" font-size="10.00" fill="#000000">INThandler</text>
</a>
</g>
</g>
<!-- Node0&#45;&gt;Node6 -->
<g id="edge2" class="edge">
<title>Node0&#45;&gt;Node6</title>
<path fill="none" stroke="#191970" d="M63.7019,-113.6364C79.4469,-120.3593 101.4588,-129.6546 120.9209,-137.5 130.2431,-141.2579 140.3979,-145.2278 149.7479,-148.8336"/>
<polygon fill="#191970" stroke="#191970" points="148.5414,-152.1194 159.1315,-152.4351 151.0497,-145.5842 148.5414,-152.1194"/>
</g>
<!-- Node7 -->
<g id="node4" class="node">
<title>Node7</title>
<g id="a_node4"><a xlink:href="../../d0/d3e/pps-files_8cpp.html#acee307839ee7844080177e544b8b63d0" target="_top" xlink:title="missingArg">
<polygon fill="#ffffff" stroke="#000000" points="297.4497,-94.5 297.4497,-112.5 362.9077,-112.5 362.9077,-94.5 297.4497,-94.5"/>
<text text-anchor="middle" x="330.1787" y="-100.5" font-family="Helvetica,sans-Serif" font-size="10.00" fill="#000000">missingArg</text>
</a>
</g>
</g>
<!-- Node0&#45;&gt;Node7 -->
<g id="edge3" class="edge">
<title>Node0&#45;&gt;Node7</title>
<path fill="none" stroke="#191970" d="M85.2035,-104.6462C126.2583,-104.752 190.0307,-104.8258 245.3242,-104.5 258.809,-104.4205 273.4986,-104.2701 286.8076,-104.1095"/>
<polygon fill="#191970" stroke="#191970" points="287.1805,-107.6052 297.1357,-103.9798 287.0925,-100.6058 287.1805,-107.6052"/>
</g>
<!-- Node8 -->
<g id="node5" class="node">
<title>Node8</title>
<g id="a_node5"><a xlink:href="../../d0/d3e/pps-files_8cpp.html#a8837a1d11d52d5de8fb802ac99f84a3d" target="_top" xlink:title="printAcceptedArgs">
<polygon fill="#ffffff" stroke="#000000" points="281.3242,-57.5 281.3242,-75.5 379.0332,-75.5 379.0332,-57.5 281.3242,-57.5"/>
<text text-anchor="middle" x="330.1787" y="-63.5" font-family="Helvetica,sans-Serif" font-size="10.00" fill="#000000">printAcceptedArgs</text>
</a>
</g>
</g>
<!-- Node0&#45;&gt;Node8 -->
<g id="edge4" class="edge">
<title>Node0&#45;&gt;Node8</title>
<path fill="none" stroke="#191970" d="M56.2032,-95.4547C71.3319,-86.0845 96.7278,-72.0503 120.9209,-66.5 170.6437,-55.0928 228.7793,-56.1999 271.1379,-59.5246"/>
<polygon fill="#191970" stroke="#191970" points="271.0199,-63.0271 281.2803,-60.3864 271.6126,-56.0522 271.0199,-63.0271"/>
</g>
<!-- Node9 -->
<g id="node6" class="node">
<title>Node9</title>
<g id="a_node6"><a xlink:href="../../d0/d3e/pps-files_8cpp.html#ac20a2f5a5d6284628d71e7e0cdc08248" target="_top" xlink:title="parseSaveDataRequest">
<polygon fill="#ffffff" stroke="#ff0000" points="122.0342,-76.5 122.0342,-94.5 244.2109,-94.5 244.2109,-76.5 122.0342,-76.5"/>
<text text-anchor="middle" x="183.1226" y="-82.5" font-family="Helvetica,sans-Serif" font-size="10.00" fill="#000000">parseSaveDataRequest</text>
</a>
</g>
</g>
<!-- Node0&#45;&gt;Node9 -->
<g id="edge5" class="edge">
<title>Node0&#45;&gt;Node9</title>
<path fill="none" stroke="#191970" d="M85.0454,-98.7478C93.5964,-97.5928 102.7991,-96.3497 112.0194,-95.1043"/>
<polygon fill="#191970" stroke="#191970" points="112.56,-98.5631 122.0015,-93.756 111.6229,-91.6261 112.56,-98.5631"/>
</g>
<!-- Node12 -->
<g id="node7" class="node">
<title>Node12</title>
<g id="a_node7"><a xlink:href="../../d0/d3e/pps-files_8cpp.html#accdd08110477677873a18eea4520eb79" target="_top" xlink:title="showStatusEachSecond">
<polygon fill="#ffffff" stroke="#ff0000" points="120.9209,-.5 120.9209,-18.5 245.3242,-18.5 245.3242,-.5 120.9209,-.5"/>
<text text-anchor="middle" x="183.1226" y="-6.5" font-family="Helvetica,sans-Serif" font-size="10.00" fill="#000000">showStatusEachSecond</text>
</a>
</g>
</g>
<!-- Node0&#45;&gt;Node12 -->
<g id="edge8" class="edge">
<title>Node0&#45;&gt;Node12</title>
<path fill="none" stroke="#191970" d="M50.3247,-95.4959C63.5898,-80.7776 91.824,-51.4149 120.9209,-33.5 127.9282,-29.1856 135.8407,-25.4166 143.6152,-22.2227"/>
<polygon fill="#191970" stroke="#191970" points="144.892,-25.4816 152.9598,-18.6142 142.3703,-18.9516 144.892,-25.4816"/>
</g>
<!-- Node9&#45;&gt;Node7 -->
<g id="edge7" class="edge">
<title>Node9&#45;&gt;Node7</title>
<path fill="none" stroke="#191970" d="M244.6355,-93.0293C258.9194,-94.7777 273.8249,-96.6022 287.1169,-98.2291"/>
<polygon fill="#191970" stroke="#191970" points="287.0369,-101.7454 297.388,-99.4863 287.8874,-94.7972 287.0369,-101.7454"/>
</g>
<!-- Node9&#45;&gt;Node8 -->
<g id="edge6" class="edge">
<title>Node9&#45;&gt;Node8</title>
<path fill="none" stroke="#191970" d="M244.6355,-77.5524C253.3472,-76.4268 262.2902,-75.2713 270.9574,-74.1515"/>
<polygon fill="#191970" stroke="#191970" points="271.5057,-77.6099 280.9747,-72.8573 270.6087,-70.6676 271.5057,-77.6099"/>
</g>
</g>
</svg>
