<?xml version="1.0" encoding="UTF-8" standalone="no"?>
<!DOCTYPE svg PUBLIC "-//W3C//DTD SVG 1.1//EN"
 "http://www.w3.org/Graphics/SVG/1.1/DTD/svg11.dtd">
<!-- Generated by graphviz version 2.40.1 (20161225.0304)
 -->
<!-- Title: copyMajorTo Pages: 1 -->
<svg width="294pt" height="140pt"
 viewBox="0.00 0.00 294.18 140.00" xmlns="http://www.w3.org/2000/svg" xmlns:xlink="http://www.w3.org/1999/xlink">
<g id="graph0" class="graph" transform="scale(1 1) rotate(0) translate(4 136)">
<title>copyMajorTo</title>
<polygon fill="#ffffff" stroke="transparent" points="-4,4 -4,-136 290.1768,-136 290.1768,4 -4,4"/>
<!-- Node129 -->
<g id="node1" class="node">
<title>Node129</title>
<polygon fill="#bfbfbf" stroke="#000000" points="0,-56.5 0,-74.5 72.6895,-74.5 72.6895,-56.5 0,-56.5"/>
<text text-anchor="middle" x="36.3447" y="-62.5" font-family="Helvetica,sans-Serif" font-size="10.00" fill="#000000">copyMajorTo</text>
</g>
<!-- Node130 -->
<g id="node2" class="node">
<title>Node130</title>
<g id="a_node2"><a xlink:href="../../d0/d3e/pps-files_8cpp.html#a19da05b45d1e94170f5fe86decb70bfb" target="_top" xlink:title="sysCommand">
<polygon fill="#ffffff" stroke="#000000" points="108.6895,-113.5 108.6895,-131.5 185.8174,-131.5 185.8174,-113.5 108.6895,-113.5"/>
<text text-anchor="middle" x="147.2534" y="-119.5" font-family="Helvetica,sans-Serif" font-size="10.00" fill="#000000">sysCommand</text>
</a>
</g>
</g>
<!-- Node129&#45;&gt;Node130 -->
<g id="edge1" class="edge">
<title>Node129&#45;&gt;Node130</title>
<path fill="none" stroke="#191970" d="M54.1641,-74.658C72.0313,-83.8406 99.7676,-98.0953 120.3212,-108.6585"/>
<polygon fill="#191970" stroke="#191970" points="118.9842,-111.9066 129.4782,-113.3647 122.184,-105.6807 118.9842,-111.9066"/>
</g>
<!-- Node131 -->
<g id="node3" class="node">
<title>Node131</title>
<g id="a_node3"><a xlink:href="../../d0/d3e/pps-files_8cpp.html#ae20c07f56a5b2b05b636f6a0a31ce214" target="_top" xlink:title="writeToLog">
<polygon fill="#ffffff" stroke="#ff0000" points="221.8174,-56.5 221.8174,-74.5 286.1768,-74.5 286.1768,-56.5 221.8174,-56.5"/>
<text text-anchor="middle" x="253.9971" y="-62.5" font-family="Helvetica,sans-Serif" font-size="10.00" fill="#000000">writeToLog</text>
</a>
</g>
</g>
<!-- Node129&#45;&gt;Node131 -->
<g id="edge7" class="edge">
<title>Node129&#45;&gt;Node131</title>
<path fill="none" stroke="#191970" d="M72.7748,-65.5C111.0708,-65.5 171.2568,-65.5 211.6439,-65.5"/>
<polygon fill="#191970" stroke="#191970" points="211.7134,-69.0001 221.7133,-65.5 211.7133,-62.0001 211.7134,-69.0001"/>
</g>
<!-- Node134 -->
<g id="node4" class="node">
<title>Node134</title>
<g id="a_node4"><a xlink:href="../../d0/d3e/pps-files_8cpp.html#a94ad6f36dae10e5652ea241b11d2e5c7" target="_top" xlink:title="open_logerr">
<polygon fill="#ffffff" stroke="#ff0000" points="112.5664,-37.5 112.5664,-55.5 181.9404,-55.5 181.9404,-37.5 112.5664,-37.5"/>
<text text-anchor="middle" x="147.2534" y="-43.5" font-family="Helvetica,sans-Serif" font-size="10.00" fill="#000000">open_logerr</text>
</a>
</g>
</g>
<!-- Node129&#45;&gt;Node134 -->
<g id="edge3" class="edge">
<title>Node129&#45;&gt;Node134</title>
<path fill="none" stroke="#191970" d="M72.9678,-59.226C82.4273,-57.6055 92.7163,-55.8429 102.538,-54.1603"/>
<polygon fill="#191970" stroke="#191970" points="103.2844,-57.5835 112.5498,-52.4451 102.1024,-50.684 103.2844,-57.5835"/>
</g>
<!-- Node135 -->
<g id="node5" class="node">
<title>Node135</title>
<g id="a_node5"><a xlink:href="../../d0/d3e/pps-files_8cpp.html#a459e7950f1def63780ba7fda8e3c12d2" target="_top" xlink:title="read_logerr">
<polygon fill="#ffffff" stroke="#ff0000" points="113.6821,-.5 113.6821,-18.5 180.8247,-18.5 180.8247,-.5 113.6821,-.5"/>
<text text-anchor="middle" x="147.2534" y="-6.5" font-family="Helvetica,sans-Serif" font-size="10.00" fill="#000000">read_logerr</text>
</a>
</g>
</g>
<!-- Node129&#45;&gt;Node135 -->
<g id="edge5" class="edge">
<title>Node129&#45;&gt;Node135</title>
<path fill="none" stroke="#191970" d="M53.8499,-56.4545C68.4786,-48.9177 89.9041,-37.9308 108.6895,-28.5 112.2643,-26.7053 116.0325,-24.8294 119.7565,-22.9848"/>
<polygon fill="#191970" stroke="#191970" points="121.3681,-26.0925 128.7868,-18.5285 118.2704,-19.8152 121.3681,-26.0925"/>
</g>
<!-- Node130&#45;&gt;Node131 -->
<g id="edge2" class="edge">
<title>Node130&#45;&gt;Node131</title>
<path fill="none" stroke="#191970" d="M164.4036,-113.342C181.522,-104.2009 208.0531,-90.0336 227.8073,-79.4851"/>
<polygon fill="#191970" stroke="#191970" points="229.7169,-82.4331 236.8894,-74.6353 226.4196,-76.2584 229.7169,-82.4331"/>
</g>
<!-- Node134&#45;&gt;Node131 -->
<g id="edge4" class="edge">
<title>Node134&#45;&gt;Node131</title>
<path fill="none" stroke="#191970" d="M182.2053,-52.7213C191.5917,-54.3921 201.8445,-56.217 211.5878,-57.9513"/>
<polygon fill="#191970" stroke="#191970" points="211.0408,-61.4089 221.4994,-59.7155 212.2675,-54.5172 211.0408,-61.4089"/>
</g>
<!-- Node135&#45;&gt;Node131 -->
<g id="edge6" class="edge">
<title>Node135&#45;&gt;Node131</title>
<path fill="none" stroke="#191970" d="M166.1581,-18.6296C172.4398,-21.7122 179.4537,-25.2072 185.8174,-28.5 200.1146,-35.8978 215.9246,-44.4538 228.7177,-51.4735"/>
<polygon fill="#191970" stroke="#191970" points="227.3899,-54.7379 237.8376,-56.4975 230.7675,-48.6067 227.3899,-54.7379"/>
</g>
</g>
</svg>
