<?xml version="1.0" encoding="UTF-8" standalone="no"?>
<!DOCTYPE svg PUBLIC "-//W3C//DTD SVG 1.1//EN"
 "http://www.w3.org/Graphics/SVG/1.1/DTD/svg11.dtd">
<!-- Generated by graphviz version 2.40.1 (20161225.0304)
 -->
<!-- Title: readConfigFile Pages: 1 -->
<svg width="329pt" height="78pt"
 viewBox="0.00 0.00 329.18 77.74" xmlns="http://www.w3.org/2000/svg" xmlns:xlink="http://www.w3.org/1999/xlink">
<g id="graph0" class="graph" transform="scale(1 1) rotate(0) translate(4 73.7419)">
<title>readConfigFile</title>
<polygon fill="#ffffff" stroke="transparent" points="-4,4 -4,-73.7419 325.1816,-73.7419 325.1816,4 -4,4"/>
<!-- Node456 -->
<g id="node1" class="node">
<title>Node456</title>
<polygon fill="#bfbfbf" stroke="#000000" points="0,-37.5 0,-55.5 81.0342,-55.5 81.0342,-37.5 0,-37.5"/>
<text text-anchor="middle" x="40.5171" y="-43.5" font-family="Helvetica,sans-Serif" font-size="10.00" fill="#000000">readConfigFile</text>
</g>
<!-- Node457 -->
<g id="node2" class="node">
<title>Node457</title>
<g id="a_node2"><a xlink:href="../../d5/d60/pps-client_8cpp.html#a4b3bdab744bd7ed860326323fad180f2" target="_top" xlink:title="waitForPPS">
<polygon fill="#ffffff" stroke="#ff0000" points="252.3887,-37.5 252.3887,-55.5 321.1816,-55.5 321.1816,-37.5 252.3887,-37.5"/>
<text text-anchor="middle" x="286.7852" y="-43.5" font-family="Helvetica,sans-Serif" font-size="10.00" fill="#000000">waitForPPS</text>
</a>
</g>
</g>
<!-- Node456&#45;&gt;Node457 -->
<g id="edge1" class="edge">
<title>Node456&#45;&gt;Node457</title>
<path fill="none" stroke="#191970" d="M79.3342,-58.0794C91.3099,-61.1247 104.6154,-63.9812 117.0342,-65.5 160.8652,-70.8605 172.6142,-71.3035 216.3887,-65.5 230.9457,-63.5701 246.7643,-59.488 259.7124,-55.6005"/>
<polygon fill="#191970" stroke="#191970" points="80.1995,-54.688 69.636,-55.5022 78.4017,-61.4532 80.1995,-54.688"/>
</g>
<!-- Node459 -->
<g id="node3" class="node">
<title>Node459</title>
<g id="a_node3"><a xlink:href="../../d0/d3e/pps-files_8cpp.html#a7c5f61b647ea0f142844c82be15a345d" target="_top" xlink:title="getDriverGPIOvals">
<polygon fill="#ffffff" stroke="#ff0000" points="117.0342,-37.5 117.0342,-55.5 216.3887,-55.5 216.3887,-37.5 117.0342,-37.5"/>
<text text-anchor="middle" x="166.7114" y="-43.5" font-family="Helvetica,sans-Serif" font-size="10.00" fill="#000000">getDriverGPIOvals</text>
</a>
</g>
</g>
<!-- Node456&#45;&gt;Node459 -->
<g id="edge2" class="edge">
<title>Node456&#45;&gt;Node459</title>
<path fill="none" stroke="#191970" d="M91.2512,-46.5C99.7005,-46.5 108.4577,-46.5 116.8842,-46.5"/>
<polygon fill="#191970" stroke="#191970" points="91.1404,-43.0001 81.1404,-46.5 91.1404,-50.0001 91.1404,-43.0001"/>
</g>
<!-- Node460 -->
<g id="node4" class="node">
<title>Node460</title>
<g id="a_node4"><a xlink:href="../../d0/d3e/pps-files_8cpp.html#af30241291158e33d40328d6b3d32d808" target="_top" xlink:title="processFiles">
<polygon fill="#ffffff" stroke="#ff0000" points="130.6475,-.5 130.6475,-18.5 202.7754,-18.5 202.7754,-.5 130.6475,-.5"/>
<text text-anchor="middle" x="166.7114" y="-6.5" font-family="Helvetica,sans-Serif" font-size="10.00" fill="#000000">processFiles</text>
</a>
</g>
</g>
<!-- Node456&#45;&gt;Node460 -->
<g id="edge3" class="edge">
<title>Node456&#45;&gt;Node460</title>
<path fill="none" stroke="#191970" d="M81.4187,-34.5077C99.0608,-29.3351 119.356,-23.3845 135.7221,-18.586"/>
<polygon fill="#191970" stroke="#191970" points="79.999,-31.2766 71.3877,-37.4488 81.9685,-37.9938 79.999,-31.2766"/>
</g>
<!-- Node460&#45;&gt;Node457 -->
<g id="edge4" class="edge">
<title>Node460&#45;&gt;Node457</title>
<path fill="none" stroke="#191970" d="M206.1006,-21.6375C222.7763,-26.7761 241.8721,-32.6603 257.2989,-37.414"/>
<polygon fill="#191970" stroke="#191970" points="206.672,-18.1513 196.0848,-18.5512 204.6106,-24.8409 206.672,-18.1513"/>
</g>
</g>
</svg>
