<?xml version="1.0" encoding="UTF-8" standalone="no"?>
<!DOCTYPE svg PUBLIC "-//W3C//DTD SVG 1.1//EN"
 "http://www.w3.org/Graphics/SVG/1.1/DTD/svg11.dtd">
<!-- Generated by graphviz version 2.40.1 (20161225.0304)
 -->
<!-- Title: writeToLog Pages: 1 -->
<svg width="218pt" height="64pt"
 viewBox="0.00 0.00 217.74 64.00" xmlns="http://www.w3.org/2000/svg" xmlns:xlink="http://www.w3.org/1999/xlink">
<g id="graph0" class="graph" transform="scale(1 1) rotate(0) translate(4 60)">
<title>writeToLog</title>
<polygon fill="#ffffff" stroke="transparent" points="-4,4 -4,-60 213.7432,-60 213.7432,4 -4,4"/>
<!-- Node671 -->
<g id="node1" class="node">
<title>Node671</title>
<polygon fill="#bfbfbf" stroke="#000000" points="0,-18.5 0,-36.5 64.3594,-36.5 64.3594,-18.5 0,-18.5"/>
<text text-anchor="middle" x="32.1797" y="-24.5" font-family="Helvetica,sans-Serif" font-size="10.00" fill="#000000">writeToLog</text>
</g>
<!-- Node672 -->
<g id="node2" class="node">
<title>Node672</title>
<g id="a_node2"><a xlink:href="../../d0/d3e/pps-files_8cpp.html#a6f609d689ebe787455ce220808ca3ba0" target="_top" xlink:title="bufferStatusMsg">
<polygon fill="#ffffff" stroke="#000000" points="110.7329,-37.5 110.7329,-55.5 199.3696,-55.5 199.3696,-37.5 110.7329,-37.5"/>
<text text-anchor="middle" x="155.0513" y="-43.5" font-family="Helvetica,sans-Serif" font-size="10.00" fill="#000000">bufferStatusMsg</text>
</a>
</g>
</g>
<!-- Node671&#45;&gt;Node672 -->
<g id="edge1" class="edge">
<title>Node671&#45;&gt;Node672</title>
<path fill="none" stroke="#191970" d="M64.4627,-32.492C75.4615,-34.1928 88.0831,-36.1445 100.343,-38.0403"/>
<polygon fill="#191970" stroke="#191970" points="100.0952,-41.5435 110.5127,-39.6129 101.165,-34.6257 100.0952,-41.5435"/>
</g>
<!-- Node673 -->
<g id="node3" class="node">
<title>Node673</title>
<g id="a_node3"><a xlink:href="../../d0/d3e/pps-files_8cpp.html#a1509c961be7011d1a6a4b2d23715357a" target="_top" xlink:title="couldNotOpenMsgTo">
<polygon fill="#ffffff" stroke="#000000" points="100.3594,-.5 100.3594,-18.5 209.7432,-18.5 209.7432,-.5 100.3594,-.5"/>
<text text-anchor="middle" x="155.0513" y="-6.5" font-family="Helvetica,sans-Serif" font-size="10.00" fill="#000000">couldNotOpenMsgTo</text>
</a>
</g>
</g>
<!-- Node671&#45;&gt;Node673 -->
<g id="edge2" class="edge">
<title>Node671&#45;&gt;Node673</title>
<path fill="none" stroke="#191970" d="M64.4627,-22.7707C72.4185,-21.6052 81.2234,-20.3154 90.1262,-19.0112"/>
<polygon fill="#191970" stroke="#191970" points="90.7924,-22.451 100.1795,-17.5384 89.7778,-15.5249 90.7924,-22.451"/>
</g>
</g>
</svg>
