<?xml version="1.0" encoding="UTF-8" standalone="no"?>
<!DOCTYPE svg PUBLIC "-//W3C//DTD SVG 1.1//EN"
 "http://www.w3.org/Graphics/SVG/1.1/DTD/svg11.dtd">
<!-- Generated by graphviz version 2.40.1 (20161225.0304)
 -->
<!-- Title: processFiles Pages: 1 -->
<svg width="238pt" height="323pt"
 viewBox="0.00 0.00 238.27 323.00" xmlns="http://www.w3.org/2000/svg" xmlns:xlink="http://www.w3.org/1999/xlink">
<g id="graph0" class="graph" transform="scale(1 1) rotate(0) translate(4 319)">
<title>processFiles</title>
<polygon fill="#ffffff" stroke="transparent" points="-4,4 -4,-319 234.2656,-319 234.2656,4 -4,4"/>
<!-- Node408 -->
<g id="node1" class="node">
<title>Node408</title>
<polygon fill="#bfbfbf" stroke="#000000" points="0,-148.5 0,-166.5 72.1279,-166.5 72.1279,-148.5 0,-148.5"/>
<text text-anchor="middle" x="36.064" y="-154.5" font-family="Helvetica,sans-Serif" font-size="10.00" fill="#000000">processFiles</text>
</g>
<!-- Node409 -->
<g id="node2" class="node">
<title>Node409</title>
<g id="a_node2"><a xlink:href="../../d0/d3e/pps-files_8cpp.html#a7661ba76cbaa3908193ac55fd2f73330" target="_top" xlink:title="readConfigFile">
<polygon fill="#ffffff" stroke="#000000" points="128.6797,-296.5 128.6797,-314.5 209.7139,-314.5 209.7139,-296.5 128.6797,-296.5"/>
<text text-anchor="middle" x="169.1968" y="-302.5" font-family="Helvetica,sans-Serif" font-size="10.00" fill="#000000">readConfigFile</text>
</a>
</g>
</g>
<!-- Node408&#45;&gt;Node409 -->
<g id="edge1" class="edge">
<title>Node408&#45;&gt;Node409</title>
<path fill="none" stroke="#191970" d="M38.4901,-166.6356C45.2616,-190.3359 66.6475,-254.2551 108.1279,-287.5 111.4755,-290.1829 115.2117,-292.4661 119.1418,-294.409"/>
<polygon fill="#191970" stroke="#191970" points="117.9961,-297.7236 128.5722,-298.3531 120.6971,-291.2656 117.9961,-297.7236"/>
</g>
<!-- Node410 -->
<g id="node3" class="node">
<title>Node410</title>
<g id="a_node3"><a xlink:href="../../d0/d3e/pps-files_8cpp.html#ae1ed7854dcdca9d0cd8368693da83102" target="_top" xlink:title="isEnabled">
<polygon fill="#ffffff" stroke="#ff0000" points="139.2363,-259.5 139.2363,-277.5 199.1572,-277.5 199.1572,-259.5 139.2363,-259.5"/>
<text text-anchor="middle" x="169.1968" y="-265.5" font-family="Helvetica,sans-Serif" font-size="10.00" fill="#000000">isEnabled</text>
</a>
</g>
</g>
<!-- Node408&#45;&gt;Node410 -->
<g id="edge2" class="edge">
<title>Node408&#45;&gt;Node410</title>
<path fill="none" stroke="#191970" d="M40.6356,-166.7109C50.3873,-185.4029 75.0655,-227.9246 108.1279,-250.5 114.4749,-254.8338 121.8792,-258.1413 129.2982,-260.6602"/>
<polygon fill="#191970" stroke="#191970" points="128.3892,-264.0413 138.972,-263.5375 130.3848,-257.3318 128.3892,-264.0413"/>
</g>
<!-- Node412 -->
<g id="node4" class="node">
<title>Node412</title>
<g id="a_node4"><a xlink:href="../../d0/d3e/pps-files_8cpp.html#a82b5d210a2a50fc93755e34d3016247e" target="_top" xlink:title="writeErrorDistribFile">
<polygon fill="#ffffff" stroke="#ff0000" points="117.3052,-222.5 117.3052,-240.5 221.0884,-240.5 221.0884,-222.5 117.3052,-222.5"/>
<text text-anchor="middle" x="169.1968" y="-228.5" font-family="Helvetica,sans-Serif" font-size="10.00" fill="#000000">writeErrorDistribFile</text>
</a>
</g>
</g>
<!-- Node408&#45;&gt;Node412 -->
<g id="edge3" class="edge">
<title>Node408&#45;&gt;Node412</title>
<path fill="none" stroke="#191970" d="M45.5075,-166.7619C58.556,-179.0817 83.3112,-200.7806 108.1279,-213.5 112.1655,-215.5694 116.4783,-217.4379 120.8743,-219.1168"/>
<polygon fill="#191970" stroke="#191970" points="119.9613,-222.5051 130.5562,-222.4936 122.2666,-215.8956 119.9613,-222.5051"/>
</g>
<!-- Node418 -->
<g id="node5" class="node">
<title>Node418</title>
<g id="a_node5"><a xlink:href="../../d0/d3e/pps-files_8cpp.html#a376e9b76d9e9b1caf06ae3bd8c969f46" target="_top" xlink:title="writeJitterDistribFile">
<polygon fill="#ffffff" stroke="#ff0000" points="117.5811,-185.5 117.5811,-203.5 220.8125,-203.5 220.8125,-185.5 117.5811,-185.5"/>
<text text-anchor="middle" x="169.1968" y="-191.5" font-family="Helvetica,sans-Serif" font-size="10.00" fill="#000000">writeJitterDistribFile</text>
</a>
</g>
</g>
<!-- Node408&#45;&gt;Node418 -->
<g id="edge4" class="edge">
<title>Node408&#45;&gt;Node418</title>
<path fill="none" stroke="#191970" d="M68.6319,-166.5512C86.1196,-171.4114 107.8866,-177.4608 126.6928,-182.6874"/>
<polygon fill="#191970" stroke="#191970" points="125.9316,-186.1084 136.5036,-185.414 127.806,-179.364 125.9316,-186.1084"/>
</g>
<!-- Node419 -->
<g id="node6" class="node">
<title>Node419</title>
<g id="a_node6"><a xlink:href="../../d0/d3e/pps-files_8cpp.html#a2a2f0cb3677098122f66c3aee0b97dad" target="_top" xlink:title="isDisabled">
<polygon fill="#ffffff" stroke="#ff0000" points="138.1304,-148.5 138.1304,-166.5 200.2632,-166.5 200.2632,-148.5 138.1304,-148.5"/>
<text text-anchor="middle" x="169.1968" y="-154.5" font-family="Helvetica,sans-Serif" font-size="10.00" fill="#000000">isDisabled</text>
</a>
</g>
</g>
<!-- Node408&#45;&gt;Node419 -->
<g id="edge5" class="edge">
<title>Node408&#45;&gt;Node419</title>
<path fill="none" stroke="#191970" d="M72.4431,-157.5C89.5622,-157.5 110.0608,-157.5 127.7746,-157.5"/>
<polygon fill="#191970" stroke="#191970" points="127.8358,-161.0001 137.8358,-157.5 127.8358,-154.0001 127.8358,-161.0001"/>
</g>
<!-- Node420 -->
<g id="node7" class="node">
<title>Node420</title>
<g id="a_node7"><a xlink:href="../../d0/d3e/pps-files_8cpp.html#a79d35d0474566fc87be99d5ab1a7dc86" target="_top" xlink:title="writeIntrptDistribFile">
<polygon fill="#ffffff" stroke="#ff0000" points="117.022,-111.5 117.022,-129.5 221.3716,-129.5 221.3716,-111.5 117.022,-111.5"/>
<text text-anchor="middle" x="169.1968" y="-117.5" font-family="Helvetica,sans-Serif" font-size="10.00" fill="#000000">writeIntrptDistribFile</text>
</a>
</g>
</g>
<!-- Node408&#45;&gt;Node420 -->
<g id="edge6" class="edge">
<title>Node408&#45;&gt;Node420</title>
<path fill="none" stroke="#191970" d="M68.6319,-148.4488C86.1196,-143.5886 107.8866,-137.5392 126.6928,-132.3126"/>
<polygon fill="#191970" stroke="#191970" points="127.806,-135.636 136.5036,-129.586 125.9316,-128.8916 127.806,-135.636"/>
</g>
<!-- Node422 -->
<g id="node8" class="node">
<title>Node422</title>
<g id="a_node8"><a xlink:href="../../d0/d3e/pps-files_8cpp.html#aacdfbe498da2a6d42d753a7a75cf4ae5" target="_top" xlink:title="writeSysdelayDistribFile">
<polygon fill="#ffffff" stroke="#ff0000" points="108.1279,-74.5 108.1279,-92.5 230.2656,-92.5 230.2656,-74.5 108.1279,-74.5"/>
<text text-anchor="middle" x="169.1968" y="-80.5" font-family="Helvetica,sans-Serif" font-size="10.00" fill="#000000">writeSysdelayDistribFile</text>
</a>
</g>
</g>
<!-- Node408&#45;&gt;Node422 -->
<g id="edge7" class="edge">
<title>Node408&#45;&gt;Node422</title>
<path fill="none" stroke="#191970" d="M45.5678,-148.4678C58.6846,-136.4409 83.517,-115.2118 108.1279,-102.5 112.9373,-100.0159 118.1295,-97.789 123.3844,-95.8112"/>
<polygon fill="#191970" stroke="#191970" points="124.5484,-99.1121 132.8416,-92.5188 122.2468,-92.5013 124.5484,-99.1121"/>
</g>
<!-- Node423 -->
<g id="node9" class="node">
<title>Node423</title>
<g id="a_node9"><a xlink:href="../../d0/d3e/pps-files_8cpp.html#aa561b252a1493fe975df246f58e4687b" target="_top" xlink:title="getString">
<polygon fill="#ffffff" stroke="#000000" points="141.1846,-37.5 141.1846,-55.5 197.209,-55.5 197.209,-37.5 141.1846,-37.5"/>
<text text-anchor="middle" x="169.1968" y="-43.5" font-family="Helvetica,sans-Serif" font-size="10.00" fill="#000000">getString</text>
</a>
</g>
</g>
<!-- Node408&#45;&gt;Node423 -->
<g id="edge8" class="edge">
<title>Node408&#45;&gt;Node423</title>
<path fill="none" stroke="#191970" d="M40.6902,-148.4295C50.5427,-130.015 75.3969,-88.084 108.1279,-65.5 115.0801,-60.7031 123.2929,-57.0793 131.4032,-54.355"/>
<polygon fill="#191970" stroke="#191970" points="132.5636,-57.6616 141.1535,-51.4598 130.5709,-50.9512 132.5636,-57.6616"/>
</g>
<!-- Node424 -->
<g id="node10" class="node">
<title>Node424</title>
<g id="a_node10"><a xlink:href="../../d0/d3e/pps-files_8cpp.html#a14e312f99e221dfc6863ec3277522ea5" target="_top" xlink:title="processWriteRequest">
<polygon fill="#ffffff" stroke="#ff0000" points="113.4893,-.5 113.4893,-18.5 224.9043,-18.5 224.9043,-.5 113.4893,-.5"/>
<text text-anchor="middle" x="169.1968" y="-6.5" font-family="Helvetica,sans-Serif" font-size="10.00" fill="#000000">processWriteRequest</text>
</a>
</g>
</g>
<!-- Node408&#45;&gt;Node424 -->
<g id="edge9" class="edge">
<title>Node408&#45;&gt;Node424</title>
<path fill="none" stroke="#191970" d="M38.5403,-148.4692C45.4328,-125.0344 67.0857,-61.7905 108.1279,-28.5 110.6718,-26.4366 113.4404,-24.5964 116.348,-22.9554"/>
<polygon fill="#191970" stroke="#191970" points="117.904,-26.0909 125.4026,-18.6061 114.8731,-19.7811 117.904,-26.0909"/>
</g>
</g>
</svg>
