<?xml version="1.0" encoding="UTF-8" standalone="no"?>
<!DOCTYPE svg PUBLIC "-//W3C//DTD SVG 1.1//EN"
 "http://www.w3.org/Graphics/SVG/1.1/DTD/svg11.dtd">
<!-- Generated by graphviz version 2.40.1 (20161225.0304)
 -->
<!-- Title: writeFileMsgToLogbuf Pages: 1 -->
<svg width="267pt" height="64pt"
 viewBox="0.00 0.00 266.65 64.00" xmlns="http://www.w3.org/2000/svg" xmlns:xlink="http://www.w3.org/1999/xlink">
<g id="graph0" class="graph" transform="scale(1 1) rotate(0) translate(4 60)">
<title>writeFileMsgToLogbuf</title>
<polygon fill="#ffffff" stroke="transparent" points="-4,4 -4,-60 262.6494,-60 262.6494,4 -4,4"/>
<!-- Node571 -->
<g id="node1" class="node">
<title>Node571</title>
<polygon fill="#bfbfbf" stroke="#000000" points="0,-18.5 0,-36.5 113.2656,-36.5 113.2656,-18.5 0,-18.5"/>
<text text-anchor="middle" x="56.6328" y="-24.5" font-family="Helvetica,sans-Serif" font-size="10.00" fill="#000000">writeFileMsgToLogbuf</text>
</g>
<!-- Node572 -->
<g id="node2" class="node">
<title>Node572</title>
<g id="a_node2"><a xlink:href="../../d0/d3e/pps-files_8cpp.html#a1509c961be7011d1a6a4b2d23715357a" target="_top" xlink:title="couldNotOpenMsgTo">
<polygon fill="#ffffff" stroke="#000000" points="149.2656,-37.5 149.2656,-55.5 258.6494,-55.5 258.6494,-37.5 149.2656,-37.5"/>
<text text-anchor="middle" x="203.9575" y="-43.5" font-family="Helvetica,sans-Serif" font-size="10.00" fill="#000000">couldNotOpenMsgTo</text>
</a>
</g>
</g>
<!-- Node571&#45;&gt;Node572 -->
<g id="edge1" class="edge">
<title>Node571&#45;&gt;Node572</title>
<path fill="none" stroke="#191970" d="M113.5924,-34.8459C121.8818,-35.915 130.4691,-37.0224 138.9037,-38.1102"/>
<polygon fill="#191970" stroke="#191970" points="138.7206,-41.6155 149.0861,-39.4234 139.616,-34.673 138.7206,-41.6155"/>
</g>
<!-- Node573 -->
<g id="node3" class="node">
<title>Node573</title>
<g id="a_node3"><a xlink:href="../../d0/d3e/pps-files_8cpp.html#a49b2919c3b9a1fcebb7da7db39ee127b" target="_top" xlink:title="errorReadingMsgTo">
<polygon fill="#ffffff" stroke="#000000" points="152.0488,-.5 152.0488,-18.5 255.8662,-18.5 255.8662,-.5 152.0488,-.5"/>
<text text-anchor="middle" x="203.9575" y="-6.5" font-family="Helvetica,sans-Serif" font-size="10.00" fill="#000000">errorReadingMsgTo</text>
</a>
</g>
</g>
<!-- Node571&#45;&gt;Node573 -->
<g id="edge2" class="edge">
<title>Node571&#45;&gt;Node573</title>
<path fill="none" stroke="#191970" d="M113.5924,-20.5407C122.8686,-19.4074 132.5179,-18.2284 141.9089,-17.0811"/>
<polygon fill="#191970" stroke="#191970" points="142.4661,-20.5391 151.9678,-15.8521 141.6171,-13.5908 142.4661,-20.5391"/>
</g>
</g>
</svg>
