<?xml version="1.0" encoding="UTF-8" standalone="no"?>
<!DOCTYPE svg PUBLIC "-//W3C//DTD SVG 1.1//EN"
 "http://www.w3.org/Graphics/SVG/1.1/DTD/svg11.dtd">
<!-- Generated by graphviz version 2.40.1 (20161225.0304)
 -->
<!-- Title: daemonSaveArray Pages: 1 -->
<svg width="313pt" height="46pt"
 viewBox="0.00 0.00 312.56 46.00" xmlns="http://www.w3.org/2000/svg" xmlns:xlink="http://www.w3.org/1999/xlink">
<g id="graph0" class="graph" transform="scale(1 1) rotate(0) translate(4 42)">
<title>daemonSaveArray</title>
<polygon fill="#ffffff" stroke="transparent" points="-4,4 -4,-42 308.5557,-42 308.5557,4 -4,4"/>
<!-- Node206 -->
<g id="node1" class="node">
<title>Node206</title>
<polygon fill="#bfbfbf" stroke="#000000" points="0,-.5 0,-18.5 98.8223,-18.5 98.8223,-.5 0,-.5"/>
<text text-anchor="middle" x="49.4111" y="-6.5" font-family="Helvetica,sans-Serif" font-size="10.00" fill="#000000">daemonSaveArray</text>
</g>
<!-- Node207 -->
<g id="node2" class="node">
<title>Node207</title>
<g id="a_node2"><a xlink:href="../../d0/d3e/pps-files_8cpp.html#a94ad6f36dae10e5652ea241b11d2e5c7" target="_top" xlink:title="open_logerr">
<polygon fill="#ffffff" stroke="#ff0000" points="134.8223,-19.5 134.8223,-37.5 204.1963,-37.5 204.1963,-19.5 134.8223,-19.5"/>
<text text-anchor="middle" x="169.5093" y="-25.5" font-family="Helvetica,sans-Serif" font-size="10.00" fill="#000000">open_logerr</text>
</a>
</g>
</g>
<!-- Node206&#45;&gt;Node207 -->
<g id="edge1" class="edge">
<title>Node206&#45;&gt;Node207</title>
<path fill="none" stroke="#191970" d="M98.953,-17.3377C107.4972,-18.6894 116.3343,-20.0875 124.7432,-21.4178"/>
<polygon fill="#191970" stroke="#191970" points="124.3151,-24.8935 134.7392,-22.9992 125.4089,-17.9795 124.3151,-24.8935"/>
</g>
<!-- Node209 -->
<g id="node3" class="node">
<title>Node209</title>
<g id="a_node3"><a xlink:href="../../d0/d3e/pps-files_8cpp.html#ae20c07f56a5b2b05b636f6a0a31ce214" target="_top" xlink:title="writeToLog">
<polygon fill="#ffffff" stroke="#ff0000" points="240.1963,-.5 240.1963,-18.5 304.5557,-18.5 304.5557,-.5 240.1963,-.5"/>
<text text-anchor="middle" x="272.376" y="-6.5" font-family="Helvetica,sans-Serif" font-size="10.00" fill="#000000">writeToLog</text>
</a>
</g>
</g>
<!-- Node206&#45;&gt;Node209 -->
<g id="edge3" class="edge">
<title>Node206&#45;&gt;Node209</title>
<path fill="none" stroke="#191970" d="M98.8943,-9.5C138.1797,-9.5 192.5263,-9.5 229.867,-9.5"/>
<polygon fill="#191970" stroke="#191970" points="229.9215,-13.0001 239.9214,-9.5 229.9214,-6.0001 229.9215,-13.0001"/>
</g>
<!-- Node207&#45;&gt;Node209 -->
<g id="edge2" class="edge">
<title>Node207&#45;&gt;Node209</title>
<path fill="none" stroke="#191970" d="M204.3352,-22.0675C212.6301,-20.5354 221.5705,-18.884 230.1567,-17.2981"/>
<polygon fill="#191970" stroke="#191970" points="230.8157,-20.7357 240.0136,-15.4775 229.5442,-13.8521 230.8157,-20.7357"/>
</g>
</g>
</svg>
