<?xml version="1.0" encoding="UTF-8" standalone="no"?>
<!DOCTYPE svg PUBLIC "-//W3C//DTD SVG 1.1//EN"
 "http://www.w3.org/Graphics/SVG/1.1/DTD/svg11.dtd">
<!-- Generated by graphviz version 2.40.1 (20161225.0304)
 -->
<!-- Title: errorReadingMsgTo Pages: 1 -->
<svg width="261pt" height="64pt"
 viewBox="0.00 0.00 261.08 64.00" xmlns="http://www.w3.org/2000/svg" xmlns:xlink="http://www.w3.org/1999/xlink">
<g id="graph0" class="graph" transform="scale(1 1) rotate(0) translate(4 60)">
<title>errorReadingMsgTo</title>
<polygon fill="#ffffff" stroke="transparent" points="-4,4 -4,-60 257.083,-60 257.083,4 -4,4"/>
<!-- Node264 -->
<g id="node1" class="node">
<title>Node264</title>
<polygon fill="#bfbfbf" stroke="#000000" points="0,-18.5 0,-36.5 103.8174,-36.5 103.8174,-18.5 0,-18.5"/>
<text text-anchor="middle" x="51.9087" y="-24.5" font-family="Helvetica,sans-Serif" font-size="10.00" fill="#000000">errorReadingMsgTo</text>
</g>
<!-- Node265 -->
<g id="node2" class="node">
<title>Node265</title>
<g id="a_node2"><a xlink:href="../../d0/d3e/pps-files_8cpp.html#a459e7950f1def63780ba7fda8e3c12d2" target="_top" xlink:title="read_logerr">
<polygon fill="#ffffff" stroke="#ff0000" points="162.8789,-37.5 162.8789,-55.5 230.0215,-55.5 230.0215,-37.5 162.8789,-37.5"/>
<text text-anchor="middle" x="196.4502" y="-43.5" font-family="Helvetica,sans-Serif" font-size="10.00" fill="#000000">read_logerr</text>
</a>
</g>
</g>
<!-- Node264&#45;&gt;Node265 -->
<g id="edge1" class="edge">
<title>Node264&#45;&gt;Node265</title>
<path fill="none" stroke="#191970" d="M114.3385,-35.7064C130.9954,-37.896 148.3629,-40.1789 162.8124,-42.0783"/>
<polygon fill="#191970" stroke="#191970" points="114.4624,-32.1927 104.0915,-34.3594 113.55,-39.133 114.4624,-32.1927"/>
</g>
<!-- Node272 -->
<g id="node3" class="node">
<title>Node272</title>
<g id="a_node3"><a xlink:href="../../d0/d3e/pps-files_8cpp.html#a5e4671d51ee126315cb694ef235d359a" target="_top" xlink:title="writeFileMsgToLogbuf">
<polygon fill="#ffffff" stroke="#ff0000" points="139.8174,-.5 139.8174,-18.5 253.083,-18.5 253.083,-.5 139.8174,-.5"/>
<text text-anchor="middle" x="196.4502" y="-6.5" font-family="Helvetica,sans-Serif" font-size="10.00" fill="#000000">writeFileMsgToLogbuf</text>
</a>
</g>
</g>
<!-- Node264&#45;&gt;Node272 -->
<g id="edge2" class="edge">
<title>Node264&#45;&gt;Node272</title>
<path fill="none" stroke="#191970" d="M114.2021,-19.7425C122.5909,-18.6978 131.1626,-17.6304 139.4533,-16.5979"/>
<polygon fill="#191970" stroke="#191970" points="113.5823,-16.2926 104.0915,-21.0016 114.4474,-23.2389 113.5823,-16.2926"/>
</g>
</g>
</svg>
