<?xml version="1.0" encoding="UTF-8" standalone="no"?>
<!DOCTYPE svg PUBLIC "-//W3C//DTD SVG 1.1//EN"
 "http://www.w3.org/Graphics/SVG/1.1/DTD/svg11.dtd">
<!-- Generated by graphviz version 2.40.1 (20161225.0304)
 -->
<!-- Title: writeOffsets Pages: 1 -->
<svg width="282pt" height="46pt"
 viewBox="0.00 0.00 282.35 46.00" xmlns="http://www.w3.org/2000/svg" xmlns:xlink="http://www.w3.org/1999/xlink">
<g id="graph0" class="graph" transform="scale(1 1) rotate(0) translate(4 42)">
<title>writeOffsets</title>
<polygon fill="#ffffff" stroke="transparent" points="-4,4 -4,-42 278.3457,-42 278.3457,4 -4,4"/>
<!-- Node622 -->
<g id="node1" class="node">
<title>Node622</title>
<polygon fill="#bfbfbf" stroke="#000000" points="0,-.5 0,-18.5 68.6123,-18.5 68.6123,-.5 0,-.5"/>
<text text-anchor="middle" x="34.3062" y="-6.5" font-family="Helvetica,sans-Serif" font-size="10.00" fill="#000000">writeOffsets</text>
</g>
<!-- Node623 -->
<g id="node2" class="node">
<title>Node623</title>
<g id="a_node2"><a xlink:href="../../d0/d3e/pps-files_8cpp.html#a94ad6f36dae10e5652ea241b11d2e5c7" target="_top" xlink:title="open_logerr">
<polygon fill="#ffffff" stroke="#ff0000" points="104.6123,-19.5 104.6123,-37.5 173.9863,-37.5 173.9863,-19.5 104.6123,-19.5"/>
<text text-anchor="middle" x="139.2993" y="-25.5" font-family="Helvetica,sans-Serif" font-size="10.00" fill="#000000">open_logerr</text>
</a>
</g>
</g>
<!-- Node622&#45;&gt;Node623 -->
<g id="edge1" class="edge">
<title>Node622&#45;&gt;Node623</title>
<path fill="none" stroke="#191970" d="M68.6848,-15.7213C76.938,-17.2148 85.8721,-18.8316 94.5206,-20.3967"/>
<polygon fill="#191970" stroke="#191970" points="94.0205,-23.8629 104.4839,-22.1997 95.2671,-16.9748 94.0205,-23.8629"/>
</g>
<!-- Node625 -->
<g id="node3" class="node">
<title>Node625</title>
<g id="a_node3"><a xlink:href="../../d0/d3e/pps-files_8cpp.html#ae20c07f56a5b2b05b636f6a0a31ce214" target="_top" xlink:title="writeToLog">
<polygon fill="#ffffff" stroke="#ff0000" points="209.9863,-.5 209.9863,-18.5 274.3457,-18.5 274.3457,-.5 209.9863,-.5"/>
<text text-anchor="middle" x="242.166" y="-6.5" font-family="Helvetica,sans-Serif" font-size="10.00" fill="#000000">writeToLog</text>
</a>
</g>
</g>
<!-- Node622&#45;&gt;Node625 -->
<g id="edge3" class="edge">
<title>Node622&#45;&gt;Node625</title>
<path fill="none" stroke="#191970" d="M68.63,-9.5C104.4657,-9.5 160.7353,-9.5 199.4289,-9.5"/>
<polygon fill="#191970" stroke="#191970" points="199.8448,-13.0001 209.8448,-9.5 199.8447,-6.0001 199.8448,-13.0001"/>
</g>
<!-- Node623&#45;&gt;Node625 -->
<g id="edge2" class="edge">
<title>Node623&#45;&gt;Node625</title>
<path fill="none" stroke="#191970" d="M174.1253,-22.0675C182.4201,-20.5354 191.3605,-18.884 199.9467,-17.2981"/>
<polygon fill="#191970" stroke="#191970" points="200.6057,-20.7357 209.8036,-15.4775 199.3342,-13.8521 200.6057,-20.7357"/>
</g>
</g>
</svg>
