<?xml version="1.0" encoding="UTF-8" standalone="no"?>
<!DOCTYPE svg PUBLIC "-//W3C//DTD SVG 1.1//EN"
 "http://www.w3.org/Graphics/SVG/1.1/DTD/svg11.dtd">
<!-- Generated by graphviz version 2.40.1 (20161225.0304)
 -->
<!-- Title: restartNTP Pages: 1 -->
<svg width="308pt" height="83pt"
 viewBox="0.00 0.00 308.06 83.00" xmlns="http://www.w3.org/2000/svg" xmlns:xlink="http://www.w3.org/1999/xlink">
<g id="graph0" class="graph" transform="scale(1 1) rotate(0) translate(4 79)">
<title>restartNTP</title>
<polygon fill="#ffffff" stroke="transparent" points="-4,4 -4,-79 304.0635,-79 304.0635,4 -4,4"/>
<!-- Node487 -->
<g id="node1" class="node">
<title>Node487</title>
<polygon fill="#bfbfbf" stroke="#000000" points="0,-37.5 0,-55.5 64.3398,-55.5 64.3398,-37.5 0,-37.5"/>
<text text-anchor="middle" x="32.1699" y="-43.5" font-family="Helvetica,sans-Serif" font-size="10.00" fill="#000000">restartNTP</text>
</g>
<!-- Node488 -->
<g id="node2" class="node">
<title>Node488</title>
<g id="a_node2"><a xlink:href="../../d0/d3e/pps-files_8cpp.html#ae20c07f56a5b2b05b636f6a0a31ce214" target="_top" xlink:title="writeToLog">
<polygon fill="#ffffff" stroke="#ff0000" points="235.7041,-56.5 235.7041,-74.5 300.0635,-74.5 300.0635,-56.5 235.7041,-56.5"/>
<text text-anchor="middle" x="267.8838" y="-62.5" font-family="Helvetica,sans-Serif" font-size="10.00" fill="#000000">writeToLog</text>
</a>
</g>
</g>
<!-- Node487&#45;&gt;Node488 -->
<g id="edge1" class="edge">
<title>Node487&#45;&gt;Node488</title>
<path fill="none" stroke="#191970" d="M58.3649,-55.5995C70.8987,-59.4868 86.2193,-63.569 100.3398,-65.5 142.6501,-71.286 191.5346,-70.4356 225.5376,-68.6577"/>
<polygon fill="#191970" stroke="#191970" points="225.8051,-72.1482 235.5887,-68.0824 225.4051,-65.1596 225.8051,-72.1482"/>
</g>
<!-- Node491 -->
<g id="node3" class="node">
<title>Node491</title>
<g id="a_node3"><a xlink:href="../../d0/d3e/pps-files_8cpp.html#a19da05b45d1e94170f5fe86decb70bfb" target="_top" xlink:title="sysCommand">
<polygon fill="#ffffff" stroke="#000000" points="111.458,-37.5 111.458,-55.5 188.5859,-55.5 188.5859,-37.5 111.458,-37.5"/>
<text text-anchor="middle" x="150.022" y="-43.5" font-family="Helvetica,sans-Serif" font-size="10.00" fill="#000000">sysCommand</text>
</a>
</g>
</g>
<!-- Node487&#45;&gt;Node491 -->
<g id="edge2" class="edge">
<title>Node487&#45;&gt;Node491</title>
<path fill="none" stroke="#191970" d="M64.3735,-46.5C75.6612,-46.5 88.6086,-46.5 100.9607,-46.5"/>
<polygon fill="#191970" stroke="#191970" points="101.1471,-50.0001 111.147,-46.5 101.147,-43.0001 101.1471,-50.0001"/>
</g>
<!-- Node492 -->
<g id="node4" class="node">
<title>Node492</title>
<g id="a_node4"><a xlink:href="../../d0/d3e/pps-files_8cpp.html#a2f76a2c4a4ca7cc05e6110eb49378ad1" target="_top" xlink:title="writeFileMsgToLog">
<polygon fill="#ffffff" stroke="#ff0000" points="100.3398,-.5 100.3398,-18.5 199.7041,-18.5 199.7041,-.5 100.3398,-.5"/>
<text text-anchor="middle" x="150.022" y="-6.5" font-family="Helvetica,sans-Serif" font-size="10.00" fill="#000000">writeFileMsgToLog</text>
</a>
</g>
</g>
<!-- Node487&#45;&gt;Node492 -->
<g id="edge4" class="edge">
<title>Node487&#45;&gt;Node492</title>
<path fill="none" stroke="#191970" d="M60.9998,-37.4488C76.1236,-32.7006 94.863,-26.8173 111.2417,-21.6752"/>
<polygon fill="#191970" stroke="#191970" points="112.5889,-24.9208 121.0813,-18.586 110.492,-18.2422 112.5889,-24.9208"/>
</g>
<!-- Node491&#45;&gt;Node488 -->
<g id="edge3" class="edge">
<title>Node491&#45;&gt;Node488</title>
<path fill="none" stroke="#191970" d="M188.6143,-52.7213C200.3494,-54.6131 213.311,-56.7026 225.2938,-58.6342"/>
<polygon fill="#191970" stroke="#191970" points="225.0872,-62.146 235.5168,-60.2822 226.2013,-55.2353 225.0872,-62.146"/>
</g>
</g>
</svg>
