<?xml version="1.0" encoding="UTF-8" standalone="no"?>
<!DOCTYPE svg PUBLIC "-//W3C//DTD SVG 1.1//EN"
 "http://www.w3.org/Graphics/SVG/1.1/DTD/svg11.dtd">
<!-- Generated by graphviz version 2.40.1 (20161225.0304)
 -->
<!-- Title: open_logerr Pages: 1 -->
<svg width="400pt" height="579pt"
 viewBox="0.00 0.00 400.48 579.36" xmlns="http://www.w3.org/2000/svg" xmlns:xlink="http://www.w3.org/1999/xlink">
<g id="graph0" class="graph" transform="scale(1 1) rotate(0) translate(4 575.3596)">
<title>open_logerr</title>
<polygon fill="#ffffff" stroke="transparent" points="-4,4 -4,-575.3596 396.4785,-575.3596 396.4785,4 -4,4"/>
<!-- Node354 -->
<g id="node1" class="node">
<title>Node354</title>
<polygon fill="#bfbfbf" stroke="#000000" points="0,-281.5 0,-299.5 69.374,-299.5 69.374,-281.5 0,-281.5"/>
<text text-anchor="middle" x="34.687" y="-287.5" font-family="Helvetica,sans-Serif" font-size="10.00" fill="#000000">open_logerr</text>
</g>
<!-- Node355 -->
<g id="node2" class="node">
<title>Node355</title>
<g id="a_node2"><a xlink:href="../../d5/d60/pps-client_8cpp.html#a0ddf1224851353fc92bfbff6f499fa97" target="_top" xlink:title="main">
<polygon fill="#ffffff" stroke="#000000" points="354.8037,-300.5 354.8037,-318.5 392.4785,-318.5 392.4785,-300.5 354.8037,-300.5"/>
<text text-anchor="middle" x="373.6411" y="-306.5" font-family="Helvetica,sans-Serif" font-size="10.00" fill="#000000">main</text>
</a>
</g>
</g>
<!-- Node354&#45;&gt;Node355 -->
<g id="edge1" class="edge">
<title>Node354&#45;&gt;Node355</title>
<path fill="none" stroke="#191970" d="M36.9041,-309.8779C43.6821,-365.2991 66.0914,-522.4111 105.374,-552.5 142.1336,-580.6563 168.2551,-573.4319 209.5576,-552.5 310.3598,-501.414 359.7263,-356.1908 371.0612,-318.5171"/>
<polygon fill="#191970" stroke="#191970" points="40.3478,-309.1957 35.6946,-299.6774 33.3965,-310.02 40.3478,-309.1957"/>
</g>
<!-- Node356 -->
<g id="node3" class="node">
<title>Node356</title>
<g id="a_node3"><a xlink:href="../../d0/d3e/pps-files_8cpp.html#afdccb305ab5e5c4f3402fe7969c6737b" target="_top" xlink:title="writeStatusStrings">
<polygon fill="#ffffff" stroke="#ff0000" points="109.1729,-524.5 109.1729,-542.5 205.7588,-542.5 205.7588,-524.5 109.1729,-524.5"/>
<text text-anchor="middle" x="157.4658" y="-530.5" font-family="Helvetica,sans-Serif" font-size="10.00" fill="#000000">writeStatusStrings</text>
</a>
</g>
</g>
<!-- Node354&#45;&gt;Node356 -->
<g id="edge2" class="edge">
<title>Node354&#45;&gt;Node356</title>
<path fill="none" stroke="#191970" d="M38.3652,-309.4662C48.1314,-358.0482 75.9841,-485.2664 105.374,-515.5 108.9755,-519.2049 113.3755,-522.1477 118.0767,-524.4851"/>
<polygon fill="#191970" stroke="#191970" points="41.7932,-308.7589 36.42,-299.6277 34.9261,-310.1167 41.7932,-308.7589"/>
</g>
<!-- Node358 -->
<g id="node4" class="node">
<title>Node358</title>
<g id="a_node4"><a xlink:href="../../d0/d3e/pps-files_8cpp.html#ab03cf9b5563affdcf46a4ca95d4ff4ed" target="_top" xlink:title="getChildPID">
<polygon fill="#ffffff" stroke="#000000" points="122.7861,-487.5 122.7861,-505.5 192.1455,-505.5 192.1455,-487.5 122.7861,-487.5"/>
<text text-anchor="middle" x="157.4658" y="-493.5" font-family="Helvetica,sans-Serif" font-size="10.00" fill="#000000">getChildPID</text>
</a>
</g>
</g>
<!-- Node354&#45;&gt;Node358 -->
<g id="edge3" class="edge">
<title>Node354&#45;&gt;Node358</title>
<path fill="none" stroke="#191970" d="M37.3531,-309.9354C43.2822,-346.2578 60.7394,-425.0429 105.374,-472.5 111.4456,-478.9555 119.5915,-483.8231 127.6358,-487.4268"/>
<polygon fill="#191970" stroke="#191970" points="40.7658,-309.0941 35.8133,-299.7281 33.8442,-310.1383 40.7658,-309.0941"/>
</g>
<!-- Node359 -->
<g id="node5" class="node">
<title>Node359</title>
<g id="a_node5"><a xlink:href="../../d0/d3e/pps-files_8cpp.html#a9942302e3e5272291f62fda42bdf6319" target="_top" xlink:title="createPIDfile">
<polygon fill="#ffffff" stroke="#000000" points="245.5576,-375.5 245.5576,-393.5 318.8037,-393.5 318.8037,-375.5 245.5576,-375.5"/>
<text text-anchor="middle" x="282.1807" y="-381.5" font-family="Helvetica,sans-Serif" font-size="10.00" fill="#000000">createPIDfile</text>
</a>
</g>
</g>
<!-- Node354&#45;&gt;Node359 -->
<g id="edge4" class="edge">
<title>Node354&#45;&gt;Node359</title>
<path fill="none" stroke="#191970" d="M37.3027,-309.9668C42.951,-343.3276 59.7005,-410.6153 105.374,-439.5 144.5086,-464.2493 165.6643,-454.2453 209.5576,-439.5 236.5441,-430.4343 261.4846,-406.9261 273.9145,-393.7671"/>
<polygon fill="#191970" stroke="#191970" points="40.7049,-309.0588 35.7386,-299.7001 33.7847,-310.1132 40.7049,-309.0588"/>
</g>
<!-- Node360 -->
<g id="node6" class="node">
<title>Node360</title>
<g id="a_node6"><a xlink:href="../../d0/d3e/pps-files_8cpp.html#aa688c89aacc832cc1e7ef6ff1be6541e" target="_top" xlink:title="writeDistribution">
<polygon fill="#ffffff" stroke="#ff0000" points="113.8994,-411.5 113.8994,-429.5 201.0322,-429.5 201.0322,-411.5 113.8994,-411.5"/>
<text text-anchor="middle" x="157.4658" y="-417.5" font-family="Helvetica,sans-Serif" font-size="10.00" fill="#000000">writeDistribution</text>
</a>
</g>
</g>
<!-- Node354&#45;&gt;Node360 -->
<g id="edge6" class="edge">
<title>Node354&#45;&gt;Node360</title>
<path fill="none" stroke="#191970" d="M41.8127,-309.1646C52.173,-333.913 73.683,-377.3798 105.374,-402.5 109.9481,-406.1257 115.3,-409.0455 120.7993,-411.39"/>
<polygon fill="#191970" stroke="#191970" points="45.0318,-307.7884 38.058,-299.8123 38.5357,-310.3964 45.0318,-307.7884"/>
</g>
<!-- Node365 -->
<g id="node7" class="node">
<title>Node365</title>
<g id="a_node7"><a xlink:href="../../d0/d3e/pps-files_8cpp.html#a82969e14917a0330c7a2174bea9af5d6" target="_top" xlink:title="writeMultipleDistrib">
<polygon fill="#ffffff" stroke="#ff0000" points="107.5127,-374.5 107.5127,-392.5 207.4189,-392.5 207.4189,-374.5 107.5127,-374.5"/>
<text text-anchor="middle" x="157.4658" y="-380.5" font-family="Helvetica,sans-Serif" font-size="10.00" fill="#000000">writeMultipleDistrib</text>
</a>
</g>
</g>
<!-- Node354&#45;&gt;Node365 -->
<g id="edge7" class="edge">
<title>Node354&#45;&gt;Node365</title>
<path fill="none" stroke="#191970" d="M47.2424,-308.1109C60.1015,-324.9832 81.5382,-350.0923 105.374,-365.5 110.9187,-369.0841 117.2587,-372.0438 123.5626,-374.4553"/>
<polygon fill="#191970" stroke="#191970" points="49.7808,-305.657 41.0201,-299.6987 44.153,-309.8198 49.7808,-305.657"/>
</g>
<!-- Node367 -->
<g id="node8" class="node">
<title>Node367</title>
<g id="a_node8"><a xlink:href="../../d0/d3e/pps-files_8cpp.html#a73e9f77c69f58e616293b5ca5126e77f" target="_top" xlink:title="writeOffsets">
<polygon fill="#ffffff" stroke="#ff0000" points="123.1597,-337.5 123.1597,-355.5 191.772,-355.5 191.772,-337.5 123.1597,-337.5"/>
<text text-anchor="middle" x="157.4658" y="-343.5" font-family="Helvetica,sans-Serif" font-size="10.00" fill="#000000">writeOffsets</text>
</a>
</g>
</g>
<!-- Node354&#45;&gt;Node367 -->
<g id="edge8" class="edge">
<title>Node354&#45;&gt;Node367</title>
<path fill="none" stroke="#191970" d="M58.8298,-304.7268C72.2704,-312.3268 89.4569,-321.5255 105.374,-328.5 112.7358,-331.7258 120.8749,-334.7726 128.4886,-337.4106"/>
<polygon fill="#191970" stroke="#191970" points="60.1919,-301.4731 49.7767,-299.5301 56.707,-307.544 60.1919,-301.4731"/>
</g>
<!-- Node369 -->
<g id="node9" class="node">
<title>Node369</title>
<g id="a_node9"><a xlink:href="../../d0/d3e/pps-files_8cpp.html#a493e043705885cfcebc5ac807989eb4d" target="_top" xlink:title="writeFrequencyVars">
<polygon fill="#ffffff" stroke="#ff0000" points="105.374,-300.5 105.374,-318.5 209.5576,-318.5 209.5576,-300.5 105.374,-300.5"/>
<text text-anchor="middle" x="157.4658" y="-306.5" font-family="Helvetica,sans-Serif" font-size="10.00" fill="#000000">writeFrequencyVars</text>
</a>
</g>
</g>
<!-- Node354&#45;&gt;Node369 -->
<g id="edge9" class="edge">
<title>Node354&#45;&gt;Node369</title>
<path fill="none" stroke="#191970" d="M79.4439,-297.4261C87.779,-298.716 96.5566,-300.0743 105.0961,-301.3958"/>
<polygon fill="#191970" stroke="#191970" points="79.9597,-293.9644 69.5421,-295.8938 78.8892,-300.882 79.9597,-293.9644"/>
</g>
<!-- Node370 -->
<g id="node10" class="node">
<title>Node370</title>
<g id="a_node10"><a xlink:href="../../d0/d3e/pps-files_8cpp.html#a4e1eee07f00ecb77c3ae3f508744f610" target="_top" xlink:title="saveDoubleArray">
<polygon fill="#ffffff" stroke="#ff0000" points="111.1138,-263.5 111.1138,-281.5 203.8179,-281.5 203.8179,-263.5 111.1138,-263.5"/>
<text text-anchor="middle" x="157.4658" y="-269.5" font-family="Helvetica,sans-Serif" font-size="10.00" fill="#000000">saveDoubleArray</text>
</a>
</g>
</g>
<!-- Node354&#45;&gt;Node370 -->
<g id="edge10" class="edge">
<title>Node354&#45;&gt;Node370</title>
<path fill="none" stroke="#191970" d="M79.5355,-283.925C89.7981,-282.4204 100.7271,-280.8182 111.0539,-279.3042"/>
<polygon fill="#191970" stroke="#191970" points="78.9286,-280.4765 69.5421,-285.3901 79.944,-287.4024 78.9286,-280.4765"/>
</g>
<!-- Node371 -->
<g id="node11" class="node">
<title>Node371</title>
<g id="a_node11"><a xlink:href="../../d0/d3e/pps-files_8cpp.html#af916d258db5da33fc999021de2722283" target="_top" xlink:title="writeSysDelay">
<polygon fill="#ffffff" stroke="#ff0000" points="117.791,-226.5 117.791,-244.5 197.1406,-244.5 197.1406,-226.5 117.791,-226.5"/>
<text text-anchor="middle" x="157.4658" y="-232.5" font-family="Helvetica,sans-Serif" font-size="10.00" fill="#000000">writeSysDelay</text>
</a>
</g>
</g>
<!-- Node354&#45;&gt;Node371 -->
<g id="edge11" class="edge">
<title>Node354&#45;&gt;Node371</title>
<path fill="none" stroke="#191970" d="M60.0118,-276.6599C73.3268,-269.6252 90.0296,-261.1764 105.374,-254.5 113.495,-250.9665 122.5067,-247.5189 130.7201,-244.5517"/>
<polygon fill="#191970" stroke="#191970" points="58.1519,-273.6854 50.9832,-281.4867 61.4522,-279.8586 58.1519,-273.6854"/>
</g>
<!-- Node374 -->
<g id="node12" class="node">
<title>Node374</title>
<g id="a_node12"><a xlink:href="../../d0/d3e/pps-files_8cpp.html#aad53ec22f551c789425b2870f59fbae9" target="_top" xlink:title="writeTimestamp">
<polygon fill="#ffffff" stroke="#ff0000" points="114.3657,-189.5 114.3657,-207.5 200.5659,-207.5 200.5659,-189.5 114.3657,-189.5"/>
<text text-anchor="middle" x="157.4658" y="-195.5" font-family="Helvetica,sans-Serif" font-size="10.00" fill="#000000">writeTimestamp</text>
</a>
</g>
</g>
<!-- Node354&#45;&gt;Node374 -->
<g id="edge12" class="edge">
<title>Node354&#45;&gt;Node374</title>
<path fill="none" stroke="#191970" d="M47.8163,-272.937C60.8346,-256.5984 82.1493,-232.5711 105.374,-217.5 111.5112,-213.5174 118.5955,-210.2249 125.5237,-207.5638"/>
<polygon fill="#191970" stroke="#191970" points="44.8362,-271.0687 41.478,-281.1172 50.3696,-275.3561 44.8362,-271.0687"/>
</g>
<!-- Node376 -->
<g id="node13" class="node">
<title>Node376</title>
<g id="a_node13"><a xlink:href="../../d0/d3e/pps-files_8cpp.html#a180a91d8d62c36158e3b769ac35aa01e" target="_top" xlink:title="replaceNTPConfig">
<polygon fill="#ffffff" stroke="#000000" points="108.6138,-113.5 108.6138,-131.5 206.3179,-131.5 206.3179,-113.5 108.6138,-113.5"/>
<text text-anchor="middle" x="157.4658" y="-119.5" font-family="Helvetica,sans-Serif" font-size="10.00" fill="#000000">replaceNTPConfig</text>
</a>
</g>
</g>
<!-- Node354&#45;&gt;Node376 -->
<g id="edge13" class="edge">
<title>Node354&#45;&gt;Node376</title>
<path fill="none" stroke="#191970" d="M39.5512,-271.4426C48.1288,-241.2999 68.6095,-182.3714 105.374,-146.5 111.9308,-140.1025 120.5026,-135.2035 128.7943,-131.5524"/>
<polygon fill="#191970" stroke="#191970" points="36.0694,-270.9106 36.8375,-281.4776 42.8267,-272.738 36.0694,-270.9106"/>
</g>
<!-- Node377 -->
<g id="node14" class="node">
<title>Node377</title>
<g id="a_node14"><a xlink:href="../../d0/d3e/pps-files_8cpp.html#a63902ed5404b3607594a3ad7d080da10" target="_top" xlink:title="disableNTP">
<polygon fill="#ffffff" stroke="#000000" points="248.3359,-151.5 248.3359,-169.5 316.0254,-169.5 316.0254,-151.5 248.3359,-151.5"/>
<text text-anchor="middle" x="282.1807" y="-157.5" font-family="Helvetica,sans-Serif" font-size="10.00" fill="#000000">disableNTP</text>
</a>
</g>
</g>
<!-- Node354&#45;&gt;Node377 -->
<g id="edge18" class="edge">
<title>Node354&#45;&gt;Node377</title>
<path fill="none" stroke="#191970" d="M40.8772,-271.8677C50.3751,-246.4903 71.1289,-201.7861 105.374,-180.5 148.9259,-153.429 210.3385,-153.0563 248.1364,-156.1401"/>
<polygon fill="#191970" stroke="#191970" points="37.5279,-270.8411 37.4893,-281.4359 44.1264,-273.1776 37.5279,-270.8411"/>
</g>
<!-- Node378 -->
<g id="node15" class="node">
<title>Node378</title>
<g id="a_node15"><a xlink:href="../../d0/d3e/pps-files_8cpp.html#a6354b54021f614ab3ab87ef5b3df64d0" target="_top" xlink:title="enableNTP">
<polygon fill="#ffffff" stroke="#000000" points="249.166,-113.5 249.166,-131.5 315.1953,-131.5 315.1953,-113.5 249.166,-113.5"/>
<text text-anchor="middle" x="282.1807" y="-119.5" font-family="Helvetica,sans-Serif" font-size="10.00" fill="#000000">enableNTP</text>
</a>
</g>
</g>
<!-- Node354&#45;&gt;Node378 -->
<g id="edge19" class="edge">
<title>Node354&#45;&gt;Node378</title>
<path fill="none" stroke="#191970" d="M39.0284,-271.3616C49.3421,-227.7801 76.6124,-123.3759 105.374,-103.5 154.3919,-69.626 229.9924,-97.6267 264.2334,-113.4599"/>
<polygon fill="#191970" stroke="#191970" points="35.5816,-270.7319 36.7307,-281.2643 42.4004,-272.3142 35.5816,-270.7319"/>
</g>
<!-- Node379 -->
<g id="node16" class="node">
<title>Node379</title>
<g id="a_node16"><a xlink:href="../../d0/d3e/pps-files_8cpp.html#a0ff8b8ea02b0483a116f8b5089546ea4" target="_top" xlink:title="copyMajorTo">
<polygon fill="#ffffff" stroke="#ff0000" points="121.1211,-37.5 121.1211,-55.5 193.8105,-55.5 193.8105,-37.5 121.1211,-37.5"/>
<text text-anchor="middle" x="157.4658" y="-43.5" font-family="Helvetica,sans-Serif" font-size="10.00" fill="#000000">copyMajorTo</text>
</a>
</g>
</g>
<!-- Node354&#45;&gt;Node379 -->
<g id="edge20" class="edge">
<title>Node354&#45;&gt;Node379</title>
<path fill="none" stroke="#191970" d="M35.7989,-271.1171C39.1734,-229.3986 52.6074,-130.0624 105.374,-70.5 111.1185,-64.0156 118.9749,-59.1668 126.8442,-55.5907"/>
<polygon fill="#191970" stroke="#191970" points="32.2947,-271.0554 35.0895,-281.275 39.2777,-271.5432 32.2947,-271.0554"/>
</g>
<!-- Node381 -->
<g id="node17" class="node">
<title>Node381</title>
<g id="a_node17"><a xlink:href="../../d0/d3e/pps-files_8cpp.html#aa402d7b46a75b43bb077558f5343f3b8" target="_top" xlink:title="daemonSaveArray">
<polygon fill="#ffffff" stroke="#ff0000" points="108.0547,-.5 108.0547,-18.5 206.877,-18.5 206.877,-.5 108.0547,-.5"/>
<text text-anchor="middle" x="157.4658" y="-6.5" font-family="Helvetica,sans-Serif" font-size="10.00" fill="#000000">daemonSaveArray</text>
</a>
</g>
</g>
<!-- Node354&#45;&gt;Node381 -->
<g id="edge21" class="edge">
<title>Node354&#45;&gt;Node381</title>
<path fill="none" stroke="#191970" d="M37.4829,-271.2777C45.7431,-216.9288 71.5884,-63.7423 105.374,-27.5 108.832,-23.7906 113.0909,-20.8456 117.6709,-18.5074"/>
<polygon fill="#191970" stroke="#191970" points="34.002,-270.8908 35.9906,-281.2973 40.9256,-271.922 34.002,-270.8908"/>
</g>
<!-- Node359&#45;&gt;Node355 -->
<g id="edge5" class="edge">
<title>Node359&#45;&gt;Node355</title>
<path fill="none" stroke="#191970" d="M301.2182,-368.8887C319.7971,-353.6535 347.42,-331.002 362.6202,-318.5374"/>
<polygon fill="#191970" stroke="#191970" points="298.9088,-366.2562 293.3955,-375.3035 303.3474,-371.669 298.9088,-366.2562"/>
</g>
<!-- Node376&#45;&gt;Node377 -->
<g id="edge14" class="edge">
<title>Node376&#45;&gt;Node377</title>
<path fill="none" stroke="#191970" d="M196.6753,-134.4469C214.6923,-139.9366 235.714,-146.3418 252.4049,-151.4275"/>
<polygon fill="#191970" stroke="#191970" points="197.6075,-131.0722 187.0215,-131.5055 195.5672,-137.7682 197.6075,-131.0722"/>
</g>
<!-- Node376&#45;&gt;Node378 -->
<g id="edge16" class="edge">
<title>Node376&#45;&gt;Node378</title>
<path fill="none" stroke="#191970" d="M216.5969,-122.5C227.7895,-122.5 239.1212,-122.5 249.1443,-122.5"/>
<polygon fill="#191970" stroke="#191970" points="216.3985,-119.0001 206.3985,-122.5 216.3984,-126.0001 216.3985,-119.0001"/>
</g>
<!-- Node377&#45;&gt;Node355 -->
<g id="edge15" class="edge">
<title>Node377&#45;&gt;Node355</title>
<path fill="none" stroke="#191970" d="M293.2815,-178.5846C312.9016,-210.5481 353.0393,-275.9371 367.922,-300.1829"/>
<polygon fill="#191970" stroke="#191970" points="296.1162,-176.5121 287.9019,-169.8206 290.1504,-180.1741 296.1162,-176.5121"/>
</g>
<!-- Node378&#45;&gt;Node355 -->
<g id="edge17" class="edge">
<title>Node378&#45;&gt;Node355</title>
<path fill="none" stroke="#191970" d="M313.7388,-137.4767C315.5836,-139.0178 317.2976,-140.6903 318.8037,-142.5 359.9936,-191.9909 370.5376,-273.3483 372.9717,-300.4213"/>
<polygon fill="#191970" stroke="#191970" points="315.2845,-134.294 305.0525,-131.5448 311.3368,-140.0747 315.2845,-134.294"/>
</g>
</g>
</svg>
