<?xml version="1.0" encoding="UTF-8" standalone="no"?>
<!DOCTYPE svg PUBLIC "-//W3C//DTD SVG 1.1//EN"
 "http://www.w3.org/Graphics/SVG/1.1/DTD/svg11.dtd">
<!-- Generated by graphviz version 2.36.0 (20140111.2315)
 -->
<!-- Title: accessDaemon Pages: 1 -->
<svg width="388pt" height="218pt"
 viewBox="0.00 0.00 388.00 218.00" xmlns="http://www.w3.org/2000/svg" xmlns:xlink="http://www.w3.org/1999/xlink">
<g id="graph0" class="graph" transform="scale(1 1) rotate(0) translate(4 214)">
<title>accessDaemon</title>
<polygon fill="white" stroke="none" points="-4,4 -4,-214 384,-214 384,4 -4,4"/>
<!-- Node1 -->
<g id="node1" class="node"><title>Node1</title>
<polygon fill="#bfbfbf" stroke="black" points="0.5,-95.5 0.5,-114.5 85.5,-114.5 85.5,-95.5 0.5,-95.5"/>
<text text-anchor="middle" x="43" y="-102.5" font-family="Helvetica,sans-Serif" font-size="10.00">accessDaemon</text>
</g>
<!-- Node2 -->
<g id="node2" class="node"><title>Node2</title>
<g id="a_node2"><a xlink:href="../../d0/d3e/pps-files_8cpp.html#ac59e9111236426cdcbea6d1774ca7fea" target="_top" xlink:title="ppsIsRunning">
<polygon fill="white" stroke="black" points="145.5,-190.5 145.5,-209.5 222.5,-209.5 222.5,-190.5 145.5,-190.5"/>
<text text-anchor="middle" x="184" y="-197.5" font-family="Helvetica,sans-Serif" font-size="10.00">ppsIsRunning</text>
</a>
</g>
</g>
<!-- Node1&#45;&gt;Node2 -->
<g id="edge1" class="edge"><title>Node1&#45;&gt;Node2</title>
<path fill="none" stroke="midnightblue" d="M51.3246,-114.644C64.0058,-130.695 91.6239,-162.908 122,-181 126.355,-183.594 131.1,-185.868 135.956,-187.852"/>
<polygon fill="midnightblue" stroke="midnightblue" points="134.765,-191.143 145.358,-191.321 137.188,-184.576 134.765,-191.143"/>
</g>
<!-- Node3 -->
<g id="node3" class="node"><title>Node3</title>
<g id="a_node3"><a xlink:href="../../d0/d3e/pps-files_8cpp.html#a6a3869251603ae4e569abadbd7dab11c" target="_top" xlink:title="INThandler">
<polygon fill="white" stroke="black" points="151.5,-152.5 151.5,-171.5 216.5,-171.5 216.5,-152.5 151.5,-152.5"/>
<text text-anchor="middle" x="184" y="-159.5" font-family="Helvetica,sans-Serif" font-size="10.00">INThandler</text>
</a>
</g>
</g>
<!-- Node1&#45;&gt;Node3 -->
<g id="edge2" class="edge"><title>Node1&#45;&gt;Node3</title>
<path fill="none" stroke="midnightblue" d="M66.1276,-114.538C81.708,-121.211 103.077,-130.276 122,-138 130.651,-141.531 140.027,-145.266 148.773,-148.71"/>
<polygon fill="midnightblue" stroke="midnightblue" points="147.721,-152.057 158.308,-152.45 150.277,-145.54 147.721,-152.057"/>
</g>
<!-- Node4 -->
<g id="node4" class="node"><title>Node4</title>
<g id="a_node4"><a xlink:href="../../d0/d3e/pps-files_8cpp.html#acee307839ee7844080177e544b8b63d0" target="_top" xlink:title="missingArg">
<polygon fill="white" stroke="black" points="298.5,-95.5 298.5,-114.5 363.5,-114.5 363.5,-95.5 298.5,-95.5"/>
<text text-anchor="middle" x="331" y="-102.5" font-family="Helvetica,sans-Serif" font-size="10.00">missingArg</text>
</a>
</g>
</g>
<!-- Node1&#45;&gt;Node4 -->
<g id="edge3" class="edge"><title>Node1&#45;&gt;Node4</title>
<path fill="none" stroke="midnightblue" d="M85.5869,-105C139.617,-105 233.442,-105 287.78,-105"/>
<polygon fill="midnightblue" stroke="midnightblue" points="288.098,-108.5 298.098,-105 288.098,-101.5 288.098,-108.5"/>
</g>
<!-- Node5 -->
<g id="node5" class="node"><title>Node5</title>
<g id="a_node5"><a xlink:href="../../d0/d3e/pps-files_8cpp.html#a8837a1d11d52d5de8fb802ac99f84a3d" target="_top" xlink:title="printAcceptedArgs">
<polygon fill="white" stroke="black" points="282.5,-48.5 282.5,-67.5 379.5,-67.5 379.5,-48.5 282.5,-48.5"/>
<text text-anchor="middle" x="331" y="-55.5" font-family="Helvetica,sans-Serif" font-size="10.00">printAcceptedArgs</text>
</a>
</g>
</g>
<!-- Node1&#45;&gt;Node5 -->
<g id="edge4" class="edge"><title>Node1&#45;&gt;Node5</title>
<path fill="none" stroke="midnightblue" d="M58.8238,-95.4752C74.0097,-86.2858 98.638,-72.9228 122,-67 171.523,-54.445 229.768,-53.0103 272.007,-54.2437"/>
<polygon fill="midnightblue" stroke="midnightblue" points="271.998,-57.7454 282.115,-54.5984 272.243,-50.7497 271.998,-57.7454"/>
</g>
<!-- Node6 -->
<g id="node6" class="node"><title>Node6</title>
<g id="a_node6"><a xlink:href="../../d0/d3e/pps-files_8cpp.html#ac20a2f5a5d6284628d71e7e0cdc08248" target="_top" xlink:title="parseSaveDataRequest">
<polygon fill="white" stroke="red" points="123.5,-76.5 123.5,-95.5 244.5,-95.5 244.5,-76.5 123.5,-76.5"/>
<text text-anchor="middle" x="184" y="-83.5" font-family="Helvetica,sans-Serif" font-size="10.00">parseSaveDataRequest</text>
</a>
</g>
</g>
<!-- Node1&#45;&gt;Node6 -->
<g id="edge5" class="edge"><title>Node1&#45;&gt;Node6</title>
<path fill="none" stroke="midnightblue" d="M85.7046,-99.2994C94.396,-98.1113 103.782,-96.8284 113.176,-95.5443"/>
<polygon fill="midnightblue" stroke="midnightblue" points="113.906,-98.9772 123.339,-94.155 112.957,-92.0417 113.906,-98.9772"/>
</g>
<!-- Node7 -->
<g id="node7" class="node"><title>Node7</title>
<g id="a_node7"><a xlink:href="../../d0/d3e/pps-files_8cpp.html#accdd08110477677873a18eea4520eb79" target="_top" xlink:title="showStatusEachSecond">
<polygon fill="white" stroke="red" points="122,-0.5 122,-19.5 246,-19.5 246,-0.5 122,-0.5"/>
<text text-anchor="middle" x="184" y="-7.5" font-family="Helvetica,sans-Serif" font-size="10.00">showStatusEachSecond</text>
</a>
</g>
</g>
<!-- Node1&#45;&gt;Node7 -->
<g id="edge8" class="edge"><title>Node1&#45;&gt;Node7</title>
<path fill="none" stroke="midnightblue" d="M52.6915,-95.046C66.2178,-80.0654 93.7042,-51.6082 122,-34 128.444,-29.9902 135.67,-26.4409 142.833,-23.3842"/>
<polygon fill="midnightblue" stroke="midnightblue" points="144.498,-26.4879 152.483,-19.5245 141.898,-19.9885 144.498,-26.4879"/>
</g>
<!-- Node6&#45;&gt;Node4 -->
<g id="edge7" class="edge"><title>Node6&#45;&gt;Node4</title>
<path fill="none" stroke="midnightblue" d="M244.814,-93.8377C259.485,-95.7601 274.872,-97.7763 288.468,-99.5579"/>
<polygon fill="midnightblue" stroke="midnightblue" points="288.106,-103.04 298.476,-100.869 289.015,-96.0996 288.106,-103.04"/>
</g>
<!-- Node6&#45;&gt;Node5 -->
<g id="edge6" class="edge"><title>Node6&#45;&gt;Node5</title>
<path fill="none" stroke="midnightblue" d="M234.495,-76.4423C246.666,-74.0922 259.801,-71.5557 272.32,-69.1382"/>
<polygon fill="midnightblue" stroke="midnightblue" points="273.043,-72.5633 282.198,-67.2307 271.716,-65.6903 273.043,-72.5633"/>
</g>
</g>
</svg>
