<?xml version="1.0" encoding="UTF-8" standalone="no"?>
<!DOCTYPE svg PUBLIC "-//W3C//DTD SVG 1.1//EN"
 "http://www.w3.org/Graphics/SVG/1.1/DTD/svg11.dtd">
<!-- Generated by graphviz version 2.36.0 (20140111.2315)
 -->
<!-- Title: readConfigFile Pages: 1 -->
<svg width="294pt" height="78pt"
 viewBox="0.00 0.00 294.00 77.99" xmlns="http://www.w3.org/2000/svg" xmlns:xlink="http://www.w3.org/1999/xlink">
<g id="graph0" class="graph" transform="scale(1 1) rotate(0) translate(4 73.9872)">
<title>readConfigFile</title>
<polygon fill="white" stroke="none" points="-4,4 -4,-73.9872 290,-73.9872 290,4 -4,4"/>
<!-- Node1 -->
<g id="node1" class="node"><title>Node1</title>
<polygon fill="#bfbfbf" stroke="black" points="0,-38.5 0,-57.5 80,-57.5 80,-38.5 0,-38.5"/>
<text text-anchor="middle" x="40" y="-45.5" font-family="Helvetica,sans-Serif" font-size="10.00">readConfigFile</text>
</g>
<!-- Node2 -->
<g id="node2" class="node"><title>Node2</title>
<g id="a_node2"><a xlink:href="../../d0/d3e/pps-files_8cpp.html#ae20c07f56a5b2b05b636f6a0a31ce214" target="_top" xlink:title="writeToLog">
<polygon fill="white" stroke="red" points="220.5,-38.5 220.5,-57.5 285.5,-57.5 285.5,-38.5 220.5,-38.5"/>
<text text-anchor="middle" x="253" y="-45.5" font-family="Helvetica,sans-Serif" font-size="10.00">writeToLog</text>
</a>
</g>
</g>
<!-- Node1&#45;&gt;Node2 -->
<g id="edge1" class="edge"><title>Node1&#45;&gt;Node2</title>
<path fill="none" stroke="midnightblue" d="M71.3243,-57.505C84.8501,-61.2691 101.072,-65.1385 116,-67 145.99,-70.7397 154.058,-71.1045 184,-67 194.095,-65.6162 204.803,-63.1278 214.663,-60.398"/>
<polygon fill="midnightblue" stroke="midnightblue" points="215.953,-63.6676 224.569,-57.5022 213.989,-56.9488 215.953,-63.6676"/>
</g>
<!-- Node3 -->
<g id="node3" class="node"><title>Node3</title>
<g id="a_node3"><a xlink:href="../../d0/d3e/pps-files_8cpp.html#a94ad6f36dae10e5652ea241b11d2e5c7" target="_top" xlink:title="open_logerr">
<polygon fill="white" stroke="red" points="116.5,-38.5 116.5,-57.5 183.5,-57.5 183.5,-38.5 116.5,-38.5"/>
<text text-anchor="middle" x="150" y="-45.5" font-family="Helvetica,sans-Serif" font-size="10.00">open_logerr</text>
</a>
</g>
</g>
<!-- Node1&#45;&gt;Node3 -->
<g id="edge2" class="edge"><title>Node1&#45;&gt;Node3</title>
<path fill="none" stroke="midnightblue" d="M80.296,-48C88.7001,-48 97.6186,-48 106.149,-48"/>
<polygon fill="midnightblue" stroke="midnightblue" points="106.301,-51.5001 116.301,-48 106.301,-44.5001 106.301,-51.5001"/>
</g>
<!-- Node4 -->
<g id="node4" class="node"><title>Node4</title>
<g id="a_node4"><a xlink:href="../../d0/d3e/pps-files_8cpp.html#a459e7950f1def63780ba7fda8e3c12d2" target="_top" xlink:title="read_logerr">
<polygon fill="white" stroke="red" points="117.5,-0.5 117.5,-19.5 182.5,-19.5 182.5,-0.5 117.5,-0.5"/>
<text text-anchor="middle" x="150" y="-7.5" font-family="Helvetica,sans-Serif" font-size="10.00">read_logerr</text>
</a>
</g>
</g>
<!-- Node1&#45;&gt;Node4 -->
<g id="edge4" class="edge"><title>Node1&#45;&gt;Node4</title>
<path fill="none" stroke="midnightblue" d="M68.253,-38.411C81.5552,-33.7306 97.7545,-28.0308 112.142,-22.9685"/>
<polygon fill="midnightblue" stroke="midnightblue" points="113.484,-26.2067 121.756,-19.5859 111.161,-19.6035 113.484,-26.2067"/>
</g>
<!-- Node3&#45;&gt;Node2 -->
<g id="edge3" class="edge"><title>Node3&#45;&gt;Node2</title>
<path fill="none" stroke="midnightblue" d="M183.513,-48C191.968,-48 201.198,-48 210.064,-48"/>
<polygon fill="midnightblue" stroke="midnightblue" points="210.238,-51.5001 220.238,-48 210.238,-44.5001 210.238,-51.5001"/>
</g>
<!-- Node4&#45;&gt;Node2 -->
<g id="edge5" class="edge"><title>Node4&#45;&gt;Node2</title>
<path fill="none" stroke="midnightblue" d="M176.487,-19.589C188.807,-24.2244 203.785,-29.8596 217.143,-34.8853"/>
<polygon fill="midnightblue" stroke="midnightblue" points="215.93,-38.1684 226.522,-38.4141 218.395,-31.6168 215.93,-38.1684"/>
</g>
</g>
</svg>
