<?xml version="1.0" encoding="UTF-8" standalone="no"?>
<!DOCTYPE svg PUBLIC "-//W3C//DTD SVG 1.1//EN"
 "http://www.w3.org/Graphics/SVG/1.1/DTD/svg11.dtd">
<!-- Generated by graphviz version 2.40.1 (20161225.0304)
 -->
<!-- Title: processFiles Pages: 1 -->
<svg width="259pt" height="46pt"
 viewBox="0.00 0.00 258.60 46.00" xmlns="http://www.w3.org/2000/svg" xmlns:xlink="http://www.w3.org/1999/xlink">
<g id="graph0" class="graph" transform="scale(1 1) rotate(0) translate(4 42)">
<title>processFiles</title>
<polygon fill="#ffffff" stroke="transparent" points="-4,4 -4,-42 254.5957,-42 254.5957,4 -4,4"/>
<!-- Node428 -->
<g id="node1" class="node">
<title>Node428</title>
<polygon fill="#bfbfbf" stroke="#000000" points="0,-.5 0,-18.5 72.1279,-18.5 72.1279,-.5 0,-.5"/>
<text text-anchor="middle" x="36.064" y="-6.5" font-family="Helvetica,sans-Serif" font-size="10.00" fill="#000000">processFiles</text>
</g>
<!-- Node429 -->
<g id="node2" class="node">
<title>Node429</title>
<g id="a_node2"><a xlink:href="../../d5/d60/pps-client_8cpp.html#a4b3bdab744bd7ed860326323fad180f2" target="_top" xlink:title="waitForPPS">
<polygon fill="#ffffff" stroke="#000000" points="108.1279,-19.5 108.1279,-37.5 176.9209,-37.5 176.9209,-19.5 108.1279,-19.5"/>
<text text-anchor="middle" x="142.5244" y="-25.5" font-family="Helvetica,sans-Serif" font-size="10.00" fill="#000000">waitForPPS</text>
</a>
</g>
</g>
<!-- Node428&#45;&gt;Node429 -->
<g id="edge1" class="edge">
<title>Node428&#45;&gt;Node429</title>
<path fill="none" stroke="#191970" d="M82.2819,-17.7485C90.8391,-19.2757 99.6423,-20.8468 107.7861,-22.3003"/>
<polygon fill="#191970" stroke="#191970" points="82.8633,-14.297 72.4039,-15.9856 81.6333,-21.1882 82.8633,-14.297"/>
</g>
<!-- Node430 -->
<g id="node3" class="node">
<title>Node430</title>
<g id="a_node3"><a xlink:href="../../d5/d60/pps-client_8cpp.html#a0ddf1224851353fc92bfbff6f499fa97" target="_top" xlink:title="main">
<polygon fill="#ffffff" stroke="#000000" points="212.9209,-.5 212.9209,-18.5 250.5957,-18.5 250.5957,-.5 212.9209,-.5"/>
<text text-anchor="middle" x="231.7583" y="-6.5" font-family="Helvetica,sans-Serif" font-size="10.00" fill="#000000">main</text>
</a>
</g>
</g>
<!-- Node428&#45;&gt;Node430 -->
<g id="edge3" class="edge">
<title>Node428&#45;&gt;Node430</title>
<path fill="none" stroke="#191970" d="M82.5824,-9.5C124.1501,-9.5 182.9576,-9.5 212.7998,-9.5"/>
<polygon fill="#191970" stroke="#191970" points="82.414,-6.0001 72.4139,-9.5 82.4139,-13.0001 82.414,-6.0001"/>
</g>
<!-- Node429&#45;&gt;Node430 -->
<g id="edge2" class="edge">
<title>Node429&#45;&gt;Node430</title>
<path fill="none" stroke="#191970" d="M186.8683,-19.0582C196.0124,-17.1111 205.1719,-15.1609 212.8102,-13.5345"/>
<polygon fill="#191970" stroke="#191970" points="186.0764,-15.6482 177.0246,-21.1541 187.5342,-22.4947 186.0764,-15.6482"/>
</g>
</g>
</svg>
