<?xml version="1.0" encoding="UTF-8" standalone="no"?>
<!DOCTYPE svg PUBLIC "-//W3C//DTD SVG 1.1//EN"
 "http://www.w3.org/Graphics/SVG/1.1/DTD/svg11.dtd">
<!-- Generated by graphviz version 2.40.1 (20161225.0304)
 -->
<!-- Title: enableNTP Pages: 1 -->
<svg width="324pt" height="185pt"
 viewBox="0.00 0.00 323.64 185.13" xmlns="http://www.w3.org/2000/svg" xmlns:xlink="http://www.w3.org/1999/xlink">
<g id="graph0" class="graph" transform="scale(1 1) rotate(0) translate(4 181.133)">
<title>enableNTP</title>
<polygon fill="#ffffff" stroke="transparent" points="-4,4 -4,-181.133 319.6396,-181.133 319.6396,4 -4,4"/>
<!-- Node248 -->
<g id="node1" class="node">
<title>Node248</title>
<polygon fill="#bfbfbf" stroke="#000000" points="0,-79.0057 0,-97.0057 66.0293,-97.0057 66.0293,-79.0057 0,-79.0057"/>
<text text-anchor="middle" x="33.0146" y="-85.0057" font-family="Helvetica,sans-Serif" font-size="10.00" fill="#000000">enableNTP</text>
</g>
<!-- Node249 -->
<g id="node2" class="node">
<title>Node249</title>
<g id="a_node2"><a xlink:href="../../d0/d3e/pps-files_8cpp.html#a94ad6f36dae10e5652ea241b11d2e5c7" target="_top" xlink:title="open_logerr">
<polygon fill="#ffffff" stroke="#ff0000" points="242.3887,-154.0057 242.3887,-172.0057 311.7627,-172.0057 311.7627,-154.0057 242.3887,-154.0057"/>
<text text-anchor="middle" x="277.0757" y="-160.0057" font-family="Helvetica,sans-Serif" font-size="10.00" fill="#000000">open_logerr</text>
</a>
</g>
</g>
<!-- Node248&#45;&gt;Node249 -->
<g id="edge1" class="edge">
<title>Node248&#45;&gt;Node249</title>
<path fill="none" stroke="#191970" d="M37.9649,-97.1651C47.6531,-113.9931 70.9183,-149.3555 102.0293,-163.0057 143.3653,-181.1423 195.6631,-178.2327 232.2865,-172.5938"/>
<polygon fill="#191970" stroke="#191970" points="232.8894,-176.0417 242.1784,-170.9462 231.7392,-169.1368 232.8894,-176.0417"/>
</g>
<!-- Node253 -->
<g id="node3" class="node">
<title>Node253</title>
<g id="a_node3"><a xlink:href="../../d0/d3e/pps-files_8cpp.html#a19da05b45d1e94170f5fe86decb70bfb" target="_top" xlink:title="sysCommand">
<polygon fill="#ffffff" stroke="#ff0000" points="238.5117,-5.0057 238.5117,-23.0057 315.6396,-23.0057 315.6396,-5.0057 238.5117,-5.0057"/>
<text text-anchor="middle" x="277.0757" y="-11.0057" font-family="Helvetica,sans-Serif" font-size="10.00" fill="#000000">sysCommand</text>
</a>
</g>
</g>
<!-- Node248&#45;&gt;Node253 -->
<g id="edge2" class="edge">
<title>Node248&#45;&gt;Node253</title>
<path fill="none" stroke="#191970" d="M37.9984,-78.9649C47.7424,-62.355 71.097,-27.4543 102.0293,-14.0057 141.8538,3.309 191.7583,1.2942 228.0819,-3.8661"/>
<polygon fill="#191970" stroke="#191970" points="228.0004,-7.3953 238.4189,-5.4706 229.0741,-.4781 228.0004,-7.3953"/>
</g>
<!-- Node254 -->
<g id="node4" class="node">
<title>Node254</title>
<g id="a_node4"><a xlink:href="../../d0/d3e/pps-files_8cpp.html#a459e7950f1def63780ba7fda8e3c12d2" target="_top" xlink:title="read_logerr">
<polygon fill="#ffffff" stroke="#ff0000" points="118.6992,-98.0057 118.6992,-116.0057 185.8418,-116.0057 185.8418,-98.0057 118.6992,-98.0057"/>
<text text-anchor="middle" x="152.2705" y="-104.0057" font-family="Helvetica,sans-Serif" font-size="10.00" fill="#000000">read_logerr</text>
</a>
</g>
</g>
<!-- Node248&#45;&gt;Node254 -->
<g id="edge3" class="edge">
<title>Node248&#45;&gt;Node254</title>
<path fill="none" stroke="#191970" d="M66.2341,-93.2983C79.3223,-95.3835 94.5379,-97.8077 108.502,-100.0325"/>
<polygon fill="#191970" stroke="#191970" points="107.9745,-103.4925 118.4006,-101.6095 109.0759,-96.5797 107.9745,-103.4925"/>
</g>
<!-- Node256 -->
<g id="node5" class="node">
<title>Node256</title>
<g id="a_node5"><a xlink:href="../../d0/d3e/pps-files_8cpp.html#a7d3637bb8a063c7565648288f2c95432" target="_top" xlink:title="removeConfigKeys">
<polygon fill="#ffffff" stroke="#000000" points="102.0293,-61.0057 102.0293,-79.0057 202.5117,-79.0057 202.5117,-61.0057 102.0293,-61.0057"/>
<text text-anchor="middle" x="152.2705" y="-67.0057" font-family="Helvetica,sans-Serif" font-size="10.00" fill="#000000">removeConfigKeys</text>
</a>
</g>
</g>
<!-- Node248&#45;&gt;Node256 -->
<g id="edge4" class="edge">
<title>Node248&#45;&gt;Node256</title>
<path fill="none" stroke="#191970" d="M66.2341,-82.9917C74.246,-81.7825 83.055,-80.4529 91.8862,-79.1199"/>
<polygon fill="#191970" stroke="#191970" points="92.4593,-82.5731 101.8249,-77.6198 91.4145,-75.6515 92.4593,-82.5731"/>
</g>
<!-- Node257 -->
<g id="node6" class="node">
<title>Node257</title>
<g id="a_node6"><a xlink:href="../../d0/d3e/pps-files_8cpp.html#a180a91d8d62c36158e3b769ac35aa01e" target="_top" xlink:title="replaceNTPConfig">
<polygon fill="#ffffff" stroke="#ff0000" points="103.4185,-135.0057 103.4185,-153.0057 201.1226,-153.0057 201.1226,-135.0057 103.4185,-135.0057"/>
<text text-anchor="middle" x="152.2705" y="-141.0057" font-family="Helvetica,sans-Serif" font-size="10.00" fill="#000000">replaceNTPConfig</text>
</a>
</g>
</g>
<!-- Node248&#45;&gt;Node257 -->
<g id="edge5" class="edge">
<title>Node248&#45;&gt;Node257</title>
<path fill="none" stroke="#191970" d="M47.7409,-97.0132C61.4794,-105.198 82.703,-117.29 102.0293,-126.0057 106.1798,-127.8775 110.5881,-129.694 115.0023,-131.4073"/>
<polygon fill="#191970" stroke="#191970" points="113.9847,-134.7632 124.5774,-134.975 116.4288,-128.2037 113.9847,-134.7632"/>
</g>
<!-- Node258 -->
<g id="node7" class="node">
<title>Node258</title>
<g id="a_node7"><a xlink:href="../../d0/d3e/pps-files_8cpp.html#a4ec814a023712bff67399cc287385ed3" target="_top" xlink:title="restartNTP">
<polygon fill="#ffffff" stroke="#ff0000" points="120.1006,-24.0057 120.1006,-42.0057 184.4404,-42.0057 184.4404,-24.0057 120.1006,-24.0057"/>
<text text-anchor="middle" x="152.2705" y="-30.0057" font-family="Helvetica,sans-Serif" font-size="10.00" fill="#000000">restartNTP</text>
</a>
</g>
</g>
<!-- Node248&#45;&gt;Node258 -->
<g id="edge7" class="edge">
<title>Node248&#45;&gt;Node258</title>
<path fill="none" stroke="#191970" d="M49.1982,-78.8632C63.0153,-71.2283 83.53,-60.2931 102.0293,-52.0057 106.8004,-49.8684 111.8913,-47.7559 116.9332,-45.76"/>
<polygon fill="#191970" stroke="#191970" points="118.3956,-48.9475 126.4713,-42.0894 115.8815,-42.4145 118.3956,-48.9475"/>
</g>
<!-- Node257&#45;&gt;Node249 -->
<g id="edge6" class="edge">
<title>Node257&#45;&gt;Node249</title>
<path fill="none" stroke="#191970" d="M201.2386,-151.4605C211.3755,-153.0037 222.009,-154.6225 231.999,-156.1434"/>
<polygon fill="#191970" stroke="#191970" points="231.7161,-159.6406 242.129,-157.6855 232.7697,-152.7203 231.7161,-159.6406"/>
</g>
<!-- Node258&#45;&gt;Node253 -->
<g id="edge8" class="edge">
<title>Node258&#45;&gt;Node253</title>
<path fill="none" stroke="#191970" d="M184.7358,-28.0633C197.9981,-26.0443 213.6247,-23.6653 228.2139,-21.4443"/>
<polygon fill="#191970" stroke="#191970" points="228.7473,-24.9035 238.1066,-19.9383 227.6937,-17.9833 228.7473,-24.9035"/>
</g>
</g>
</svg>
