<?xml version="1.0" encoding="UTF-8" standalone="no"?>
<!DOCTYPE svg PUBLIC "-//W3C//DTD SVG 1.1//EN"
 "http://www.w3.org/Graphics/SVG/1.1/DTD/svg11.dtd">
<!-- Generated by graphviz version 2.40.1 (20161225.0304)
 -->
<!-- Title: showStatusEachSecond Pages: 1 -->
<svg width="246pt" height="64pt"
 viewBox="0.00 0.00 245.54 64.00" xmlns="http://www.w3.org/2000/svg" xmlns:xlink="http://www.w3.org/1999/xlink">
<g id="graph0" class="graph" transform="scale(1 1) rotate(0) translate(4 60)">
<title>showStatusEachSecond</title>
<polygon fill="#ffffff" stroke="transparent" points="-4,4 -4,-60 241.541,-60 241.541,4 -4,4"/>
<!-- Node509 -->
<g id="node1" class="node">
<title>Node509</title>
<polygon fill="#bfbfbf" stroke="#000000" points="0,-18.5 0,-36.5 124.4033,-36.5 124.4033,-18.5 0,-18.5"/>
<text text-anchor="middle" x="62.2017" y="-24.5" font-family="Helvetica,sans-Serif" font-size="10.00" fill="#000000">showStatusEachSecond</text>
</g>
<!-- Node510 -->
<g id="node2" class="node">
<title>Node510</title>
<g id="a_node2"><a xlink:href="../../d5/d60/pps-client_8cpp.html#a505a6be9b7669b349cea03a9fe663d74" target="_top" xlink:title="setSyncDelay">
<polygon fill="#ffffff" stroke="#000000" points="160.4033,-37.5 160.4033,-55.5 237.541,-55.5 237.541,-37.5 160.4033,-37.5"/>
<text text-anchor="middle" x="198.9722" y="-43.5" font-family="Helvetica,sans-Serif" font-size="10.00" fill="#000000">setSyncDelay</text>
</a>
</g>
</g>
<!-- Node509&#45;&gt;Node510 -->
<g id="edge1" class="edge">
<title>Node509&#45;&gt;Node510</title>
<path fill="none" stroke="#191970" d="M124.5834,-36.166C133.1038,-37.3496 141.7494,-38.5507 149.9858,-39.6949"/>
<polygon fill="#191970" stroke="#191970" points="149.7728,-43.1988 160.1593,-41.1082 150.7361,-36.2654 149.7728,-43.1988"/>
</g>
<!-- Node511 -->
<g id="node3" class="node">
<title>Node511</title>
<g id="a_node3"><a xlink:href="../../d0/d3e/pps-files_8cpp.html#a614325a5ddd56a0f08a04763bde4fe41" target="_top" xlink:title="getSeqNum">
<polygon fill="#ffffff" stroke="#000000" points="164.5684,-.5 164.5684,-18.5 233.376,-18.5 233.376,-.5 164.5684,-.5"/>
<text text-anchor="middle" x="198.9722" y="-6.5" font-family="Helvetica,sans-Serif" font-size="10.00" fill="#000000">getSeqNum</text>
</a>
</g>
</g>
<!-- Node509&#45;&gt;Node511 -->
<g id="edge2" class="edge">
<title>Node509&#45;&gt;Node511</title>
<path fill="none" stroke="#191970" d="M124.5834,-19.2901C134.6207,-17.9691 144.8319,-16.6253 154.3429,-15.3735"/>
<polygon fill="#191970" stroke="#191970" points="154.8895,-18.8319 164.3473,-14.0569 153.9761,-11.8917 154.8895,-18.8319"/>
</g>
</g>
</svg>
