<?xml version="1.0" encoding="UTF-8" standalone="no"?>
<!DOCTYPE svg PUBLIC "-//W3C//DTD SVG 1.1//EN"
 "http://www.w3.org/Graphics/SVG/1.1/DTD/svg11.dtd">
<!-- Generated by graphviz version 2.36.0 (20140111.2315)
 -->
<!-- Title: read_logerr Pages: 1 -->
<svg width="212pt" height="218pt"
 viewBox="0.00 0.00 212.00 218.00" xmlns="http://www.w3.org/2000/svg" xmlns:xlink="http://www.w3.org/1999/xlink">
<g id="graph0" class="graph" transform="scale(1 1) rotate(0) translate(4 214)">
<title>read_logerr</title>
<polygon fill="white" stroke="none" points="-4,4 -4,-214 208,-214 208,4 -4,4"/>
<!-- Node1 -->
<g id="node1" class="node"><title>Node1</title>
<polygon fill="#bfbfbf" stroke="black" points="0.5,-95.5 0.5,-114.5 65.5,-114.5 65.5,-95.5 0.5,-95.5"/>
<text text-anchor="middle" x="33" y="-102.5" font-family="Helvetica,sans-Serif" font-size="10.00">read_logerr</text>
</g>
<!-- Node2 -->
<g id="node2" class="node"><title>Node2</title>
<g id="a_node2"><a xlink:href="../../d0/d3e/pps-files_8cpp.html#ab03cf9b5563affdcf46a4ca95d4ff4ed" target="_top" xlink:title="getChildPID">
<polygon fill="white" stroke="black" points="118,-190.5 118,-209.5 188,-209.5 188,-190.5 118,-190.5"/>
<text text-anchor="middle" x="153" y="-197.5" font-family="Helvetica,sans-Serif" font-size="10.00">getChildPID</text>
</a>
</g>
</g>
<!-- Node1&#45;&gt;Node2 -->
<g id="edge1" class="edge"><title>Node1&#45;&gt;Node2</title>
<path fill="none" stroke="midnightblue" d="M46.1808,-122.991C58.5021,-139.991 78.9761,-165.18 102,-181 107.434,-184.734 113.7,-187.858 119.918,-190.423"/>
<polygon fill="midnightblue" stroke="midnightblue" points="48.8254,-120.667 40.21,-114.501 43.0995,-124.694 48.8254,-120.667"/>
</g>
<!-- Node3 -->
<g id="node3" class="node"><title>Node3</title>
<g id="a_node3"><a xlink:href="../../d0/d3e/pps-files_8cpp.html#a7192857cf334ce14c00dd49dca3c541a" target="_top" xlink:title="readConfigFile">
<polygon fill="white" stroke="red" points="113,-152.5 113,-171.5 193,-171.5 193,-152.5 113,-152.5"/>
<text text-anchor="middle" x="153" y="-159.5" font-family="Helvetica,sans-Serif" font-size="10.00">readConfigFile</text>
</a>
</g>
</g>
<!-- Node1&#45;&gt;Node3 -->
<g id="edge2" class="edge"><title>Node1&#45;&gt;Node3</title>
<path fill="none" stroke="midnightblue" d="M58.2532,-119.694C71.0327,-127.142 87.1073,-136.055 102,-143 109.238,-146.375 117.255,-149.627 124.712,-152.457"/>
<polygon fill="midnightblue" stroke="midnightblue" points="59.9842,-116.651 49.5942,-114.578 56.4238,-122.678 59.9842,-116.651"/>
</g>
<!-- Node4 -->
<g id="node4" class="node"><title>Node4</title>
<g id="a_node4"><a xlink:href="../../d0/d3e/pps-files_8cpp.html#a63902ed5404b3607594a3ad7d080da10" target="_top" xlink:title="disableNTP">
<polygon fill="white" stroke="red" points="119,-114.5 119,-133.5 187,-133.5 187,-114.5 119,-114.5"/>
<text text-anchor="middle" x="153" y="-121.5" font-family="Helvetica,sans-Serif" font-size="10.00">disableNTP</text>
</a>
</g>
</g>
<!-- Node1&#45;&gt;Node4 -->
<g id="edge3" class="edge"><title>Node1&#45;&gt;Node4</title>
<path fill="none" stroke="midnightblue" d="M75.5841,-111.696C89.6913,-113.967 105.258,-116.474 118.639,-118.628"/>
<polygon fill="midnightblue" stroke="midnightblue" points="76.0511,-108.226 65.6218,-110.092 74.9382,-115.137 76.0511,-108.226"/>
</g>
<!-- Node5 -->
<g id="node5" class="node"><title>Node5</title>
<g id="a_node5"><a xlink:href="../../d0/d3e/pps-files_8cpp.html#a6354b54021f614ab3ab87ef5b3df64d0" target="_top" xlink:title="enableNTP">
<polygon fill="white" stroke="red" points="120.5,-76.5 120.5,-95.5 185.5,-95.5 185.5,-76.5 120.5,-76.5"/>
<text text-anchor="middle" x="153" y="-83.5" font-family="Helvetica,sans-Serif" font-size="10.00">enableNTP</text>
</a>
</g>
</g>
<!-- Node1&#45;&gt;Node5 -->
<g id="edge4" class="edge"><title>Node1&#45;&gt;Node5</title>
<path fill="none" stroke="midnightblue" d="M75.5019,-98.3175C90.2149,-95.9484 106.524,-93.3224 120.291,-91.1057"/>
<polygon fill="midnightblue" stroke="midnightblue" points="74.9382,-94.8631 65.6218,-99.9083 76.0511,-101.774 74.9382,-94.8631"/>
</g>
<!-- Node6 -->
<g id="node6" class="node"><title>Node6</title>
<g id="a_node6"><a xlink:href="../../d0/d3e/pps-files_8cpp.html#a0ff8b8ea02b0483a116f8b5089546ea4" target="_top" xlink:title="copyMajorTo">
<polygon fill="white" stroke="red" points="116.5,-38.5 116.5,-57.5 189.5,-57.5 189.5,-38.5 116.5,-38.5"/>
<text text-anchor="middle" x="153" y="-45.5" font-family="Helvetica,sans-Serif" font-size="10.00">copyMajorTo</text>
</a>
</g>
</g>
<!-- Node1&#45;&gt;Node6 -->
<g id="edge5" class="edge"><title>Node1&#45;&gt;Node6</title>
<path fill="none" stroke="midnightblue" d="M58.2532,-90.3064C71.0327,-82.8583 87.1073,-73.9452 102,-67 109.238,-63.6247 117.255,-60.3729 124.712,-57.5426"/>
<polygon fill="midnightblue" stroke="midnightblue" points="56.4238,-87.322 49.5942,-95.4219 59.9842,-93.3489 56.4238,-87.322"/>
</g>
<!-- Node7 -->
<g id="node7" class="node"><title>Node7</title>
<g id="a_node7"><a xlink:href="../../dc/d4f/pps-sntp_8cpp.html#a1121c37b30e0ab417a95d6be065a0666" target="_top" xlink:title="allocNTPServerList">
<polygon fill="white" stroke="red" points="102.5,-0.5 102.5,-19.5 203.5,-19.5 203.5,-0.5 102.5,-0.5"/>
<text text-anchor="middle" x="153" y="-7.5" font-family="Helvetica,sans-Serif" font-size="10.00">allocNTPServerList</text>
</a>
</g>
</g>
<!-- Node1&#45;&gt;Node7 -->
<g id="edge6" class="edge"><title>Node1&#45;&gt;Node7</title>
<path fill="none" stroke="midnightblue" d="M46.1808,-87.0087C58.5021,-70.009 78.9761,-44.8199 102,-29 107.434,-25.2662 113.7,-22.142 119.918,-19.5765"/>
<polygon fill="midnightblue" stroke="midnightblue" points="43.0995,-85.3058 40.21,-95.499 48.8254,-89.3326 43.0995,-85.3058"/>
</g>
</g>
</svg>
