<?xml version="1.0" encoding="UTF-8" standalone="no"?>
<!DOCTYPE svg PUBLIC "-//W3C//DTD SVG 1.1//EN"
 "http://www.w3.org/Graphics/SVG/1.1/DTD/svg11.dtd">
<!-- Generated by graphviz version 2.36.0 (20140111.2315)
 -->
<!-- Title: processWriteRequest Pages: 1 -->
<svg width="260pt" height="104pt"
 viewBox="0.00 0.00 260.00 104.00" xmlns="http://www.w3.org/2000/svg" xmlns:xlink="http://www.w3.org/1999/xlink">
<g id="graph0" class="graph" transform="scale(1 1) rotate(0) translate(4 100)">
<title>processWriteRequest</title>
<polygon fill="white" stroke="none" points="-4,4 -4,-100 256,-100 256,4 -4,4"/>
<!-- Node1 -->
<g id="node1" class="node"><title>Node1</title>
<polygon fill="#bfbfbf" stroke="black" points="0.5,-38.5 0.5,-57.5 111.5,-57.5 111.5,-38.5 0.5,-38.5"/>
<text text-anchor="middle" x="56" y="-45.5" font-family="Helvetica,sans-Serif" font-size="10.00">processWriteRequest</text>
</g>
<!-- Node2 -->
<g id="node2" class="node"><title>Node2</title>
<g id="a_node2"><a xlink:href="../../d0/d3e/pps-files_8cpp.html#a4e1eee07f00ecb77c3ae3f508744f610" target="_top" xlink:title="saveDoubleArray">
<polygon fill="white" stroke="red" points="154,-76.5 154,-95.5 246,-95.5 246,-76.5 154,-76.5"/>
<text text-anchor="middle" x="200" y="-83.5" font-family="Helvetica,sans-Serif" font-size="10.00">saveDoubleArray</text>
</a>
</g>
</g>
<!-- Node1&#45;&gt;Node2 -->
<g id="edge1" class="edge"><title>Node1&#45;&gt;Node2</title>
<path fill="none" stroke="midnightblue" d="M92.8326,-57.589C111.163,-62.4944 133.678,-68.5196 153.25,-73.7571"/>
<polygon fill="midnightblue" stroke="midnightblue" points="152.614,-77.2099 163.179,-76.4141 154.424,-70.4479 152.614,-77.2099"/>
</g>
<!-- Node3 -->
<g id="node3" class="node"><title>Node3</title>
<g id="a_node3"><a xlink:href="../../d0/d3e/pps-files_8cpp.html#a493e043705885cfcebc5ac807989eb4d" target="_top" xlink:title="writeFrequencyVars">
<polygon fill="white" stroke="red" points="148,-38.5 148,-57.5 252,-57.5 252,-38.5 148,-38.5"/>
<text text-anchor="middle" x="200" y="-45.5" font-family="Helvetica,sans-Serif" font-size="10.00">writeFrequencyVars</text>
</a>
</g>
</g>
<!-- Node1&#45;&gt;Node3 -->
<g id="edge2" class="edge"><title>Node1&#45;&gt;Node3</title>
<path fill="none" stroke="midnightblue" d="M111.901,-48C120.427,-48 129.281,-48 137.933,-48"/>
<polygon fill="midnightblue" stroke="midnightblue" points="137.967,-51.5001 147.967,-48 137.967,-44.5001 137.967,-51.5001"/>
</g>
<!-- Node4 -->
<g id="node4" class="node"><title>Node4</title>
<g id="a_node4"><a xlink:href="../../d0/d3e/pps-files_8cpp.html#a73e9f77c69f58e616293b5ca5126e77f" target="_top" xlink:title="writeOffsets">
<polygon fill="white" stroke="red" points="165,-0.5 165,-19.5 235,-19.5 235,-0.5 165,-0.5"/>
<text text-anchor="middle" x="200" y="-7.5" font-family="Helvetica,sans-Serif" font-size="10.00">writeOffsets</text>
</a>
</g>
</g>
<!-- Node1&#45;&gt;Node4 -->
<g id="edge3" class="edge"><title>Node1&#45;&gt;Node4</title>
<path fill="none" stroke="midnightblue" d="M92.8326,-38.411C111.669,-33.3702 134.924,-27.1471 154.863,-21.8112"/>
<polygon fill="midnightblue" stroke="midnightblue" points="155.893,-25.1589 164.648,-19.1927 154.084,-18.3968 155.893,-25.1589"/>
</g>
</g>
</svg>
