<?xml version="1.0" encoding="UTF-8" standalone="no"?>
<!DOCTYPE svg PUBLIC "-//W3C//DTD SVG 1.1//EN"
 "http://www.w3.org/Graphics/SVG/1.1/DTD/svg11.dtd">
<!-- Generated by graphviz version 2.36.0 (20140111.2315)
 -->
<!-- Title: couldNotOpenMsgTo Pages: 1 -->
<svg width="506pt" height="142pt"
 viewBox="0.00 0.00 506.00 142.00" xmlns="http://www.w3.org/2000/svg" xmlns:xlink="http://www.w3.org/1999/xlink">
<g id="graph0" class="graph" transform="scale(1 1) rotate(0) translate(4 138)">
<title>couldNotOpenMsgTo</title>
<polygon fill="white" stroke="none" points="-4,4 -4,-138 502,-138 502,4 -4,4"/>
<!-- Node1 -->
<g id="node1" class="node"><title>Node1</title>
<polygon fill="#bfbfbf" stroke="black" points="0.5,-57.5 0.5,-76.5 109.5,-76.5 109.5,-57.5 0.5,-57.5"/>
<text text-anchor="middle" x="55" y="-64.5" font-family="Helvetica,sans-Serif" font-size="10.00">couldNotOpenMsgTo</text>
</g>
<!-- Node2 -->
<g id="node2" class="node"><title>Node2</title>
<g id="a_node2"><a xlink:href="../../d0/d3e/pps-files_8cpp.html#ae20c07f56a5b2b05b636f6a0a31ce214" target="_top" xlink:title="writeToLog">
<polygon fill="white" stroke="red" points="170.5,-76.5 170.5,-95.5 235.5,-95.5 235.5,-76.5 170.5,-76.5"/>
<text text-anchor="middle" x="203" y="-83.5" font-family="Helvetica,sans-Serif" font-size="10.00">writeToLog</text>
</a>
</g>
</g>
<!-- Node1&#45;&gt;Node2 -->
<g id="edge1" class="edge"><title>Node1&#45;&gt;Node2</title>
<path fill="none" stroke="midnightblue" d="M119.695,-75.2891C137.143,-77.5597 155.311,-79.9241 170.126,-81.852"/>
<polygon fill="midnightblue" stroke="midnightblue" points="119.904,-71.7869 109.536,-73.967 119.001,-78.7283 119.904,-71.7869"/>
</g>
<!-- Node3 -->
<g id="node3" class="node"><title>Node3</title>
<g id="a_node3"><a xlink:href="../../d0/d3e/pps-files_8cpp.html#a94ad6f36dae10e5652ea241b11d2e5c7" target="_top" xlink:title="open_logerr">
<polygon fill="white" stroke="red" points="296.5,-114.5 296.5,-133.5 363.5,-133.5 363.5,-114.5 296.5,-114.5"/>
<text text-anchor="middle" x="330" y="-121.5" font-family="Helvetica,sans-Serif" font-size="10.00">open_logerr</text>
</a>
</g>
</g>
<!-- Node1&#45;&gt;Node3 -->
<g id="edge5" class="edge"><title>Node1&#45;&gt;Node3</title>
<path fill="none" stroke="midnightblue" d="M83.1106,-80.941C100.603,-89.3021 124.101,-99.3735 146,-105 197.51,-118.234 259.427,-122.291 296.425,-123.51"/>
<polygon fill="midnightblue" stroke="midnightblue" points="84.5792,-77.7631 74.0587,-76.5109 81.5021,-84.0505 84.5792,-77.7631"/>
</g>
<!-- Node4 -->
<g id="node4" class="node"><title>Node4</title>
<g id="a_node4"><a xlink:href="../../d0/d3e/pps-files_8cpp.html#a180a91d8d62c36158e3b769ac35aa01e" target="_top" xlink:title="replaceNTPConfig">
<polygon fill="white" stroke="red" points="400.5,-76.5 400.5,-95.5 497.5,-95.5 497.5,-76.5 400.5,-76.5"/>
<text text-anchor="middle" x="449" y="-83.5" font-family="Helvetica,sans-Serif" font-size="10.00">replaceNTPConfig</text>
</a>
</g>
</g>
<!-- Node1&#45;&gt;Node4 -->
<g id="edge7" class="edge"><title>Node1&#45;&gt;Node4</title>
<path fill="none" stroke="midnightblue" d="M119.929,-65.3502C160.156,-64.7207 213.143,-64.6383 260,-67 307.835,-69.411 362.256,-75.2519 400.193,-79.8262"/>
<polygon fill="midnightblue" stroke="midnightblue" points="119.665,-61.8542 109.727,-65.5258 119.785,-68.8531 119.665,-61.8542"/>
</g>
<!-- Node5 -->
<g id="node5" class="node"><title>Node5</title>
<g id="a_node5"><a xlink:href="../../d0/d3e/pps-files_8cpp.html#a5e4671d51ee126315cb694ef235d359a" target="_top" xlink:title="writeFileMsgToLogbuf">
<polygon fill="white" stroke="red" points="146.5,-0.5 146.5,-19.5 259.5,-19.5 259.5,-0.5 146.5,-0.5"/>
<text text-anchor="middle" x="203" y="-7.5" font-family="Helvetica,sans-Serif" font-size="10.00">writeFileMsgToLogbuf</text>
</a>
</g>
</g>
<!-- Node1&#45;&gt;Node5 -->
<g id="edge6" class="edge"><title>Node1&#45;&gt;Node5</title>
<path fill="none" stroke="midnightblue" d="M89.8181,-53.797C116.626,-43.331 153.452,-28.9538 177.483,-19.5716"/>
<polygon fill="midnightblue" stroke="midnightblue" points="88.4795,-50.5623 80.4371,-57.4595 91.0253,-57.083 88.4795,-50.5623"/>
</g>
<!-- Node2&#45;&gt;Node3 -->
<g id="edge2" class="edge"><title>Node2&#45;&gt;Node3</title>
<path fill="none" stroke="midnightblue" d="M245.235,-98.5353C262.239,-103.705 281.629,-109.599 297.467,-114.414"/>
<polygon fill="midnightblue" stroke="midnightblue" points="246.128,-95.149 235.543,-95.589 244.092,-101.846 246.128,-95.149"/>
</g>
<!-- Node2&#45;&gt;Node4 -->
<g id="edge4" class="edge"><title>Node2&#45;&gt;Node4</title>
<path fill="none" stroke="midnightblue" d="M245.994,-86C288.852,-86 355.271,-86 400.139,-86"/>
<polygon fill="midnightblue" stroke="midnightblue" points="245.899,-82.5001 235.899,-86 245.899,-89.5001 245.899,-82.5001"/>
</g>
<!-- Node3&#45;&gt;Node4 -->
<g id="edge3" class="edge"><title>Node3&#45;&gt;Node4</title>
<path fill="none" stroke="midnightblue" d="M370.042,-111.32C385.851,-106.185 403.799,-100.356 418.485,-95.5859"/>
<polygon fill="midnightblue" stroke="midnightblue" points="368.954,-107.993 360.524,-114.411 371.116,-114.651 368.954,-107.993"/>
</g>
</g>
</svg>
