<?xml version="1.0" encoding="UTF-8" standalone="no"?>
<!DOCTYPE svg PUBLIC "-//W3C//DTD SVG 1.1//EN"
 "http://www.w3.org/Graphics/SVG/1.1/DTD/svg11.dtd">
<!-- Generated by graphviz version 2.36.0 (20140111.2315)
 -->
<!-- Title: writeDistribution Pages: 1 -->
<svg width="258pt" height="180pt"
 viewBox="0.00 0.00 258.00 180.00" xmlns="http://www.w3.org/2000/svg" xmlns:xlink="http://www.w3.org/1999/xlink">
<g id="graph0" class="graph" transform="scale(1 1) rotate(0) translate(4 176)">
<title>writeDistribution</title>
<polygon fill="white" stroke="none" points="-4,4 -4,-176 254,-176 254,4 -4,4"/>
<!-- Node1 -->
<g id="node1" class="node"><title>Node1</title>
<polygon fill="#bfbfbf" stroke="black" points="0.5,-76.5 0.5,-95.5 87.5,-95.5 87.5,-76.5 0.5,-76.5"/>
<text text-anchor="middle" x="44" y="-83.5" font-family="Helvetica,sans-Serif" font-size="10.00">writeDistribution</text>
</g>
<!-- Node2 -->
<g id="node2" class="node"><title>Node2</title>
<g id="a_node2"><a xlink:href="../../d0/d3e/pps-files_8cpp.html#ad151b43ce5b46fce3b0efcf14239c77b" target="_top" xlink:title="writeInterruptDistribFile">
<polygon fill="white" stroke="red" points="128,-152.5 128,-171.5 246,-171.5 246,-152.5 128,-152.5"/>
<text text-anchor="middle" x="187" y="-159.5" font-family="Helvetica,sans-Serif" font-size="10.00">writeInterruptDistribFile</text>
</a>
</g>
</g>
<!-- Node1&#45;&gt;Node2 -->
<g id="edge1" class="edge"><title>Node1&#45;&gt;Node2</title>
<path fill="none" stroke="midnightblue" d="M63.4561,-102.015C78.7892,-114.631 101.637,-131.887 124,-143 131.461,-146.707 139.788,-149.859 147.859,-152.466"/>
<polygon fill="midnightblue" stroke="midnightblue" points="65.6699,-99.3038 55.7615,-95.5524 61.1678,-104.664 65.6699,-99.3038"/>
</g>
<!-- Node3 -->
<g id="node3" class="node"><title>Node3</title>
<g id="a_node3"><a xlink:href="../../d0/d3e/pps-files_8cpp.html#aacdfbe498da2a6d42d753a7a75cf4ae5" target="_top" xlink:title="writeSysdelayDistribFile">
<polygon fill="white" stroke="red" points="126,-114.5 126,-133.5 248,-133.5 248,-114.5 126,-114.5"/>
<text text-anchor="middle" x="187" y="-121.5" font-family="Helvetica,sans-Serif" font-size="10.00">writeSysdelayDistribFile</text>
</a>
</g>
</g>
<!-- Node1&#45;&gt;Node3 -->
<g id="edge2" class="edge"><title>Node1&#45;&gt;Node3</title>
<path fill="none" stroke="midnightblue" d="M90.4398,-98.2462C109.875,-103.484 132.231,-109.509 150.431,-114.414"/>
<polygon fill="midnightblue" stroke="midnightblue" points="91.1465,-94.8118 80.5803,-95.589 89.325,-101.571 91.1465,-94.8118"/>
</g>
<!-- Node4 -->
<g id="node4" class="node"><title>Node4</title>
<g id="a_node4"><a xlink:href="../../d0/d3e/pps-files_8cpp.html#a376e9b76d9e9b1caf06ae3bd8c969f46" target="_top" xlink:title="writeJitterDistribFile">
<polygon fill="white" stroke="red" points="135,-76.5 135,-95.5 239,-95.5 239,-76.5 135,-76.5"/>
<text text-anchor="middle" x="187" y="-83.5" font-family="Helvetica,sans-Serif" font-size="10.00">writeJitterDistribFile</text>
</a>
</g>
</g>
<!-- Node1&#45;&gt;Node4 -->
<g id="edge3" class="edge"><title>Node1&#45;&gt;Node4</title>
<path fill="none" stroke="midnightblue" d="M98.032,-86C110.059,-86 122.81,-86 134.762,-86"/>
<polygon fill="midnightblue" stroke="midnightblue" points="97.6873,-82.5001 87.6873,-86 97.6873,-89.5001 97.6873,-82.5001"/>
</g>
<!-- Node5 -->
<g id="node5" class="node"><title>Node5</title>
<g id="a_node5"><a xlink:href="../../d0/d3e/pps-files_8cpp.html#ad6d48f2a14f7d1bac58a6ea8d71d407a" target="_top" xlink:title="writeIntrptJitterDistribFile">
<polygon fill="white" stroke="red" points="124,-38.5 124,-57.5 250,-57.5 250,-38.5 124,-38.5"/>
<text text-anchor="middle" x="187" y="-45.5" font-family="Helvetica,sans-Serif" font-size="10.00">writeIntrptJitterDistribFile</text>
</a>
</g>
</g>
<!-- Node1&#45;&gt;Node5 -->
<g id="edge4" class="edge"><title>Node1&#45;&gt;Node5</title>
<path fill="none" stroke="midnightblue" d="M90.4398,-73.7538C109.875,-68.516 132.231,-62.4909 150.431,-57.5859"/>
<polygon fill="midnightblue" stroke="midnightblue" points="89.325,-70.4293 80.5803,-76.411 91.1465,-77.1882 89.325,-70.4293"/>
</g>
<!-- Node6 -->
<g id="node6" class="node"><title>Node6</title>
<g id="a_node6"><a xlink:href="../../d0/d3e/pps-files_8cpp.html#a82b5d210a2a50fc93755e34d3016247e" target="_top" xlink:title="writeErrorDistribFile">
<polygon fill="white" stroke="red" points="135.5,-0.5 135.5,-19.5 238.5,-19.5 238.5,-0.5 135.5,-0.5"/>
<text text-anchor="middle" x="187" y="-7.5" font-family="Helvetica,sans-Serif" font-size="10.00">writeErrorDistribFile</text>
</a>
</g>
</g>
<!-- Node1&#45;&gt;Node6 -->
<g id="edge5" class="edge"><title>Node1&#45;&gt;Node6</title>
<path fill="none" stroke="midnightblue" d="M63.4561,-69.9848C78.7892,-57.3693 101.637,-40.1132 124,-29 131.461,-25.2926 139.788,-22.141 147.859,-19.5335"/>
<polygon fill="midnightblue" stroke="midnightblue" points="61.1678,-67.336 55.7615,-76.4476 65.6699,-72.6962 61.1678,-67.336"/>
</g>
</g>
</svg>
