<?xml version="1.0" encoding="UTF-8" standalone="no"?>
<!DOCTYPE svg PUBLIC "-//W3C//DTD SVG 1.1//EN"
 "http://www.w3.org/Graphics/SVG/1.1/DTD/svg11.dtd">
<!-- Generated by graphviz version 2.36.0 (20140111.2315)
 -->
<!-- Title: writeToLog Pages: 1 -->
<svg width="220pt" height="66pt"
 viewBox="0.00 0.00 220.00 66.00" xmlns="http://www.w3.org/2000/svg" xmlns:xlink="http://www.w3.org/1999/xlink">
<g id="graph0" class="graph" transform="scale(1 1) rotate(0) translate(4 62)">
<title>writeToLog</title>
<polygon fill="white" stroke="none" points="-4,4 -4,-62 216,-62 216,4 -4,4"/>
<!-- Node1 -->
<g id="node1" class="node"><title>Node1</title>
<polygon fill="#bfbfbf" stroke="black" points="0.5,-19.5 0.5,-38.5 65.5,-38.5 65.5,-19.5 0.5,-19.5"/>
<text text-anchor="middle" x="33" y="-26.5" font-family="Helvetica,sans-Serif" font-size="10.00">writeToLog</text>
</g>
<!-- Node2 -->
<g id="node2" class="node"><title>Node2</title>
<g id="a_node2"><a xlink:href="../../d0/d3e/pps-files_8cpp.html#a6f609d689ebe787455ce220808ca3ba0" target="_top" xlink:title="bufferStatusMsg">
<polygon fill="white" stroke="black" points="112.5,-38.5 112.5,-57.5 201.5,-57.5 201.5,-38.5 112.5,-38.5"/>
<text text-anchor="middle" x="157" y="-45.5" font-family="Helvetica,sans-Serif" font-size="10.00">bufferStatusMsg</text>
</a>
</g>
</g>
<!-- Node1&#45;&gt;Node2 -->
<g id="edge1" class="edge"><title>Node1&#45;&gt;Node2</title>
<path fill="none" stroke="midnightblue" d="M65.7356,-33.9424C76.9888,-35.695 89.9834,-37.7187 102.545,-39.675"/>
<polygon fill="midnightblue" stroke="midnightblue" points="102.064,-43.1423 112.484,-41.2229 103.142,-36.2257 102.064,-43.1423"/>
</g>
<!-- Node3 -->
<g id="node3" class="node"><title>Node3</title>
<g id="a_node3"><a xlink:href="../../d0/d3e/pps-files_8cpp.html#a1509c961be7011d1a6a4b2d23715357a" target="_top" xlink:title="couldNotOpenMsgTo">
<polygon fill="white" stroke="black" points="102.5,-0.5 102.5,-19.5 211.5,-19.5 211.5,-0.5 102.5,-0.5"/>
<text text-anchor="middle" x="157" y="-7.5" font-family="Helvetica,sans-Serif" font-size="10.00">couldNotOpenMsgTo</text>
</a>
</g>
</g>
<!-- Node1&#45;&gt;Node3 -->
<g id="edge2" class="edge"><title>Node1&#45;&gt;Node3</title>
<path fill="none" stroke="midnightblue" d="M65.7356,-24.0576C73.9276,-22.7818 83.0424,-21.3622 92.241,-19.9297"/>
<polygon fill="midnightblue" stroke="midnightblue" points="92.8735,-23.3735 102.216,-18.3762 91.7962,-16.4568 92.8735,-23.3735"/>
</g>
</g>
</svg>
