<?xml version="1.0" encoding="UTF-8" standalone="no"?>
<!DOCTYPE svg PUBLIC "-//W3C//DTD SVG 1.1//EN"
 "http://www.w3.org/Graphics/SVG/1.1/DTD/svg11.dtd">
<!-- Generated by graphviz version 2.36.0 (20140111.2315)
 -->
<!-- Title: parseSaveDataRequest Pages: 1 -->
<svg width="264pt" height="104pt"
 viewBox="0.00 0.00 264.00 104.00" xmlns="http://www.w3.org/2000/svg" xmlns:xlink="http://www.w3.org/1999/xlink">
<g id="graph0" class="graph" transform="scale(1 1) rotate(0) translate(4 100)">
<title>parseSaveDataRequest</title>
<polygon fill="white" stroke="none" points="-4,4 -4,-100 260,-100 260,4 -4,4"/>
<!-- Node1 -->
<g id="node1" class="node"><title>Node1</title>
<polygon fill="#bfbfbf" stroke="black" points="0.5,-38.5 0.5,-57.5 121.5,-57.5 121.5,-38.5 0.5,-38.5"/>
<text text-anchor="middle" x="61" y="-45.5" font-family="Helvetica,sans-Serif" font-size="10.00">parseSaveDataRequest</text>
</g>
<!-- Node2 -->
<g id="node2" class="node"><title>Node2</title>
<g id="a_node2"><a xlink:href="../../d0/d3e/pps-files_8cpp.html#a8837a1d11d52d5de8fb802ac99f84a3d" target="_top" xlink:title="printAcceptedArgs">
<polygon fill="white" stroke="black" points="158.5,-76.5 158.5,-95.5 255.5,-95.5 255.5,-76.5 158.5,-76.5"/>
<text text-anchor="middle" x="207" y="-83.5" font-family="Helvetica,sans-Serif" font-size="10.00">printAcceptedArgs</text>
</a>
</g>
</g>
<!-- Node1&#45;&gt;Node2 -->
<g id="edge1" class="edge"><title>Node1&#45;&gt;Node2</title>
<path fill="none" stroke="midnightblue" d="M98.3373,-57.589C117.083,-62.5358 140.143,-68.6211 160.107,-73.8892"/>
<polygon fill="midnightblue" stroke="midnightblue" points="159.362,-77.3125 169.924,-76.4799 161.148,-70.5442 159.362,-77.3125"/>
</g>
<!-- Node3 -->
<g id="node3" class="node"><title>Node3</title>
<g id="a_node3"><a xlink:href="../../d0/d3e/pps-files_8cpp.html#acee307839ee7844080177e544b8b63d0" target="_top" xlink:title="missingArg">
<polygon fill="white" stroke="black" points="174.5,-38.5 174.5,-57.5 239.5,-57.5 239.5,-38.5 174.5,-38.5"/>
<text text-anchor="middle" x="207" y="-45.5" font-family="Helvetica,sans-Serif" font-size="10.00">missingArg</text>
</a>
</g>
</g>
<!-- Node1&#45;&gt;Node3 -->
<g id="edge2" class="edge"><title>Node1&#45;&gt;Node3</title>
<path fill="none" stroke="midnightblue" d="M121.818,-48C136.086,-48 151.011,-48 164.264,-48"/>
<polygon fill="midnightblue" stroke="midnightblue" points="164.489,-51.5001 174.489,-48 164.489,-44.5001 164.489,-51.5001"/>
</g>
<!-- Node4 -->
<g id="node4" class="node"><title>Node4</title>
<g id="a_node4"><a xlink:href="../../d0/d3e/pps-files_8cpp.html#aa402d7b46a75b43bb077558f5343f3b8" target="_top" xlink:title="daemonSaveArray">
<polygon fill="white" stroke="red" points="158.5,-0.5 158.5,-19.5 255.5,-19.5 255.5,-0.5 158.5,-0.5"/>
<text text-anchor="middle" x="207" y="-7.5" font-family="Helvetica,sans-Serif" font-size="10.00">daemonSaveArray</text>
</a>
</g>
</g>
<!-- Node1&#45;&gt;Node4 -->
<g id="edge3" class="edge"><title>Node1&#45;&gt;Node4</title>
<path fill="none" stroke="midnightblue" d="M98.3373,-38.411C117.083,-33.4642 140.143,-27.3789 160.107,-22.1108"/>
<polygon fill="midnightblue" stroke="midnightblue" points="161.148,-25.4558 169.924,-19.5201 159.362,-18.6875 161.148,-25.4558"/>
</g>
</g>
</svg>
