<?xml version="1.0" encoding="UTF-8" standalone="no"?>
<!DOCTYPE svg PUBLIC "-//W3C//DTD SVG 1.1//EN"
 "http://www.w3.org/Graphics/SVG/1.1/DTD/svg11.dtd">
<!-- Generated by graphviz version 2.36.0 (20140111.2315)
 -->
<!-- Title: open_logerr Pages: 1 -->
<svg width="324pt" height="47pt"
 viewBox="0.00 0.00 324.00 47.00" xmlns="http://www.w3.org/2000/svg" xmlns:xlink="http://www.w3.org/1999/xlink">
<g id="graph0" class="graph" transform="scale(1 1) rotate(0) translate(4 43)">
<title>open_logerr</title>
<polygon fill="white" stroke="none" points="-4,4 -4,-43 320,-43 320,4 -4,4"/>
<!-- Node1 -->
<g id="node1" class="node"><title>Node1</title>
<polygon fill="#bfbfbf" stroke="black" points="0.5,-19.5 0.5,-38.5 67.5,-38.5 67.5,-19.5 0.5,-19.5"/>
<text text-anchor="middle" x="34" y="-26.5" font-family="Helvetica,sans-Serif" font-size="10.00">open_logerr</text>
</g>
<!-- Node2 -->
<g id="node2" class="node"><title>Node2</title>
<g id="a_node2"><a xlink:href="../../d0/d3e/pps-files_8cpp.html#a1509c961be7011d1a6a4b2d23715357a" target="_top" xlink:title="couldNotOpenMsgTo">
<polygon fill="white" stroke="black" points="206.5,-19.5 206.5,-38.5 315.5,-38.5 315.5,-19.5 206.5,-19.5"/>
<text text-anchor="middle" x="261" y="-26.5" font-family="Helvetica,sans-Serif" font-size="10.00">couldNotOpenMsgTo</text>
</a>
</g>
</g>
<!-- Node1&#45;&gt;Node2 -->
<g id="edge1" class="edge"><title>Node1&#45;&gt;Node2</title>
<path fill="none" stroke="midnightblue" d="M67.7169,-29C101.271,-29 154.334,-29 196.224,-29"/>
<polygon fill="midnightblue" stroke="midnightblue" points="196.341,-32.5001 206.341,-29 196.341,-25.5001 196.341,-32.5001"/>
</g>
<!-- Node3 -->
<g id="node3" class="node"><title>Node3</title>
<g id="a_node3"><a xlink:href="../../d0/d3e/pps-files_8cpp.html#ae20c07f56a5b2b05b636f6a0a31ce214" target="_top" xlink:title="writeToLog">
<polygon fill="white" stroke="red" points="104.5,-0.5 104.5,-19.5 169.5,-19.5 169.5,-0.5 104.5,-0.5"/>
<text text-anchor="middle" x="137" y="-7.5" font-family="Helvetica,sans-Serif" font-size="10.00">writeToLog</text>
</a>
</g>
</g>
<!-- Node1&#45;&gt;Node3 -->
<g id="edge2" class="edge"><title>Node1&#45;&gt;Node3</title>
<path fill="none" stroke="midnightblue" d="M67.513,-22.8837C76.0603,-21.2758 85.3984,-19.5191 94.3532,-17.8346"/>
<polygon fill="midnightblue" stroke="midnightblue" points="95.0573,-21.2636 104.238,-15.9751 93.7632,-14.3842 95.0573,-21.2636"/>
</g>
<!-- Node3&#45;&gt;Node2 -->
<g id="edge3" class="edge"><title>Node3&#45;&gt;Node2</title>
<path fill="none" stroke="midnightblue" d="M169.736,-14.9424C177.928,-16.2182 187.042,-17.6378 196.241,-19.0703"/>
<polygon fill="midnightblue" stroke="midnightblue" points="195.796,-22.5432 206.216,-20.6238 196.873,-15.6265 195.796,-22.5432"/>
</g>
</g>
</svg>
