<?xml version="1.0" encoding="UTF-8" standalone="no"?>
<!DOCTYPE svg PUBLIC "-//W3C//DTD SVG 1.1//EN"
 "http://www.w3.org/Graphics/SVG/1.1/DTD/svg11.dtd">
<!-- Generated by graphviz version 2.36.0 (20140111.2315)
 -->
<!-- Title: enableNTP Pages: 1 -->
<svg width="314pt" height="161pt"
 viewBox="0.00 0.00 314.00 161.10" xmlns="http://www.w3.org/2000/svg" xmlns:xlink="http://www.w3.org/1999/xlink">
<g id="graph0" class="graph" transform="scale(1 1) rotate(0) translate(4 157.105)">
<title>enableNTP</title>
<polygon fill="white" stroke="none" points="-4,4 -4,-157.105 310,-157.105 310,4 -4,4"/>
<!-- Node1 -->
<g id="node1" class="node"><title>Node1</title>
<polygon fill="#bfbfbf" stroke="black" points="0.5,-76.5 0.5,-95.5 65.5,-95.5 65.5,-76.5 0.5,-76.5"/>
<text text-anchor="middle" x="33" y="-83.5" font-family="Helvetica,sans-Serif" font-size="10.00">enableNTP</text>
</g>
<!-- Node2 -->
<g id="node2" class="node"><title>Node2</title>
<g id="a_node2"><a xlink:href="../../d0/d3e/pps-files_8cpp.html#a94ad6f36dae10e5652ea241b11d2e5c7" target="_top" xlink:title="open_logerr">
<polygon fill="white" stroke="red" points="238.5,-95.5 238.5,-114.5 305.5,-114.5 305.5,-95.5 238.5,-95.5"/>
<text text-anchor="middle" x="272" y="-102.5" font-family="Helvetica,sans-Serif" font-size="10.00">open_logerr</text>
</a>
</g>
</g>
<!-- Node1&#45;&gt;Node2 -->
<g id="edge1" class="edge"><title>Node1&#45;&gt;Node2</title>
<path fill="none" stroke="midnightblue" d="M41.5311,-95.5825C52.9097,-109.193 75.9417,-133.523 102,-143 143.768,-158.19 158.956,-154.069 202,-143 219.218,-138.572 236.742,-128.842 249.822,-120.337"/>
<polygon fill="midnightblue" stroke="midnightblue" points="251.791,-123.23 258.108,-114.724 247.866,-117.434 251.791,-123.23"/>
</g>
<!-- Node3 -->
<g id="node3" class="node"><title>Node3</title>
<g id="a_node3"><a xlink:href="../../d0/d3e/pps-files_8cpp.html#a459e7950f1def63780ba7fda8e3c12d2" target="_top" xlink:title="read_logerr">
<polygon fill="white" stroke="red" points="119.5,-114.5 119.5,-133.5 184.5,-133.5 184.5,-114.5 119.5,-114.5"/>
<text text-anchor="middle" x="152" y="-121.5" font-family="Helvetica,sans-Serif" font-size="10.00">read_logerr</text>
</a>
</g>
</g>
<!-- Node1&#45;&gt;Node3 -->
<g id="edge2" class="edge"><title>Node1&#45;&gt;Node3</title>
<path fill="none" stroke="midnightblue" d="M63.524,-95.589C78.2119,-100.359 96.1601,-106.189 111.968,-111.323"/>
<polygon fill="midnightblue" stroke="midnightblue" points="110.893,-114.654 121.485,-114.414 113.056,-107.996 110.893,-114.654"/>
</g>
<!-- Node4 -->
<g id="node4" class="node"><title>Node4</title>
<g id="a_node4"><a xlink:href="../../d0/d3e/pps-files_8cpp.html#a7d3637bb8a063c7565648288f2c95432" target="_top" xlink:title="removeConfigKeys">
<polygon fill="white" stroke="black" points="102,-76.5 102,-95.5 202,-95.5 202,-76.5 102,-76.5"/>
<text text-anchor="middle" x="152" y="-83.5" font-family="Helvetica,sans-Serif" font-size="10.00">removeConfigKeys</text>
</a>
</g>
</g>
<!-- Node1&#45;&gt;Node4 -->
<g id="edge3" class="edge"><title>Node1&#45;&gt;Node4</title>
<path fill="none" stroke="midnightblue" d="M65.6619,-86C73.7259,-86 82.6585,-86 91.6188,-86"/>
<polygon fill="midnightblue" stroke="midnightblue" points="91.7021,-89.5001 101.702,-86 91.702,-82.5001 91.7021,-89.5001"/>
</g>
<!-- Node5 -->
<g id="node5" class="node"><title>Node5</title>
<g id="a_node5"><a xlink:href="../../d0/d3e/pps-files_8cpp.html#a180a91d8d62c36158e3b769ac35aa01e" target="_top" xlink:title="replaceNTPConfig">
<polygon fill="white" stroke="red" points="103.5,-38.5 103.5,-57.5 200.5,-57.5 200.5,-38.5 103.5,-38.5"/>
<text text-anchor="middle" x="152" y="-45.5" font-family="Helvetica,sans-Serif" font-size="10.00">replaceNTPConfig</text>
</a>
</g>
</g>
<!-- Node1&#45;&gt;Node5 -->
<g id="edge4" class="edge"><title>Node1&#45;&gt;Node5</title>
<path fill="none" stroke="midnightblue" d="M63.524,-76.411C78.2119,-71.6406 96.1601,-65.8112 111.968,-60.6771"/>
<polygon fill="midnightblue" stroke="midnightblue" points="113.056,-64.0039 121.485,-57.5859 110.893,-57.3462 113.056,-64.0039"/>
</g>
<!-- Node6 -->
<g id="node6" class="node"><title>Node6</title>
<g id="a_node6"><a xlink:href="../../d0/d3e/pps-files_8cpp.html#a4ec814a023712bff67399cc287385ed3" target="_top" xlink:title="restartNTP">
<polygon fill="white" stroke="red" points="119.5,-0.5 119.5,-19.5 184.5,-19.5 184.5,-0.5 119.5,-0.5"/>
<text text-anchor="middle" x="152" y="-7.5" font-family="Helvetica,sans-Serif" font-size="10.00">restartNTP</text>
</a>
</g>
</g>
<!-- Node1&#45;&gt;Node6 -->
<g id="edge6" class="edge"><title>Node1&#45;&gt;Node6</title>
<path fill="none" stroke="midnightblue" d="M43.3583,-76.3994C55.803,-64.0689 78.9246,-42.6372 102,-29 105.255,-27.0764 108.74,-25.2777 112.295,-23.614"/>
<polygon fill="midnightblue" stroke="midnightblue" points="113.965,-26.7057 121.761,-19.5317 111.192,-20.278 113.965,-26.7057"/>
</g>
<!-- Node5&#45;&gt;Node2 -->
<g id="edge5" class="edge"><title>Node5&#45;&gt;Node2</title>
<path fill="none" stroke="midnightblue" d="M179.464,-57.5193C186.844,-60.3733 194.807,-63.643 202,-67 217.058,-74.0275 233.366,-82.9447 246.346,-90.3745"/>
<polygon fill="midnightblue" stroke="midnightblue" points="244.736,-93.4869 255.143,-95.4735 248.246,-87.4306 244.736,-93.4869"/>
</g>
</g>
</svg>
