<?xml version="1.0" encoding="UTF-8" standalone="no"?>
<!DOCTYPE svg PUBLIC "-//W3C//DTD SVG 1.1//EN"
 "http://www.w3.org/Graphics/SVG/1.1/DTD/svg11.dtd">
<!-- Generated by graphviz version 2.40.1 (20161225.0304)
 -->
<!-- Title: hasString Pages: 1 -->
<svg width="164pt" height="64pt"
 viewBox="0.00 0.00 164.38 64.00" xmlns="http://www.w3.org/2000/svg" xmlns:xlink="http://www.w3.org/1999/xlink">
<g id="graph0" class="graph" transform="scale(1 1) rotate(0) translate(4 60)">
<title>hasString</title>
<polygon fill="#ffffff" stroke="transparent" points="-4,4 -4,-60 160.3789,-60 160.3789,4 -4,4"/>
<!-- Node315 -->
<g id="node1" class="node">
<title>Node315</title>
<polygon fill="#bfbfbf" stroke="#000000" points="0,-18.5 0,-36.5 58.2461,-36.5 58.2461,-18.5 0,-18.5"/>
<text text-anchor="middle" x="29.123" y="-24.5" font-family="Helvetica,sans-Serif" font-size="10.00" fill="#000000">hasString</text>
</g>
<!-- Node316 -->
<g id="node2" class="node">
<title>Node316</title>
<g id="a_node2"><a xlink:href="../../d0/d3e/pps-files_8cpp.html#ae1ed7854dcdca9d0cd8368693da83102" target="_top" xlink:title="isEnabled">
<polygon fill="#ffffff" stroke="#ff0000" points="95.3521,-37.5 95.3521,-55.5 155.2729,-55.5 155.2729,-37.5 95.3521,-37.5"/>
<text text-anchor="middle" x="125.3125" y="-43.5" font-family="Helvetica,sans-Serif" font-size="10.00" fill="#000000">isEnabled</text>
</a>
</g>
</g>
<!-- Node315&#45;&gt;Node316 -->
<g id="edge1" class="edge">
<title>Node315&#45;&gt;Node316</title>
<path fill="none" stroke="#191970" d="M68.3406,-35.2465C77.2716,-37.0106 86.6256,-38.8583 95.1126,-40.5347"/>
<polygon fill="#191970" stroke="#191970" points="68.9944,-31.8081 58.5057,-33.3039 67.6379,-38.6754 68.9944,-31.8081"/>
</g>
<!-- Node320 -->
<g id="node3" class="node">
<title>Node320</title>
<g id="a_node3"><a xlink:href="../../d0/d3e/pps-files_8cpp.html#a2a2f0cb3677098122f66c3aee0b97dad" target="_top" xlink:title="isDisabled">
<polygon fill="#ffffff" stroke="#ff0000" points="94.2461,-.5 94.2461,-18.5 156.3789,-18.5 156.3789,-.5 94.2461,-.5"/>
<text text-anchor="middle" x="125.3125" y="-6.5" font-family="Helvetica,sans-Serif" font-size="10.00" fill="#000000">isDisabled</text>
</a>
</g>
</g>
<!-- Node315&#45;&gt;Node320 -->
<g id="edge2" class="edge">
<title>Node315&#45;&gt;Node320</title>
<path fill="none" stroke="#191970" d="M68.6123,-20.1103C77.1096,-18.5202 85.9773,-16.8608 94.1075,-15.3394"/>
<polygon fill="#191970" stroke="#191970" points="67.6913,-16.7219 58.5057,-22.0016 68.9789,-23.6024 67.6913,-16.7219"/>
</g>
</g>
</svg>
