<?xml version="1.0" encoding="UTF-8" standalone="no"?>
<!DOCTYPE svg PUBLIC "-//W3C//DTD SVG 1.1//EN"
 "http://www.w3.org/Graphics/SVG/1.1/DTD/svg11.dtd">
<!-- Generated by graphviz version 2.40.1 (20161225.0304)
 -->
<!-- Title: read_logerr Pages: 1 -->
<svg width="215pt" height="64pt"
 viewBox="0.00 0.00 214.96 64.00" xmlns="http://www.w3.org/2000/svg" xmlns:xlink="http://www.w3.org/1999/xlink">
<g id="graph0" class="graph" transform="scale(1 1) rotate(0) translate(4 60)">
<title>read_logerr</title>
<polygon fill="#ffffff" stroke="transparent" points="-4,4 -4,-60 210.96,-60 210.96,4 -4,4"/>
<!-- Node443 -->
<g id="node1" class="node">
<title>Node443</title>
<polygon fill="#bfbfbf" stroke="#000000" points="0,-18.5 0,-36.5 67.1426,-36.5 67.1426,-18.5 0,-18.5"/>
<text text-anchor="middle" x="33.5713" y="-24.5" font-family="Helvetica,sans-Serif" font-size="10.00" fill="#000000">read_logerr</text>
</g>
<!-- Node444 -->
<g id="node2" class="node">
<title>Node444</title>
<g id="a_node2"><a xlink:href="../../d0/d3e/pps-files_8cpp.html#a49b2919c3b9a1fcebb7da7db39ee127b" target="_top" xlink:title="errorReadingMsgTo">
<polygon fill="#ffffff" stroke="#000000" points="103.1426,-37.5 103.1426,-55.5 206.96,-55.5 206.96,-37.5 103.1426,-37.5"/>
<text text-anchor="middle" x="155.0513" y="-43.5" font-family="Helvetica,sans-Serif" font-size="10.00" fill="#000000">errorReadingMsgTo</text>
</a>
</g>
</g>
<!-- Node443&#45;&gt;Node444 -->
<g id="edge1" class="edge">
<title>Node443&#45;&gt;Node444</title>
<path fill="none" stroke="#191970" d="M67.4102,-32.7926C75.282,-34.0237 83.9091,-35.3731 92.5833,-36.7297"/>
<polygon fill="#191970" stroke="#191970" points="92.3244,-40.2317 102.7451,-38.3191 93.4061,-33.3158 92.3244,-40.2317"/>
</g>
<!-- Node445 -->
<g id="node3" class="node">
<title>Node445</title>
<g id="a_node3"><a xlink:href="../../d0/d3e/pps-files_8cpp.html#ae20c07f56a5b2b05b636f6a0a31ce214" target="_top" xlink:title="writeToLog">
<polygon fill="#ffffff" stroke="#ff0000" points="122.8716,-.5 122.8716,-18.5 187.231,-18.5 187.231,-.5 122.8716,-.5"/>
<text text-anchor="middle" x="155.0513" y="-6.5" font-family="Helvetica,sans-Serif" font-size="10.00" fill="#000000">writeToLog</text>
</a>
</g>
</g>
<!-- Node443&#45;&gt;Node445 -->
<g id="edge2" class="edge">
<title>Node443&#45;&gt;Node445</title>
<path fill="none" stroke="#191970" d="M67.4102,-22.486C81.4425,-20.4068 97.8751,-17.9719 112.6955,-15.776"/>
<polygon fill="#191970" stroke="#191970" points="113.27,-19.2291 122.649,-14.3011 112.2439,-12.3047 113.27,-19.2291"/>
</g>
</g>
</svg>
