<?xml version="1.0" encoding="UTF-8" standalone="no"?>
<!DOCTYPE svg PUBLIC "-//W3C//DTD SVG 1.1//EN"
 "http://www.w3.org/Graphics/SVG/1.1/DTD/svg11.dtd">
<!-- Generated by graphviz version 2.40.1 (20161225.0304)
 -->
<!-- Title: missingArg Pages: 1 -->
<svg width="353pt" height="46pt"
 viewBox="0.00 0.00 352.56 46.00" xmlns="http://www.w3.org/2000/svg" xmlns:xlink="http://www.w3.org/1999/xlink">
<g id="graph0" class="graph" transform="scale(1 1) rotate(0) translate(4 42)">
<title>missingArg</title>
<polygon fill="#ffffff" stroke="transparent" points="-4,4 -4,-42 348.5557,-42 348.5557,4 -4,4"/>
<!-- Node346 -->
<g id="node1" class="node">
<title>Node346</title>
<polygon fill="#bfbfbf" stroke="#000000" points="0,-.5 0,-18.5 65.458,-18.5 65.458,-.5 0,-.5"/>
<text text-anchor="middle" x="32.729" y="-6.5" font-family="Helvetica,sans-Serif" font-size="10.00" fill="#000000">missingArg</text>
</g>
<!-- Node347 -->
<g id="node2" class="node">
<title>Node347</title>
<g id="a_node2"><a xlink:href="../../d0/d3e/pps-files_8cpp.html#ac20a2f5a5d6284628d71e7e0cdc08248" target="_top" xlink:title="parseSaveDataRequest">
<polygon fill="#ffffff" stroke="#000000" points="101.458,-19.5 101.458,-37.5 223.6348,-37.5 223.6348,-19.5 101.458,-19.5"/>
<text text-anchor="middle" x="162.5464" y="-25.5" font-family="Helvetica,sans-Serif" font-size="10.00" fill="#000000">parseSaveDataRequest</text>
</a>
</g>
</g>
<!-- Node346&#45;&gt;Node347 -->
<g id="edge1" class="edge">
<title>Node346&#45;&gt;Node347</title>
<path fill="none" stroke="#191970" d="M75.5678,-15.7699C83.7894,-16.9732 92.5472,-18.255 101.2194,-19.5242"/>
<polygon fill="#191970" stroke="#191970" points="75.8889,-12.2796 65.4874,-14.2945 74.8751,-19.2059 75.8889,-12.2796"/>
</g>
<!-- Node348 -->
<g id="node3" class="node">
<title>Node348</title>
<g id="a_node3"><a xlink:href="../../d0/d3e/pps-files_8cpp.html#aa3e1b9d34eeedb9b1d03863dee0b8e58" target="_top" xlink:title="accessDaemon">
<polygon fill="#ffffff" stroke="#ff0000" points="259.6348,-.5 259.6348,-18.5 344.5557,-18.5 344.5557,-.5 259.6348,-.5"/>
<text text-anchor="middle" x="302.0952" y="-6.5" font-family="Helvetica,sans-Serif" font-size="10.00" fill="#000000">accessDaemon</text>
</a>
</g>
</g>
<!-- Node346&#45;&gt;Node348 -->
<g id="edge3" class="edge">
<title>Node346&#45;&gt;Node348</title>
<path fill="none" stroke="#191970" d="M75.7235,-9.5C126.113,-9.5 209.1017,-9.5 259.3732,-9.5"/>
<polygon fill="#191970" stroke="#191970" points="75.4893,-6.0001 65.4893,-9.5 75.4893,-13.0001 75.4893,-6.0001"/>
</g>
<!-- Node347&#45;&gt;Node348 -->
<g id="edge2" class="edge">
<title>Node347&#45;&gt;Node348</title>
<path fill="none" stroke="#191970" d="M233.9373,-18.7799C242.626,-17.5969 251.2813,-16.4185 259.3638,-15.318"/>
<polygon fill="#191970" stroke="#191970" points="233.1909,-15.3492 223.7545,-20.1663 234.1353,-22.2852 233.1909,-15.3492"/>
</g>
</g>
</svg>
