<?xml version="1.0" encoding="UTF-8" standalone="no"?>
<!DOCTYPE svg PUBLIC "-//W3C//DTD SVG 1.1//EN"
 "http://www.w3.org/Graphics/SVG/1.1/DTD/svg11.dtd">
<!-- Generated by graphviz version 2.40.1 (20161225.0304)
 -->
<!-- Title: createPIDfile Pages: 1 -->
<svg width="287pt" height="46pt"
 viewBox="0.00 0.00 286.98 46.00" xmlns="http://www.w3.org/2000/svg" xmlns:xlink="http://www.w3.org/1999/xlink">
<g id="graph0" class="graph" transform="scale(1 1) rotate(0) translate(4 42)">
<title>createPIDfile</title>
<polygon fill="#ffffff" stroke="transparent" points="-4,4 -4,-42 282.9795,-42 282.9795,4 -4,4"/>
<!-- Node199 -->
<g id="node1" class="node">
<title>Node199</title>
<polygon fill="#bfbfbf" stroke="#000000" points="0,-.5 0,-18.5 73.2461,-18.5 73.2461,-.5 0,-.5"/>
<text text-anchor="middle" x="36.623" y="-6.5" font-family="Helvetica,sans-Serif" font-size="10.00" fill="#000000">createPIDfile</text>
</g>
<!-- Node200 -->
<g id="node2" class="node">
<title>Node200</title>
<g id="a_node2"><a xlink:href="../../d0/d3e/pps-files_8cpp.html#a94ad6f36dae10e5652ea241b11d2e5c7" target="_top" xlink:title="open_logerr">
<polygon fill="#ffffff" stroke="#ff0000" points="109.2461,-19.5 109.2461,-37.5 178.6201,-37.5 178.6201,-19.5 109.2461,-19.5"/>
<text text-anchor="middle" x="143.9331" y="-25.5" font-family="Helvetica,sans-Serif" font-size="10.00" fill="#000000">open_logerr</text>
</a>
</g>
</g>
<!-- Node199&#45;&gt;Node200 -->
<g id="edge1" class="edge">
<title>Node199&#45;&gt;Node200</title>
<path fill="none" stroke="#191970" d="M73.2529,-15.9856C81.5446,-17.4537 90.4413,-19.0289 99.0305,-20.5497"/>
<polygon fill="#191970" stroke="#191970" points="98.4605,-24.0031 108.9176,-22.3003 99.681,-17.1103 98.4605,-24.0031"/>
</g>
<!-- Node202 -->
<g id="node3" class="node">
<title>Node202</title>
<g id="a_node3"><a xlink:href="../../d0/d3e/pps-files_8cpp.html#ae20c07f56a5b2b05b636f6a0a31ce214" target="_top" xlink:title="writeToLog">
<polygon fill="#ffffff" stroke="#ff0000" points="214.6201,-.5 214.6201,-18.5 278.9795,-18.5 278.9795,-.5 214.6201,-.5"/>
<text text-anchor="middle" x="246.7998" y="-6.5" font-family="Helvetica,sans-Serif" font-size="10.00" fill="#000000">writeToLog</text>
</a>
</g>
</g>
<!-- Node199&#45;&gt;Node202 -->
<g id="edge3" class="edge">
<title>Node199&#45;&gt;Node202</title>
<path fill="none" stroke="#191970" d="M73.7146,-9.5C110.2315,-9.5 165.945,-9.5 204.2439,-9.5"/>
<polygon fill="#191970" stroke="#191970" points="204.5539,-13.0001 214.5539,-9.5 204.5539,-6.0001 204.5539,-13.0001"/>
</g>
<!-- Node200&#45;&gt;Node202 -->
<g id="edge2" class="edge">
<title>Node200&#45;&gt;Node202</title>
<path fill="none" stroke="#191970" d="M178.7591,-22.0675C187.0539,-20.5354 195.9943,-18.884 204.5805,-17.2981"/>
<polygon fill="#191970" stroke="#191970" points="205.2395,-20.7357 214.4374,-15.4775 203.968,-13.8521 205.2395,-20.7357"/>
</g>
</g>
</svg>
