<?xml version="1.0" encoding="UTF-8" standalone="no"?>
<!DOCTYPE svg PUBLIC "-//W3C//DTD SVG 1.1//EN"
 "http://www.w3.org/Graphics/SVG/1.1/DTD/svg11.dtd">
<!-- Generated by graphviz version 2.36.0 (20140111.2315)
 -->
<!-- Title: writeToLog Pages: 1 -->
<svg width="716pt" height="866pt"
 viewBox="0.00 0.00 716.00 866.33" xmlns="http://www.w3.org/2000/svg" xmlns:xlink="http://www.w3.org/1999/xlink">
<g id="graph0" class="graph" transform="scale(1 1) rotate(0) translate(4 862.333)">
<title>writeToLog</title>
<polygon fill="white" stroke="none" points="-4,4 -4,-862.333 712,-862.333 712,4 -4,4"/>
<!-- Node1 -->
<g id="node1" class="node"><title>Node1</title>
<polygon fill="#bfbfbf" stroke="black" points="0.5,-420.833 0.5,-439.833 65.5,-439.833 65.5,-420.833 0.5,-420.833"/>
<text text-anchor="middle" x="33" y="-427.833" font-family="Helvetica,sans-Serif" font-size="10.00">writeToLog</text>
</g>
<!-- Node2 -->
<g id="node2" class="node"><title>Node2</title>
<g id="a_node2"><a xlink:href="../../d5/d60/pps-client_8cpp.html#aa8b4e9f304261f8d81a3d9b52991e3c4" target="_top" xlink:title="setClockToNTPtime">
<polygon fill="white" stroke="red" points="117,-838.833 117,-857.833 223,-857.833 223,-838.833 117,-838.833"/>
<text text-anchor="middle" x="170" y="-845.833" font-family="Helvetica,sans-Serif" font-size="10.00">setClockToNTPtime</text>
</a>
</g>
</g>
<!-- Node1&#45;&gt;Node2 -->
<g id="edge1" class="edge"><title>Node1&#45;&gt;Node2</title>
<path fill="none" stroke="midnightblue" d="M34.861,-450.568C38.322,-522.777 53.4578,-766.569 102,-824.333 107.326,-830.671 114.453,-835.335 122.074,-838.768"/>
<polygon fill="midnightblue" stroke="midnightblue" points="38.3387,-449.995 34.3878,-440.165 31.3459,-450.314 38.3387,-449.995"/>
</g>
<!-- Node3 -->
<g id="node3" class="node"><title>Node3</title>
<g id="a_node3"><a xlink:href="../../d5/d60/pps-client_8cpp.html#a510df19cb6ad4f22a7823cbc0852b9e9" target="_top" xlink:title="checkPPSInterrupt">
<polygon fill="white" stroke="black" points="420.5,-762.833 420.5,-781.833 519.5,-781.833 519.5,-762.833 420.5,-762.833"/>
<text text-anchor="middle" x="470" y="-769.833" font-family="Helvetica,sans-Serif" font-size="10.00">checkPPSInterrupt</text>
</a>
</g>
</g>
<!-- Node1&#45;&gt;Node3 -->
<g id="edge2" class="edge"><title>Node1&#45;&gt;Node3</title>
<path fill="none" stroke="midnightblue" d="M35.2179,-450.281C39.5328,-513.706 56.36,-708.888 102,-748.333 148.377,-788.415 331.626,-781.874 420.352,-776.099"/>
<polygon fill="midnightblue" stroke="midnightblue" points="38.6936,-449.791 34.5537,-440.038 31.7083,-450.244 38.6936,-449.791"/>
</g>
<!-- Node4 -->
<g id="node4" class="node"><title>Node4</title>
<g id="a_node4"><a xlink:href="../../d5/d60/pps-client_8cpp.html#a4b3bdab744bd7ed860326323fad180f2" target="_top" xlink:title="waitForPPS">
<polygon fill="white" stroke="black" points="564.5,-610.833 564.5,-629.833 633.5,-629.833 633.5,-610.833 564.5,-610.833"/>
<text text-anchor="middle" x="599" y="-617.833" font-family="Helvetica,sans-Serif" font-size="10.00">waitForPPS</text>
</a>
</g>
</g>
<!-- Node1&#45;&gt;Node4 -->
<g id="edge9" class="edge"><title>Node1&#45;&gt;Node4</title>
<path fill="none" stroke="midnightblue" d="M35.674,-450.176C41.0944,-509.156 60.2861,-681.406 102,-715.333 138.733,-745.21 486.233,-726.637 528,-704.333 560.319,-687.076 583.693,-648.096 593.24,-629.956"/>
<polygon fill="midnightblue" stroke="midnightblue" points="39.1384,-449.617 34.7709,-439.965 32.1656,-450.234 39.1384,-449.617"/>
</g>
<!-- Node5 -->
<g id="node5" class="node"><title>Node5</title>
<g id="a_node5"><a xlink:href="../../d5/d60/pps-client_8cpp.html#a0ddf1224851353fc92bfbff6f499fa97" target="_top" xlink:title="main">
<polygon fill="white" stroke="black" points="670,-287.833 670,-306.833 708,-306.833 708,-287.833 670,-287.833"/>
<text text-anchor="middle" x="689" y="-294.833" font-family="Helvetica,sans-Serif" font-size="10.00">main</text>
</a>
</g>
</g>
<!-- Node1&#45;&gt;Node5 -->
<g id="edge10" class="edge"><title>Node1&#45;&gt;Node5</title>
<path fill="none" stroke="midnightblue" d="M34.974,-450.181C38.674,-516.924 54.1583,-731.641 102,-777.333 174.136,-846.229 224.249,-810.333 324,-810.333 324,-810.333 324,-810.333 471,-810.333 575.996,-810.333 594.784,-736.731 634,-639.333 683.954,-515.267 687.866,-348.514 688.034,-306.996"/>
<polygon fill="midnightblue" stroke="midnightblue" points="38.4666,-449.946 34.4462,-440.144 31.4763,-450.314 38.4666,-449.946"/>
</g>
<!-- Node6 -->
<g id="node6" class="node"><title>Node6</title>
<g id="a_node6"><a xlink:href="../../d5/d60/pps-client_8cpp.html#a8a87b6ef0bf407467331509efdd5b3e9" target="_top" xlink:title="getInterruptDelay">
<polygon fill="white" stroke="black" points="424,-648.833 424,-667.833 516,-667.833 516,-648.833 424,-648.833"/>
<text text-anchor="middle" x="470" y="-655.833" font-family="Helvetica,sans-Serif" font-size="10.00">getInterruptDelay</text>
</a>
</g>
</g>
<!-- Node1&#45;&gt;Node6 -->
<g id="edge5" class="edge"><title>Node1&#45;&gt;Node6</title>
<path fill="none" stroke="midnightblue" d="M34.3375,-450.293C36.2026,-490.781 46.6621,-582.441 102,-626.333 150.668,-664.935 336.783,-663.38 423.737,-660.384"/>
<polygon fill="midnightblue" stroke="midnightblue" points="37.8294,-449.983 34.0053,-440.102 30.8331,-450.211 37.8294,-449.983"/>
</g>
<!-- Node7 -->
<g id="node7" class="node"><title>Node7</title>
<g id="a_node7"><a xlink:href="../../d5/d60/pps-client_8cpp.html#a4610ca59593e517fde46aa10657a7891" target="_top" xlink:title="readPPS_SetTime">
<polygon fill="white" stroke="black" points="421,-610.833 421,-629.833 519,-629.833 519,-610.833 421,-610.833"/>
<text text-anchor="middle" x="470" y="-617.833" font-family="Helvetica,sans-Serif" font-size="10.00">readPPS_SetTime</text>
</a>
</g>
</g>
<!-- Node1&#45;&gt;Node7 -->
<g id="edge7" class="edge"><title>Node1&#45;&gt;Node7</title>
<path fill="none" stroke="midnightblue" d="M36.0905,-450.032C40.8971,-484.487 56.1124,-555.179 102,-588.333 198.944,-658.376 350.084,-643.166 424.516,-629.878"/>
<polygon fill="midnightblue" stroke="midnightblue" points="39.5314,-449.337 34.8302,-439.843 32.5843,-450.197 39.5314,-449.337"/>
</g>
<!-- Node8 -->
<g id="node8" class="node"><title>Node8</title>
<g id="a_node8"><a xlink:href="../../d0/d3e/pps-files_8cpp.html#a459e7950f1def63780ba7fda8e3c12d2" target="_top" xlink:title="read_logerr">
<polygon fill="white" stroke="red" points="137.5,-344.833 137.5,-363.833 202.5,-363.833 202.5,-344.833 137.5,-344.833"/>
<text text-anchor="middle" x="170" y="-351.833" font-family="Helvetica,sans-Serif" font-size="10.00">read_logerr</text>
</a>
</g>
</g>
<!-- Node1&#45;&gt;Node8 -->
<g id="edge11" class="edge"><title>Node1&#45;&gt;Node8</title>
<path fill="none" stroke="midnightblue" d="M52.1299,-413.974C65.2466,-402.785 83.7961,-388.241 102,-378.333 113.07,-372.309 125.955,-367.275 137.451,-363.399"/>
<polygon fill="midnightblue" stroke="midnightblue" points="49.5866,-411.548 44.353,-420.76 54.189,-416.822 49.5866,-411.548"/>
</g>
<!-- Node9 -->
<g id="node9" class="node"><title>Node9</title>
<g id="a_node9"><a xlink:href="../../d0/d3e/pps-files_8cpp.html#a7192857cf334ce14c00dd49dca3c541a" target="_top" xlink:title="readConfigFile">
<polygon fill="white" stroke="red" points="285,-382.833 285,-401.833 365,-401.833 365,-382.833 285,-382.833"/>
<text text-anchor="middle" x="325" y="-389.833" font-family="Helvetica,sans-Serif" font-size="10.00">readConfigFile</text>
</a>
</g>
</g>
<!-- Node1&#45;&gt;Node9 -->
<g id="edge35" class="edge"><title>Node1&#45;&gt;Node9</title>
<path fill="none" stroke="midnightblue" d="M75.841,-424.851C131.726,-417.528 230.015,-404.649 284.622,-397.493"/>
<polygon fill="midnightblue" stroke="midnightblue" points="75.0476,-421.425 65.5871,-426.194 75.9571,-428.365 75.0476,-421.425"/>
</g>
<!-- Node10 -->
<g id="node10" class="node"><title>Node10</title>
<g id="a_node10"><a xlink:href="../../d0/d3e/pps-files_8cpp.html#a63902ed5404b3607594a3ad7d080da10" target="_top" xlink:title="disableNTP">
<polygon fill="white" stroke="black" points="436,-183.833 436,-202.833 504,-202.833 504,-183.833 436,-183.833"/>
<text text-anchor="middle" x="470" y="-190.833" font-family="Helvetica,sans-Serif" font-size="10.00">disableNTP</text>
</a>
</g>
</g>
<!-- Node1&#45;&gt;Node10 -->
<g id="edge41" class="edge"><title>Node1&#45;&gt;Node10</title>
<path fill="none" stroke="midnightblue" d="M34.4161,-410.397C36.355,-339.336 46.9358,-100.176 102,-53.3334 194.761,25.5774 268.954,7.74194 376,-50.3334 430.404,-79.8491 457.963,-156.483 466.248,-183.628"/>
<polygon fill="midnightblue" stroke="midnightblue" points="30.9112,-410.558 34.1664,-420.64 37.9092,-410.728 30.9112,-410.558"/>
</g>
<!-- Node11 -->
<g id="node11" class="node"><title>Node11</title>
<g id="a_node11"><a xlink:href="../../d0/d3e/pps-files_8cpp.html#a0ff8b8ea02b0483a116f8b5089546ea4" target="_top" xlink:title="copyMajorTo">
<polygon fill="white" stroke="black" points="288.5,-306.833 288.5,-325.833 361.5,-325.833 361.5,-306.833 288.5,-306.833"/>
<text text-anchor="middle" x="325" y="-313.833" font-family="Helvetica,sans-Serif" font-size="10.00">copyMajorTo</text>
</a>
</g>
</g>
<!-- Node1&#45;&gt;Node11 -->
<g id="edge42" class="edge"><title>Node1&#45;&gt;Node11</title>
<path fill="none" stroke="midnightblue" d="M41.7088,-411.174C51.864,-388.715 72.0219,-352.397 102,-335.333 160.495,-302.038 242.032,-305.226 288.265,-310.684"/>
<polygon fill="midnightblue" stroke="midnightblue" points="38.361,-410.101 37.6373,-420.671 44.7947,-412.859 38.361,-410.101"/>
</g>
<!-- Node12 -->
<g id="node12" class="node"><title>Node12</title>
<g id="a_node12"><a xlink:href="../../d0/d3e/pps-files_8cpp.html#acd69b12da38af4c9a820f9969856370f" target="_top" xlink:title="driver_load">
<polygon fill="white" stroke="black" points="438,-287.833 438,-306.833 502,-306.833 502,-287.833 438,-287.833"/>
<text text-anchor="middle" x="470" y="-294.833" font-family="Helvetica,sans-Serif" font-size="10.00">driver_load</text>
</a>
</g>
</g>
<!-- Node1&#45;&gt;Node12 -->
<g id="edge43" class="edge"><title>Node1&#45;&gt;Node12</title>
<path fill="none" stroke="midnightblue" d="M37.9309,-410.809C45.008,-381.396 62.9532,-326.584 102,-302.333 209.315,-235.684 370.514,-269.265 437.781,-287.807"/>
<polygon fill="midnightblue" stroke="midnightblue" points="34.4807,-410.201 35.7293,-420.722 41.3142,-411.719 34.4807,-410.201"/>
</g>
<!-- Node13 -->
<g id="node13" class="node"><title>Node13</title>
<g id="a_node13"><a xlink:href="../../dc/d4f/pps-sntp_8cpp.html#a1121c37b30e0ab417a95d6be065a0666" target="_top" xlink:title="allocNTPServerList">
<polygon fill="white" stroke="black" points="274.5,-420.833 274.5,-439.833 375.5,-439.833 375.5,-420.833 274.5,-420.833"/>
<text text-anchor="middle" x="325" y="-427.833" font-family="Helvetica,sans-Serif" font-size="10.00">allocNTPServerList</text>
</a>
</g>
</g>
<!-- Node1&#45;&gt;Node13 -->
<g id="edge46" class="edge"><title>Node1&#45;&gt;Node13</title>
<path fill="none" stroke="midnightblue" d="M75.8885,-430.333C128.421,-430.333 218.369,-430.333 274.319,-430.333"/>
<polygon fill="midnightblue" stroke="midnightblue" points="75.5872,-426.834 65.5871,-430.333 75.5871,-433.834 75.5872,-426.834"/>
</g>
<!-- Node14 -->
<g id="node14" class="node"><title>Node14</title>
<g id="a_node14"><a xlink:href="../../dc/d4f/pps-sntp_8cpp.html#a00920970793070954118aaecfa6024e0" target="_top" xlink:title="waitForNTPServers">
<polygon fill="white" stroke="black" points="418.5,-420.833 418.5,-439.833 521.5,-439.833 521.5,-420.833 418.5,-420.833"/>
<text text-anchor="middle" x="470" y="-427.833" font-family="Helvetica,sans-Serif" font-size="10.00">waitForNTPServers</text>
</a>
</g>
</g>
<!-- Node1&#45;&gt;Node14 -->
<g id="edge47" class="edge"><title>Node1&#45;&gt;Node14</title>
<path fill="none" stroke="midnightblue" d="M75.5751,-440.086C84.2618,-441.787 93.3951,-443.33 102,-444.333 222.979,-458.437 254.82,-461.586 376,-449.333 394.363,-447.477 414.459,-443.608 431.257,-439.843"/>
<polygon fill="midnightblue" stroke="midnightblue" points="76.1418,-436.629 65.6412,-438.039 74.7292,-443.485 76.1418,-436.629"/>
</g>
<!-- Node15 -->
<g id="node15" class="node"><title>Node15</title>
<g id="a_node15"><a xlink:href="../../dc/d4f/pps-sntp_8cpp.html#ab6d786ab6487a8937306f50e65b1e4cd" target="_top" xlink:title="makeSNTPTimeQuery">
<polygon fill="white" stroke="black" points="412,-553.833 412,-572.833 528,-572.833 528,-553.833 412,-553.833"/>
<text text-anchor="middle" x="470" y="-560.833" font-family="Helvetica,sans-Serif" font-size="10.00">makeSNTPTimeQuery</text>
</a>
</g>
</g>
<!-- Node1&#45;&gt;Node15 -->
<g id="edge50" class="edge"><title>Node1&#45;&gt;Node15</title>
<path fill="none" stroke="midnightblue" d="M41.7605,-449.402C51.9667,-471.773 72.1749,-508.004 102,-525.333 153.231,-555.101 322.077,-561.69 411.792,-563.055"/>
<polygon fill="midnightblue" stroke="midnightblue" points="44.8514,-447.732 37.6656,-439.947 38.4279,-450.514 44.8514,-447.732"/>
</g>
<!-- Node16 -->
<g id="node16" class="node"><title>Node16</title>
<g id="a_node16"><a xlink:href="../../d0/d3e/pps-files_8cpp.html#a94ad6f36dae10e5652ea241b11d2e5c7" target="_top" xlink:title="open_logerr">
<polygon fill="white" stroke="red" points="136.5,-230.833 136.5,-249.833 203.5,-249.833 203.5,-230.833 136.5,-230.833"/>
<text text-anchor="middle" x="170" y="-237.833" font-family="Helvetica,sans-Serif" font-size="10.00">open_logerr</text>
</a>
</g>
</g>
<!-- Node1&#45;&gt;Node16 -->
<g id="edge24" class="edge"><title>Node1&#45;&gt;Node16</title>
<path fill="none" stroke="midnightblue" d="M36.8237,-410.353C42.7254,-375.859 59.5302,-304.941 102,-264.333 111.377,-255.368 124.333,-249.719 136.355,-246.175"/>
<polygon fill="midnightblue" stroke="midnightblue" points="33.3149,-410.136 35.2189,-420.558 40.2299,-411.224 33.3149,-410.136"/>
</g>
<!-- Node17 -->
<g id="node17" class="node"><title>Node17</title>
<g id="a_node17"><a xlink:href="../../d0/d3e/pps-files_8cpp.html#a9942302e3e5272291f62fda42bdf6319" target="_top" xlink:title="createPIDfile">
<polygon fill="white" stroke="black" points="288,-116.833 288,-135.833 362,-135.833 362,-116.833 288,-116.833"/>
<text text-anchor="middle" x="325" y="-123.833" font-family="Helvetica,sans-Serif" font-size="10.00">createPIDfile</text>
</a>
</g>
</g>
<!-- Node1&#45;&gt;Node17 -->
<g id="edge34" class="edge"><title>Node1&#45;&gt;Node17</title>
<path fill="none" stroke="midnightblue" d="M35.3911,-410.639C40.1397,-349.705 57.9251,-166.191 102,-130.333 157.468,-85.2065 249.114,-103.378 295.384,-116.809"/>
<polygon fill="midnightblue" stroke="midnightblue" points="31.8852,-410.588 34.6318,-420.821 38.8659,-411.109 31.8852,-410.588"/>
</g>
<!-- Node18 -->
<g id="node18" class="node"><title>Node18</title>
<g id="a_node18"><a xlink:href="../../d0/d3e/pps-files_8cpp.html#a180a91d8d62c36158e3b769ac35aa01e" target="_top" xlink:title="replaceNTPConfig">
<polygon fill="white" stroke="red" points="276.5,-154.833 276.5,-173.833 373.5,-173.833 373.5,-154.833 276.5,-154.833"/>
<text text-anchor="middle" x="325" y="-161.833" font-family="Helvetica,sans-Serif" font-size="10.00">replaceNTPConfig</text>
</a>
</g>
</g>
<!-- Node1&#45;&gt;Node18 -->
<g id="edge40" class="edge"><title>Node1&#45;&gt;Node18</title>
<path fill="none" stroke="midnightblue" d="M35.6295,-410.435C40.9242,-351.298 59.7975,-178.651 102,-145.333 129.477,-123.641 229.076,-142.121 285.077,-154.811"/>
<polygon fill="midnightblue" stroke="midnightblue" points="32.1188,-410.411 34.7487,-420.674 39.093,-411.011 32.1188,-410.411"/>
</g>
<!-- Node19 -->
<g id="node19" class="node"><title>Node19</title>
<g id="a_node19"><a xlink:href="../../d0/d3e/pps-files_8cpp.html#ad046d9f994e8b0cb8dae1a628c405393" target="_top" xlink:title="alignNumbersAfter">
<polygon fill="white" stroke="red" points="121,-192.833 121,-211.833 219,-211.833 219,-192.833 121,-192.833"/>
<text text-anchor="middle" x="170" y="-199.833" font-family="Helvetica,sans-Serif" font-size="10.00">alignNumbersAfter</text>
</a>
</g>
</g>
<!-- Node1&#45;&gt;Node19 -->
<g id="edge36" class="edge"><title>Node1&#45;&gt;Node19</title>
<path fill="none" stroke="midnightblue" d="M34.526,-410.728C36.7191,-369.551 47.7209,-273.576 102,-221.333 107.314,-216.219 113.899,-212.463 120.849,-209.709"/>
<polygon fill="midnightblue" stroke="midnightblue" points="31.0255,-410.671 34.1124,-420.806 38.0196,-410.958 31.0255,-410.671"/>
</g>
<!-- Node20 -->
<g id="node20" class="node"><title>Node20</title>
<g id="a_node20"><a xlink:href="../../d0/d3e/pps-files_8cpp.html#a6bcf95536c2895ba1756f092de49baa3" target="_top" xlink:title="alignTokens">
<polygon fill="white" stroke="red" points="135.5,-154.833 135.5,-173.833 204.5,-173.833 204.5,-154.833 135.5,-154.833"/>
<text text-anchor="middle" x="170" y="-161.833" font-family="Helvetica,sans-Serif" font-size="10.00">alignTokens</text>
</a>
</g>
</g>
<!-- Node1&#45;&gt;Node20 -->
<g id="edge37" class="edge"><title>Node1&#45;&gt;Node20</title>
<path fill="none" stroke="midnightblue" d="M33.3523,-410.436C32.9697,-363.898 38.7492,-247.072 102,-183.333 110.772,-174.494 123.331,-169.692 135.21,-167.109"/>
<polygon fill="midnightblue" stroke="midnightblue" points="29.8576,-410.749 33.5511,-420.679 36.8563,-410.613 29.8576,-410.749"/>
</g>
<!-- Node21 -->
<g id="node21" class="node"><title>Node21</title>
<g id="a_node21"><a xlink:href="../../d0/d3e/pps-files_8cpp.html#a4ec814a023712bff67399cc287385ed3" target="_top" xlink:title="restartNTP">
<polygon fill="white" stroke="red" points="292.5,-59.8334 292.5,-78.8334 357.5,-78.8334 357.5,-59.8334 292.5,-59.8334"/>
<text text-anchor="middle" x="325" y="-66.8334" font-family="Helvetica,sans-Serif" font-size="10.00">restartNTP</text>
</a>
</g>
</g>
<!-- Node1&#45;&gt;Node21 -->
<g id="edge38" class="edge"><title>Node1&#45;&gt;Node21</title>
<path fill="none" stroke="midnightblue" d="M35.1158,-410.413C39.1937,-345.285 55.56,-140.373 102,-97.3334 153.999,-49.1425 244.682,-55.4313 292.468,-63.015"/>
<polygon fill="midnightblue" stroke="midnightblue" points="31.6118,-410.377 34.5103,-420.567 38.5994,-410.793 31.6118,-410.377"/>
</g>
<!-- Node22 -->
<g id="node22" class="node"><title>Node22</title>
<g id="a_node22"><a xlink:href="../../d0/d3e/pps-files_8cpp.html#a6092b615f5e717c843a1948b2a34cf6a" target="_top" xlink:title="TERMhandler">
<polygon fill="white" stroke="black" points="131.5,-496.833 131.5,-515.833 208.5,-515.833 208.5,-496.833 131.5,-496.833"/>
<text text-anchor="middle" x="170" y="-503.833" font-family="Helvetica,sans-Serif" font-size="10.00">TERMhandler</text>
</a>
</g>
</g>
<!-- Node1&#45;&gt;Node22 -->
<g id="edge44" class="edge"><title>Node1&#45;&gt;Node22</title>
<path fill="none" stroke="midnightblue" d="M52.1299,-446.693C65.2466,-457.882 83.7961,-472.426 102,-482.333 112.636,-488.122 124.947,-492.995 136.092,-496.807"/>
<polygon fill="midnightblue" stroke="midnightblue" points="54.189,-443.845 44.353,-439.907 49.5866,-449.119 54.189,-443.845"/>
</g>
<!-- Node23 -->
<g id="node23" class="node"><title>Node23</title>
<g id="a_node23"><a xlink:href="../../dc/d4f/pps-sntp_8cpp.html#ad78b6046af5bbade4a7fc8941d689f44" target="_top" xlink:title="updateLog">
<polygon fill="white" stroke="black" points="294,-572.833 294,-591.833 356,-591.833 356,-572.833 294,-572.833"/>
<text text-anchor="middle" x="325" y="-579.833" font-family="Helvetica,sans-Serif" font-size="10.00">updateLog</text>
</a>
</g>
</g>
<!-- Node1&#45;&gt;Node23 -->
<g id="edge48" class="edge"><title>Node1&#45;&gt;Node23</title>
<path fill="none" stroke="midnightblue" d="M38.2815,-449.907C45.7501,-478.928 64.1213,-532.692 102,-558.333 160.427,-597.884 247.984,-593.329 293.721,-587.391"/>
<polygon fill="midnightblue" stroke="midnightblue" points="41.6673,-449.017 35.9349,-440.107 34.8597,-450.647 41.6673,-449.017"/>
</g>
<!-- Node24 -->
<g id="node24" class="node"><title>Node24</title>
<g id="a_node24"><a xlink:href="../../dc/d4f/pps-sntp_8cpp.html#a95b1abb556e50d5bce590653d66f8b7d" target="_top" xlink:title="allocInitializeSNTPThreads">
<polygon fill="white" stroke="black" points="102.5,-686.833 102.5,-705.833 237.5,-705.833 237.5,-686.833 102.5,-686.833"/>
<text text-anchor="middle" x="170" y="-693.833" font-family="Helvetica,sans-Serif" font-size="10.00">allocInitializeSNTPThreads</text>
</a>
</g>
</g>
<!-- Node1&#45;&gt;Node24 -->
<g id="edge51" class="edge"><title>Node1&#45;&gt;Node24</title>
<path fill="none" stroke="midnightblue" d="M33.7848,-450.181C34.38,-495.614 42.1928,-608.183 102,-672.333 107.898,-678.66 115.58,-683.321 123.629,-686.754"/>
<polygon fill="midnightblue" stroke="midnightblue" points="37.2848,-450.139 33.7617,-440.147 30.2848,-450.155 37.2848,-450.139"/>
</g>
<!-- Node3&#45;&gt;Node4 -->
<g id="edge3" class="edge"><title>Node3&#45;&gt;Node4</title>
<path fill="none" stroke="midnightblue" d="M513.104,-758.515C518.469,-755.667 523.609,-752.298 528,-748.333 566.161,-713.876 587.817,-653.579 595.148,-630.09"/>
<polygon fill="midnightblue" stroke="midnightblue" points="511.51,-755.396 503.957,-762.826 514.495,-761.728 511.51,-755.396"/>
</g>
<!-- Node4&#45;&gt;Node5 -->
<g id="edge4" class="edge"><title>Node4&#45;&gt;Node5</title>
<path fill="none" stroke="midnightblue" d="M605.345,-600.713C622.101,-539.214 673.203,-351.646 685.377,-306.962"/>
<polygon fill="midnightblue" stroke="midnightblue" points="601.885,-600.098 602.634,-610.667 608.639,-601.938 601.885,-600.098"/>
</g>
<!-- Node6&#45;&gt;Node4 -->
<g id="edge6" class="edge"><title>Node6&#45;&gt;Node4</title>
<path fill="none" stroke="midnightblue" d="M512.894,-645.798C530.171,-640.629 549.871,-634.734 565.963,-629.919"/>
<polygon fill="midnightblue" stroke="midnightblue" points="511.624,-642.525 503.047,-648.744 513.631,-649.231 511.624,-642.525"/>
</g>
<!-- Node7&#45;&gt;Node4 -->
<g id="edge8" class="edge"><title>Node7&#45;&gt;Node4</title>
<path fill="none" stroke="midnightblue" d="M529.017,-620.333C541.045,-620.333 553.338,-620.333 564.151,-620.333"/>
<polygon fill="midnightblue" stroke="midnightblue" points="529.013,-616.834 519.013,-620.333 529.013,-623.834 529.013,-616.834"/>
</g>
<!-- Node8&#45;&gt;Node9 -->
<g id="edge12" class="edge"><title>Node8&#45;&gt;Node9</title>
<path fill="none" stroke="midnightblue" d="M212.43,-364.623C235.206,-370.28 263.277,-377.252 285.563,-382.787"/>
<polygon fill="midnightblue" stroke="midnightblue" points="213.251,-361.221 202.702,-362.207 211.563,-368.014 213.251,-361.221"/>
</g>
<!-- Node8&#45;&gt;Node10 -->
<g id="edge14" class="edge"><title>Node8&#45;&gt;Node10</title>
<path fill="none" stroke="midnightblue" d="M212.892,-360.694C256.856,-365.16 326.349,-365.771 376,-335.333 401.545,-319.673 395.654,-303.445 412,-278.333 429.835,-250.934 451.478,-219.01 462.242,-203.22"/>
<polygon fill="midnightblue" stroke="midnightblue" points="213.163,-357.202 202.834,-359.559 212.379,-364.158 213.163,-357.202"/>
</g>
<!-- Node8&#45;&gt;Node11 -->
<g id="edge16" class="edge"><title>Node8&#45;&gt;Node11</title>
<path fill="none" stroke="midnightblue" d="M212.48,-344.031C236.199,-338.14 265.645,-330.827 288.323,-325.194"/>
<polygon fill="midnightblue" stroke="midnightblue" points="211.563,-340.653 202.702,-346.46 213.251,-347.446 211.563,-340.653"/>
</g>
<!-- Node8&#45;&gt;Node13 -->
<g id="edge19" class="edge"><title>Node8&#45;&gt;Node13</title>
<path fill="none" stroke="midnightblue" d="M195.397,-369.129C215.951,-381.277 246.346,-398.507 274,-411.333 281.245,-414.694 289.265,-417.941 296.721,-420.771"/>
<polygon fill="midnightblue" stroke="midnightblue" points="197.073,-366.053 186.691,-363.939 193.489,-372.066 197.073,-366.053"/>
</g>
<!-- Node9&#45;&gt;Node4 -->
<g id="edge13" class="edge"><title>Node9&#45;&gt;Node4</title>
<path fill="none" stroke="midnightblue" d="M375.203,-383.068C419.867,-377.593 485.12,-377.313 528,-411.333 592.75,-462.706 598.068,-576.177 598.15,-610.383"/>
<polygon fill="midnightblue" stroke="midnightblue" points="374.6,-379.617 365.161,-384.428 375.54,-386.554 374.6,-379.617"/>
</g>
<!-- Node10&#45;&gt;Node5 -->
<g id="edge15" class="edge"><title>Node10&#45;&gt;Node5</title>
<path fill="none" stroke="midnightblue" d="M514.423,-193.888C549.162,-196.176 597.868,-203.672 634,-226.333 658.403,-241.638 675.851,-272.184 683.569,-287.744"/>
<polygon fill="midnightblue" stroke="midnightblue" points="514.294,-190.376 504.12,-193.334 513.918,-197.366 514.294,-190.376"/>
</g>
<!-- Node11&#45;&gt;Node12 -->
<g id="edge17" class="edge"><title>Node11&#45;&gt;Node12</title>
<path fill="none" stroke="midnightblue" d="M371.631,-310.271C393.151,-307.411 418.284,-304.072 437.625,-301.502"/>
<polygon fill="midnightblue" stroke="midnightblue" points="371.168,-306.801 361.716,-311.588 372.09,-313.74 371.168,-306.801"/>
</g>
<!-- Node12&#45;&gt;Node5 -->
<g id="edge18" class="edge"><title>Node12&#45;&gt;Node5</title>
<path fill="none" stroke="midnightblue" d="M512.324,-297.333C559.688,-297.333 635.211,-297.333 669.721,-297.333"/>
<polygon fill="midnightblue" stroke="midnightblue" points="512.091,-293.834 502.091,-297.333 512.091,-300.834 512.091,-293.834"/>
</g>
<!-- Node13&#45;&gt;Node14 -->
<g id="edge20" class="edge"><title>Node13&#45;&gt;Node14</title>
<path fill="none" stroke="midnightblue" d="M385.753,-430.333C396.48,-430.333 407.569,-430.333 418.019,-430.333"/>
<polygon fill="midnightblue" stroke="midnightblue" points="385.613,-426.834 375.613,-430.333 385.613,-433.834 385.613,-426.834"/>
</g>
<!-- Node13&#45;&gt;Node15 -->
<g id="edge22" class="edge"><title>Node13&#45;&gt;Node15</title>
<path fill="none" stroke="midnightblue" d="M343.953,-447.031C374.138,-475.105 434.134,-530.905 458.423,-553.496"/>
<polygon fill="midnightblue" stroke="midnightblue" points="345.99,-444.146 336.284,-439.898 341.223,-449.272 345.99,-444.146"/>
</g>
<!-- Node14&#45;&gt;Node5 -->
<g id="edge21" class="edge"><title>Node14&#45;&gt;Node5</title>
<path fill="none" stroke="midnightblue" d="M495.393,-415.383C540.282,-387.87 634.802,-329.939 672.244,-306.99"/>
<polygon fill="midnightblue" stroke="midnightblue" points="493.303,-412.559 486.606,-420.768 496.961,-418.527 493.303,-412.559"/>
</g>
<!-- Node15&#45;&gt;Node4 -->
<g id="edge23" class="edge"><title>Node15&#45;&gt;Node4</title>
<path fill="none" stroke="midnightblue" d="M501.652,-577.091C524.857,-587.505 556.136,-601.544 576.674,-610.762"/>
<polygon fill="midnightblue" stroke="midnightblue" points="502.813,-573.776 492.257,-572.874 499.947,-580.162 502.813,-573.776"/>
</g>
<!-- Node16&#45;&gt;Node5 -->
<g id="edge25" class="edge"><title>Node16&#45;&gt;Node5</title>
<path fill="none" stroke="midnightblue" d="M213.73,-243.625C255.23,-246.93 319.995,-252.376 376,-258.333 487.821,-270.227 621.707,-288.233 669.74,-294.813"/>
<polygon fill="midnightblue" stroke="midnightblue" points="213.945,-240.131 203.7,-242.832 213.393,-247.109 213.945,-240.131"/>
</g>
<!-- Node16&#45;&gt;Node9 -->
<g id="edge28" class="edge"><title>Node16&#45;&gt;Node9</title>
<path fill="none" stroke="midnightblue" d="M187.903,-257.126C220.064,-289.076 289.107,-357.668 314.433,-382.829"/>
<polygon fill="midnightblue" stroke="midnightblue" points="190.132,-254.407 180.571,-249.842 185.198,-259.373 190.132,-254.407"/>
</g>
<!-- Node16&#45;&gt;Node10 -->
<g id="edge31" class="edge"><title>Node16&#45;&gt;Node10</title>
<path fill="none" stroke="midnightblue" d="M213.641,-233.608C273.551,-224.159 381.385,-207.152 435.747,-198.578"/>
<polygon fill="midnightblue" stroke="midnightblue" points="213.076,-230.154 203.744,-235.169 214.167,-237.068 213.076,-230.154"/>
</g>
<!-- Node16&#45;&gt;Node11 -->
<g id="edge32" class="edge"><title>Node16&#45;&gt;Node11</title>
<path fill="none" stroke="midnightblue" d="M199.701,-254.59C230.423,-269.851 278.308,-293.637 304.78,-306.786"/>
<polygon fill="midnightblue" stroke="midnightblue" points="200.891,-251.273 190.378,-249.959 197.776,-257.542 200.891,-251.273"/>
</g>
<!-- Node16&#45;&gt;Node13 -->
<g id="edge33" class="edge"><title>Node16&#45;&gt;Node13</title>
<path fill="none" stroke="midnightblue" d="M184.916,-258.082C199.188,-276.719 221.564,-307.172 238,-335.333 256.84,-367.613 246.546,-385.972 274,-411.333 278.161,-415.177 283.178,-418.268 288.406,-420.746"/>
<polygon fill="midnightblue" stroke="midnightblue" points="187.509,-255.714 178.622,-249.945 181.971,-259.996 187.509,-255.714"/>
</g>
<!-- Node16&#45;&gt;Node17 -->
<g id="edge26" class="edge"><title>Node16&#45;&gt;Node17</title>
<path fill="none" stroke="midnightblue" d="M213.541,-234.119C222.332,-231.309 231.026,-227.236 238,-221.333 266.529,-197.188 246.546,-170.695 274,-145.333 278.161,-141.49 283.178,-138.399 288.406,-135.921"/>
<polygon fill="midnightblue" stroke="midnightblue" points="212.404,-230.8 203.66,-236.784 214.227,-237.559 212.404,-230.8"/>
</g>
<!-- Node16&#45;&gt;Node18 -->
<g id="edge29" class="edge"><title>Node16&#45;&gt;Node18</title>
<path fill="none" stroke="midnightblue" d="M213.346,-231.559C221.804,-228.924 230.412,-225.569 238,-221.333 256.952,-210.754 256.022,-200.495 274,-188.333 282.215,-182.777 291.913,-177.806 300.572,-173.85"/>
<polygon fill="midnightblue" stroke="midnightblue" points="212.224,-228.239 203.556,-234.331 214.131,-234.974 212.224,-228.239"/>
</g>
<!-- Node17&#45;&gt;Node5 -->
<g id="edge27" class="edge"><title>Node17&#45;&gt;Node5</title>
<path fill="none" stroke="midnightblue" d="M372.647,-125.38C437.688,-126.407 556.356,-137.106 634,-196.333 665.302,-220.211 680.487,-267.572 685.761,-287.806"/>
<polygon fill="midnightblue" stroke="midnightblue" points="372.329,-121.877 362.3,-125.292 372.269,-128.877 372.329,-121.877"/>
</g>
<!-- Node18&#45;&gt;Node10 -->
<g id="edge30" class="edge"><title>Node18&#45;&gt;Node10</title>
<path fill="none" stroke="midnightblue" d="M383.021,-175.897C400.952,-179.533 420.151,-183.427 435.848,-186.61"/>
<polygon fill="midnightblue" stroke="midnightblue" points="383.716,-172.467 373.22,-173.909 382.325,-179.327 383.716,-172.467"/>
</g>
<!-- Node21&#45;&gt;Node10 -->
<g id="edge39" class="edge"><title>Node21&#45;&gt;Node10</title>
<path fill="none" stroke="midnightblue" d="M347.489,-84.9537C356.456,-91.6535 366.885,-99.686 376,-107.333 407.503,-133.766 442.606,-167.47 459.239,-183.719"/>
<polygon fill="midnightblue" stroke="midnightblue" points="349.552,-82.1263 339.43,-78.9948 345.39,-87.7546 349.552,-82.1263"/>
</g>
<!-- Node22&#45;&gt;Node4 -->
<g id="edge45" class="edge"><title>Node22&#45;&gt;Node4</title>
<path fill="none" stroke="midnightblue" d="M218.63,-501.179C289.989,-495.629 427.041,-493.524 528,-544.333 558.284,-559.575 582.006,-593.736 592.349,-610.573"/>
<polygon fill="midnightblue" stroke="midnightblue" points="218.264,-497.697 208.59,-502.016 218.846,-504.673 218.264,-497.697"/>
</g>
<!-- Node23&#45;&gt;Node15 -->
<g id="edge49" class="edge"><title>Node23&#45;&gt;Node15</title>
<path fill="none" stroke="midnightblue" d="M366.648,-576.933C380.708,-575.065 396.738,-572.935 411.873,-570.924"/>
<polygon fill="midnightblue" stroke="midnightblue" points="365.778,-573.517 356.327,-578.304 366.701,-580.456 365.778,-573.517"/>
</g>
<!-- Node24&#45;&gt;Node4 -->
<g id="edge52" class="edge"><title>Node24&#45;&gt;Node4</title>
<path fill="none" stroke="midnightblue" d="M247.917,-705.653C322.216,-711.603 436.61,-712.6 528,-677.333 554.026,-667.29 577.702,-643.656 589.713,-630.187"/>
<polygon fill="midnightblue" stroke="midnightblue" points="247.967,-702.145 237.706,-704.784 247.373,-709.119 247.967,-702.145"/>
</g>
</g>
</svg>
