<?xml version="1.0" encoding="UTF-8" standalone="no"?>
<!DOCTYPE svg PUBLIC "-//W3C//DTD SVG 1.1//EN"
 "http://www.w3.org/Graphics/SVG/1.1/DTD/svg11.dtd">
<!-- Generated by graphviz version 2.36.0 (20140111.2315)
 -->
<!-- Title: printAcceptedArgs Pages: 1 -->
<svg width="386pt" height="47pt"
 viewBox="0.00 0.00 386.00 47.00" xmlns="http://www.w3.org/2000/svg" xmlns:xlink="http://www.w3.org/1999/xlink">
<g id="graph0" class="graph" transform="scale(1 1) rotate(0) translate(4 43)">
<title>printAcceptedArgs</title>
<polygon fill="white" stroke="none" points="-4,4 -4,-43 382,-43 382,4 -4,4"/>
<!-- Node1 -->
<g id="node1" class="node"><title>Node1</title>
<polygon fill="#bfbfbf" stroke="black" points="0.5,-0.5 0.5,-19.5 97.5,-19.5 97.5,-0.5 0.5,-0.5"/>
<text text-anchor="middle" x="49" y="-7.5" font-family="Helvetica,sans-Serif" font-size="10.00">printAcceptedArgs</text>
</g>
<!-- Node2 -->
<g id="node2" class="node"><title>Node2</title>
<g id="a_node2"><a xlink:href="../../d0/d3e/pps-files_8cpp.html#ac20a2f5a5d6284628d71e7e0cdc08248" target="_top" xlink:title="parseSaveDataRequest">
<polygon fill="white" stroke="black" points="134.5,-19.5 134.5,-38.5 255.5,-38.5 255.5,-19.5 134.5,-19.5"/>
<text text-anchor="middle" x="195" y="-26.5" font-family="Helvetica,sans-Serif" font-size="10.00">parseSaveDataRequest</text>
</a>
</g>
</g>
<!-- Node1&#45;&gt;Node2 -->
<g id="edge1" class="edge"><title>Node1&#45;&gt;Node2</title>
<path fill="none" stroke="midnightblue" d="M107.706,-17.614C116.502,-18.7746 125.594,-19.9743 134.429,-21.14"/>
<polygon fill="midnightblue" stroke="midnightblue" points="107.922,-14.1122 97.5501,-16.274 107.006,-21.0521 107.922,-14.1122"/>
</g>
<!-- Node3 -->
<g id="node3" class="node"><title>Node3</title>
<g id="a_node3"><a xlink:href="../../d0/d3e/pps-files_8cpp.html#aa3e1b9d34eeedb9b1d03863dee0b8e58" target="_top" xlink:title="accessDaemon">
<polygon fill="white" stroke="red" points="292.5,-0.5 292.5,-19.5 377.5,-19.5 377.5,-0.5 292.5,-0.5"/>
<text text-anchor="middle" x="335" y="-7.5" font-family="Helvetica,sans-Serif" font-size="10.00">accessDaemon</text>
</a>
</g>
</g>
<!-- Node1&#45;&gt;Node3 -->
<g id="edge3" class="edge"><title>Node1&#45;&gt;Node3</title>
<path fill="none" stroke="midnightblue" d="M107.788,-10C162.587,-10 243.58,-10 292.327,-10"/>
<polygon fill="midnightblue" stroke="midnightblue" points="107.535,-6.5001 97.5352,-10 107.535,-13.5001 107.535,-6.5001"/>
</g>
<!-- Node2&#45;&gt;Node3 -->
<g id="edge2" class="edge"><title>Node2&#45;&gt;Node3</title>
<path fill="none" stroke="midnightblue" d="M265.65,-19.4106C274.817,-18.1483 283.97,-16.8882 292.46,-15.7193"/>
<polygon fill="midnightblue" stroke="midnightblue" points="265.155,-15.9455 255.726,-20.7768 266.11,-22.8801 265.155,-15.9455"/>
</g>
</g>
</svg>
