<?xml version="1.0" encoding="UTF-8" standalone="no"?>
<!DOCTYPE svg PUBLIC "-//W3C//DTD SVG 1.1//EN"
 "http://www.w3.org/Graphics/SVG/1.1/DTD/svg11.dtd">
<!-- Generated by graphviz version 2.40.1 (20161225.0304)
 -->
<!-- Title: bufferStateParams Pages: 1 -->
<svg width="242pt" height="101pt"
 viewBox="0.00 0.00 242.01 101.00" xmlns="http://www.w3.org/2000/svg" xmlns:xlink="http://www.w3.org/1999/xlink">
<g id="graph0" class="graph" transform="scale(1 1) rotate(0) translate(4 97)">
<title>bufferStateParams</title>
<polygon fill="#ffffff" stroke="transparent" points="-4,4 -4,-97 238.0107,-97 238.0107,4 -4,4"/>
<!-- Node33 -->
<g id="node1" class="node">
<title>Node33</title>
<polygon fill="#bfbfbf" stroke="#000000" points="0,-37.5 0,-55.5 99.1982,-55.5 99.1982,-37.5 0,-37.5"/>
<text text-anchor="middle" x="49.5991" y="-43.5" font-family="Helvetica,sans-Serif" font-size="10.00" fill="#000000">bufferStateParams</text>
</g>
<!-- Node34 -->
<g id="node2" class="node">
<title>Node34</title>
<g id="a_node2"><a xlink:href="../../d0/d3e/pps-files_8cpp.html#ad046d9f994e8b0cb8dae1a628c405393" target="_top" xlink:title="alignNumbersAfter">
<polygon fill="#ffffff" stroke="#ff0000" points="135.1982,-74.5 135.1982,-92.5 234.0107,-92.5 234.0107,-74.5 135.1982,-74.5"/>
<text text-anchor="middle" x="184.6045" y="-80.5" font-family="Helvetica,sans-Serif" font-size="10.00" fill="#000000">alignNumbersAfter</text>
</a>
</g>
</g>
<!-- Node33&#45;&gt;Node34 -->
<g id="edge1" class="edge">
<title>Node33&#45;&gt;Node34</title>
<path fill="none" stroke="#191970" d="M82.6252,-55.5512C100.4405,-60.4338 122.6355,-66.5166 141.7662,-71.7596"/>
<polygon fill="#191970" stroke="#191970" points="140.882,-75.1463 151.4515,-74.414 142.7323,-68.3952 140.882,-75.1463"/>
</g>
<!-- Node38 -->
<g id="node3" class="node">
<title>Node38</title>
<g id="a_node3"><a xlink:href="../../d0/d3e/pps-files_8cpp.html#a6bcf95536c2895ba1756f092de49baa3" target="_top" xlink:title="alignTokens">
<polygon fill="#ffffff" stroke="#ff0000" points="150.1982,-37.5 150.1982,-55.5 219.0107,-55.5 219.0107,-37.5 150.1982,-37.5"/>
<text text-anchor="middle" x="184.6045" y="-43.5" font-family="Helvetica,sans-Serif" font-size="10.00" fill="#000000">alignTokens</text>
</a>
</g>
</g>
<!-- Node33&#45;&gt;Node38 -->
<g id="edge2" class="edge">
<title>Node33&#45;&gt;Node38</title>
<path fill="none" stroke="#191970" d="M99.4866,-46.5C112.7628,-46.5 127.0166,-46.5 139.9907,-46.5"/>
<polygon fill="#191970" stroke="#191970" points="140.0783,-50.0001 150.0782,-46.5 140.0782,-43.0001 140.0783,-50.0001"/>
</g>
<!-- Node36 -->
<g id="node4" class="node">
<title>Node36</title>
<g id="a_node4"><a xlink:href="../../d0/d3e/pps-files_8cpp.html#a6f609d689ebe787455ce220808ca3ba0" target="_top" xlink:title="bufferStatusMsg">
<polygon fill="#ffffff" stroke="#000000" points="140.2861,-.5 140.2861,-18.5 228.9229,-18.5 228.9229,-.5 140.2861,-.5"/>
<text text-anchor="middle" x="184.6045" y="-6.5" font-family="Helvetica,sans-Serif" font-size="10.00" fill="#000000">bufferStatusMsg</text>
</a>
</g>
</g>
<!-- Node33&#45;&gt;Node36 -->
<g id="edge3" class="edge">
<title>Node33&#45;&gt;Node36</title>
<path fill="none" stroke="#191970" d="M82.6252,-37.4488C100.4405,-32.5662 122.6355,-26.4834 141.7662,-21.2404"/>
<polygon fill="#191970" stroke="#191970" points="142.7323,-24.6048 151.4515,-18.586 140.882,-17.8537 142.7323,-24.6048"/>
</g>
</g>
</svg>
