<?xml version="1.0" encoding="UTF-8" standalone="no"?>
<!DOCTYPE svg PUBLIC "-//W3C//DTD SVG 1.1//EN"
 "http://www.w3.org/Graphics/SVG/1.1/DTD/svg11.dtd">
<!-- Generated by graphviz version 2.36.0 (20140111.2315)
 -->
<!-- Title: if Pages: 1 -->
<svg width="156pt" height="66pt"
 viewBox="0.00 0.00 156.00 66.00" xmlns="http://www.w3.org/2000/svg" xmlns:xlink="http://www.w3.org/1999/xlink">
<g id="graph0" class="graph" transform="scale(1 1) rotate(0) translate(4 62)">
<title>if</title>
<polygon fill="white" stroke="none" points="-4,4 -4,-62 152,-62 152,4 -4,4"/>
<!-- Node1 -->
<g id="node1" class="node"><title>Node1</title>
<polygon fill="#bfbfbf" stroke="black" points="0.5,-19.5 0.5,-38.5 29.5,-38.5 29.5,-19.5 0.5,-19.5"/>
<text text-anchor="middle" x="15" y="-26.5" font-family="Helvetica,sans-Serif" font-size="10.00">if</text>
</g>
<!-- Node2 -->
<g id="node2" class="node"><title>Node2</title>
<g id="a_node2"><a xlink:href="../../d2/d19/search_8js.html#a52066106482f8136aa9e0ec859e8188f" target="_top" xlink:title="SearchBox">
<polygon fill="white" stroke="black" points="74.5,-38.5 74.5,-57.5 139.5,-57.5 139.5,-38.5 74.5,-38.5"/>
<text text-anchor="middle" x="107" y="-45.5" font-family="Helvetica,sans-Serif" font-size="10.00">SearchBox</text>
</a>
</g>
</g>
<!-- Node1&#45;&gt;Node2 -->
<g id="edge1" class="edge"><title>Node1&#45;&gt;Node2</title>
<path fill="none" stroke="midnightblue" d="M39.4665,-33.954C50.0859,-36.1959 62.7987,-38.8797 74.2535,-41.298"/>
<polygon fill="midnightblue" stroke="midnightblue" points="40.1764,-30.5268 29.6691,-31.8857 38.7304,-37.3759 40.1764,-30.5268"/>
</g>
<!-- Node3 -->
<g id="node3" class="node"><title>Node3</title>
<g id="a_node3"><a xlink:href="../../d2/d19/search_8js.html#a9189b9f7a32b6bc78240f40348f7fe03" target="_top" xlink:title="SearchResults">
<polygon fill="white" stroke="black" points="66.5,-0.5 66.5,-19.5 147.5,-19.5 147.5,-0.5 66.5,-0.5"/>
<text text-anchor="middle" x="107" y="-7.5" font-family="Helvetica,sans-Serif" font-size="10.00">SearchResults</text>
</a>
</g>
</g>
<!-- Node1&#45;&gt;Node3 -->
<g id="edge2" class="edge"><title>Node1&#45;&gt;Node3</title>
<path fill="none" stroke="midnightblue" d="M39.6326,-24.0109C47.8536,-22.2754 57.3137,-20.2782 66.4674,-18.3458"/>
<polygon fill="midnightblue" stroke="midnightblue" points="38.7304,-20.6241 29.6691,-26.1143 40.1764,-27.4732 38.7304,-20.6241"/>
</g>
</g>
</svg>
